<svg width="22" height="22" viewBox="0 0 22 22" fill="none" xmlns="http://www.w3.org/2000/svg">
<path fill-rule="evenodd" clip-rule="evenodd" d="M10.5139 1.57636C10.7823 1.30788 11.2177 1.30788 11.4861 1.57636L19.7361 9.82636C19.8651 9.9553 19.9375 10.1302 19.9375 10.3125V19.9375C19.9375 20.3172 19.6297 20.625 19.25 20.625H13.0625C12.6828 20.625 12.375 20.3172 12.375 19.9375V14.4375H9.625V19.9375C9.625 20.3172 9.3172 20.625 8.9375 20.625H2.75C2.3703 20.625 2.0625 20.3172 2.0625 19.9375V10.3125C2.0625 10.1302 2.13493 9.9553 2.26386 9.82636L10.5139 1.57636ZM3.4375 10.5973V19.25H8.25V13.75C8.25 13.3703 8.5578 13.0625 8.9375 13.0625H13.0625C13.4422 13.0625 13.75 13.3703 13.75 13.75V19.25H18.5625V10.5973L11 3.03477L3.4375 10.5973Z" fill="#2256DD"/>
<path fill-rule="evenodd" clip-rule="evenodd" d="M17.875 3.4375V8.25L15.125 5.5V3.4375C15.125 3.0578 15.4328 2.75 15.8125 2.75H17.1875C17.5672 2.75 17.875 3.0578 17.875 3.4375Z" fill="#2256DD"/>
</svg>
