<svg width="38" height="38" viewBox="0 0 38 38" fill="none" xmlns="http://www.w3.org/2000/svg">
<path fill-rule="evenodd" clip-rule="evenodd" d="M-1.66103e-06 19C-2.5784e-06 8.50659 8.50659 2.5784e-06 19 1.66103e-06C29.4934 7.4367e-07 38 8.50659 38 19C38 29.4934 29.4934 38 19 38C8.50659 38 -7.4367e-07 29.4934 -1.66103e-06 19ZM17.8571 27.8125C17.8571 28.4683 18.3688 29 19 29C19.6312 29 20.1429 28.4683 20.1429 27.8125L20.1429 14.0544L25.049 19.1522C25.4953 19.6159 26.2189 19.6159 26.6653 19.1522C27.1116 18.6884 27.1116 17.9366 26.6653 17.4728L19.8081 10.3478C19.3618 9.88406 18.6382 9.88406 18.1919 10.3478L11.3347 17.4728C10.8884 17.9366 10.8884 18.6884 11.3347 19.1522C11.781 19.6159 12.5047 19.6159 12.951 19.1522L17.8571 14.0544L17.8571 27.8125Z" fill="#1C51E1"/>
</svg>
