<svg width="84" height="84" viewBox="0 0 84 84" fill="none" xmlns="http://www.w3.org/2000/svg">
<g filter="url(#filter0_d_3015_21338)">
<circle cx="42" cy="38" r="38" fill="#8E44AD" fill-opacity="0.2"/>
<path d="M58.5 29.75H60.75C61.0261 29.75 61.25 29.9739 61.25 30.25V37.5C61.25 37.7761 61.0261 38 60.75 38H58.5V29.75Z" fill="#8E44AD"/>
<path fill-rule="evenodd" clip-rule="evenodd" d="M43.375 28.375C44.1344 28.375 44.75 28.9906 44.75 29.75V39.375C44.75 40.1344 44.1344 40.75 43.375 40.75H36.5C35.7406 40.75 35.125 40.1344 35.125 39.375C35.125 38.6156 35.7406 38 36.5 38H42V29.75C42 28.9906 42.6156 28.375 43.375 28.375Z" fill="#8E44AD"/>
<path fill-rule="evenodd" clip-rule="evenodd" d="M32.375 21.5H51.625C55.422 21.5 58.5 24.578 58.5 28.375V47.625C58.5 51.422 55.422 54.5 51.625 54.5H32.375C28.578 54.5 25.5 51.422 25.5 47.625V28.375C25.5 24.578 28.578 21.5 32.375 21.5ZM32.375 24.25C30.0968 24.25 28.25 26.0968 28.25 28.375V47.625C28.25 49.9032 30.0968 51.75 32.375 51.75H51.625C53.9032 51.75 55.75 49.9032 55.75 47.625V28.375C55.75 26.0968 53.9032 24.25 51.625 24.25H32.375Z" fill="#8E44AD"/>
<path d="M31 21.6375V20.5833C31 18.052 33.052 16 35.5833 16H48.4167C50.948 16 53 18.052 53 20.5833V21.6375C52.5557 21.5473 52.0959 21.5 51.625 21.5H32.375C31.9041 21.5 31.4443 21.5473 31 21.6375Z" fill="#8E44AD"/>
<path d="M31 54.3625C31.4443 54.4527 31.9041 54.5 32.375 54.5H51.625C52.0959 54.5 52.5557 54.4527 53 54.3625V55.4167C53 57.948 50.948 60 48.4167 60H35.5833C33.052 60 31 57.948 31 55.4167V54.3625Z" fill="#8E44AD"/>
</g>
<defs>
<filter id="filter0_d_3015_21338" x="0" y="0" width="84" height="84" filterUnits="userSpaceOnUse" color-interpolation-filters="sRGB">
<feFlood flood-opacity="0" result="BackgroundImageFix"/>
<feColorMatrix in="SourceAlpha" type="matrix" values="0 0 0 0 0 0 0 0 0 0 0 0 0 0 0 0 0 0 127 0" result="hardAlpha"/>
<feOffset dy="4"/>
<feGaussianBlur stdDeviation="2"/>
<feComposite in2="hardAlpha" operator="out"/>
<feColorMatrix type="matrix" values="0 0 0 0 0 0 0 0 0 0 0 0 0 0 0 0 0 0 0.25 0"/>
<feBlend mode="normal" in2="BackgroundImageFix" result="effect1_dropShadow_3015_21338"/>
<feBlend mode="normal" in="SourceGraphic" in2="effect1_dropShadow_3015_21338" result="shape"/>
</filter>
</defs>
</svg>
