<svg width="14" height="14" viewBox="0 0 14 14" fill="none" xmlns="http://www.w3.org/2000/svg">
<path d="M2.1875 7.875C2.1875 6.9085 2.971 6.125 3.9375 6.125H10.0625C11.029 6.125 11.8125 6.9085 11.8125 7.875V12.25C11.8125 13.2165 11.029 14 10.0625 14H3.9375C2.971 14 2.1875 13.2165 2.1875 12.25V7.875Z" fill="#FF0000"/>
<path fill-rule="evenodd" clip-rule="evenodd" d="M3.9375 3.5C3.9375 1.80863 5.30863 0.4375 7 0.4375C8.69137 0.4375 10.0625 1.80863 10.0625 3.5V6.125H9.1875V3.5C9.1875 2.29188 8.20812 1.3125 7 1.3125C5.79188 1.3125 4.8125 2.29188 4.8125 3.5V6.125H3.9375V3.5Z" fill="#FF0000"/>
</svg>
