<svg width="72" height="68" viewBox="0 0 72 68" fill="none" xmlns="http://www.w3.org/2000/svg">
<path d="M35.8929 0.571424L71.7857 14.9286V19.7143H67C67 21.0229 65.841 22.1071 64.4202 22.1071H7.36551C5.94475 22.1071 4.78571 21.0229 4.78571 19.7143H0V14.9286L35.8929 0.571424ZM9.57143 24.5H19.1429V53.2143H23.9286V24.5H33.5V53.2143H38.2857V24.5H47.8571V53.2143H52.6429V24.5H62.2143V53.2143H64.4202C65.841 53.2143 67 54.2985 67 55.6071V58H4.78571V55.6071C4.78571 54.2985 5.94475 53.2143 7.36551 53.2143H9.57143V24.5ZM69.2059 60.3929C70.6267 60.3929 71.7857 61.4771 71.7857 62.7857V67.5714H0V62.7857C0 61.4771 1.15904 60.3929 2.5798 60.3929H69.2059Z" fill="#7B7B7B"/>
</svg>
