<svg width="87" height="58" viewBox="0 0 87 58" fill="none" xmlns="http://www.w3.org/2000/svg">
<path d="M66.327 26.8281L67 38.6429C67.2991 43.9146 56.2695 48.2143 43.0714 48.2143C29.8733 48.2143 18.8438 43.9146 19.1429 38.6429L19.8158 26.8281L41.2768 33.5954C41.875 33.7824 42.4732 33.8571 43.0714 33.8571C43.6696 33.8571 44.2679 33.7824 44.8661 33.5954L66.327 26.8281ZM86.1429 14.7143C86.1429 15.2377 85.8064 15.6864 85.3203 15.8733L43.4453 29.034C43.2958 29.0714 43.1836 29.0714 43.0714 29.0714C42.9593 29.0714 42.8471 29.0714 42.6975 29.034L18.3203 21.332C16.1892 23.0145 14.6936 27.1272 14.3945 32.1747C15.8153 32.9972 16.75 34.4927 16.75 36.25C16.75 37.9325 15.8901 39.3906 14.5815 40.2506L16.75 56.4397C16.7874 56.7762 16.6752 57.1127 16.4509 57.3744C16.2266 57.6362 15.8901 57.7857 15.5536 57.7857H8.375C8.0385 57.7857 7.70201 57.6362 7.47768 57.3744C7.25335 57.1127 7.14118 56.7762 7.17857 56.4397L9.3471 40.2506C8.0385 39.3906 7.17857 37.9325 7.17857 36.25C7.17857 34.4554 8.18806 32.9224 9.60882 32.0999C9.83315 27.7254 10.9548 23.0145 13.2729 19.7617L0.822545 15.8733C0.336496 15.6864 0 15.2377 0 14.7143C0 14.1908 0.336496 13.7422 0.822545 13.5552L42.6975 0.394527C42.8471 0.35714 42.9593 0.35714 43.0714 0.35714C43.1836 0.35714 43.2958 0.35714 43.4453 0.394527L85.3203 13.5552C85.8064 13.7422 86.1429 14.1908 86.1429 14.7143Z" fill="#7B7B7B"/>
</svg>
