<svg width="69" height="53" viewBox="0 0 69 53" fill="none" xmlns="http://www.w3.org/2000/svg">
<path d="M4.13462 10.8057V9.32518C4.13462 7.77696 4.74965 6.29216 5.8444 5.19741C6.93916 4.10265 8.42396 3.48763 9.97218 3.48763H58.9964C60.5447 3.48763 62.0295 4.10265 63.1242 5.19741C64.219 6.29216 64.834 7.77696 64.834 9.32518V10.8057H68.226V8.9861C68.226 7.80582 67.9935 6.6371 67.5417 5.5467C67.09 4.45629 66.4278 3.46556 65.5931 2.63109C64.7584 1.79662 63.7675 1.13476 62.677 0.683314C61.5865 0.231866 60.4177 -0.000325926 59.2374 3.43372e-07H9.7275C7.34488 0.000988298 5.06018 0.948172 3.37577 2.63329C1.69135 4.3184 0.745117 6.60349 0.745117 8.9861V10.8057H4.13462Z" fill="#7A7A7A"/>
<path d="M20.8499 48.9238H9.97342C8.4252 48.9238 6.9404 48.3087 5.84565 47.214C4.75089 46.1192 4.13587 44.6344 4.13587 43.0862V25.9822H0.745118V43.4253C0.744459 45.8083 1.6904 48.0941 3.37489 49.7797C5.05938 51.4654 7.34445 52.4129 9.7275 52.4139H20.8499V48.9238Z" fill="#7A7A7A"/>
<path d="M64.8338 25.9822V43.085C64.8338 44.6332 64.2188 46.118 63.1241 47.2127C62.0293 48.3075 60.5445 48.9225 58.9963 48.9225H47.0219V52.4139H59.2372C61.6202 52.4139 63.9055 51.4673 65.5905 49.7823C67.2755 48.0973 68.2221 45.8119 68.2221 43.429V25.9822H64.8338Z" fill="#7A7A7A"/>
<path d="M64.9026 22.3215C64.7941 22.3212 64.6882 22.2888 64.5981 22.2283C64.508 22.1679 64.4377 22.0822 64.3962 21.982C64.3546 21.8818 64.3437 21.7716 64.3646 21.6651C64.3855 21.5587 64.4375 21.4608 64.5139 21.3838L67.6748 18.2241L64.53 15.0792C64.4298 14.9757 64.3743 14.837 64.3755 14.693C64.3767 14.5489 64.4344 14.4111 64.5363 14.3092C64.6381 14.2074 64.7759 14.1496 64.92 14.1485C65.064 14.1473 65.2028 14.2028 65.3063 14.303L68.8386 17.8353C68.8897 17.8862 68.9303 17.9467 68.958 18.0133C68.9856 18.0799 68.9999 18.1513 68.9999 18.2235C68.9999 18.2956 68.9856 18.367 68.958 18.4336C68.9303 18.5002 68.8897 18.5607 68.8386 18.6116L65.2901 22.1601C65.2393 22.2111 65.179 22.2517 65.1125 22.2794C65.046 22.3071 64.9747 22.3214 64.9026 22.3215Z" fill="#7A7A7A"/>
<path d="M4.09871 22.3214C4.20709 22.3208 4.31287 22.2882 4.40278 22.2277C4.4927 22.1672 4.56275 22.0815 4.60414 21.9813C4.64553 21.8812 4.65642 21.771 4.63544 21.6647C4.61447 21.5584 4.56256 21.4606 4.48623 21.3837L1.32526 18.2239L4.47132 15.0791C4.52596 15.0291 4.56991 14.9685 4.60052 14.901C4.63112 14.8335 4.64776 14.7606 4.64941 14.6865C4.65107 14.6124 4.63772 14.5388 4.61016 14.47C4.58261 14.4013 4.54142 14.3388 4.48907 14.2863C4.43672 14.2339 4.37431 14.1926 4.30558 14.165C4.23685 14.1373 4.16324 14.1238 4.08917 14.1254C4.01509 14.1269 3.9421 14.1434 3.87458 14.1739C3.80706 14.2044 3.74642 14.2483 3.6963 14.3028L0.160229 17.8352C0.0576096 17.9383 0 18.0778 0 18.2233C0 18.3688 0.0576096 18.5083 0.160229 18.6114L3.70872 22.1599C3.81223 22.2632 3.95247 22.3213 4.09871 22.3214Z" fill="#7A7A7A"/>
<path d="M23.5683 52.3915C24.5321 52.3915 25.3134 51.6102 25.3134 50.6464C25.3134 49.6827 24.5321 48.9014 23.5683 48.9014C22.6045 48.9014 21.8232 49.6827 21.8232 50.6464C21.8232 51.6102 22.6045 52.3915 23.5683 52.3915Z" fill="#7A7A7A"/>
<path d="M28.7767 52.3915C29.7404 52.3915 30.5217 51.6102 30.5217 50.6464C30.5217 49.6827 29.7404 48.9014 28.7767 48.9014C27.8129 48.9014 27.0316 49.6827 27.0316 50.6464C27.0316 51.6102 27.8129 52.3915 28.7767 52.3915Z" fill="#7A7A7A"/>
<path d="M34.0301 52.3915C34.9939 52.3915 35.7751 51.6102 35.7751 50.6464C35.7751 49.6827 34.9939 48.9014 34.0301 48.9014C33.0663 48.9014 32.285 49.6827 32.285 50.6464C32.285 51.6102 33.0663 52.3915 34.0301 52.3915Z" fill="#7A7A7A"/>
<path d="M39.2347 52.3915C40.1984 52.3915 40.9797 51.6102 40.9797 50.6464C40.9797 49.6827 40.1984 48.9014 39.2347 48.9014C38.2709 48.9014 37.4896 49.6827 37.4896 50.6464C37.4896 51.6102 38.2709 52.3915 39.2347 52.3915Z" fill="#7A7A7A"/>
<path d="M44.4383 52.3915C45.4021 52.3915 46.1833 51.6102 46.1833 50.6464C46.1833 49.6827 45.4021 48.9014 44.4383 48.9014C43.4745 48.9014 42.6932 49.6827 42.6932 50.6464C42.6932 51.6102 43.4745 52.3915 44.4383 52.3915Z" fill="#7A7A7A"/>
<path d="M32.8591 43.6087C32.8591 41.7916 32.8392 40.1434 32.8702 38.4965C32.8802 37.9686 32.7324 37.6656 32.2604 37.365C30.0757 35.9789 28.9876 33.9655 29.164 31.3684C29.4952 26.4069 29.8596 21.4475 30.257 16.4901C30.5265 13.1118 33.9831 10.4265 37.4347 10.9122C41.8688 11.5332 46.2979 12.2039 50.7245 12.8659C52.0696 13.0671 53.4408 13.1913 54.7437 13.5527C58.0139 14.4569 59.9503 18.0241 59.1256 21.3192C58.4598 23.9784 57.8835 26.6599 57.2625 29.3328C56.88 30.9797 56.5372 32.6366 56.0987 34.2674C55.1759 37.6978 52.3726 39.5534 48.7707 39.2566C45.7265 39.0082 42.6761 38.8293 39.6294 38.6194C39.2791 38.5958 38.9127 38.6269 38.5836 38.5325C37.6285 38.2605 37.0658 38.7362 36.5094 39.4255C35.4735 40.7098 34.3743 41.9431 33.2975 43.1963C33.2056 43.3019 33.0938 43.3888 32.8591 43.6087ZM47.7734 24.8291C48.3286 24.654 48.8217 24.5596 49.2576 24.3485C51.0337 23.4927 51.815 21.0024 50.9604 19.0388C50.2599 17.4241 48.849 16.8354 47.2791 16.5734C44.9801 16.1908 42.6662 15.9014 40.3622 15.5474C39.9896 15.4903 39.8778 15.6108 39.8356 15.9362C39.694 17.0192 39.5437 18.1023 39.3946 19.1854C38.8332 23.2692 38.2768 27.3554 37.6968 31.4368C37.616 31.9982 37.7912 32.1571 38.3178 32.218C39.73 32.3819 41.1347 32.6241 42.5482 32.7856C43.8163 32.9297 45.0918 33.0775 46.3662 33.1011C48.0007 33.1321 49.2477 32.3484 50.1084 30.9698C51.3591 28.9664 50.8909 26.4984 49.0527 25.4154C48.6701 25.1906 48.2429 25.0415 47.7734 24.8291Z" fill="#7A7A7A"/>
<path d="M29.1619 39.785C28.557 39.0882 28.0441 38.5069 27.5472 37.922C26.7399 36.9842 25.9512 36.0279 25.1166 35.115C24.9109 34.906 24.6322 34.7849 24.3391 34.7771C22.6077 34.8454 20.8726 34.9088 19.1486 35.0752C16.0013 35.3808 13.5471 33.5351 12.8739 30.4014C12.1647 27.0964 11.3834 23.805 10.5786 20.5236C10.1079 18.6158 10.0892 16.8086 11.2903 15.148C12.2218 13.8613 13.4912 13.1347 15.0611 12.9049C18.2668 12.4367 21.47 11.956 24.6744 11.4816C26.1847 11.258 27.6901 10.9922 29.2066 10.832C30.4486 10.7078 31.6025 11.0332 32.7141 11.7722C32.5315 11.9237 32.4172 12.0355 32.293 12.1299C30.5629 13.4278 29.7258 15.1629 29.5891 17.3166C29.3519 21.0427 29.0414 24.7614 28.7619 28.4837C28.6924 29.4091 28.5421 30.3381 28.5744 31.2597C28.6067 32.1813 28.8129 33.1227 28.9532 34.0555C29.0253 34.5374 29.1768 35.0156 29.1917 35.4987C29.2277 36.6749 29.2054 37.8586 29.2029 39.0311C29.1991 39.2298 29.1805 39.4285 29.1619 39.785ZM27.9956 16.5043C27.0529 16.682 26.2568 16.867 25.4395 16.9776C24.8607 17.0558 24.5887 17.2831 24.5452 17.9016C24.3987 19.9796 24.2012 22.0537 24.0186 24.1279C23.9416 24.9974 23.851 25.8668 23.7503 26.8952C23.6162 26.6604 23.5665 26.5797 23.5218 26.4953C22.2798 24.0969 21.0551 21.696 19.8081 19.3026C19.1697 18.0792 19.4355 18.1463 18.0693 18.4481C17.5725 18.5587 17.0533 18.6233 16.549 18.7251C16.344 18.7818 16.1428 18.8515 15.9467 18.9338C16.0709 19.1673 16.1516 19.3312 16.241 19.4889C16.9167 20.6689 17.5936 21.8484 18.2717 23.0275C19.6926 25.4904 21.1123 27.9546 22.5518 30.4064C22.6623 30.5952 22.9468 30.8337 23.1182 30.8101C23.9749 30.6928 24.8239 30.5244 25.6606 30.3058C25.8606 30.2536 26.104 29.9518 26.1363 29.7357C26.6443 26.3301 27.1237 22.9207 27.6044 19.5101C27.7385 18.5549 27.854 17.5986 27.9956 16.5043Z" fill="#7A7A7A"/>
<path d="M44.6185 30.0401C43.8608 29.9357 42.7977 29.8004 41.7407 29.6302C41.6339 29.6128 41.4699 29.3818 41.4836 29.2576C41.6078 28.1944 41.7829 27.1362 41.9146 26.0743C41.968 25.647 42.163 25.5191 42.5741 25.5849C43.5913 25.7451 44.621 25.8445 45.6332 26.0357C46.7883 26.2531 47.2864 27.0356 47.141 28.2714C46.9932 29.5271 46.3437 30.0463 44.6185 30.0401Z" fill="#7A7A7A"/>
<path d="M42.4037 22.5801C42.5788 21.3381 42.7328 20.2451 42.9005 19.0081C44.2171 19.2254 45.5013 19.3608 46.7421 19.6713C47.5482 19.8725 47.8003 20.655 47.6003 21.6685C47.4451 22.4497 46.8551 23.0173 46.0366 22.9726C44.8579 22.9093 43.6805 22.7292 42.4037 22.5801Z" fill="#7A7A7A"/>
</svg>
