<svg width="53" height="58" viewBox="0 0 53 58" fill="none" xmlns="http://www.w3.org/2000/svg">
<path d="M52.6429 48.1021C52.6429 54.159 48.6049 57.7857 42.6602 57.7857H9.9827C4.03795 57.7857 0 54.159 0 48.1021C0 39.6523 1.98158 26.6786 12.9364 26.6786C14.0954 26.6786 18.9933 31.8756 26.3214 31.8756C33.6496 31.8756 38.5474 26.6786 39.7065 26.6786C50.6613 26.6786 52.6429 39.6523 52.6429 48.1021ZM40.6786 14.7143C40.6786 22.6406 34.2478 29.0714 26.3214 29.0714C18.3951 29.0714 11.9643 22.6406 11.9643 14.7143C11.9643 6.78794 18.3951 0.35714 26.3214 0.35714C34.2478 0.35714 40.6786 6.78794 40.6786 14.7143Z" fill="#7B7B7B"/>
</svg>
