<svg width="10" height="16" viewBox="0 0 10 16" fill="none" xmlns="http://www.w3.org/2000/svg">
<path fill-rule="evenodd" clip-rule="evenodd" d="M3.69231 14.1529C3.69231 15.1725 2.86576 15.999 1.84615 15.999C0.826551 15.999 0 15.1725 0 14.1529C0 13.1333 0.826551 12.3067 1.84615 12.3067C2.86576 12.3067 3.69231 13.1333 3.69231 14.1529ZM3.69231 7.99857C3.69231 9.01818 2.86576 9.84473 1.84615 9.84473C0.826551 9.84473 0 9.01818 0 7.99857C0 6.97897 0.826551 6.15242 1.84615 6.15242C2.86576 6.15242 3.69231 6.97897 3.69231 7.99857ZM3.69231 1.84623C3.69231 2.86583 2.86576 3.69238 1.84615 3.69238C0.826551 3.69238 0 2.86583 0 1.84623C0 0.826626 0.826551 7.53403e-05 1.84615 7.53403e-05C2.86576 7.53403e-05 3.69231 0.826626 3.69231 1.84623Z" fill="#7A7A7A"/>
<path fill-rule="evenodd" clip-rule="evenodd" d="M9.84612 14.1529C9.84612 15.1725 9.01957 15.999 7.99996 15.999C6.98036 15.999 6.15381 15.1725 6.15381 14.1529C6.15381 13.1333 6.98036 12.3067 7.99996 12.3067C9.01957 12.3067 9.84612 13.1333 9.84612 14.1529ZM9.84615 7.99857C9.84615 9.01818 9.0196 9.84473 7.99999 9.84473C6.98039 9.84473 6.15384 9.01818 6.15384 7.99857C6.15384 6.97897 6.98039 6.15242 7.99999 6.15242C9.0196 6.15242 9.84615 6.97897 9.84615 7.99857ZM9.84615 1.84623C9.84615 2.86583 9.0196 3.69238 7.99999 3.69238C6.98039 3.69238 6.15384 2.86583 6.15384 1.84623C6.15384 0.826626 6.98039 7.53403e-05 7.99999 7.53403e-05C9.0196 7.53403e-05 9.84615 0.826626 9.84615 1.84623Z" fill="#7A7A7A"/>
</svg>
