<svg width="52" height="53" viewBox="0 0 52 53" fill="none" xmlns="http://www.w3.org/2000/svg">
<g clip-path="url(#clip0_3039_51527)">
<path d="M43.784 0.52002H8.216C3.67843 0.52002 0 4.19845 0 8.73602V44.304C0 48.8416 3.67843 52.52 8.216 52.52H43.784C48.3216 52.52 52 48.8416 52 44.304V8.73602C52 4.19845 48.3216 0.52002 43.784 0.52002Z" fill="#1A50A0"/>
<mask id="mask0_3039_51527" style="mask-type:luminance" maskUnits="userSpaceOnUse" x="0" y="0" width="52" height="53">
<path d="M43.784 0.52002H8.216C3.67843 0.52002 0 4.19845 0 8.73602V44.304C0 48.8416 3.67843 52.52 8.216 52.52H43.784C48.3216 52.52 52 48.8416 52 44.304V8.73602C52 4.19845 48.3216 0.52002 43.784 0.52002Z" fill="white"/>
</mask>
<g mask="url(#mask0_3039_51527)">
<path opacity="0.3" d="M-1.0957 56.7284C5.71283 55.1476 21.084 50.6202 35.0963 37.0724C47.9992 24.5994 53.1854 10.8298 55.2238 4.15991C56.2152 22.0479 57.1998 39.9359 58.1912 57.8239L-1.08877 56.7284H-1.0957Z" fill="white"/>
</g>
<path d="M20.7029 3.66772H6.17761C4.32046 3.66772 2.81494 5.17324 2.81494 7.03039V21.5557C2.81494 23.4129 4.32046 24.9184 6.17761 24.9184H20.7029C22.5601 24.9184 24.0656 23.4129 24.0656 21.5557V7.03039C24.0656 5.17324 22.5601 3.66772 20.7029 3.66772Z" fill="#EC1C24"/>
<path d="M45.8294 3.66772H31.3041C29.4469 3.66772 27.9414 5.17324 27.9414 7.03039V21.5557C27.9414 23.4129 29.4469 24.9184 31.3041 24.9184H45.8294C47.6866 24.9184 49.1921 23.4129 49.1921 21.5557V7.03039C49.1921 5.17324 47.6866 3.66772 45.8294 3.66772Z" fill="#25BFEF"/>
<path d="M34.7017 15.4336L32.5732 18.6091C31.6719 19.9957 31.7897 21.8539 34.258 21.6528C34.7641 21.6112 42.4463 21.6528 42.4463 21.6528C45.6633 21.9301 45.2889 19.8432 44.4777 18.7963L42.2868 15.4683L34.7017 15.4336Z" fill="white"/>
<path d="M41.101 6.12206H35.7832C35.6792 6.12206 35.5752 6.19139 35.5336 6.28846C35.492 6.38553 35.5197 6.50339 35.589 6.57966C35.9981 6.98179 36.1437 7.29379 36.213 7.64739C36.2824 8.00099 36.2546 8.41006 36.2616 8.93699L36.2893 12.1333L32.0877 18.4287C32.0877 18.4287 32.0877 18.4357 32.0808 18.4426C31.533 19.3578 31.4221 20.2938 31.7202 21.0079C32.0184 21.7221 32.7394 22.1866 33.6616 22.1381H33.6754H43.4237C44.4152 22.1381 45.1709 21.6458 45.4274 20.8901C45.684 20.1343 45.4552 19.1845 44.7202 18.2554L44.7064 18.2346L40.7266 12.1402L40.6504 8.93699C40.6504 8.93699 40.6504 8.90926 40.6504 8.89539C40.6504 8.89539 40.6504 8.89539 40.6504 8.88846C40.6504 8.38233 40.6157 7.98713 40.6781 7.64739C40.7405 7.29379 40.8861 6.98179 41.2813 6.57273C41.3576 6.49646 41.3784 6.37859 41.3368 6.28153C41.2952 6.18446 41.1981 6.11513 41.0872 6.12206H41.101ZM40.5672 6.66286C40.3592 6.96793 40.2136 7.26606 40.165 7.56419C40.1026 7.91086 40.1165 8.26446 40.1304 8.63886H38.9378C38.9378 8.63886 38.917 8.63886 38.9101 8.63886C38.7645 8.64579 38.6536 8.77059 38.6605 8.91619C38.6674 9.06179 38.7922 9.17966 38.9378 9.17273H40.1373L40.1858 11.2111H38.9378C38.9378 11.2111 38.917 11.2111 38.9101 11.2111C38.7645 11.2181 38.6536 11.3429 38.6605 11.4885C38.6674 11.6341 38.7922 11.7519 38.9378 11.745H40.1997L40.2136 12.2442C40.2136 12.2927 40.2274 12.3413 40.2552 12.3829L41.205 13.8389H39.9224C39.9224 13.8389 39.9016 13.8389 39.8946 13.8389C39.749 13.8458 39.6381 13.9706 39.645 14.1162C39.652 14.2618 39.7768 14.3797 39.9224 14.3727H41.3784C41.4338 14.3727 41.4824 14.3589 41.524 14.3311L42.5709 15.9397H41.3368C41.3368 15.9397 41.3229 15.9397 41.309 15.9397C41.1634 15.9397 41.0456 16.0714 41.0525 16.217C41.0525 16.3626 41.1842 16.4805 41.3298 16.4735H42.7858C42.8274 16.4735 42.8621 16.4666 42.8968 16.4458L43.909 17.9989H42.7512C42.7512 17.9989 42.7373 17.9989 42.7234 17.9989C42.5778 17.9989 42.46 18.1306 42.4669 18.2762C42.4669 18.4218 42.5986 18.5397 42.7442 18.5327H44.2002C44.2002 18.5327 44.228 18.5327 44.2418 18.5327L44.2626 18.5605C44.2626 18.5605 44.2696 18.5743 44.2765 18.5813C44.9421 19.4202 45.0877 20.1967 44.9144 20.7306C44.7341 21.2645 44.2418 21.6181 43.4098 21.625H33.6546L33.6408 21.6181C32.885 21.6597 32.4274 21.3407 32.2056 20.8138C31.9906 20.2869 32.053 19.5311 32.5314 18.7269L36.7746 12.369C36.8024 12.3274 36.8232 12.2719 36.8232 12.2165L36.7954 8.93699C36.7954 8.43086 36.8232 7.99406 36.74 7.55033C36.6845 7.25219 36.532 6.96099 36.324 6.66286H40.5602H40.5672Z" fill="white"/>
<path d="M11.4607 14.5947L13.4783 16.6123C13.5892 16.7232 13.5546 16.7787 13.402 16.744L13.201 16.6955C13.0484 16.6608 12.8335 16.536 12.7295 16.4251L11.6479 15.3435C11.537 15.2325 11.4191 15.0176 11.3775 14.8651L11.329 14.664C11.2943 14.5115 11.3498 14.4768 11.4607 14.5877V14.5947ZM13.3674 12.7019L13.1663 12.6533C13.0138 12.6117 12.9791 12.6741 13.09 12.7851L15.2879 14.976C15.3988 15.0869 15.4543 15.0523 15.4196 14.8997L15.3711 14.6987C15.3364 14.5461 15.2116 14.3312 15.1007 14.2203L13.8388 12.9584C13.7279 12.8475 13.513 12.7296 13.3604 12.688L13.3674 12.7019ZM15.7594 9.85228L15.8079 10.0533C15.8426 10.2059 15.9674 10.4208 16.0783 10.5317L17.5412 11.9947C17.6522 12.1056 17.8671 12.2235 18.0196 12.2651L18.2207 12.3136C18.3732 12.3483 18.4079 12.2928 18.297 12.1819L15.898 9.78295C15.7871 9.67201 15.7316 9.70668 15.7663 9.85921L15.7594 9.85228ZM8.74977 17.1877L8.5487 17.1392C8.39617 17.1045 8.3615 17.16 8.47243 17.2709L10.7951 19.5936C10.906 19.7045 10.9684 19.6699 10.9268 19.5173L10.8783 19.3163C10.8367 19.1637 10.7188 18.9488 10.6079 18.8379L9.22123 17.4512C9.1103 17.3403 8.89537 17.2224 8.74283 17.1808L8.74977 17.1877ZM10.906 21.0219L7.0095 17.2016C6.89857 17.0907 6.7807 17.0213 6.75297 17.0421C6.73217 17.056 6.7183 17.0699 6.70444 17.0907C6.6559 17.1392 6.62124 17.1877 6.58657 17.2432C6.5311 17.3333 6.5935 17.5067 6.70444 17.6176L10.5178 21.3616C10.6287 21.4725 10.7882 21.5349 10.8644 21.4864C10.906 21.4587 10.9476 21.424 10.9892 21.3824C11.01 21.3616 11.0308 21.3339 11.0516 21.3061C11.0863 21.2645 11.017 21.1397 10.906 21.0288V21.0219ZM15.4474 16.4667L11.5716 12.6603C11.4607 12.5493 11.329 12.4869 11.2874 12.5147C11.2596 12.5355 11.2388 12.5563 11.218 12.5771C11.1764 12.6187 11.1418 12.6603 11.114 12.7019C11.0655 12.7781 11.1279 12.9376 11.2388 13.0416L15.0799 16.8133C15.1908 16.9243 15.3364 16.9867 15.3988 16.9451C15.4335 16.9173 15.4682 16.8896 15.5028 16.8619C15.5306 16.8341 15.5583 16.7995 15.586 16.7648C15.6276 16.7093 15.5652 16.5707 15.4474 16.4597V16.4667ZM20.0234 11.7867L16.2378 8.07042C16.1268 7.95948 15.9604 7.89708 15.8703 7.95255C15.8218 7.98721 15.7732 8.02188 15.7247 8.06348C15.7039 8.08428 15.69 8.10508 15.6692 8.11895C15.6415 8.15361 15.7108 8.27148 15.8218 8.38241L19.7252 12.2165C19.8362 12.3275 19.9471 12.4037 19.9679 12.3829C19.9818 12.3691 19.9956 12.3621 20.0026 12.3483C20.0511 12.2997 20.0996 12.2373 20.1343 12.1819C20.1967 12.0779 20.1274 11.8976 20.0164 11.7867H20.0234ZM12.3482 19.9403L10.8367 13.8875C10.7604 13.5824 10.6564 13.0971 10.7466 12.8267C10.802 12.6603 10.8922 12.5147 11.017 12.3899C11.2735 12.1333 11.634 12.0224 11.9876 12.0779C12.05 12.0848 12.1124 12.1056 12.1748 12.1264H12.1956L14.1508 12.6256C14.4559 12.7019 14.6362 12.5216 14.5668 12.2165C14.4906 11.9184 14.1855 11.6064 13.8804 11.5371L12.473 11.1835C12.369 11.1488 12.258 11.1211 12.1402 11.1003C11.4746 10.9893 10.7882 11.2112 10.3098 11.6896C9.83137 12.168 9.6095 12.8544 9.72044 13.52V13.5408L10.1156 15.1077C10.1919 15.4128 10.3167 15.9051 10.393 16.2101C10.5455 16.8272 10.7951 17.8325 10.9546 18.4496C11.0308 18.7547 11.1556 19.2469 11.2319 19.552C11.2804 19.7392 11.329 19.9472 11.3775 20.1275C11.4538 20.4325 11.5508 20.9109 11.4607 21.1675C11.4052 21.32 11.3151 21.4656 11.1972 21.5835C10.8991 21.8816 10.4762 21.9787 10.0948 21.8677C9.7967 21.7845 9.45697 21.7429 9.26283 21.9371C9.0687 22.1312 9.0895 22.4779 9.3599 22.6304C9.68577 22.8107 10.0463 22.9077 10.4068 22.9077C10.9476 22.9077 11.4884 22.6997 11.8975 22.2907C12.362 21.8261 12.5839 21.1813 12.5007 20.5296C12.5007 20.5296 12.5007 20.5296 12.5007 20.5157C12.5007 20.5088 12.4383 20.2523 12.362 19.9541L12.3482 19.9403ZM9.36684 16.0299L7.95937 15.6763C7.8623 15.6416 7.7583 15.6139 7.6543 15.6H7.6335C6.9679 15.4891 6.2815 15.7109 5.8031 16.1893C5.40097 16.5915 5.18604 17.1184 5.18604 17.68C5.18604 18.0544 5.2831 18.408 5.46337 18.7269C5.6159 18.9973 5.96257 19.0181 6.1567 18.824C6.35084 18.6299 6.35777 18.3317 6.2607 18.1099C6.20523 17.9781 6.1775 17.8325 6.1775 17.68C6.1775 17.3819 6.29537 17.0976 6.50337 16.8896C6.62817 16.7648 6.7807 16.6747 6.94017 16.6192C7.21057 16.5291 7.70283 16.6331 8.00097 16.7093L9.63723 17.1184C9.9423 17.1947 10.1295 17.0144 10.0532 16.7093C9.97697 16.4112 9.6719 16.0992 9.36684 16.0299ZM20.5642 10.6149C20.37 10.8091 20.3631 11.1072 20.4602 11.3291C20.5156 11.4608 20.5434 11.6064 20.5434 11.7589C20.5434 12.0571 20.4255 12.3413 20.2175 12.5493C20.0996 12.6672 19.954 12.7573 19.8015 12.8128C19.545 12.9029 19.0666 12.8128 18.7615 12.7365L17.0698 12.3136C16.7647 12.2373 16.5844 12.4176 16.6538 12.7227C16.73 13.0208 17.0351 13.3328 17.3402 13.4021L18.5743 13.7141C18.8794 13.7904 19.129 13.8528 19.1359 13.8528H19.1498C19.8015 13.936 20.4463 13.7211 20.9108 13.2496C21.313 12.8475 21.5279 12.3205 21.5279 11.7589C21.5279 11.3845 21.4308 11.0309 21.2506 10.712C21.098 10.4416 20.7514 10.4208 20.5572 10.6149H20.5642ZM16.7578 14.9968L16.7231 14.8581C16.6468 14.5531 16.522 14.0608 16.4458 13.7557C16.2932 13.1387 16.0367 12.1333 15.8842 11.5163C15.8079 11.2112 15.6831 10.7189 15.6068 10.4139C15.5236 10.0949 15.4266 9.68588 15.3434 9.36695C15.2671 9.06188 15.1631 8.57655 15.2532 8.30615C15.3087 8.13975 15.3988 7.99415 15.5236 7.86935C15.8218 7.57121 16.2447 7.47415 16.626 7.58508C16.9242 7.66828 17.2639 7.70988 17.458 7.51575C17.6522 7.32161 17.6314 6.97495 17.361 6.82241C16.5567 6.36481 15.5098 6.47575 14.8234 7.16215C14.345 7.64055 14.1231 8.32695 14.234 8.99255V9.01335L15.9327 15.808C15.9327 15.808 15.9327 15.808 15.9327 15.8219C15.9327 15.8288 15.9327 15.8427 15.9396 15.8496V15.8635C15.9743 15.9467 15.9951 16.0299 16.009 16.12C16.0506 16.4667 15.9396 16.8064 15.69 17.056C15.5722 17.1739 15.4266 17.264 15.274 17.3195C15.0175 17.4096 14.5391 17.3195 14.234 17.2432L12.5492 16.8203C12.2442 16.744 12.057 16.9243 12.1332 17.2293C12.2095 17.5275 12.5146 17.8325 12.8196 17.9088L14.0538 18.2139C14.3588 18.2901 14.6084 18.3525 14.6154 18.3525H14.6292C15.281 18.4357 15.9258 18.2208 16.3903 17.7563C16.8548 17.2917 17.0767 16.6469 16.9935 15.9952C16.9866 15.9189 16.9658 15.8427 16.9519 15.7664C16.9242 15.6416 16.8202 15.2949 16.7439 14.9899L16.7578 14.9968Z" fill="white"/>
<path d="M20.7029 28.1216H6.17761C4.32046 28.1216 2.81494 29.6271 2.81494 31.4842V46.0096C2.81494 47.8667 4.32046 49.3722 6.17761 49.3722H20.7029C22.5601 49.3722 24.0656 47.8667 24.0656 46.0096V31.4842C24.0656 29.6271 22.5601 28.1216 20.7029 28.1216Z" fill="#FFAA3B"/>
<path d="M5.7062 35.7066C6.38397 35.7066 6.9334 35.1572 6.9334 34.4794C6.9334 33.8016 6.38397 33.2522 5.7062 33.2522C5.02844 33.2522 4.479 33.8016 4.479 34.4794C4.479 35.1572 5.02844 35.7066 5.7062 35.7066Z" fill="white" stroke="#FAAF40" stroke-width="0.61" stroke-miterlimit="10"/>
<path d="M7.48786 31.6229C7.87461 31.6229 8.18813 31.3094 8.18813 30.9227C8.18813 30.5359 7.87461 30.2224 7.48786 30.2224C7.10112 30.2224 6.7876 30.5359 6.7876 30.9227C6.7876 31.3094 7.10112 31.6229 7.48786 31.6229Z" fill="white" stroke="#FAAF40" stroke-width="0.61" stroke-miterlimit="10"/>
<path d="M13.6937 44.6853C16.7801 44.6853 19.282 42.1834 19.282 39.0971C19.282 36.0107 16.7801 33.5088 13.6937 33.5088C10.6074 33.5088 8.10547 36.0107 8.10547 39.0971C8.10547 42.1834 10.6074 44.6853 13.6937 44.6853Z" fill="white"/>
<path d="M22.908 32.5104C22.7762 31.7131 20.9042 32.3163 18.1933 33.8832C17.7842 34.112 17.3613 34.3686 16.9176 34.6459C16.9453 34.7776 16.98 34.9163 17.0077 35.055C19.6632 33.3979 21.5282 32.6283 21.6322 33.2662C21.7362 33.911 20.0237 35.8107 17.4168 38.064C16.3352 39 15.0941 39.9984 13.7698 40.9899C13.7282 41.0246 13.6797 41.0523 13.6381 41.087C12.2861 42.0923 11.0034 42.9728 9.85942 43.6939C7.12769 45.4134 5.20022 46.2176 5.08929 45.5728C4.98529 44.928 6.69782 43.0283 9.29089 40.7888C9.27702 40.6502 9.25622 40.5115 9.24236 40.3728C9.24236 40.3659 9.24236 40.352 9.24236 40.3451C7.09996 42.1963 5.44982 43.9019 4.66636 45.0736C4.21569 45.7184 3.98689 46.2176 4.04236 46.5366C4.19489 47.4587 6.66316 46.5088 10.0605 44.3734C11.2322 43.6384 12.5149 42.7579 13.8461 41.7664C15.1357 40.8027 16.3629 39.8251 17.4653 38.8822C20.8072 36.0118 23.0674 33.4395 22.9149 32.5035L22.908 32.5104Z" fill="white"/>
<path d="M21.6393 33.273C21.5353 32.6351 19.6702 33.3978 17.0148 35.0618C17.0148 35.0687 17.0148 35.0757 17.0148 35.0895C17.0148 35.0895 17.0148 35.0965 17.0148 35.1034C18.8729 33.9941 20.1417 33.5226 20.218 33.9941C20.2942 34.4655 19.1572 35.7829 17.3614 37.3983C16.2868 38.3621 14.9764 39.4298 13.555 40.4906C12.1406 41.5445 10.8094 42.4389 9.69318 43.1045C7.80732 44.2346 6.51772 44.7199 6.44145 44.2415C6.36518 43.7701 7.50225 42.4597 9.29105 40.8511C9.29105 40.8511 9.29105 40.8373 9.29105 40.8303C9.29105 40.8234 9.29105 40.8095 9.29105 40.8026C6.69798 43.049 4.98545 44.9418 5.08945 45.5866C5.19345 46.2383 7.12785 45.4271 9.85958 43.7077C11.0036 42.9866 12.2932 42.1061 13.6382 41.1007C13.6798 41.0661 13.7284 41.0383 13.77 41.0037C15.0942 40.0122 16.3353 39.0138 17.4169 38.0778C20.0169 35.8314 21.7364 33.9247 21.6324 33.2799L21.6393 33.273Z" fill="white"/>
<path d="M18.3249 35.5889C18.3249 35.5889 15.4198 39.0139 10.5249 42.5707C14.7958 39.9915 18.6092 36.2267 18.6092 36.2267L18.318 35.5889H18.3249Z" fill="#FAAF40"/>
<path d="M10.7676 43.9297C10.7676 43.9297 13.2705 42.3558 18.2902 38.1611C12.8198 43.5553 10.927 44.2417 10.927 44.2417L10.7676 43.9297Z" fill="#FAAF40"/>
<path d="M17.8121 35.0896C17.5555 34.8123 16.9731 34.3755 16.9731 34.3755" stroke="#FAAF40" stroke-width="0.61" stroke-miterlimit="10"/>
<path d="M8.25098 40.9761C8.36884 41.3366 8.70858 41.9745 8.70858 41.9745" stroke="#FAAF40" stroke-width="0.61" stroke-miterlimit="10"/>
<path d="M45.8294 28.1216H31.3041C29.4469 28.1216 27.9414 29.6271 27.9414 31.4842V46.0096C27.9414 47.8667 29.4469 49.3722 31.3041 49.3722H45.8294C47.6866 49.3722 49.1921 47.8667 49.1921 46.0096V31.4842C49.1921 29.6271 47.6866 28.1216 45.8294 28.1216Z" fill="#02AD4B"/>
<path d="M39.4717 43.0075C39.548 43.0075 39.652 42.9521 39.7005 42.8966C39.8392 42.7302 39.9779 42.5638 40.1096 42.3835C40.1581 42.3211 40.1304 42.2795 40.0541 42.2865C38.1683 42.4182 36.2963 42.3281 34.4451 41.9467C34.1539 41.8843 33.9112 41.8358 33.6408 41.7734C33.5645 41.7526 33.4883 41.8011 33.4744 41.8705C33.412 42.1062 33.3496 42.4043 33.3496 42.4113C35.3672 42.959 37.3917 43.0977 39.4717 43.0145V43.0075Z" fill="white"/>
<path d="M44.7063 42.4806C44.6924 42.4043 44.6161 42.3627 44.5468 42.3905C44.4151 42.4321 44.2833 42.4737 44.1516 42.5153C44.0753 42.5361 44.0337 42.6123 44.0476 42.6886C44.3388 44.1238 44.5121 46.8833 42.342 46.6683C41.3089 46.5643 40.3452 45.9334 39.5479 45.3094C38.7783 44.7062 38.1265 44.0614 37.4887 43.3265C37.4401 43.271 37.3361 43.2155 37.2599 43.2155C37.0311 43.2017 36.8092 43.1878 36.5873 43.167C36.5111 43.167 36.4903 43.2017 36.5388 43.2641C37.2183 44.103 37.9185 44.8449 38.7436 45.5451C39.6935 46.3494 40.8236 47.1398 42.0855 47.3339C43.1116 47.4934 44.0823 47.0913 44.5468 46.1414C45.0599 45.0945 44.9628 43.8049 44.7548 42.6955C44.7409 42.6123 44.7271 42.5499 44.7132 42.4806H44.7063Z" fill="white"/>
<path d="M42.8205 39.9152C42.8552 39.8458 42.8552 39.7349 42.8205 39.6656C42.7443 39.4853 42.6611 39.305 42.571 39.1248C42.5363 39.0554 42.4808 39.0554 42.4462 39.1248C41.4755 40.9968 40.283 42.7162 38.7784 44.2C38.7229 44.2554 38.7229 44.3386 38.7784 44.3941C38.8824 44.4912 38.9864 44.5813 39.0835 44.6714C39.1389 44.72 39.2013 44.7477 39.2221 44.7269C39.2291 44.713 39.2429 44.7061 39.2568 44.6922C40.6504 43.2917 41.9054 41.6832 42.8067 39.9152H42.8205Z" fill="white"/>
<path d="M44.9906 35.5264C44.9213 35.4987 44.845 35.5403 44.8311 35.6166C44.7965 35.7483 44.7618 35.887 44.7271 36.0187C44.7063 36.095 44.7479 36.1712 44.8173 36.199C45.9543 36.6219 47.9165 37.5371 47.6183 39.0139C47.4727 39.7419 46.8141 40.2758 46.2178 40.6432C45.4759 41.1078 44.637 41.4198 43.7981 41.6624C43.4167 41.7526 43.0354 41.8635 42.6471 41.9398C42.3559 41.9814 42.1202 42.0438 41.8429 42.0923C41.7666 42.1062 41.6695 42.1616 41.6279 42.224C41.4962 42.4112 41.3645 42.5915 41.2258 42.7718C41.1773 42.8342 41.205 42.8758 41.2813 42.8688C42.141 42.7648 42.9453 42.6054 43.7911 42.3766C44.7063 42.1963 45.677 41.7664 46.4743 41.295C47.1954 40.8651 47.9234 40.2688 48.2077 39.4507C48.8733 37.5787 46.7933 36.2683 45.3511 35.672C45.2125 35.6166 45.1085 35.575 44.9906 35.5264Z" fill="white"/>
<path d="M43.9919 31.8517C44.3524 32.76 44.2346 33.8346 44.0543 34.7637C43.8602 35.7552 43.5759 36.6565 43.1807 37.5786C43.153 37.648 43.153 37.7589 43.1946 37.8282C43.2916 38.0085 43.3818 38.1888 43.4719 38.369C43.5066 38.4384 43.562 38.4384 43.5898 38.369C44.0543 37.3429 44.4148 36.3306 44.6644 35.2282C44.921 34.0634 45.0874 32.7322 44.6367 31.5952C44.2138 30.5274 43.2084 30.0144 42.0783 30.1946C40.8442 30.3888 39.7487 31.1306 38.8058 31.921C38.7503 31.9696 38.7503 32.0528 38.8058 32.1013C38.9098 32.1914 39.0138 32.2885 39.1178 32.3856C39.1732 32.441 39.2287 32.4688 39.2426 32.4549C39.2495 32.448 39.2634 32.441 39.2703 32.4341C40.3658 31.5189 43.1322 29.6746 43.9919 31.8517Z" fill="white"/>
<path d="M37.6479 34.5141C37.5716 34.5141 37.4676 34.5695 37.4191 34.625C37.2804 34.7914 37.1417 34.9578 37.01 35.1381C36.9615 35.2005 36.9892 35.2421 37.0655 35.2421C38.2303 35.1866 39.3119 35.1658 40.4836 35.2698C41.5028 35.3599 42.4665 35.5194 43.4511 35.7759C43.5273 35.7967 43.6036 35.7551 43.6244 35.6789C43.6591 35.5471 43.6937 35.4085 43.7284 35.2767C43.7492 35.2005 43.7007 35.1242 43.6244 35.1034C42.7023 34.8607 41.8009 34.7013 40.8511 34.6042C39.8665 34.5071 38.9513 34.4725 37.9668 34.5002C37.8628 34.5002 37.7588 34.5002 37.6617 34.5141H37.6479Z" fill="white"/>
<path d="M36.5525 34.2298C36.5039 34.2922 36.4207 34.3823 36.3722 34.4378C35.8938 34.9509 35.5055 35.6095 35.1311 36.1919C34.8191 36.6703 34.5557 37.1487 34.2714 37.6341C34.2298 37.6965 34.2229 37.8074 34.2575 37.8767C34.3338 38.057 34.417 38.2373 34.5071 38.4175C34.5418 38.4869 34.5973 38.4869 34.6319 38.4175C35.1866 37.3498 35.8175 36.3445 36.5386 35.3807C36.5871 35.3183 36.6634 35.2282 36.7189 35.1727C36.9823 34.8815 37.2042 34.5349 37.4607 34.2367C37.7381 33.9178 38.0015 33.6335 38.2997 33.3354C38.3551 33.2799 38.3551 33.1967 38.2997 33.1413C38.1957 33.0442 38.0917 32.9541 37.9946 32.8639C37.9391 32.8154 37.8698 32.7946 37.849 32.8154C37.8351 32.8293 37.8213 32.8431 37.8005 32.857C37.3567 33.3007 36.9615 33.7445 36.5663 34.2298H36.5525Z" fill="white"/>
<path d="M33.0372 45.6282C32.7114 44.713 32.8292 43.6592 33.0164 42.7232C33.2106 41.7594 33.5087 40.8512 33.89 39.9498C33.9178 39.8805 33.9178 39.7696 33.8762 39.7002C33.7791 39.52 33.689 39.3397 33.5988 39.1594C33.5642 39.0901 33.5087 39.0901 33.481 39.1594C33.0164 40.1856 32.642 41.2186 32.3924 42.321C32.1359 43.465 31.9834 44.7546 32.3924 45.8778C32.7876 46.9525 33.7583 47.521 34.8954 47.3685C36.1642 47.2021 37.3151 46.4117 38.2719 45.6005C38.3274 45.552 38.3274 45.4688 38.2719 45.4202C38.1679 45.3301 38.0639 45.233 37.9668 45.136C37.9114 45.0805 37.8559 45.0528 37.842 45.0666C37.8351 45.0736 37.8212 45.0805 37.8143 45.0874C36.6911 46.0234 33.8484 47.8885 33.0372 45.6213V45.6282Z" fill="white"/>
<path d="M29.4736 38.5076C29.6123 37.8143 30.2224 37.2943 30.784 36.9338C31.5467 36.4415 32.4203 36.1087 33.2939 35.8591C33.4811 35.8036 33.6683 35.7551 33.8555 35.7066C34.3339 35.5887 34.7638 35.4986 35.2352 35.4223C35.3115 35.4084 35.4086 35.353 35.4502 35.2906C35.5819 35.1034 35.7136 34.9231 35.8523 34.7428C35.9008 34.6804 35.8731 34.6388 35.7968 34.6458C34.9371 34.7498 34.1328 34.9092 33.2939 35.138C33.2315 35.1519 33.176 35.1727 33.1136 35.1866C31.5259 35.6372 29.1131 36.5316 28.7803 38.4036C28.4544 40.2826 30.5968 41.4404 32.039 41.9812C32.0736 41.9951 32.1083 42.009 32.143 42.0159C32.1984 42.0367 32.2608 41.9951 32.2816 41.9188C32.3371 41.69 32.4203 41.385 32.4203 41.378C31.311 40.9759 29.1686 40.026 29.4736 38.4938V38.5076Z" fill="white"/>
<path d="M33.4048 36.192C33.384 36.1157 33.3077 36.0741 33.2314 36.1019C33.0997 36.1435 32.968 36.1851 32.8362 36.2267C32.7669 36.2544 32.7253 36.3307 32.7461 36.4C33.3562 38.3483 34.2853 40.1301 35.4432 41.808C35.4848 41.8704 35.5818 41.9328 35.6581 41.9398C35.873 41.9675 36.088 41.9952 36.3098 42.016C36.3861 42.0229 36.4138 41.9814 36.3653 41.919C35.4501 40.664 34.7706 39.3606 34.0773 37.9739C33.8138 37.3845 33.592 36.8091 33.4048 36.192Z" fill="white"/>
<path d="M32.3577 34.8886C32.3647 34.944 32.3924 35.0272 32.4063 35.0896C32.4201 35.1451 32.4895 35.1798 32.5588 35.152C32.6905 35.1104 32.8223 35.0688 32.954 35.0272C33.0303 35.0064 33.0719 34.9302 33.058 34.8539C32.7668 33.384 32.6004 30.576 34.826 30.8672C35.8729 30.999 36.8367 31.6576 37.6409 32.2955C38.3689 32.8779 38.986 33.488 39.5961 34.1883C39.6447 34.2438 39.7487 34.2992 39.8249 34.2992C40.0537 34.3131 40.2756 34.327 40.4975 34.3478C40.5737 34.3478 40.5945 34.3131 40.546 34.2507C40.0676 33.6614 39.6031 33.1483 39.0484 32.6144C38.2857 31.8864 37.4537 31.207 36.5108 30.7147C35.7065 30.2987 34.7359 29.9728 33.8345 30.2432C31.9556 30.8048 32.0457 33.2592 32.3369 34.7846C32.3369 34.8054 32.3439 34.847 32.3508 34.8816L32.3577 34.8886Z" fill="white"/>
<path d="M43.7006 41.3295C43.7214 41.4058 43.7977 41.4474 43.874 41.4197C44.0057 41.3781 44.1374 41.3365 44.2692 41.2949C44.3385 41.2741 44.3801 41.1909 44.3593 41.1215C43.7492 39.1733 42.7993 37.3983 41.6414 35.7205C41.5998 35.6581 41.5028 35.5957 41.4265 35.5887C41.2116 35.561 40.9966 35.5333 40.7748 35.5125C40.6985 35.5055 40.6777 35.5471 40.7193 35.6095C41.6692 36.9061 42.4596 38.2719 43.0974 39.7557C43.3262 40.2826 43.5273 40.7887 43.7006 41.3295Z" fill="white"/>
<path d="M38.5492 40.3591C39.426 40.3591 40.1369 39.6482 40.1369 38.7713C40.1369 37.8944 39.426 37.1836 38.5492 37.1836C37.6723 37.1836 36.9614 37.8944 36.9614 38.7713C36.9614 39.6482 37.6723 40.3591 38.5492 40.3591Z" fill="white"/>
<path d="M44.4497 33.8139C45.0049 33.8139 45.455 33.3638 45.455 32.8086C45.455 32.2533 45.0049 31.8032 44.4497 31.8032C43.8944 31.8032 43.4443 32.2533 43.4443 32.8086C43.4443 33.3638 43.8944 33.8139 44.4497 33.8139Z" fill="white" stroke="#8BC53F" stroke-width="0.15" stroke-miterlimit="10"/>
<path d="M44.4497 45.3302C45.0049 45.3302 45.455 44.8801 45.455 44.3249C45.455 43.7697 45.0049 43.3196 44.4497 43.3196C43.8944 43.3196 43.4443 43.7697 43.4443 44.3249C43.4443 44.8801 43.8944 45.3302 44.4497 45.3302Z" fill="white" stroke="#8BC53F" stroke-width="0.15" stroke-miterlimit="10"/>
<path d="M30.8325 37.5163C31.3877 37.5163 31.8378 37.0662 31.8378 36.5109C31.8378 35.9557 31.3877 35.5056 30.8325 35.5056C30.2773 35.5056 29.8271 35.9557 29.8271 36.5109C29.8271 37.0662 30.2773 37.5163 30.8325 37.5163Z" fill="white" stroke="#8BC53F" stroke-width="0.15" stroke-miterlimit="10"/>
</g>
<defs>
<clipPath id="clip0_3039_51527">
<rect width="52" height="52" fill="white" transform="translate(0 0.52002)"/>
</clipPath>
</defs>
</svg>
