<svg width="32" height="32" viewBox="0 0 32 32" fill="#fff" xmlns="http://www.w3.org/2000/svg">
              <path fill-rule="evenodd" clip-rule="evenodd"
                d="M23.7071 7.29289C24.0976 7.68342 24.0976 8.31658 23.7071 8.70711L16.4142 16L23.7071 23.2929C24.0976 23.6834 24.0976 24.3166 23.7071 24.7071C23.3166 25.0976 22.6834 25.0976 22.2929 24.7071L14.2929 16.7071C13.9024 16.3166 13.9024 15.6834 14.2929 15.2929L22.2929 7.29289C22.6834 6.90237 23.3166 6.90237 23.7071 7.29289Z" />
              <path fill-rule="evenodd" clip-rule="evenodd"
                d="M9 2C8.44772 2 8 2.44772 8 3L8 29C8 29.5523 8.44772 30 9 30C9.55228 30 10 29.5523 10 29L10 3C10 2.44772 9.55228 2 9 2Z" />
            </svg>