<svg width="115" height="116" viewBox="0 0 115 116" fill="none" xmlns="http://www.w3.org/2000/svg">
                <g clip-path="url(#clip0_3355_6568)">
                <path d="M96.83 0.149902H18.17C8.13499 0.149902 0 8.28489 0 18.3199V96.9799C0 107.015 8.13499 115.15 18.17 115.15H96.83C106.865 115.15 115 107.015 115 96.9799V18.3199C115 8.28489 106.865 0.149902 96.83 0.149902Z" fill="#1A50A0"/>
                <mask id="mask0_3355_6568" style="mask-type:luminance" maskUnits="userSpaceOnUse" x="0" y="0" width="115" height="116">
                <path d="M96.83 0.149902H18.17C8.13499 0.149902 0 8.28489 0 18.3199V96.9799C0 107.015 8.13499 115.15 18.17 115.15H96.83C106.865 115.15 115 107.015 115 96.9799V18.3199C115 8.28489 106.865 0.149902 96.83 0.149902Z" fill="white"/>
                </mask>
                <g mask="url(#mask0_3355_6568)">
                <path opacity="0.3" d="M-2.42261 124.457C12.6347 120.961 46.6287 110.948 77.6174 80.987C106.153 53.4024 117.622 22.9504 122.13 8.19971C124.323 47.7597 126.5 87.3197 128.693 126.88L-2.40727 124.457H-2.42261Z" fill="white"/>
                </g>
                <path d="M45.7853 7.11133H13.662C9.55485 7.11133 6.22534 10.4408 6.22534 14.548V46.6713C6.22534 50.7785 9.55485 54.108 13.662 54.108H45.7853C49.8925 54.108 53.222 50.7785 53.222 46.6713V14.548C53.222 10.4408 49.8925 7.11133 45.7853 7.11133Z" fill="#EC1C24"/>
                <path d="M101.353 7.11133H69.2301C65.123 7.11133 61.7935 10.4408 61.7935 14.548V46.6713C61.7935 50.7785 65.123 54.108 69.2301 54.108H101.353C105.461 54.108 108.79 50.7785 108.79 46.6713V14.548C108.79 10.4408 105.461 7.11133 101.353 7.11133Z" fill="#25BFEF"/>
                <path d="M76.7434 33.1318L72.0361 40.1545C70.0428 43.2212 70.3034 47.3305 75.7621 46.8858C76.8814 46.7938 93.8708 46.8858 93.8708 46.8858C100.985 47.4992 100.157 42.8838 98.3634 40.5685L93.5181 33.2085L76.7434 33.1318Z" fill="white"/>
                <path d="M90.896 12.5391H79.1353C78.9053 12.5391 78.6753 12.6925 78.5833 12.9071C78.4913 13.1218 78.5526 13.3825 78.706 13.5511C79.6106 14.4405 79.9326 15.1305 80.086 15.9125C80.2393 16.6945 80.178 17.5991 80.1933 18.7645L80.2546 25.8331L70.9626 39.7558C70.9626 39.7558 70.9626 39.7711 70.9473 39.7865C69.736 41.8105 69.4906 43.8805 70.15 45.4598C70.8093 47.0391 72.404 48.0665 74.4433 47.9591H74.474H96.0326C98.2253 47.9591 99.8966 46.8705 100.464 45.1991C101.031 43.5278 100.525 41.4271 98.9 39.3725L98.8693 39.3265L90.068 25.8485L89.8993 18.7645C89.8993 18.7645 89.8993 18.7031 89.8993 18.6725C89.8993 18.6725 89.8993 18.6725 89.8993 18.6571C89.8993 17.5378 89.8226 16.6638 89.9606 15.9125C90.0986 15.1305 90.4206 14.4405 91.2946 13.5358C91.4633 13.3671 91.5093 13.1065 91.4173 12.8918C91.3253 12.6771 91.1106 12.5238 90.8653 12.5391H90.896ZM89.7153 13.7351C89.2553 14.4098 88.9333 15.0691 88.826 15.7285C88.688 16.4951 88.7186 17.2771 88.7493 18.1051H86.112C86.112 18.1051 86.066 18.1051 86.0506 18.1051C85.7286 18.1205 85.4833 18.3965 85.4986 18.7185C85.514 19.0405 85.79 19.3011 86.112 19.2858H88.7646L88.872 23.7938H86.112C86.112 23.7938 86.066 23.7938 86.0506 23.7938C85.7286 23.8091 85.4833 24.0851 85.4986 24.4071C85.514 24.7291 85.79 24.9898 86.112 24.9745H88.9026L88.9333 26.0785C88.9333 26.1858 88.964 26.2931 89.0253 26.3851L91.126 29.6051H88.2893C88.2893 29.6051 88.2433 29.6051 88.228 29.6051C87.906 29.6205 87.6606 29.8965 87.676 30.2185C87.6913 30.5405 87.9673 30.8011 88.2893 30.7858H91.5093C91.632 30.7858 91.7393 30.7551 91.8313 30.6938L94.1466 34.2511H91.4173C91.4173 34.2511 91.3866 34.2511 91.356 34.2511C91.034 34.2511 90.7733 34.5425 90.7886 34.8645C90.7886 35.1865 91.08 35.4471 91.402 35.4318H94.622C94.714 35.4318 94.7906 35.4165 94.8673 35.3705L97.106 38.8051H94.5453C94.5453 38.8051 94.5146 38.8051 94.484 38.8051C94.162 38.8051 93.9013 39.0965 93.9166 39.4185C93.9166 39.7405 94.208 40.0011 94.53 39.9858H97.75C97.75 39.9858 97.8113 39.9858 97.842 39.9858L97.888 40.0471C97.888 40.0471 97.9033 40.0778 97.9186 40.0931C99.3906 41.9485 99.7126 43.6658 99.3293 44.8465C98.9306 46.0271 97.842 46.8091 96.002 46.8245H74.428L74.3973 46.8091C72.726 46.9011 71.714 46.1958 71.2233 45.0305C70.748 43.8651 70.886 42.1938 71.944 40.4151L81.328 26.3545C81.3893 26.2625 81.4353 26.1398 81.4353 26.0171L81.374 18.7645C81.374 17.6451 81.4353 16.6791 81.2513 15.6978C81.1286 15.0385 80.7913 14.3945 80.3313 13.7351H89.7H89.7153Z" fill="white"/>
                <path d="M25.3459 31.2766L29.8079 35.7386C30.0532 35.9839 29.9766 36.1066 29.6392 36.0299L29.1946 35.9226C28.8572 35.8459 28.3819 35.5699 28.1519 35.3246L25.7599 32.9326C25.5146 32.6873 25.2539 32.2119 25.1619 31.8746L25.0546 31.4299C24.9779 31.0926 25.1006 31.0159 25.3459 31.2613V31.2766ZM29.5626 27.0906L29.1179 26.9833C28.7806 26.8913 28.7039 27.0293 28.9492 27.2746L33.8099 32.1199C34.0552 32.3653 34.1779 32.2886 34.1012 31.9513L33.9939 31.5066C33.9172 31.1693 33.6412 30.6939 33.3959 30.4486L30.6052 27.6579C30.3599 27.4126 29.8846 27.1519 29.5472 27.0599L29.5626 27.0906ZM34.8526 20.7886L34.9599 21.2333C35.0366 21.5706 35.3126 22.0459 35.5579 22.2913L38.7932 25.5266C39.0386 25.7719 39.5139 26.0326 39.8512 26.1246L40.2959 26.2319C40.6332 26.3086 40.7099 26.1859 40.4646 25.9406L35.1592 20.6353C34.9139 20.3899 34.7912 20.4666 34.8679 20.8039L34.8526 20.7886ZM19.3506 37.0113L18.9059 36.9039C18.5686 36.8273 18.4919 36.9499 18.7372 37.1953L23.8739 42.3319C24.1192 42.5773 24.2572 42.5006 24.1652 42.1633L24.0579 41.7186C23.9659 41.3813 23.7052 40.9059 23.4599 40.6606L20.3932 37.5939C20.1479 37.3486 19.6726 37.0879 19.3352 36.9959L19.3506 37.0113ZM24.1192 45.4906L15.5019 37.0419C15.2566 36.7966 14.9959 36.6433 14.9346 36.6893C14.8886 36.7199 14.8579 36.7506 14.8272 36.7966C14.7199 36.9039 14.6432 37.0113 14.5666 37.1339C14.4439 37.3333 14.5819 37.7166 14.8272 37.9619L23.2606 46.2419C23.5059 46.4873 23.8586 46.6253 24.0272 46.5179C24.1192 46.4566 24.2112 46.3799 24.3032 46.2879C24.3492 46.2419 24.3952 46.1806 24.4412 46.1193C24.5179 46.0273 24.3646 45.7513 24.1192 45.5059V45.4906ZM34.1626 35.4166L25.5912 26.9986C25.3459 26.7533 25.0546 26.6153 24.9626 26.6766C24.9012 26.7226 24.8552 26.7686 24.8092 26.8146C24.7172 26.9066 24.6406 26.9986 24.5792 27.0906C24.4719 27.2593 24.6099 27.6119 24.8552 27.8419L33.3499 36.1833C33.5952 36.4286 33.9172 36.5666 34.0552 36.4746C34.1319 36.4133 34.2086 36.3519 34.2852 36.2906C34.3466 36.2293 34.4079 36.1526 34.4692 36.0759C34.5612 35.9533 34.4232 35.6466 34.1626 35.4013V35.4166ZM44.2826 25.0666L35.9106 16.8479C35.6652 16.6026 35.2972 16.4646 35.0979 16.5873C34.9906 16.6639 34.8832 16.7406 34.7759 16.8326C34.7299 16.8786 34.6992 16.9246 34.6532 16.9553C34.5919 17.0319 34.7452 17.2926 34.9906 17.5379L43.6232 26.0173C43.8686 26.2626 44.1139 26.4313 44.1599 26.3853C44.1906 26.3546 44.2212 26.3393 44.2366 26.3086C44.3439 26.2013 44.4512 26.0633 44.5279 25.9406C44.6659 25.7106 44.5126 25.3119 44.2672 25.0666H44.2826ZM27.3086 43.0986L23.9659 29.7126C23.7972 29.0379 23.5672 27.9646 23.7666 27.3666C23.8892 26.9986 24.0886 26.6766 24.3646 26.4006C24.9319 25.8333 25.7292 25.5879 26.5112 25.7106C26.6492 25.7259 26.7872 25.7719 26.9252 25.8179H26.9712L31.2952 26.9219C31.9699 27.0906 32.3686 26.6919 32.2152 26.0173C32.0466 25.3579 31.3719 24.6679 30.6972 24.5146L27.5846 23.7326C27.3546 23.6559 27.1092 23.5946 26.8486 23.5486C25.3766 23.3033 23.8586 23.7939 22.8006 24.8519C21.7426 25.9099 21.2519 27.4279 21.4972 28.8999V28.9459L22.3712 32.4113C22.5399 33.0859 22.8159 34.1746 22.9846 34.8493C23.3219 36.2139 23.8739 38.4373 24.2266 39.8019C24.3952 40.4766 24.6712 41.5653 24.8399 42.2399C24.9472 42.6539 25.0546 43.1139 25.1619 43.5126C25.3306 44.1873 25.5452 45.2453 25.3459 45.8126C25.2232 46.1499 25.0239 46.4719 24.7632 46.7326C24.1039 47.3919 23.1686 47.6066 22.3252 47.3613C21.6659 47.1773 20.9146 47.0853 20.4852 47.5146C20.0559 47.9439 20.1019 48.7106 20.6999 49.0479C21.4206 49.4466 22.2179 49.6613 23.0152 49.6613C24.2112 49.6613 25.4072 49.2013 26.3119 48.2966C27.3392 47.2693 27.8299 45.8433 27.6459 44.4019C27.6459 44.4019 27.6459 44.4019 27.6459 44.3713C27.6459 44.3559 27.5079 43.7886 27.3392 43.1293L27.3086 43.0986ZM20.7152 34.4506L17.6026 33.6686C17.3879 33.5919 17.1579 33.5306 16.9279 33.4999H16.8819C15.4099 33.2546 13.8919 33.7453 12.8339 34.8033C11.9446 35.6926 11.4692 36.8579 11.4692 38.0999C11.4692 38.9279 11.6839 39.7099 12.0826 40.4153C12.4199 41.0133 13.1866 41.0593 13.6159 40.6299C14.0452 40.2006 14.0606 39.5413 13.8459 39.0506C13.7232 38.7593 13.6619 38.4373 13.6619 38.0999C13.6619 37.4406 13.9226 36.8119 14.3826 36.3519C14.6586 36.0759 14.9959 35.8766 15.3486 35.7539C15.9466 35.5546 17.0352 35.7846 17.6946 35.9533L21.3132 36.8579C21.9879 37.0266 22.4019 36.6279 22.2332 35.9533C22.0646 35.2939 21.3899 34.6039 20.7152 34.4506ZM45.4786 22.4753C45.0492 22.9046 45.0339 23.5639 45.2486 24.0546C45.3712 24.3459 45.4326 24.6679 45.4326 25.0053C45.4326 25.6646 45.1719 26.2933 44.7119 26.7533C44.4512 27.0139 44.1292 27.2133 43.7919 27.3359C43.2246 27.5353 42.1666 27.3359 41.4919 27.1673L37.7506 26.2319C37.0759 26.0633 36.6772 26.4619 36.8306 27.1366C36.9992 27.7959 37.6739 28.4859 38.3486 28.6393L41.0779 29.3293C41.7526 29.4979 42.3046 29.6359 42.3199 29.6359H42.3506C43.7919 29.8199 45.2179 29.3446 46.2452 28.3019C47.1346 27.4126 47.6099 26.2473 47.6099 25.0053C47.6099 24.1773 47.3952 23.3953 46.9966 22.6899C46.6592 22.0919 45.8926 22.0459 45.4632 22.4753H45.4786ZM37.0606 32.1659L36.9839 31.8593C36.8152 31.1846 36.5392 30.0959 36.3706 29.4213C36.0332 28.0566 35.4659 25.8333 35.1286 24.4686C34.9599 23.7939 34.6839 22.7053 34.5152 22.0306C34.3312 21.3253 34.1166 20.4206 33.9326 19.7153C33.7639 19.0406 33.5339 17.9673 33.7332 17.3693C33.8559 17.0013 34.0552 16.6793 34.3312 16.4033C34.9906 15.7439 35.9259 15.5293 36.7692 15.7746C37.4286 15.9586 38.1799 16.0506 38.6092 15.6213C39.0386 15.1919 38.9926 14.4253 38.3946 14.0879C36.6159 13.0759 34.3006 13.3213 32.7826 14.8393C31.7246 15.8973 31.2339 17.4153 31.4792 18.8873V18.9333L35.2359 33.9599C35.2359 33.9599 35.2359 33.9599 35.2359 33.9906C35.2359 34.0059 35.2359 34.0366 35.2512 34.0519V34.0826C35.3279 34.2666 35.3739 34.4506 35.4046 34.6499C35.4966 35.4166 35.2512 36.1679 34.6992 36.7199C34.4386 36.9806 34.1166 37.1799 33.7792 37.3026C33.2119 37.5019 32.1539 37.3026 31.4792 37.1339L27.7532 36.1986C27.0786 36.0299 26.6646 36.4286 26.8332 37.1033C27.0019 37.7626 27.6766 38.4373 28.3512 38.6059L31.0806 39.2806C31.7552 39.4493 32.3072 39.5873 32.3226 39.5873H32.3532C33.7946 39.7713 35.2206 39.2959 36.2479 38.2686C37.2752 37.2413 37.7659 35.8153 37.5819 34.3739C37.5666 34.2053 37.5206 34.0366 37.4899 33.8679C37.4286 33.5919 37.1986 32.8253 37.0299 32.1506L37.0606 32.1659Z" fill="white"/>
                <path d="M45.7853 61.1919H13.662C9.55485 61.1919 6.22534 64.5214 6.22534 68.6286V100.752C6.22534 104.859 9.55485 108.189 13.662 108.189H45.7853C49.8925 108.189 53.222 104.859 53.222 100.752V68.6286C53.222 64.5214 49.8925 61.1919 45.7853 61.1919Z" fill="#FFAA3B"/>
                <path d="M12.6193 77.9666C14.1182 77.9666 15.3333 76.7515 15.3333 75.2526C15.3333 73.7537 14.1182 72.5386 12.6193 72.5386C11.1204 72.5386 9.90527 73.7537 9.90527 75.2526C9.90527 76.7515 11.1204 77.9666 12.6193 77.9666Z" fill="white" stroke="#FAAF40" stroke-width="0.61" stroke-miterlimit="10"/>
                <path d="M16.5599 68.9352C17.4152 68.9352 18.1086 68.2419 18.1086 67.3866C18.1086 66.5313 17.4152 65.8379 16.5599 65.8379C15.7046 65.8379 15.0112 66.5313 15.0112 67.3866C15.0112 68.2419 15.7046 68.9352 16.5599 68.9352Z" fill="white" stroke="#FAAF40" stroke-width="0.61" stroke-miterlimit="10"/>
                <path d="M30.2832 97.8233C37.1087 97.8233 42.6419 92.2901 42.6419 85.4646C42.6419 78.6391 37.1087 73.106 30.2832 73.106C23.4577 73.106 17.9246 78.6391 17.9246 85.4646C17.9246 92.2901 23.4577 97.8233 30.2832 97.8233Z" fill="white"/>
                <path d="M50.6612 70.8979C50.3699 69.1346 46.2299 70.4686 40.2346 73.9339C39.3299 74.4399 38.3946 75.0073 37.4132 75.6206C37.4746 75.9119 37.5512 76.2186 37.6126 76.5253C43.4852 72.8606 47.6099 71.1586 47.8399 72.5692C48.0699 73.9952 44.2826 78.1966 38.5172 83.1799C36.1252 85.2499 33.3806 87.4579 30.4519 89.6506C30.3599 89.7272 30.2526 89.7886 30.1606 89.8652C27.1706 92.0886 24.3339 94.0359 21.8039 95.6306C15.7626 99.4333 11.4999 101.212 11.2546 99.7859C11.0246 98.3599 14.8119 94.1586 20.5466 89.2059C20.5159 88.8993 20.4699 88.5926 20.4392 88.2859C20.4392 88.2706 20.4392 88.2399 20.4392 88.2246C15.7012 92.3186 12.0519 96.0906 10.3192 98.6819C9.32256 100.108 8.81656 101.212 8.93922 101.917C9.27656 103.957 14.7352 101.856 22.2486 97.1333C24.8399 95.5079 27.6766 93.5606 30.6206 91.3679C33.4726 89.2366 36.1866 87.0746 38.6246 84.9893C46.0152 78.6413 51.0139 72.9526 50.6766 70.8826L50.6612 70.8979Z" fill="white"/>
                <path d="M47.8552 72.5846C47.6252 71.174 43.5006 72.8606 37.6279 76.5406C37.6279 76.556 37.6279 76.5713 37.6279 76.602C37.6279 76.602 37.6279 76.6173 37.6279 76.6326C41.7372 74.1793 44.5432 73.1366 44.7119 74.1793C44.8806 75.222 42.3659 78.1353 38.3946 81.708C36.0179 83.8393 33.1199 86.2006 29.9766 88.5466C26.8486 90.8773 23.9046 92.8553 21.4359 94.3273C17.2652 96.8266 14.4132 97.9 14.2446 96.842C14.0759 95.7993 16.5906 92.9013 20.5466 89.344C20.5466 89.344 20.5466 89.3133 20.5466 89.298C20.5466 89.2826 20.5466 89.252 20.5466 89.2366C14.8119 94.2046 11.0246 98.3906 11.2546 99.8166C11.4846 101.258 15.7626 99.464 21.8039 95.6613C24.3339 94.0666 27.1859 92.1193 30.1606 89.896C30.2526 89.8193 30.3599 89.758 30.4519 89.6813C33.3806 87.4886 36.1252 85.2806 38.5172 83.2106C44.2672 78.2426 48.0699 74.026 47.8399 72.6L47.8552 72.5846Z" fill="white"/>
                <path d="M40.5259 77.7061C40.5259 77.7061 34.1012 85.2807 23.2759 93.1467C32.7212 87.4427 41.1545 79.1167 41.1545 79.1167L40.5105 77.7061H40.5259Z" fill="#FAAF40"/>
                <path d="M23.8125 96.1519C23.8125 96.1519 29.3478 92.6712 40.4492 83.3945C28.3512 95.3239 24.1652 96.8419 24.1652 96.8419L23.8125 96.1519Z" fill="#FAAF40"/>
                <path d="M39.3912 76.6018C38.8239 75.9885 37.5359 75.0225 37.5359 75.0225" stroke="#FAAF40" stroke-width="0.61" stroke-miterlimit="10"/>
                <path d="M18.2466 89.6201C18.5072 90.4175 19.2586 91.8281 19.2586 91.8281" stroke="#FAAF40" stroke-width="0.61" stroke-miterlimit="10"/>
                <path d="M101.353 61.1919H69.2301C65.123 61.1919 61.7935 64.5214 61.7935 68.6286V100.752C61.7935 104.859 65.123 108.189 69.2301 108.189H101.353C105.461 108.189 108.79 104.859 108.79 100.752V68.6286C108.79 64.5214 105.461 61.1919 101.353 61.1919Z" fill="#02AD4B"/>
                <path d="M87.2928 94.1126C87.4614 94.1126 87.6914 93.99 87.7988 93.8673C88.1054 93.4993 88.4121 93.1313 88.7034 92.7326C88.8108 92.5946 88.7494 92.5026 88.5808 92.518C84.4101 92.8093 80.2701 92.61 76.1761 91.7666C75.5321 91.6286 74.9954 91.5213 74.3974 91.3833C74.2288 91.3373 74.0601 91.4446 74.0294 91.598C73.8914 92.1193 73.7534 92.7786 73.7534 92.794C78.2154 94.0053 82.6928 94.312 87.2928 94.128V94.1126Z" fill="white"/>
                <path d="M98.8694 92.9474C98.8388 92.7787 98.6701 92.6867 98.5168 92.7481C98.2254 92.8401 97.9341 92.9321 97.6428 93.0241C97.4741 93.0701 97.3821 93.2387 97.4128 93.4074C98.0568 96.5814 98.4401 102.684 93.6408 102.209C91.3561 101.979 89.2248 100.583 87.4614 99.2034C85.7594 97.8694 84.3181 96.4434 82.9074 94.8181C82.8001 94.6954 82.5701 94.5727 82.4014 94.5727C81.8954 94.5421 81.4048 94.5114 80.9141 94.4654C80.7454 94.4654 80.6994 94.5421 80.8068 94.6801C82.3094 96.5354 83.8581 98.1761 85.6828 99.7247C87.7834 101.503 90.2828 103.251 93.0734 103.681C95.3428 104.033 97.4894 103.144 98.5168 101.043C99.6514 98.7281 99.4368 95.8761 98.9768 93.4227C98.9461 93.2387 98.9154 93.1007 98.8848 92.9474H98.8694Z" fill="white"/>
                <path d="M94.6988 87.2736C94.7755 87.1203 94.7755 86.875 94.6988 86.7216C94.5301 86.323 94.3461 85.9243 94.1468 85.5256C94.0701 85.3723 93.9475 85.3723 93.8708 85.5256C91.7241 89.6656 89.0868 93.4683 85.7595 96.7496C85.6368 96.8723 85.6368 97.0563 85.7595 97.179C85.9895 97.3936 86.2195 97.593 86.4341 97.7923C86.5568 97.8996 86.6948 97.961 86.7408 97.915C86.7561 97.8843 86.7868 97.869 86.8175 97.8383C89.8995 94.741 92.6748 91.1836 94.6681 87.2736H94.6988Z" fill="white"/>
                <path d="M99.498 77.5679C99.3447 77.5066 99.1761 77.5986 99.1454 77.7672C99.0687 78.0586 98.9921 78.3652 98.9154 78.6566C98.8694 78.8252 98.9614 78.9939 99.1147 79.0552C101.629 79.9906 105.969 82.0146 105.309 85.2806C104.987 86.8906 103.531 88.0712 102.212 88.8839C100.571 89.9112 98.716 90.6012 96.8607 91.1379C96.0174 91.3372 95.174 91.5826 94.3154 91.7512C93.6714 91.8432 93.15 91.9812 92.5367 92.0886C92.368 92.1192 92.1534 92.2419 92.0614 92.3799C91.7701 92.7939 91.4787 93.1926 91.172 93.5912C91.0647 93.7292 91.1261 93.8212 91.2947 93.8059C93.1961 93.5759 94.9747 93.2232 96.8454 92.7172C98.8694 92.3186 101.016 91.3679 102.779 90.3252C104.374 89.3746 105.984 88.0559 106.613 86.2466C108.085 82.1066 103.485 79.2086 100.295 77.8899C99.9887 77.7672 99.7587 77.6752 99.498 77.5679Z" fill="white"/>
                <path d="M97.2901 69.4413C98.0874 71.45 97.8268 73.8267 97.4281 75.8813C96.9988 78.074 96.3701 80.0673 95.4961 82.1067C95.4348 82.26 95.4348 82.5053 95.5268 82.6587C95.7414 83.0573 95.9408 83.456 96.1401 83.8547C96.2168 84.008 96.3394 84.008 96.4008 83.8547C97.4281 81.5853 98.2254 79.3467 98.7774 76.9087C99.3448 74.3327 99.7128 71.3887 98.7161 68.874C97.7808 66.5127 95.5574 65.378 93.0581 65.7767C90.3288 66.206 87.9061 67.8467 85.8208 69.5947C85.6981 69.702 85.6981 69.886 85.8208 69.9933C86.0508 70.1927 86.2808 70.4073 86.5108 70.622C86.6334 70.7447 86.7561 70.806 86.7868 70.7753C86.8021 70.76 86.8328 70.7447 86.8481 70.7293C89.2708 68.7053 95.3888 64.6267 97.2901 69.4413Z" fill="white"/>
                <path d="M83.26 75.3289C83.0913 75.3289 82.8613 75.4516 82.754 75.5743C82.4473 75.9423 82.1406 76.3103 81.8493 76.7089C81.742 76.8469 81.8033 76.9389 81.972 76.9389C84.548 76.8163 86.94 76.7703 89.5313 77.0003C91.7853 77.1996 93.9166 77.5523 96.094 78.1196C96.2626 78.1656 96.4313 78.0736 96.4773 77.9049C96.554 77.6136 96.6306 77.3069 96.7073 77.0156C96.7533 76.8469 96.646 76.6783 96.4773 76.6323C94.438 76.0956 92.4446 75.7429 90.344 75.5283C88.1666 75.3136 86.1426 75.2369 83.9653 75.2983C83.7353 75.2983 83.5053 75.2983 83.2906 75.3289H83.26Z" fill="white"/>
                <path d="M80.8373 74.7004C80.73 74.8384 80.546 75.0378 80.4386 75.1604C79.3806 76.2951 78.522 77.7518 77.694 79.0398C77.004 80.0978 76.4213 81.1558 75.7926 82.2291C75.7006 82.3671 75.6853 82.6124 75.762 82.7658C75.9306 83.1644 76.1146 83.5631 76.314 83.9618C76.3906 84.1151 76.5133 84.1151 76.59 83.9618C77.8166 81.6004 79.212 79.3771 80.8066 77.2458C80.914 77.1078 81.0826 76.9084 81.2053 76.7858C81.788 76.1418 82.2786 75.3751 82.846 74.7158C83.4593 74.0104 84.042 73.3818 84.7013 72.7224C84.824 72.5998 84.824 72.4158 84.7013 72.2931C84.4713 72.0784 84.2413 71.8791 84.0266 71.6798C83.904 71.5724 83.7506 71.5264 83.7046 71.5724C83.674 71.6031 83.6433 71.6338 83.5973 71.6644C82.616 72.6458 81.742 73.6271 80.868 74.7004H80.8373Z" fill="white"/>
                <path d="M73.0634 99.9083C72.3428 97.8843 72.6034 95.5536 73.0174 93.4836C73.4468 91.3523 74.1061 89.3436 74.9494 87.3503C75.0108 87.197 75.0108 86.9516 74.9188 86.7983C74.7041 86.3996 74.5048 86.001 74.3054 85.6023C74.2288 85.449 74.1061 85.449 74.0448 85.6023C73.0174 87.8716 72.1894 90.1563 71.6374 92.5943C71.0701 95.1243 70.7328 97.9763 71.6374 100.46C72.5114 102.837 74.6581 104.094 77.1728 103.757C79.9788 103.389 82.5241 101.641 84.6401 99.847C84.7628 99.7396 84.7628 99.5556 84.6401 99.4483C84.4101 99.249 84.1801 99.0343 83.9654 98.8196C83.8428 98.697 83.7201 98.6356 83.6894 98.6663C83.6741 98.6816 83.6434 98.697 83.6281 98.7123C81.1441 100.782 74.8574 104.907 73.0634 99.893V99.9083Z" fill="white"/>
                <path d="M65.182 84.161C65.4887 82.6276 66.838 81.4776 68.08 80.6803C69.7667 79.5916 71.6987 78.8557 73.6307 78.3037C74.0447 78.181 74.4587 78.0736 74.8727 77.9663C75.9307 77.7056 76.8814 77.5063 77.924 77.3376C78.0927 77.307 78.3074 77.1843 78.3994 77.0463C78.6907 76.6323 78.982 76.2337 79.2887 75.835C79.396 75.697 79.3347 75.605 79.166 75.6203C77.2647 75.8503 75.486 76.203 73.6307 76.709C73.4927 76.7396 73.37 76.7856 73.232 76.8163C69.7207 77.813 64.3847 79.791 63.6487 83.931C62.928 88.0863 67.666 90.647 70.8554 91.843C70.932 91.8736 71.0087 91.9043 71.0854 91.9196C71.208 91.9656 71.346 91.8736 71.392 91.705C71.5147 91.199 71.6987 90.5243 71.6987 90.509C69.2454 89.6196 64.5074 87.519 65.182 84.1303V84.161Z" fill="white"/>
                <path d="M73.876 79.0397C73.83 78.871 73.6614 78.779 73.4927 78.8404C73.2014 78.9324 72.91 79.0244 72.6187 79.1164C72.4654 79.1777 72.3734 79.3464 72.4194 79.4997C73.7687 83.8084 75.8234 87.749 78.384 91.4597C78.476 91.5977 78.6907 91.7357 78.8594 91.751C79.3347 91.8124 79.81 91.8737 80.3007 91.9197C80.4694 91.935 80.5307 91.843 80.4234 91.705C78.3994 88.9297 76.8967 86.047 75.3634 82.9804C74.7807 81.677 74.29 80.4044 73.876 79.0397Z" fill="white"/>
                <path d="M71.5607 76.1572C71.576 76.2798 71.6373 76.4638 71.668 76.6018C71.6987 76.7245 71.852 76.8012 72.0053 76.7398C72.2967 76.6478 72.588 76.5558 72.8793 76.4638C73.048 76.4178 73.14 76.2492 73.1093 76.0805C72.4653 72.8298 72.0973 66.6198 77.0193 67.2638C79.3347 67.5552 81.466 69.0118 83.2447 70.4225C84.8547 71.7105 86.2193 73.0598 87.5687 74.6085C87.676 74.7312 87.906 74.8538 88.0747 74.8538C88.5807 74.8845 89.0713 74.9152 89.562 74.9612C89.7307 74.9612 89.7767 74.8845 89.6693 74.7465C88.6113 73.4432 87.584 72.3085 86.3573 71.1278C84.6707 69.5178 82.8307 68.0152 80.7453 66.9265C78.9667 66.0065 76.82 65.2858 74.8267 65.8838C70.6713 67.1258 70.8707 72.5538 71.5147 75.9272C71.5147 75.9732 71.53 76.0652 71.5453 76.1418L71.5607 76.1572Z" fill="white"/>
                <path d="M96.646 90.402C96.692 90.5706 96.8607 90.6626 97.0294 90.6013C97.3207 90.5093 97.612 90.4173 97.9034 90.3253C98.0567 90.2793 98.1487 90.0953 98.1027 89.942C96.7534 85.6333 94.6527 81.708 92.092 77.9973C92 77.8593 91.7854 77.7213 91.6167 77.706C91.1414 77.6446 90.666 77.5833 90.1754 77.5373C90.0067 77.522 89.9607 77.614 90.0527 77.752C92.1534 80.6193 93.9014 83.64 95.312 86.9213C95.818 88.0866 96.2627 89.206 96.646 90.402Z" fill="white"/>
                <path d="M85.2533 88.2551C87.1925 88.2551 88.7646 86.683 88.7646 84.7438C88.7646 82.8045 87.1925 81.2324 85.2533 81.2324C83.314 81.2324 81.7419 82.8045 81.7419 84.7438C81.7419 86.683 83.314 88.2551 85.2533 88.2551Z" fill="white"/>
                <path d="M98.3019 73.7807C99.5299 73.7807 100.525 72.7852 100.525 71.5573C100.525 70.3294 99.5299 69.334 98.3019 69.334C97.074 69.334 96.0786 70.3294 96.0786 71.5573C96.0786 72.7852 97.074 73.7807 98.3019 73.7807Z" fill="white" stroke="#8BC53F" stroke-width="0.15" stroke-miterlimit="10"/>
                <path d="M98.3019 99.2494C99.5299 99.2494 100.525 98.254 100.525 97.0261C100.525 95.7982 99.5299 94.8027 98.3019 94.8027C97.074 94.8027 96.0786 95.7982 96.0786 97.0261C96.0786 98.254 97.074 99.2494 98.3019 99.2494Z" fill="white" stroke="#8BC53F" stroke-width="0.15" stroke-miterlimit="10"/>
                <path d="M68.1874 81.9686C69.4154 81.9686 70.4108 80.9732 70.4108 79.7453C70.4108 78.5174 69.4154 77.522 68.1874 77.522C66.9595 77.522 65.9641 78.5174 65.9641 79.7453C65.9641 80.9732 66.9595 81.9686 68.1874 81.9686Z" fill="white" stroke="#8BC53F" stroke-width="0.15" stroke-miterlimit="10"/>
                </g>
                <defs>
                <clipPath id="clip0_3355_6568">
                <rect width="115" height="115" fill="white" transform="translate(0 0.149902)"/>
                </clipPath>
                </defs>
</svg>