<svg width="115" height="115" viewBox="0 0 115 115" fill="none" xmlns="http://www.w3.org/2000/svg">
<mask id="mask0_3089_6296" style="mask-type:alpha" maskUnits="userSpaceOnUse" x="0" y="0" width="115" height="115">
<path d="M0 18.4C0 8.23796 8.23796 0 18.4 0H96.6C106.762 0 115 8.23796 115 18.4V96.6C115 106.762 106.762 115 96.6 115H18.4C8.23796 115 0 106.762 0 96.6V18.4Z" fill="#D9D9D9"/>
</mask>
<g mask="url(#mask0_3089_6296)">
<rect y="0.490234" width="115" height="115" fill="#EC1C24"/>
<path d="M115 115.49L-7.30462e-05 114.915L115 0.490377L115 115.49Z" fill="#8A4AA8"/>
</g>
<g clip-path="url(#clip0_3089_6296)">
<path d="M85.0808 86.4854H81.6486C78.7655 86.4854 76.4316 84.1515 76.4316 81.2685V66.1668C76.4316 63.2837 78.7655 60.9498 81.6486 60.9498H85.0808C87.9639 60.9498 90.2978 63.2837 90.2978 66.1668V81.4058C90.2978 84.1515 87.9639 86.4854 85.0808 86.4854Z" fill="white"/>
<path d="M94.2792 79.6211C94.1419 80.3075 94.0046 80.994 93.7301 81.6804C93.4555 82.3669 93.1809 82.916 92.9063 83.6025C92.2199 84.838 91.3962 85.7991 90.4352 86.6228L90.0233 86.8974L89.6114 87.1719L89.1996 87.4465C89.0623 87.5838 88.925 87.5838 88.7877 87.7211C88.2385 87.9957 87.6894 88.2703 87.0029 88.5448C86.4538 88.8194 85.7674 88.9567 85.2182 89.094C84.5318 89.2313 83.9826 89.2313 83.2962 89.2313C82.6097 89.2313 82.0606 89.2313 81.3741 89.094C80.6877 88.9567 80.1385 88.8194 79.5894 88.5448C79.0402 88.4075 78.4911 88.133 77.9419 87.7211C77.3928 87.4465 76.8436 87.0347 76.4317 86.6228C75.4707 85.7991 74.647 84.7008 73.9606 83.6025C73.686 83.0533 73.4114 82.3669 73.1368 81.6804C72.8623 80.994 72.725 80.3075 72.5877 79.6211C72.3131 80.994 72.4504 82.5041 72.8623 84.0143C73.2741 85.3872 74.0978 86.7601 75.0589 87.9957C76.0199 89.094 77.3928 90.055 78.7656 90.7414C79.4521 91.016 80.2758 91.2906 80.9623 91.4279C81.3741 91.5652 81.786 91.5652 82.1979 91.5652V100.763C81.3741 100.763 80.4131 100.901 79.5894 101.175C78.9029 101.313 78.3538 101.45 77.6673 101.725C77.3928 101.862 76.9809 101.999 76.7063 102.136C76.4317 102.274 76.0199 102.411 75.7453 102.686C75.7453 102.686 75.7453 102.686 75.7453 102.823C75.7453 102.823 75.7453 102.96 75.8826 102.96H77.8046H79.7267C80.9623 102.96 82.1979 102.96 83.4334 102.96C84.669 102.96 85.9046 102.96 87.1402 102.96H89.0623H90.9843C90.9843 102.96 90.9843 102.96 91.1216 102.96V102.823C90.847 102.548 90.4352 102.411 90.1606 102.274C89.886 102.136 89.4741 101.999 89.1996 101.862C88.5131 101.587 87.964 101.45 87.2775 101.313C86.4538 101.175 85.4928 101.038 84.669 100.901V91.5652C85.0809 91.5652 85.4928 91.4279 85.9046 91.4279C86.7284 91.2906 87.4148 91.016 88.1013 90.7414C89.4741 90.055 90.847 89.2313 91.808 87.9957C92.7691 86.8974 93.5928 85.5245 94.0046 84.0143C94.4165 82.5041 94.4165 80.994 94.2792 79.6211Z" fill="white"/>
</g>
<g clip-path="url(#clip1_3089_6296)">
<path d="M29.6346 18.9749L17.0288 28.3162H11.5V32.3824V37.7673V41.8336H17.0288L29.6346 51.1749H32.399V18.9749H29.6346Z" fill="white"/>
<path d="M37.1538 44.1414C36.6009 44.1414 36.1586 43.8117 35.9374 43.2622C35.8268 42.6029 36.1586 41.9435 36.822 41.8336C39.697 41.1742 41.9086 38.4267 41.9086 35.1298C41.9086 31.9428 39.8076 29.0854 36.822 28.4261C36.1586 28.3162 35.7163 27.6568 35.9374 26.9974C36.048 26.338 36.7114 25.8984 37.3749 26.1182C41.3557 26.9974 44.2307 30.7339 44.2307 35.1298C44.2307 39.4158 41.3557 43.2622 37.3749 44.1414C37.2643 44.0315 37.1538 44.1414 37.1538 44.1414Z" fill="white"/>
<path d="M44.4518 47.8779C43.8989 47.8779 43.4566 47.5482 43.2355 46.9987C43.1249 46.3393 43.4566 45.6799 44.1201 45.57C48.7643 44.581 52.0816 40.1851 52.0816 35.1298C52.0816 30.0745 48.6538 25.6786 44.0095 24.6895C43.3461 24.5796 42.9038 23.9202 43.1249 23.2608C43.2355 22.6014 43.8989 22.1618 44.5624 22.3816C50.3124 23.5905 54.5143 28.9755 54.5143 35.1298C54.5143 41.284 50.3124 46.669 44.673 47.8779C44.673 47.8779 44.5624 47.8779 44.4518 47.8779Z" fill="white"/>
</g>
<defs>
<clipPath id="clip0_3089_6296">
<rect width="21.9661" height="42.1475" fill="white" transform="translate(72.4502 60.9498)"/>
</clipPath>
<clipPath id="clip1_3089_6296">
<rect width="43.125" height="32.2" fill="white" transform="translate(11.5 18.9749)"/>
</clipPath>
</defs>
</svg>
