<svg width="115" height="115" viewBox="0 0 115 115" fill="none" xmlns="http://www.w3.org/2000/svg">
<g clip-path="url(#clip0_3089_6284)">
<path d="M96.7993 0H18.2007C8.14872 0 0 8.14872 0 18.2007V96.7993C0 106.851 8.14872 115 18.2007 115H96.7993C106.851 115 115 106.851 115 96.7993V18.2007C115 8.14872 106.851 0 96.7993 0Z" fill="#FFD400"/>
<path d="M102.886 25.9286V83.3213H99.9271C68.9691 83.3213 62.4678 90.4206 61.4864 91.816H55.6291C54.7244 90.482 48.3458 83.3213 17.1424 83.3213H14.1831V25.9286H17.1424C18.3844 25.9286 19.5498 25.944 20.7151 25.9746V22.0033H22.0184C47.3184 22.0033 55.7978 28.06 58.5424 31.326C61.2718 28.06 69.7664 22.0033 95.0664 22.0033H96.3698V25.9746C97.5351 25.944 98.7004 25.9286 99.9424 25.9286H102.902H102.886ZM93.1038 73.5386V25.2846C66.5464 25.6373 61.2411 32.8593 60.4898 34.178V80.73C64.8598 77.51 73.9984 73.784 93.1038 73.5386ZM56.5798 80.73V34.1626C55.8898 32.9666 50.7224 25.6373 23.9658 25.3V73.554C43.0711 73.7993 52.2098 77.5253 56.5798 80.7453V80.73Z" fill="#1A50A0"/>
<path d="M93.1037 25.2847V73.5387C73.9984 73.784 64.8597 77.51 60.4897 80.73V34.178C61.2257 32.8747 66.5464 25.6373 93.1037 25.2847Z" fill="white"/>
<path d="M56.5798 34.1627V80.73C52.2098 77.51 43.0712 73.784 23.9658 73.5387V25.2847C50.7225 25.6373 55.8898 32.9667 56.5798 34.1473V34.1627Z" fill="white"/>
<g clip-path="url(#clip1_3089_6284)">
<path d="M96.7993 -0.574951H18.2007C8.14872 -0.574951 0 7.57376 0 17.6257V96.2244C0 106.276 8.14872 114.425 18.2007 114.425H96.7993C106.851 114.425 115 106.276 115 96.2244V17.6257C115 7.57376 106.851 -0.574951 96.7993 -0.574951Z" fill="#FFD400"/>
<g opacity="0.5">
<mask id="mask0_3089_6284" style="mask-type:luminance" maskUnits="userSpaceOnUse" x="-1" y="-2" width="116" height="116">
<path d="M96.5849 -1.21899H17.9249C7.88987 -1.21899 -0.245117 6.91599 -0.245117 16.951V95.611C-0.245117 105.646 7.88987 113.781 17.9249 113.781H96.5849C106.62 113.781 114.755 105.646 114.755 95.611V16.951C114.755 6.91599 106.62 -1.21899 96.5849 -1.21899Z" fill="white"/>
</mask>
<g mask="url(#mask0_3089_6284)">
<path d="M-2.66797 123.104C12.3894 119.608 46.3834 109.595 77.372 79.6336C105.907 52.049 117.377 21.597 121.885 6.84631C124.077 46.4063 126.255 85.9663 128.447 125.526L-2.65264 123.104H-2.66797Z" fill="white"/>
</g>
</g>
<path d="M102.886 25.3537V82.7463H99.9271C68.9691 82.7463 62.4678 89.8457 61.4864 91.241H55.6291C54.7244 89.907 48.3458 82.7463 17.1424 82.7463H14.1831V25.3537H17.1424C18.3844 25.3537 19.5498 25.369 20.7151 25.3997V21.4283H22.0184C47.3184 21.4283 55.7978 27.485 58.5424 30.751C61.2718 27.485 69.7664 21.4283 95.0664 21.4283H96.3698V25.3997C97.5351 25.369 98.7004 25.3537 99.9424 25.3537H102.902H102.886ZM93.1038 72.9637V24.7097C66.5464 25.0623 61.2411 32.2843 60.4898 33.603V80.155C64.8598 76.935 73.9984 73.209 93.1038 72.9637ZM56.5798 80.155V33.5877C55.8898 32.3917 50.7224 25.0623 23.9658 24.725V72.979C43.0711 73.2243 52.2098 76.9503 56.5798 80.1703V80.155Z" fill="#1A50A0"/>
<path d="M93.1037 24.7097V72.9637C73.9984 73.209 64.8597 76.9351 60.4897 80.1551V33.6031C61.2257 32.2997 66.5464 25.0624 93.1037 24.7097Z" fill="white"/>
<path d="M56.5798 33.5877V80.1551C52.2098 76.9351 43.0712 73.209 23.9658 72.9637V24.7097C50.7225 25.0624 55.8898 32.3917 56.5798 33.5724V33.5877Z" fill="white"/>
</g>
</g>
<defs>
<clipPath id="clip0_3089_6284">
<rect width="115" height="115" fill="white"/>
</clipPath>
<clipPath id="clip1_3089_6284">
<rect width="115" height="115" fill="white" transform="translate(0 -0.574951)"/>
</clipPath>
</defs>
</svg>
