<svg width="148" height="148" viewBox="0 0 148 148" fill="none" xmlns="http://www.w3.org/2000/svg">
<path opacity="0.2" d="M124.875 92.5L92.5 124.875V92.5H124.875Z" fill="#C7C7C7"/>
<path d="M120.25 18.5H27.75C25.2967 18.5 22.944 19.4746 21.2093 21.2093C19.4746 22.944 18.5 25.2967 18.5 27.75V120.25C18.5 122.703 19.4746 125.056 21.2093 126.791C22.944 128.525 25.2967 129.5 27.75 129.5H90.5864C91.8016 129.504 93.0054 129.266 94.1279 128.801C95.2504 128.335 96.2692 127.651 97.125 126.789L126.789 97.125C127.651 96.2692 128.335 95.2504 128.801 94.1279C129.266 93.0054 129.504 91.8016 129.5 90.5864V27.75C129.5 25.2967 128.525 22.944 126.791 21.2093C125.056 19.4746 122.703 18.5 120.25 18.5ZM27.75 27.75H120.25V87.875H92.5C91.2734 87.875 90.097 88.3623 89.2296 89.2296C88.3623 90.097 87.875 91.2734 87.875 92.5V120.25H27.75V27.75ZM113.711 97.125L97.125 113.711V97.125H113.711Z" fill="#C7C7C7"/>
<path d="M61.2813 64.6519C61.2815 64.7884 61.393 64.9013 61.5294 64.9013H67.14C67.2781 64.9013 67.3897 64.7889 67.3935 64.6509C67.4894 61.1621 69.6007 58.5013 73.6726 58.5013C76.8433 58.5013 79.7497 60.0866 79.7497 63.9031C79.7497 66.8389 78.0176 68.1894 75.2873 70.2444C72.1754 72.505 69.7093 75.1472 69.8855 79.4335L69.9114 81.33C69.9133 81.4667 70.0247 81.5766 70.1614 81.5766H75.7126C75.8506 81.5766 75.9626 81.4647 75.9626 81.3266V79.9326C75.9626 76.6151 77.2249 75.6463 80.6305 73.0628C83.4488 70.9197 86.3846 68.5417 86.3846 63.5508C86.3846 56.5637 80.4837 53.1875 74.0249 53.1875C67.948 53.1875 61.2663 56.1248 61.2813 64.6519ZM68.5056 90.4133C68.5056 92.8794 70.4726 94.6996 73.1736 94.6996C75.9919 94.6996 77.9295 92.8794 77.9295 90.4133C77.9295 87.8592 75.9919 86.0684 73.1736 86.0684C70.4726 86.0684 68.5056 87.8592 68.5056 90.4133Z" fill="#C7C7C7"/>
</svg>
