<svg width="115" height="115" viewBox="0 0 115 115" fill="none" xmlns="http://www.w3.org/2000/svg">
<mask id="mask0_3096_33436" style="mask-type:alpha" maskUnits="userSpaceOnUse" x="0" y="0" width="115" height="115">
<path d="M0 18.4C0 8.23796 8.23796 0 18.4 0H96.6C106.762 0 115 8.23796 115 18.4V96.6C115 106.762 106.762 115 96.6 115H18.4C8.23796 115 0 106.762 0 96.6V18.4Z" fill="#D9D9D9"/>
</mask>
<g mask="url(#mask0_3096_33436)">
<rect y="-2.29993" width="115" height="117.875" fill="#FFD400"/>
<path d="M115 115.49L-7.30462e-05 114.915L115 0.490377L115 115.49Z" fill="#02AD4B"/>
<path d="M54.8048 20.815V47.7178H53.4176C38.906 47.7178 35.8585 51.0456 35.3985 51.6997H32.6529C32.2288 51.0743 29.2388 47.7178 14.6123 47.7178H13.2251V20.815H14.6123C15.1945 20.815 15.7407 20.8222 16.287 20.8365V18.975H16.8979C28.7573 18.975 32.732 21.814 34.0185 23.345C35.2979 21.814 39.2798 18.975 51.1392 18.975H51.7501V20.8365C52.2963 20.8222 52.8426 20.815 53.4248 20.815H54.812H54.8048ZM50.2192 43.1322V20.5131C37.7704 20.6784 35.2835 24.0637 34.9313 24.6819V46.5031C36.9798 44.9937 41.2635 43.2472 50.2192 43.1322ZM33.0985 46.5031V24.6747C32.7751 24.114 30.3529 20.6784 17.8107 20.5203V43.1394C26.7663 43.2544 31.0501 45.0009 33.0985 46.5103V46.5031Z" fill="#1A50A0"/>
<path d="M50.219 20.5131V43.1321C41.2633 43.2471 36.9796 44.9937 34.9312 46.5031V24.6818C35.2762 24.0709 37.7702 20.6784 50.219 20.5131Z" fill="white"/>
<path d="M33.0984 24.6746V46.5031C31.0499 44.9937 26.7662 43.2471 17.8105 43.1321V20.5131C30.3527 20.6784 32.7749 24.114 33.0984 24.6674V24.6746Z" fill="white"/>
<path d="M91.4538 77.1362V94.9325C91.4538 96.449 90.3326 97.7069 88.9885 97.7069H67.4404C66.0892 97.7069 64.9751 96.449 64.9751 94.9325V67.7494C64.9751 66.2112 66.0963 64.975 67.4404 64.975H88.9813C90.3326 64.975 91.4467 66.2112 91.4467 67.7494V77.1362H91.4538ZM89.5851 94.9325V67.7494C89.5851 67.2103 89.2617 66.815 88.9813 66.815H67.4404C67.1601 66.815 66.8367 67.2103 66.8367 67.7494V94.9253C66.8367 95.4644 67.1601 95.8309 67.4404 95.8309H88.9813C89.2617 95.8309 89.5851 95.4572 89.5851 94.9253V94.9325Z" fill="white"/>
<path d="M89.5849 80.0471V94.9324C89.5849 95.4715 89.2614 95.8381 88.9811 95.8381H67.4402C67.1599 95.8381 66.8364 95.4643 66.8364 94.9324V67.7493C66.8364 67.2103 67.1599 66.8149 67.4402 66.8149H88.9811C89.2614 66.8149 89.5849 67.2103 89.5849 67.7493V80.0471Z" fill="#00A14B"/>
<path d="M86.5231 70.8543H69.8768C69.345 70.8543 68.9209 70.423 68.9209 69.8983C68.9209 69.3736 69.3521 68.9424 69.8768 68.9424H86.5231C87.055 68.9424 87.479 69.3736 87.479 69.8983C87.479 70.423 87.0478 70.8543 86.5231 70.8543Z" fill="white"/>
<path d="M86.5231 76.5612H69.8768C69.345 76.5612 68.9209 76.1299 68.9209 75.6052C68.9209 75.0805 69.3521 74.6493 69.8768 74.6493H86.5231C87.055 74.6493 87.479 75.0805 87.479 75.6052C87.479 76.1299 87.0478 76.5612 86.5231 76.5612Z" fill="white"/>
<path d="M86.5231 82.2681H69.8768C69.345 82.2681 68.9209 81.8368 68.9209 81.3121C68.9209 80.7875 69.3521 80.3562 69.8768 80.3562H86.5231C87.055 80.3562 87.479 80.7875 87.479 81.3121C87.479 81.8368 87.0478 82.2681 86.5231 82.2681Z" fill="white"/>
<path d="M86.5231 87.9822H69.8768C69.345 87.9822 68.9209 87.5509 68.9209 87.0262C68.9209 86.5016 69.3521 86.0703 69.8768 86.0703H86.5231C87.055 86.0703 87.479 86.5016 87.479 87.0262C87.479 87.5509 87.0478 87.9822 86.5231 87.9822Z" fill="white"/>
<path d="M78.2143 93.6891H69.8768C69.345 93.6891 68.9209 93.2578 68.9209 92.7332C68.9209 92.2085 69.3521 91.7772 69.8768 91.7772H78.2143C78.7462 91.7772 79.1703 92.2085 79.1703 92.7332C79.1703 93.2578 78.739 93.6891 78.2143 93.6891Z" fill="white"/>
<path d="M84.3387 90.4259L101.287 73.4778H101.294L103.033 71.7456C103.702 71.0771 103.702 69.9774 103.033 69.3018L99.9571 66.2256C99.2887 65.5571 98.189 65.5571 97.5134 66.2256L95.774 67.9649H95.7812L78.833 84.9203L78.8115 84.8987L78.5024 87.9821L78.1934 91.0656L81.2768 90.7565L84.3602 90.4475L84.3387 90.4259Z" fill="white"/>
<path d="M98.735 65.7225C99.1806 65.7225 99.6191 65.8878 99.9569 66.2256L103.033 69.3018C103.702 69.9703 103.702 71.07 103.033 71.7456L101.294 73.485H101.287L84.3384 90.4259L84.36 90.4475L81.2766 90.7565L78.1931 91.0656L78.5022 87.9821L78.8113 84.8987L78.8328 84.9203L95.7809 67.9721H95.7738L97.5131 66.2256C97.8509 65.8878 98.2894 65.7225 98.735 65.7225ZM98.735 65.0828C98.1025 65.0828 97.5059 65.3271 97.0603 65.7728L95.3209 67.5121C95.3209 67.5121 95.2634 67.5696 95.2419 67.6056L78.5166 84.3309C78.3225 84.4243 78.1859 84.6184 78.1644 84.8412L77.8553 87.9246L77.5463 91.0081C77.5247 91.2021 77.5966 91.389 77.7331 91.5256C77.8553 91.6478 78.0134 91.7125 78.1859 91.7125C78.2075 91.7125 78.2291 91.7125 78.2506 91.7125L81.3341 91.4034L84.4175 91.0943C84.6403 91.0728 84.8272 90.9362 84.9278 90.7421L101.653 74.0168C101.653 74.0168 101.718 73.9665 101.747 73.9378L103.486 72.1984C104.406 71.2784 104.406 69.7762 103.486 68.8562L100.41 65.78C99.9641 65.3343 99.3675 65.09 98.735 65.09V65.0828Z" fill="white"/>
<path d="M95.0136 68.7401L79.5176 84.2361L85.0217 89.7402L100.518 74.2442L95.0136 68.7401Z" fill="#1A50A0"/>
<path d="M97.3939 71.0228L81.7505 86.6663L82.5992 87.515L98.2427 71.8716L97.3939 71.0228Z" fill="white"/>
<path d="M81.5927 87.6731L84.3671 90.4474L81.2836 90.7565L78.2002 91.0584L78.5093 87.9749L78.8111 84.8987L81.5927 87.6731Z" fill="#1A50A0"/>
<path d="M103.04 71.7456C103.709 71.0771 103.709 69.9774 103.04 69.3018L99.9639 66.2256C99.2954 65.5571 98.1958 65.5571 97.5201 66.2256L95.7808 67.9649L101.301 73.4849L103.04 71.7456Z" fill="#1A50A0"/>
</g>
</svg>
