<svg width="24" height="24" viewBox="0 0 24 24" fill="none" xmlns="http://www.w3.org/2000/svg">
<path opacity="0.2" d="M21.4744 10.1991L16.9088 14.1366L18.3038 20.0232C18.3407 20.1745 18.3319 20.3333 18.2785 20.4795C18.2252 20.6258 18.1297 20.753 18.004 20.845C17.8784 20.937 17.7283 20.9897 17.5728 20.9965C17.4172 21.0032 17.2632 20.9637 17.1301 20.8829L12.0001 17.7272L6.87005 20.8819C6.73695 20.9627 6.58288 21.0023 6.42732 20.9955C6.27176 20.9888 6.12169 20.9361 5.99607 20.8441C5.87045 20.7521 5.77493 20.6249 5.72157 20.4786C5.66822 20.3323 5.65942 20.1735 5.6963 20.0222L7.0913 14.1357L2.52568 10.1982C2.40927 10.096 2.32534 9.9619 2.28426 9.81254C2.24318 9.66317 2.24673 9.50504 2.29449 9.35768C2.34225 9.21031 2.43212 9.08015 2.55301 8.98328C2.6739 8.88641 2.82051 8.82706 2.97474 8.81255L8.9663 8.32505L11.2744 2.73755C11.3333 2.5934 11.4337 2.47004 11.5629 2.38321C11.6922 2.29637 11.8444 2.25 12.0001 2.25C12.1557 2.25 12.3079 2.29637 12.4372 2.38321C12.5664 2.47004 12.6668 2.5934 12.7257 2.73755L15.0338 8.32505L21.0254 8.81255C21.1798 8.82688 21.3267 8.88618 21.4477 8.98312C21.5688 9.08005 21.6588 9.21036 21.7066 9.35792C21.7544 9.50547 21.7579 9.66381 21.7166 9.81332C21.6753 9.96283 21.5911 10.097 21.4744 10.1991Z" fill="#1C51E1"/>
<path d="M22.4229 9.11824C22.3292 8.82998 22.1522 8.57592 21.9143 8.38807C21.6764 8.20022 21.3882 8.08698 21.0861 8.06261L15.5548 7.61636L13.4192 2.45168C13.3037 2.17026 13.1071 1.92953 12.8545 1.76012C12.6018 1.5907 12.3045 1.50024 12.0003 1.50024C11.6961 1.50024 11.3988 1.5907 11.1461 1.76012C10.8934 1.92953 10.6969 2.17026 10.5814 2.45168L8.44763 7.61543L2.91357 8.06261C2.61092 8.08821 2.32256 8.20255 2.08461 8.39131C1.84666 8.58006 1.6697 8.83485 1.57591 9.12373C1.48212 9.41261 1.47566 9.72275 1.55735 10.0153C1.63904 10.3078 1.80524 10.5697 2.03513 10.7682L6.25388 14.4086L4.96857 19.8517C4.89669 20.1474 4.91429 20.4578 5.01914 20.7435C5.12399 21.0292 5.31136 21.2773 5.55747 21.4563C5.80358 21.6353 6.09732 21.7371 6.40142 21.7489C6.70552 21.7606 7.00625 21.6818 7.26544 21.5223L11.9998 18.6086L16.737 21.5223C16.9963 21.6799 17.2964 21.7572 17.5996 21.7446C17.9027 21.732 18.1954 21.6299 18.4406 21.4513C18.6859 21.2727 18.8728 21.0255 18.9779 20.7408C19.083 20.4562 19.1015 20.1468 19.0311 19.8517L17.7411 14.4076L21.9598 10.7673C22.1916 10.5691 22.3593 10.3066 22.4417 10.0131C22.5242 9.71952 22.5176 9.40808 22.4229 9.11824ZM20.9848 9.63105L16.4192 13.5686C16.3151 13.6583 16.2376 13.7749 16.1953 13.9057C16.153 14.0365 16.1474 14.1764 16.1792 14.3101L17.5742 20.1976C17.5778 20.2057 17.5782 20.2149 17.5752 20.2233C17.5722 20.2317 17.5662 20.2386 17.5583 20.2426C17.5414 20.2557 17.5367 20.2529 17.5226 20.2426L12.3926 17.0879C12.2745 17.0153 12.1385 16.9768 11.9998 16.9768C11.8611 16.9768 11.7252 17.0153 11.607 17.0879L6.47701 20.2445C6.46294 20.2529 6.45919 20.2557 6.44138 20.2445C6.43347 20.2405 6.42741 20.2335 6.42444 20.2252C6.42147 20.2168 6.42183 20.2076 6.42544 20.1995L7.82044 14.312C7.85224 14.1783 7.84667 14.0384 7.80434 13.9076C7.76201 13.7768 7.68456 13.6602 7.58044 13.5704L3.01482 9.63293C3.00357 9.62355 2.99326 9.61511 3.00263 9.58605C3.01201 9.55699 3.01951 9.56074 3.03357 9.55886L9.02607 9.07511C9.16352 9.06333 9.29505 9.01386 9.4062 8.93215C9.51735 8.85044 9.60381 8.73966 9.65607 8.61199L11.9642 3.02355C11.9717 3.00761 11.9745 3.00011 11.997 3.00011C12.0195 3.00011 12.0223 3.00761 12.0298 3.02355L14.3436 8.61199C14.3963 8.73971 14.4833 8.85037 14.595 8.93176C14.7067 9.01315 14.8386 9.06211 14.9764 9.07324L20.9689 9.55699C20.9829 9.55699 20.9914 9.55699 20.9998 9.58418C21.0083 9.61136 20.9998 9.62168 20.9848 9.63105Z" fill="#1C51E1"/>
</svg>
