<svg width="22" height="21" viewBox="0 0 22 21" fill="none" xmlns="http://www.w3.org/2000/svg">
<path d="M21.4232 8.11824C21.3294 7.82998 21.1524 7.57592 20.9145 7.38807C20.6766 7.20022 20.3885 7.08698 20.0863 7.06261L14.5551 6.61636L12.4194 1.45168C12.3039 1.17026 12.1074 0.929534 11.8547 0.760118C11.6021 0.590702 11.3047 0.500244 11.0005 0.500244C10.6963 0.500244 10.399 0.590702 10.1463 0.760118C9.89369 0.929534 9.69712 1.17026 9.58163 1.45168L7.44788 6.61543L1.91381 7.06261C1.61117 7.08821 1.3228 7.20255 1.08485 7.39131C0.8469 7.58006 0.669943 7.83485 0.576151 8.12373C0.482359 8.41261 0.475904 8.72275 0.557593 9.01528C0.639283 9.30782 0.805485 9.56974 1.03538 9.76824L5.25413 13.4086L3.96881 18.8517C3.89693 19.1474 3.91453 19.4578 4.01938 19.7435C4.12423 20.0292 4.3116 20.2773 4.55771 20.4563C4.80382 20.6353 5.09757 20.7371 5.40167 20.7489C5.70576 20.7606 6.00649 20.6818 6.26569 20.5223L11.0001 17.6086L15.7373 20.5223C15.9965 20.6799 16.2967 20.7572 16.5998 20.7446C16.903 20.732 17.1956 20.6299 17.4409 20.4513C17.6861 20.2727 17.8731 20.0255 17.9782 19.7408C18.0832 19.4562 18.1017 19.1468 18.0313 18.8517L16.7413 13.4076L20.9601 9.7673C21.1918 9.56914 21.3595 9.30665 21.442 9.01308C21.5244 8.71952 21.5179 8.40808 21.4232 8.11824ZM19.9851 8.63105L15.4194 12.5686C15.3153 12.6583 15.2379 12.7749 15.1955 12.9057C15.1532 13.0365 15.1476 13.1764 15.1794 13.3101L16.5744 19.1976C16.578 19.2057 16.5784 19.2149 16.5754 19.2233C16.5725 19.2317 16.5664 19.2386 16.5585 19.2426C16.5416 19.2557 16.5369 19.2529 16.5229 19.2426L11.3929 16.0879C11.2747 16.0153 11.1388 15.9768 11.0001 15.9768C10.8614 15.9768 10.7254 16.0153 10.6073 16.0879L5.47725 19.2445C5.46319 19.2529 5.45944 19.2557 5.44163 19.2445C5.43371 19.2405 5.42765 19.2335 5.42468 19.2252C5.42172 19.2168 5.42208 19.2076 5.42569 19.1995L6.82069 13.312C6.85248 13.1783 6.84691 13.0384 6.80458 12.9076C6.76226 12.7768 6.68481 12.6602 6.58069 12.5704L2.01506 8.63293C2.00381 8.62355 1.9935 8.61511 2.00288 8.58605C2.01225 8.55699 2.01975 8.56074 2.03381 8.55886L8.02631 8.07511C8.16376 8.06333 8.29529 8.01386 8.40644 7.93215C8.51759 7.85044 8.60405 7.73966 8.65631 7.61199L10.9644 2.02355C10.9719 2.00761 10.9748 2.00011 10.9973 2.00011C11.0198 2.00011 11.0226 2.00761 11.0301 2.02355L13.3438 7.61199C13.3966 7.73971 13.4836 7.85037 13.5952 7.93176C13.7069 8.01315 13.8389 8.06211 13.9766 8.07324L19.9691 8.55699C19.9832 8.55699 19.9916 8.55699 20.0001 8.58418C20.0085 8.61136 20.0001 8.62168 19.9851 8.63105Z" fill="#C7C7C7"/>
</svg>
