<svg width="16" height="16" viewBox="0 0 16 16" fill="none" xmlns="http://www.w3.org/2000/svg">
<path d="M15.1383 12.4719L12.4717 15.1385C12.3466 15.2636 12.1769 15.3339 12 15.3339C11.8231 15.3339 11.6534 15.2636 11.5283 15.1385C11.4032 15.0134 11.333 14.8438 11.333 14.6669C11.333 14.49 11.4032 14.3203 11.5283 14.1952L13.0575 12.6669H1.33333C1.15652 12.6669 0.986949 12.5966 0.861924 12.4716C0.7369 12.3466 0.666662 12.177 0.666662 12.0002C0.666662 11.8234 0.7369 11.6538 0.861924 11.5288C0.986949 11.4038 1.15652 11.3335 1.33333 11.3335H13.0575L11.5283 9.80521C11.4032 9.68011 11.333 9.51045 11.333 9.33354C11.333 9.15663 11.4032 8.98697 11.5283 8.86187C11.6534 8.73678 11.8231 8.6665 12 8.6665C12.1769 8.6665 12.3466 8.73678 12.4717 8.86187L15.1383 11.5285C15.2003 11.5905 15.2495 11.664 15.283 11.7449C15.3166 11.8258 15.3339 11.9126 15.3339 12.0002C15.3339 12.0878 15.3166 12.1746 15.283 12.2555C15.2495 12.3364 15.2003 12.41 15.1383 12.4719ZM3.52833 7.13854C3.65342 7.26363 3.82309 7.33391 4 7.33391C4.1769 7.33391 4.34657 7.26363 4.47166 7.13854C4.59676 7.01345 4.66703 6.84378 4.66703 6.66687C4.66703 6.48996 4.59676 6.3203 4.47166 6.19521L2.9425 4.66687H14.6667C14.8435 4.66687 15.013 4.59664 15.1381 4.47161C15.2631 4.34659 15.3333 4.17702 15.3333 4.00021C15.3333 3.8234 15.2631 3.65383 15.1381 3.5288C15.013 3.40378 14.8435 3.33354 14.6667 3.33354H2.9425L4.47166 1.80521C4.59676 1.68011 4.66703 1.51045 4.66703 1.33354C4.66703 1.15663 4.59676 0.986968 4.47166 0.861875C4.34657 0.736781 4.1769 0.666504 4 0.666504C3.82309 0.666504 3.65342 0.736781 3.52833 0.861875L0.861662 3.52854C0.799678 3.59046 0.750505 3.66398 0.716956 3.74491C0.683406 3.82585 0.666138 3.9126 0.666138 4.00021C0.666138 4.08782 0.683406 4.17457 0.716956 4.2555C0.750505 4.33643 0.799678 4.40996 0.861662 4.47187L3.52833 7.13854Z" fill="#1C51E1"/>
</svg>
