<svg width="128" height="128" viewBox="0 0 128 128" fill="none" xmlns="http://www.w3.org/2000/svg">
<circle cx="64" cy="64" r="64" fill="#8E44AD" fill-opacity="0.2"/>
<path d="M76.5626 53.25C78.0336 53.25 79.4716 52.8138 80.6947 51.9966C81.9178 51.1793 82.871 50.0177 83.434 48.6587C83.9969 47.2997 84.1442 45.8043 83.8572 44.3615C83.5702 42.9188 82.8619 41.5936 81.8217 40.5534C80.7816 39.5132 79.4563 38.8049 78.0136 38.5179C76.5709 38.2309 75.0754 38.3782 73.7164 38.9411C72.3574 39.5041 71.1958 40.4574 70.3786 41.6805C69.5613 42.9035 69.1251 44.3415 69.1251 45.8125C69.1251 47.7851 69.9087 49.6768 71.3035 51.0716C72.6983 52.4664 74.5901 53.25 76.5626 53.25ZM76.5626 42.625C77.193 42.625 77.8093 42.8119 78.3335 43.1622C78.8577 43.5124 79.2662 44.0103 79.5075 44.5927C79.7487 45.1751 79.8119 45.816 79.6889 46.4344C79.5659 47.0527 79.2623 47.6206 78.8165 48.0664C78.3707 48.5122 77.8028 48.8158 77.1845 48.9388C76.5662 49.0617 75.9253 48.9986 75.3428 48.7574C74.7604 48.5161 74.2626 48.1076 73.9123 47.5834C73.5621 47.0592 73.3751 46.4429 73.3751 45.8125C73.3751 44.9671 73.7109 44.1564 74.3087 43.5586C74.9065 42.9608 75.7172 42.625 76.5626 42.625ZM100.703 84.0413L86.2101 59.5825C85.8364 58.9453 85.3017 58.4176 84.6598 58.0521C84.0179 57.6866 83.2911 57.4962 82.5525 57.5C81.8141 57.4961 81.0878 57.6865 80.4462 58.052C79.8047 58.4176 79.2706 58.9454 78.8975 59.5825L71.9487 71.3125L60.0381 51.0984C59.6628 50.4606 59.1274 49.9318 58.4849 49.5644C57.8425 49.197 57.1152 49.0037 56.3751 49.0037C55.635 49.0037 54.9078 49.197 54.2653 49.5644C53.6228 49.9318 53.0875 50.4606 52.7122 51.0984L33.295 84.0466C33.1049 84.3693 33.0035 84.7365 33.001 85.111C32.9985 85.4855 33.0951 85.854 33.2809 86.1791C33.4666 86.5043 33.7351 86.7746 34.0589 86.9627C34.3828 87.1507 34.7506 87.2499 35.1251 87.25H98.8751C99.2502 87.2499 99.6186 87.1506 99.9428 86.9621C100.267 86.7736 100.536 86.5026 100.721 86.1767C100.907 85.8507 101.003 85.4815 101 85.1064C100.996 84.7314 100.894 84.3639 100.703 84.0413ZM56.3751 53.25L62.6359 63.875H50.1143L56.3751 53.25ZM38.8439 83L47.6095 68.125H65.1407L70.1186 76.5719L73.9064 83H38.8439ZM78.839 83L74.4137 75.4881L82.5525 61.75L95.1564 83H78.839Z" fill="#8E44AD"/>
<path d="M56.5 45.5L68 41.5L56.5 37.5V48.5" stroke="#8E44AD" stroke-width="3" stroke-linecap="round" stroke-linejoin="round"/>
</svg>
