<svg width="45" height="45" viewBox="0 0 45 45" fill="none" xmlns="http://www.w3.org/2000/svg">
<g clip-path="url(#clip0_4319_52666)">
<path d="M37.878 0H7.122C3.18863 0 0 3.18863 0 7.122V37.878C0 41.8114 3.18863 45 7.122 45H37.878C41.8114 45 45 41.8114 45 37.878V7.122C45 3.18863 41.8114 0 37.878 0Z" fill="#808080"/>
<g opacity="0.31">
<mask id="mask0_4319_52666" style="mask-type:luminance" maskUnits="userSpaceOnUse" x="0" y="0" width="45" height="45">
<path d="M37.89 0H7.11C3.18326 0 0 3.18326 0 7.11V37.89C0 41.8167 3.18326 45 7.11 45H37.89C41.8167 45 45 41.8167 45 37.89V7.11C45 3.18326 41.8167 0 37.89 0Z" fill="white"/>
</mask>
<g mask="url(#mask0_4319_52666)">
<path d="M-0.947266 48.642C4.94473 47.274 18.2467 43.356 30.3727 31.632C41.5387 20.838 46.0267 8.92202 47.7907 3.15002C48.6487 18.63 49.5007 34.11 50.3587 49.59L-0.941266 48.642H-0.947266Z" fill="white"/>
</g>
</g>
<path d="M20.1368 9.51599L9.98478 17.118H5.55078V20.37V24.75V28.002H9.98478L20.1368 35.604H22.4048V9.51599H20.1368Z" fill="white"/>
<path d="M26.1658 29.85C25.7218 29.85 25.3258 29.544 25.2298 29.094C25.1158 28.578 25.4398 28.068 25.9618 27.948C28.3078 27.432 30.0118 25.164 30.0118 22.554C30.0118 19.944 28.3078 17.676 25.9618 17.16C25.4398 17.046 25.1158 16.53 25.2298 16.014C25.3438 15.498 25.8658 15.168 26.3758 15.282C29.5978 15.99 31.9378 19.05 31.9378 22.554C31.9378 26.058 29.5978 29.118 26.3758 29.826C26.3098 29.844 26.2378 29.85 26.1718 29.85H26.1658Z" fill="white"/>
<path d="M32.1115 32.916C31.6675 32.916 31.2715 32.61 31.1755 32.16C31.0615 31.644 31.3915 31.128 31.9075 31.014C35.6335 30.198 38.3395 26.646 38.3395 22.56C38.3395 18.474 35.6215 14.904 31.8835 14.1C31.3675 13.986 31.0375 13.476 31.1455 12.96C31.2535 12.444 31.7275 12.102 32.2855 12.222C36.9055 13.212 40.2595 17.562 40.2595 22.56C40.2595 27.558 36.9175 31.89 32.3155 32.892C32.2435 32.91 32.1775 32.916 32.1115 32.916Z" fill="white"/>
<g clip-path="url(#clip1_4319_52666)">
<path d="M37.878 0H7.122C3.18863 0 0 3.18863 0 7.122V37.878C0 41.8114 3.18863 45 7.122 45H37.878C41.8114 45 45 41.8114 45 37.878V7.122C45 3.18863 41.8114 0 37.878 0Z" fill="#EC1C24"/>
<g opacity="0.31">
<mask id="mask1_4319_52666" style="mask-type:luminance" maskUnits="userSpaceOnUse" x="0" y="0" width="45" height="45">
<path d="M37.89 0H7.11C3.18326 0 0 3.18326 0 7.11V37.89C0 41.8167 3.18326 45 7.11 45H37.89C41.8167 45 45 41.8167 45 37.89V7.11C45 3.18326 41.8167 0 37.89 0Z" fill="white"/>
</mask>
<g mask="url(#mask1_4319_52666)">
<path d="M-0.947266 48.642C4.94473 47.274 18.2467 43.356 30.3727 31.632C41.5387 20.838 46.0267 8.92202 47.7907 3.15002C48.6487 18.63 49.5007 34.11 50.3587 49.59L-0.941266 48.642H-0.947266Z" fill="white"/>
</g>
</g>
<path d="M20.1368 9.51599L9.98478 17.118H5.55078V20.37V24.75V28.002H9.98478L20.1368 35.604H22.4048V9.51599H20.1368Z" fill="white"/>
<path d="M26.1658 29.85C25.7218 29.85 25.3258 29.544 25.2298 29.094C25.1158 28.578 25.4398 28.068 25.9618 27.948C28.3078 27.432 30.0118 25.164 30.0118 22.554C30.0118 19.944 28.3078 17.676 25.9618 17.16C25.4398 17.046 25.1158 16.53 25.2298 16.014C25.3438 15.498 25.8658 15.168 26.3758 15.282C29.5978 15.99 31.9378 19.05 31.9378 22.554C31.9378 26.058 29.5978 29.118 26.3758 29.826C26.3098 29.844 26.2378 29.85 26.1718 29.85H26.1658Z" fill="white"/>
<path d="M32.1115 32.916C31.6675 32.916 31.2715 32.61 31.1755 32.16C31.0615 31.644 31.3915 31.128 31.9075 31.014C35.6335 30.198 38.3395 26.646 38.3395 22.56C38.3395 18.474 35.6215 14.904 31.8835 14.1C31.3675 13.986 31.0375 13.476 31.1455 12.96C31.2535 12.444 31.7275 12.102 32.2855 12.222C36.9055 13.212 40.2595 17.562 40.2595 22.56C40.2595 27.558 36.9175 31.89 32.3155 32.892C32.2435 32.91 32.1775 32.916 32.1115 32.916Z" fill="white"/>
</g>
</g>
<defs>
<clipPath id="clip0_4319_52666">
<rect width="45" height="45" fill="white"/>
</clipPath>
<clipPath id="clip1_4319_52666">
<rect width="45" height="45" fill="white"/>
</clipPath>
</defs>
</svg>
