<svg width="90" height="90" viewBox="0 0 32 32" fill="none" xmlns="http://www.w3.org/2000/svg">
                            <g clip-path="url(#clip0_3453_9675)">
                            <path d="M26.9355 0H5.06453C2.26747 0 0 2.26747 0 5.06453V26.9355C0 29.7325 2.26747 32 5.06453 32H26.9355C29.7325 32 32 29.7325 32 26.9355V5.06453C32 2.26747 29.7325 0 26.9355 0Z" fill="#EC1C24"/>
                            <path d="M14.319 6.76697L7.09984 12.1728H3.94678V14.4854V17.6V19.9126H7.09984L14.319 25.3184H15.9318V6.76697H14.319Z" fill="white"/>
                            <path d="M18.6071 21.2267C18.2914 21.2267 18.0098 21.0091 17.9415 20.6891C17.8604 20.3222 18.0908 19.9595 18.462 19.8742C20.1303 19.5072 21.342 17.8944 21.342 16.0384C21.342 14.1824 20.1303 12.5696 18.462 12.2027C18.0908 12.1216 17.8604 11.7547 17.9415 11.3878C18.0226 11.0208 18.3938 10.7862 18.7564 10.8672C21.0476 11.3707 22.7116 13.5467 22.7116 16.0384C22.7116 18.5302 21.0476 20.7062 18.7564 21.2096C18.7095 21.2224 18.6583 21.2267 18.6114 21.2267H18.6071Z" fill="white"/>
                            <path d="M22.8353 23.4069C22.5195 23.4069 22.2379 23.1893 22.1697 22.8693C22.0886 22.5024 22.3233 22.1354 22.6902 22.0544C25.3398 21.4741 27.2641 18.9482 27.2641 16.0426C27.2641 13.137 25.3313 10.5984 22.6731 10.0266C22.3062 9.94557 22.0715 9.58291 22.1483 9.21597C22.2251 8.84904 22.5622 8.60584 22.959 8.69117C26.2443 9.39517 28.6294 12.4885 28.6294 16.0426C28.6294 19.5968 26.2529 22.6773 22.9803 23.3898C22.9291 23.4026 22.8822 23.4069 22.8353 23.4069Z" fill="white"/>
                            <g clip-path="url(#clip1_3453_9675)">
                            <path d="M26.9355 0H5.06453C2.26747 0 0 2.26747 0 5.06453V26.9355C0 29.7325 2.26747 32 5.06453 32H26.9355C29.7325 32 32 29.7325 32 26.9355V5.06453C32 2.26747 29.7325 0 26.9355 0Z" fill="#EC1C24"/>
                            <g opacity="0.31">
                            <mask id="mask0_3453_9675" style="mask-type:luminance" maskUnits="userSpaceOnUse" x="0" y="0" width="32" height="32">
                            <path d="M26.944 0H5.056C2.26365 0 0 2.26365 0 5.056V26.944C0 29.7364 2.26365 32 5.056 32H26.944C29.7364 32 32 29.7364 32 26.944V5.056C32 2.26365 29.7364 0 26.944 0Z" fill="white"/>
                            </mask>
                            <g mask="url(#mask0_3453_9675)">
                            <path d="M-0.674316 34.5899C3.51555 33.6171 12.9748 30.8309 21.5977 22.4939C29.538 14.8181 32.7294 6.34452 33.9838 2.23999C34.594 13.248 35.1998 24.256 35.81 35.264L-0.67005 34.5899H-0.674316Z" fill="white"/>
                            </g>
                            </g>
                            <path d="M14.319 6.76697L7.09984 12.1728H3.94678V14.4854V17.6V19.9126H7.09984L14.319 25.3184H15.9318V6.76697H14.319Z" fill="white"/>
                            <path d="M18.6071 21.2267C18.2914 21.2267 18.0098 21.0091 17.9415 20.6891C17.8604 20.3222 18.0908 19.9595 18.462 19.8742C20.1303 19.5072 21.342 17.8944 21.342 16.0384C21.342 14.1824 20.1303 12.5696 18.462 12.2027C18.0908 12.1216 17.8604 11.7547 17.9415 11.3878C18.0226 11.0208 18.3938 10.7862 18.7564 10.8672C21.0476 11.3707 22.7116 13.5467 22.7116 16.0384C22.7116 18.5302 21.0476 20.7062 18.7564 21.2096C18.7095 21.2224 18.6583 21.2267 18.6114 21.2267H18.6071Z" fill="white"/>
                            <path d="M22.8353 23.4069C22.5195 23.4069 22.2379 23.1893 22.1697 22.8693C22.0886 22.5024 22.3233 22.1354 22.6902 22.0544C25.3398 21.4741 27.2641 18.9482 27.2641 16.0426C27.2641 13.137 25.3313 10.5984 22.6731 10.0266C22.3062 9.94557 22.0715 9.58291 22.1483 9.21597C22.2251 8.84904 22.5622 8.60584 22.959 8.69117C26.2443 9.39517 28.6294 12.4885 28.6294 16.0426C28.6294 19.5968 26.2529 22.6773 22.9803 23.3898C22.9291 23.4026 22.8822 23.4069 22.8353 23.4069Z" fill="white"/>
                            </g>
                            </g>
                            <defs>
                            <clipPath id="clip0_3453_9675">
                            <rect width="32" height="32" fill="white"/>
                            </clipPath>
                            <clipPath id="clip1_3453_9675">
                            <rect width="32" height="32" fill="white"/>
                            </clipPath>
                            </defs>
                            </svg>