<svg width="90" height="90" viewBox="0 0 32 32" fill="none" xmlns="http://www.w3.org/2000/svg">
                        <g clip-path="url(#clip0_3453_9629)">
                        <path d="M26.9355 0H5.06453C2.26747 0 0 2.26747 0 5.06453V26.9355C0 29.7325 2.26747 32 5.06453 32H26.9355C29.7325 32 32 29.7325 32 26.9355V5.06453C32 2.26747 29.7325 0 26.9355 0Z" fill="#8A4AA8"/>
                        <path d="M16.9215 6.18237H15.3087C13.9961 6.18237 12.9321 7.24638 12.9321 8.55891V15.5861C12.9321 16.8986 13.9961 17.9626 15.3087 17.9626H16.9215C18.234 17.9626 19.298 16.8986 19.298 15.5861V8.55891C19.298 7.24638 18.234 6.18237 16.9215 6.18237Z" fill="white"/>
                        <path d="M21.1029 14.7755C21.0432 15.104 20.9664 15.4155 20.864 15.7184C20.7616 16.0214 20.6336 16.3115 20.4843 16.5846C20.1856 17.1307 19.8016 17.6128 19.3493 18.0054L19.1787 18.1504L18.9995 18.287L18.816 18.415C18.752 18.4534 18.6923 18.496 18.6283 18.5344C18.3723 18.6838 18.1077 18.816 17.8347 18.9184C17.5616 19.0208 17.28 19.1019 16.9899 19.1531C16.704 19.2086 16.4096 19.2342 16.1195 19.2342C15.8251 19.2342 15.5349 19.2086 15.2491 19.1574C14.9589 19.1062 14.6773 19.0251 14.4043 18.9227C14.1269 18.8203 13.8624 18.688 13.6107 18.5387C13.3589 18.3851 13.1157 18.2102 12.8896 18.0139C12.4373 17.6171 12.0533 17.135 11.7547 16.5888C11.6053 16.3158 11.4773 16.0256 11.3749 15.7227C11.2725 15.4198 11.1915 15.104 11.136 14.7798C11.0208 15.4326 11.0763 16.128 11.2768 16.7894C11.4773 17.4507 11.8315 18.0736 12.3051 18.6027C12.7744 19.1318 13.3675 19.5627 14.0245 19.8528C14.3531 20.0022 14.6987 20.1088 15.0528 20.1856C15.232 20.224 15.4155 20.2496 15.5989 20.271V24.5675C15.1979 24.5931 14.7925 24.6486 14.3915 24.7424C14.1013 24.8107 13.8112 24.896 13.5211 25.007C13.376 25.0667 13.2309 25.1264 13.0859 25.199C12.9408 25.2715 12.7957 25.3483 12.6507 25.4507L12.6251 25.4678C12.6251 25.4678 12.6037 25.4891 12.6037 25.5062C12.6037 25.5318 12.6251 25.5531 12.6507 25.5574L13.5211 25.583L14.3915 25.5958C14.9717 25.6043 15.5477 25.6043 16.128 25.6086C16.7083 25.6043 17.2843 25.6086 17.8645 25.5958L18.7349 25.583L19.6053 25.5574C19.6053 25.5574 19.6352 25.5488 19.6437 25.536C19.6608 25.5147 19.6523 25.4848 19.6309 25.4678L19.6053 25.4507C19.4603 25.3526 19.3152 25.2715 19.1701 25.199C19.0251 25.1264 18.88 25.0667 18.7349 25.007C18.4448 24.896 18.1547 24.8107 17.8645 24.7424C17.4635 24.6486 17.0581 24.5931 16.6571 24.5675V20.271C16.8405 20.2539 17.0197 20.224 17.2032 20.1856C17.5573 20.1088 17.9029 19.9979 18.2315 19.8528C18.8885 19.5584 19.4816 19.1318 19.9509 18.6027C20.4245 18.0736 20.7787 17.4507 20.9792 16.7894C21.1797 16.128 21.2352 15.4326 21.1157 14.7798L21.1029 14.7755Z" fill="white"/>
                        <g clip-path="url(#clip1_3453_9629)">
                        <path d="M26.9355 0H5.06453C2.26747 0 0 2.26747 0 5.06453V26.9355C0 29.7325 2.26747 32 5.06453 32H26.9355C29.7325 32 32 29.7325 32 26.9355V5.06453C32 2.26747 29.7325 0 26.9355 0Z" fill="#8A4AA8"/>
                        <g opacity="0.31">
                        <mask id="mask0_3453_9629" style="mask-type:luminance" maskUnits="userSpaceOnUse" x="0" y="0" width="32" height="32">
                        <path d="M26.944 0H5.056C2.26365 0 0 2.26365 0 5.056V26.944C0 29.7364 2.26365 32 5.056 32H26.944C29.7364 32 32 29.7364 32 26.944V5.056C32 2.26365 29.7364 0 26.944 0Z" fill="white"/>
                        </mask>
                        <g mask="url(#mask0_3453_9629)">
                        <path d="M-0.674316 34.5899C3.51555 33.6171 12.9748 30.8309 21.5977 22.4939C29.538 14.8181 32.7294 6.34452 33.9838 2.23999C34.594 13.248 35.1998 24.256 35.81 35.264L-0.67005 34.5899H-0.674316Z" fill="white"/>
                        </g>
                        </g>
                        <path d="M16.9215 6.18237H15.3087C13.9961 6.18237 12.9321 7.24638 12.9321 8.55891V15.5861C12.9321 16.8986 13.9961 17.9626 15.3087 17.9626H16.9215C18.234 17.9626 19.298 16.8986 19.298 15.5861V8.55891C19.298 7.24638 18.234 6.18237 16.9215 6.18237Z" fill="white"/>
                        <path d="M21.1029 14.7755C21.0432 15.104 20.9664 15.4155 20.864 15.7184C20.7616 16.0214 20.6336 16.3115 20.4843 16.5846C20.1856 17.1307 19.8016 17.6128 19.3493 18.0054L19.1787 18.1504L18.9995 18.287L18.816 18.415C18.752 18.4534 18.6923 18.496 18.6283 18.5344C18.3723 18.6838 18.1077 18.816 17.8347 18.9184C17.5616 19.0208 17.28 19.1019 16.9899 19.1531C16.704 19.2086 16.4096 19.2342 16.1195 19.2342C15.8251 19.2342 15.5349 19.2086 15.2491 19.1574C14.9589 19.1062 14.6773 19.0251 14.4043 18.9227C14.1269 18.8203 13.8624 18.688 13.6107 18.5387C13.3589 18.3851 13.1157 18.2102 12.8896 18.0139C12.4373 17.6171 12.0533 17.135 11.7547 16.5888C11.6053 16.3158 11.4773 16.0256 11.3749 15.7227C11.2725 15.4198 11.1915 15.104 11.136 14.7798C11.0208 15.4326 11.0763 16.128 11.2768 16.7894C11.4773 17.4507 11.8315 18.0736 12.3051 18.6027C12.7744 19.1318 13.3675 19.5627 14.0245 19.8528C14.3531 20.0022 14.6987 20.1088 15.0528 20.1856C15.232 20.224 15.4155 20.2496 15.5989 20.271V24.5675C15.1979 24.5931 14.7925 24.6486 14.3915 24.7424C14.1013 24.8107 13.8112 24.896 13.5211 25.007C13.376 25.0667 13.2309 25.1264 13.0859 25.199C12.9408 25.2715 12.7957 25.3483 12.6507 25.4507L12.6251 25.4678C12.6251 25.4678 12.6037 25.4891 12.6037 25.5062C12.6037 25.5318 12.6251 25.5531 12.6507 25.5574L13.5211 25.583L14.3915 25.5958C14.9717 25.6043 15.5477 25.6043 16.128 25.6086C16.7083 25.6043 17.2843 25.6086 17.8645 25.5958L18.7349 25.583L19.6053 25.5574C19.6053 25.5574 19.6352 25.5488 19.6437 25.536C19.6608 25.5147 19.6523 25.4848 19.6309 25.4678L19.6053 25.4507C19.4603 25.3526 19.3152 25.2715 19.1701 25.199C19.0251 25.1264 18.88 25.0667 18.7349 25.007C18.4448 24.896 18.1547 24.8107 17.8645 24.7424C17.4635 24.6486 17.0581 24.5931 16.6571 24.5675V20.271C16.8405 20.2539 17.0197 20.224 17.2032 20.1856C17.5573 20.1088 17.9029 19.9979 18.2315 19.8528C18.8885 19.5584 19.4816 19.1318 19.9509 18.6027C20.4245 18.0736 20.7787 17.4507 20.9792 16.7894C21.1797 16.128 21.2352 15.4326 21.1157 14.7798L21.1029 14.7755Z" fill="white"/>
                        </g>
                        </g>
                        <defs>
                        <clipPath id="clip0_3453_9629">
                        <rect width="32" height="32" fill="white"/>
                        </clipPath>
                        <clipPath id="clip1_3453_9629">
                        <rect width="32" height="32" fill="white"/>
                        </clipPath>
                        </defs>
                        </svg>