<svg width="11" height="12" viewBox="0 0 11 12" fill="none" xmlns="http://www.w3.org/2000/svg">
<path d="M7.5295 6L10.8041 2.42774C11.0653 2.14276 11.0653 1.68117 10.8041 1.3966L9.72016 0.214135C9.45893 -0.0708432 9.03581 -0.0708432 8.77494 0.214135L5.50037 3.7864L2.22542 0.213734C1.96419 -0.0712446 1.54107 -0.0712446 1.28021 0.213734L0.195923 1.3966C-0.0653076 1.68157 -0.0653076 2.14316 0.195923 2.42774L3.4705 6L0.195923 9.57267C-0.0653076 9.85764 -0.0653076 10.3192 0.195923 10.6038L1.27984 11.7863C1.54107 12.0712 1.96419 12.0712 2.22506 11.7863L5.49963 8.214L8.77421 11.7863C9.03544 12.0712 9.45856 12.0712 9.71942 11.7863L10.8033 10.6038C11.0646 10.3188 11.0646 9.85724 10.8033 9.57267L7.52877 6.0004L7.5295 6Z" fill="url(#paint0_radial_7160_37838)"/>
<defs>
<radialGradient id="paint0_radial_7160_37838" cx="0" cy="0" r="1" gradientUnits="userSpaceOnUse" gradientTransform="translate(5.5 6) scale(5.49982 5.9998)">
<stop stop-color="#CB2228"/>
<stop offset="0.62" stop-color="#B0282E"/>
<stop offset="1" stop-color="#A52B31"/>
</radialGradient>
</defs>
</svg>
