<svg width="18" height="18" viewBox="0 0 18 18" fill="none" xmlns="http://www.w3.org/2000/svg">
<path d="M12.9022 7.55265L7.55243 12.9022C7.52147 12.9332 7.48471 12.9578 7.44425 12.9746C7.40378 12.9914 7.36041 13 7.3166 13C7.2728 13 7.22943 12.9914 7.18896 12.9746C7.1485 12.9578 7.11174 12.9332 7.08078 12.9022L4.09755 9.90247C4.03509 9.83997 4 9.75522 4 9.66686C4 9.5785 4.03509 9.49376 4.09755 9.43126L5.09752 8.43133C5.12847 8.40034 5.16523 8.37576 5.2057 8.35898C5.24616 8.34221 5.28954 8.33358 5.33334 8.33358C5.37714 8.33358 5.42052 8.34221 5.46098 8.35898C5.50145 8.37576 5.53821 8.40034 5.56917 8.43133L7.33327 10.1429L11.4306 6.09775C11.4616 6.06677 11.4983 6.04218 11.5388 6.02541C11.5793 6.00863 11.6226 6 11.6665 6C11.7103 6 11.7536 6.00863 11.7941 6.02541C11.8346 6.04218 11.8713 6.06677 11.9023 6.09775L12.9022 7.08101C12.9332 7.11197 12.9578 7.14873 12.9746 7.18919C12.9914 7.22966 13 7.27303 13 7.31683C13 7.36063 12.9914 7.404 12.9746 7.44447C12.9578 7.48493 12.9332 7.52169 12.9022 7.55265Z" fill="#FFA903"/>
<path fill-rule="evenodd" clip-rule="evenodd" d="M6.69516 13.2874L6.6943 13.2865L3.71202 10.2877C3.7118 10.2875 3.71224 10.2879 3.71202 10.2877C3.54784 10.1231 3.45496 9.89937 3.45496 9.66684C3.45496 9.43398 3.54742 9.21066 3.71202 9.04596L4.7119 8.04613C4.71197 8.04605 4.71183 8.0462 4.7119 8.04613C4.79343 7.96456 4.89044 7.89964 4.99697 7.85548C5.1036 7.81128 5.21789 7.78853 5.33331 7.78853C5.44874 7.78853 5.56303 7.81128 5.66966 7.85548C5.77466 7.89901 5.8702 7.96249 5.95099 8.0424L7.32992 9.38025L11.0467 5.71087C11.1279 5.63 11.2242 5.5658 11.3301 5.52191C11.4367 5.47771 11.551 5.45496 11.6664 5.45496C11.7819 5.45496 11.8961 5.47771 12.0028 5.52191C12.1085 5.56572 12.2046 5.62977 12.2857 5.71043L13.2874 6.69537C13.3691 6.77694 13.4338 6.87382 13.478 6.98045C13.5222 7.08709 13.545 7.20138 13.545 7.31681C13.545 7.43223 13.5222 7.54652 13.478 7.65316C13.4339 7.75969 13.3692 7.85649 13.2876 7.93801M12.9022 7.55262L7.5524 12.9022C7.52145 12.9332 7.48469 12.9578 7.44422 12.9746C7.40376 12.9913 7.36038 13 7.31658 13C7.27278 13 7.2294 12.9913 7.18894 12.9746C7.14847 12.9578 7.11171 12.9332 7.08075 12.9022L4.09753 9.90244C4.03506 9.83994 3.99997 9.7552 3.99997 9.66684C3.99997 9.57848 4.03506 9.49373 4.09753 9.43123L5.09749 8.4313C5.12845 8.40032 5.16521 8.37573 5.20567 8.35896C5.24614 8.34218 5.28951 8.33355 5.33331 8.33355C5.37712 8.33355 5.42049 8.34218 5.46096 8.35896C5.50142 8.37573 5.53818 8.40032 5.56914 8.4313L7.33324 10.1428L11.4306 6.09773C11.4616 6.06674 11.4983 6.04216 11.5388 6.02538C11.5792 6.00861 11.6226 5.99997 11.6664 5.99997C11.7102 5.99997 11.7536 6.00861 11.7941 6.02538C11.8345 6.04216 11.8713 6.06674 11.9023 6.09773L12.9022 7.08099C12.9332 7.11194 12.9578 7.1487 12.9746 7.18917C12.9913 7.22963 13 7.273 13 7.31681C13 7.36061 12.9913 7.40398 12.9746 7.44444C12.9578 7.48491 12.9332 7.52167 12.9022 7.55262ZM7.938 13.2874L13.2876 7.93801ZM7.938 13.2874C7.85647 13.369 7.75946 13.4339 7.65292 13.478C7.54629 13.5222 7.432 13.545 7.31658 13.545C7.20116 13.545 7.08687 13.5222 6.98023 13.478C6.87361 13.4338 6.77674 13.3691 6.69516 13.2874M7.938 13.2874C7.93793 13.2875 7.93807 13.2873 7.938 13.2874Z" fill="#E79901"/>
<path fill-rule="evenodd" clip-rule="evenodd" d="M17.8287 10.7565L15.8667 10.3683C15.9539 9.92738 16 9.47006 16 9C16 8.52994 15.9539 8.07262 15.8667 7.63168L17.8287 7.24354C17.9411 7.81163 18 8.39893 18 9C18 9.60107 17.9411 10.1884 17.8287 10.7565ZM16.4841 3.99946L14.8222 5.1121C14.3105 4.34788 13.6521 3.68948 12.8879 3.17785L14.0005 1.51591C14.982 2.17298 15.827 3.018 16.4841 3.99946ZM10.7565 0.171306L10.3683 2.13328C9.92738 2.04605 9.47006 2 9 2C8.52994 2 8.07262 2.04605 7.63168 2.13328L7.24354 0.171306C7.81163 0.0589225 8.39893 0 9 0C9.60107 0 10.1884 0.0589225 10.7565 0.171306ZM3.99946 1.51591L5.1121 3.17785C4.34788 3.68948 3.68948 4.34788 3.17785 5.1121L1.51591 3.99946C2.17298 3.018 3.018 2.17298 3.99946 1.51591ZM0.171307 7.24354C0.0589225 7.81162 0 8.39893 0 9C0 9.60107 0.0589225 10.1884 0.171306 10.7565L2.13328 10.3683C2.04605 9.92738 2 9.47006 2 9C2 8.52994 2.04605 8.07262 2.13328 7.63168L0.171307 7.24354ZM1.51591 14.0005L3.17785 12.8879C3.68948 13.6521 4.34788 14.3105 5.1121 14.8222L3.99946 16.4841C3.018 15.827 2.17298 14.982 1.51591 14.0005ZM7.24354 17.8287L7.63168 15.8667C8.07262 15.9539 8.52994 16 9 16C9.47006 16 9.92738 15.9539 10.3683 15.8667L10.7565 17.8287C10.1884 17.9411 9.60107 18 9 18C8.39893 18 7.81162 17.9411 7.24354 17.8287ZM14.0005 16.4841L12.8879 14.8222C13.6521 14.3105 14.3105 13.6521 14.8222 12.8879L16.4841 14.0005C15.827 14.982 14.982 15.827 14.0005 16.4841Z" fill="#FFA903"/>
<path fill-rule="evenodd" clip-rule="evenodd" d="M9 -3.93403e-07C9.67458 -3.63916e-07 10.3454 0.0758352 11 0.225035C11.4923 0.337241 11.9754 0.490941 12.4442 0.685084C13.5361 1.13738 14.5282 1.80031 15.364 2.63604C16.1997 3.47177 16.8626 4.46392 17.3149 5.55585C17.7672 6.64778 18 7.8181 18 9C18 10.1819 17.7672 11.3522 17.3149 12.4442C16.8626 13.5361 16.1997 14.5282 15.364 15.364C14.5282 16.1997 13.5361 16.8626 12.4442 17.3149C11.9754 17.5091 11.4923 17.6628 11 17.775C10.3454 17.9242 9.67458 18 9 18L9 15.9375C9.91104 15.9375 10.8132 15.758 11.6549 15.4094C12.4965 15.0607 13.2613 14.5497 13.9055 13.9055C14.5497 13.2613 15.0607 12.4965 15.4094 11.6549C15.758 10.8132 15.9375 9.91104 15.9375 9C15.9375 8.08896 15.758 7.18684 15.4094 6.34515C15.0607 5.50345 14.5497 4.73867 13.9055 4.09447C13.2613 3.45027 12.4965 2.93926 11.6549 2.59062C10.8132 2.24198 9.91104 2.06253 9 2.06253L9 -3.93403e-07Z" fill="#FFA903"/>
</svg>
