<svg width="14" height="11" viewBox="0 0 14 11" fill="none" xmlns="http://www.w3.org/2000/svg">
<path d="M4.76761 10.0665L4.76804 10.0669H5.76003L12.6379 3.18906C12.7031 3.12395 12.7548 3.04663 12.79 2.96153C12.8253 2.87642 12.8435 2.78519 12.8435 2.69307C12.8435 2.60094 12.8253 2.50972 12.79 2.42461C12.7548 2.3395 12.7031 2.26218 12.6379 2.19708L12.6379 2.19707L12.6364 2.19557L11.3525 0.933099C11.3521 0.932768 11.3518 0.932438 11.3515 0.932108C11.2866 0.867393 11.2096 0.81603 11.1249 0.78093C11.0398 0.74565 10.9486 0.727491 10.8565 0.727491C10.7643 0.727491 10.6731 0.74565 10.588 0.78093C10.5032 0.816076 10.4262 0.867527 10.3612 0.932361C10.361 0.932607 10.3607 0.932853 10.3605 0.933099L5.2838 5.94524L3.20851 3.93171C3.14376 3.86733 3.06705 3.81621 2.98269 3.78124C2.89758 3.74596 2.80636 3.7278 2.71423 3.7278C2.6221 3.7278 2.53087 3.74596 2.44577 3.78124C2.36071 3.8165 2.28343 3.86817 2.21834 3.9333C2.21831 3.93334 2.21827 3.93337 2.21823 3.93341L0.932724 5.21892L0.932661 5.21898C0.801288 5.35044 0.727491 5.52869 0.727491 5.71454C0.727491 5.90028 0.801201 6.07842 0.932428 6.20986C0.932505 6.20994 0.932583 6.21001 0.932661 6.21009L4.76761 10.0665Z" fill="#70C945" stroke="#38940B" stroke-width="0.545019"/>
</svg>
