<svg width="32" height="32" viewBox="0 0 32 32" fill="none" xmlns="http://www.w3.org/2000/svg">
<g clip-path="url(#clip0_3453_9798)">
<path d="M26.9355 0H5.06453C2.26747 0 0 2.26747 0 5.06453V26.9355C0 29.7325 2.26747 32 5.06453 32H26.9355C29.7325 32 32 29.7325 32 26.9355V5.06453C32 2.26747 29.7325 0 26.9355 0Z" fill="#02AD4B"/>
<g opacity="0.31">
<mask id="mask0_3453_9798" style="mask-type:luminance" maskUnits="userSpaceOnUse" x="-1" y="0" width="33" height="32">
<path d="M26.8503 0H4.96225C2.1699 0 -0.09375 2.26365 -0.09375 5.056V26.944C-0.09375 29.7364 2.1699 32 4.96225 32H26.8503C29.6426 32 31.9062 29.7364 31.9062 26.944V5.056C31.9062 2.26365 29.6426 0 26.8503 0Z" fill="white"/>
</mask>
<g mask="url(#mask0_3453_9798)">
<path d="M-0.768066 34.5899C3.4218 33.6171 12.881 30.8309 21.5039 22.4939C29.4442 14.8181 32.6357 6.34452 33.8901 2.23999C34.5002 13.248 35.1061 24.256 35.7162 35.264L-0.7638 34.5899H-0.768066Z" fill="white"/>
</g>
</g>
<path d="M20.1129 13.3419V23.9061C20.1129 24.8064 19.4473 25.5531 18.6495 25.5531H5.858C5.05586 25.5531 4.39453 24.8064 4.39453 23.9061V7.76961C4.39453 6.85655 5.06013 6.12268 5.858 6.12268H18.6452C19.4473 6.12268 20.1087 6.85655 20.1087 7.76961V13.3419H20.1129ZM19.0036 23.9061V7.76961C19.0036 7.44961 18.8116 7.21495 18.6452 7.21495H5.858C5.6916 7.21495 5.4996 7.44961 5.4996 7.76961V23.9019C5.4996 24.2219 5.6916 24.4395 5.858 24.4395H18.6452C18.8116 24.4395 19.0036 24.2176 19.0036 23.9019V23.9061Z" fill="white"/>
<path d="M19.0035 15.0699V23.9062C19.0035 24.2262 18.8115 24.4438 18.6451 24.4438H5.85791C5.69151 24.4438 5.49951 24.2219 5.49951 23.9062V7.76963C5.49951 7.44963 5.69151 7.21497 5.85791 7.21497H18.6451C18.8115 7.21497 19.0035 7.44963 19.0035 7.76963V15.0699Z" fill="#00A14B"/>
<path d="M17.1864 9.61284H7.30477C6.98904 9.61284 6.7373 9.35684 6.7373 9.04537C6.7373 8.73391 6.99331 8.47791 7.30477 8.47791H17.1864C17.5021 8.47791 17.7538 8.73391 17.7538 9.04537C17.7538 9.35684 17.4978 9.61284 17.1864 9.61284Z" fill="white"/>
<path d="M17.1864 13.0005H7.30477C6.98904 13.0005 6.7373 12.7445 6.7373 12.4331C6.7373 12.1216 6.99331 11.8656 7.30477 11.8656H17.1864C17.5021 11.8656 17.7538 12.1216 17.7538 12.4331C17.7538 12.7445 17.4978 13.0005 17.1864 13.0005Z" fill="white"/>
<path d="M17.1864 16.3882H7.30477C6.98904 16.3882 6.7373 16.1322 6.7373 15.8208C6.7373 15.5093 6.99331 15.2533 7.30477 15.2533H17.1864C17.5021 15.2533 17.7538 15.5093 17.7538 15.8208C17.7538 16.1322 17.4978 16.3882 17.1864 16.3882Z" fill="white"/>
<path d="M17.1864 19.7803H7.30477C6.98904 19.7803 6.7373 19.5243 6.7373 19.2129C6.7373 18.9014 6.99331 18.6454 7.30477 18.6454H17.1864C17.5021 18.6454 17.7538 18.9014 17.7538 19.2129C17.7538 19.5243 17.4978 19.7803 17.1864 19.7803Z" fill="white"/>
<path d="M12.2541 23.168H7.30477C6.98904 23.168 6.7373 22.912 6.7373 22.6005C6.7373 22.2891 6.99331 22.0331 7.30477 22.0331H12.2541C12.5698 22.0331 12.8216 22.2891 12.8216 22.6005C12.8216 22.912 12.5656 23.168 12.2541 23.168Z" fill="white"/>
<path d="M15.8892 21.231L25.95 11.1702H25.9543L26.9868 10.1419C27.3836 9.74511 27.3836 9.09231 26.9868 8.69124L25.1607 6.8651C24.7639 6.4683 24.1111 6.4683 23.71 6.8651L22.6775 7.89764H22.6817L12.6209 17.9627L12.6081 17.9499L12.4247 19.7803L12.2412 21.6107L14.0716 21.4272L15.902 21.2438L15.8892 21.231Z" fill="white"/>
<path d="M24.4354 6.56638C24.6999 6.56638 24.9602 6.66451 25.1607 6.86505L26.9868 8.69118C27.3836 9.08798 27.3836 9.74078 26.9868 10.1418L25.9543 11.1744H25.95L15.8892 21.2309L15.902 21.2437L14.0716 21.4272L12.2412 21.6106L12.4247 19.7802L12.6082 17.9498L12.621 17.9626L22.6818 7.90185H22.6775L23.71 6.86505C23.9106 6.66451 24.1708 6.56638 24.4354 6.56638ZM24.4354 6.18665C24.0599 6.18665 23.7058 6.33171 23.4412 6.59625L22.4087 7.62878C22.4087 7.62878 22.3746 7.66291 22.3618 7.68425L12.4332 17.6128C12.318 17.6682 12.237 17.7834 12.2242 17.9157L12.0407 19.7461L11.8572 21.5765C11.8444 21.6917 11.8871 21.8026 11.9682 21.8837C12.0407 21.9562 12.1346 21.9946 12.237 21.9946C12.2498 21.9946 12.2626 21.9946 12.2754 21.9946L14.1058 21.8112L15.9362 21.6277C16.0684 21.6149 16.1794 21.5338 16.2391 21.4186L26.1676 11.4901C26.1676 11.4901 26.206 11.4602 26.2231 11.4432L27.2556 10.4106C27.8018 9.86451 27.8018 8.97278 27.2556 8.42665L25.4295 6.60051C25.165 6.33598 24.8108 6.19091 24.4354 6.19091V6.18665Z" fill="white"/>
<path d="M22.2266 8.35772L13.0278 17.5565L16.2952 20.8239L25.494 11.6251L22.2266 8.35772Z" fill="#1A50A0"/>
<path d="M23.6393 9.71285L14.353 18.9991L14.8569 19.503L24.1432 10.2167L23.6393 9.71285Z" fill="white"/>
<path d="M14.2595 19.5969L15.9064 21.2438L14.076 21.4273L12.2456 21.6065L12.4291 19.7761L12.6083 17.95L14.2595 19.5969Z" fill="#1A50A0"/>
<path d="M26.991 10.1419C27.3878 9.74511 27.3878 9.09231 26.991 8.69124L25.1648 6.8651C24.768 6.4683 24.1152 6.4683 23.7142 6.8651L22.6816 7.89764L25.9584 11.1744L26.991 10.1419Z" fill="#1A50A0"/>
</g>
<defs>
<clipPath id="clip0_3453_9798">
<rect width="32" height="32" fill="white"/>
</clipPath>
</defs>
</svg>
