<svg width="24" height="20" viewBox="0 0 24 20" fill="none" xmlns="http://www.w3.org/2000/svg">
<path d="M6 2C6 1.73478 6.10536 1.48043 6.29289 1.29289C6.48043 1.10536 6.73478 1 7 1H23C23.2652 1 23.5196 1.10536 23.7071 1.29289C23.8946 1.48043 24 1.73478 24 2C24 2.26522 23.8946 2.51957 23.7071 2.70711C23.5196 2.89464 23.2652 3 23 3H7C6.73478 3 6.48043 2.89464 6.29289 2.70711C6.10536 2.51957 6 2.26522 6 2ZM23 9H7C6.73478 9 6.48043 9.10536 6.29289 9.29289C6.10536 9.48043 6 9.73478 6 10C6 10.2652 6.10536 10.5196 6.29289 10.7071C6.48043 10.8946 6.73478 11 7 11H23C23.2652 11 23.5196 10.8946 23.7071 10.7071C23.8946 10.5196 24 10.2652 24 10C24 9.73478 23.8946 9.48043 23.7071 9.29289C23.5196 9.10536 23.2652 9 23 9ZM23 17H7C6.73478 17 6.48043 17.1054 6.29289 17.2929C6.10536 17.4804 6 17.7348 6 18C6 18.2652 6.10536 18.5196 6.29289 18.7071C6.48043 18.8946 6.73478 19 7 19H23C23.2652 19 23.5196 18.8946 23.7071 18.7071C23.8946 18.5196 24 18.2652 24 18C24 17.7348 23.8946 17.4804 23.7071 17.2929C23.5196 17.1054 23.2652 17 23 17ZM1.5 0.5C1.20333 0.5 0.913319 0.587974 0.666645 0.752796C0.419972 0.917618 0.227713 1.15189 0.114181 1.42597C0.000649929 1.70006 -0.0290551 2.00166 0.0288228 2.29264C0.0867006 2.58361 0.229562 2.85088 0.43934 3.06066C0.649119 3.27044 0.916394 3.4133 1.20737 3.47118C1.49834 3.52906 1.79994 3.49935 2.07403 3.38582C2.34811 3.27229 2.58238 3.08003 2.74721 2.83335C2.91203 2.58668 3 2.29667 3 2C3 1.60218 2.84197 1.22064 2.56066 0.93934C2.27936 0.658035 1.89783 0.5 1.5 0.5ZM1.5 8.5C1.20333 8.5 0.913319 8.58797 0.666645 8.7528C0.419972 8.91762 0.227713 9.15189 0.114181 9.42597C0.000649929 9.70006 -0.0290551 10.0017 0.0288228 10.2926C0.0867006 10.5836 0.229562 10.8509 0.43934 11.0607C0.649119 11.2704 0.916394 11.4133 1.20737 11.4712C1.49834 11.5291 1.79994 11.4993 2.07403 11.3858C2.34811 11.2723 2.58238 11.08 2.74721 10.8334C2.91203 10.5867 3 10.2967 3 10C3 9.60218 2.84197 9.22064 2.56066 8.93934C2.27936 8.65804 1.89783 8.5 1.5 8.5ZM1.5 16.5C1.20333 16.5 0.913319 16.588 0.666645 16.7528C0.419972 16.9176 0.227713 17.1519 0.114181 17.426C0.000649929 17.7001 -0.0290551 18.0017 0.0288228 18.2926C0.0867006 18.5836 0.229562 18.8509 0.43934 19.0607C0.649119 19.2704 0.916394 19.4133 1.20737 19.4712C1.49834 19.5291 1.79994 19.4993 2.07403 19.3858C2.34811 19.2723 2.58238 19.08 2.74721 18.8334C2.91203 18.5867 3 18.2967 3 18C3 17.6022 2.84197 17.2206 2.56066 16.9393C2.27936 16.658 1.89783 16.5 1.5 16.5Z" fill="#7A7A7A"/>
</svg>
