<svg width="60" height="60" viewBox="0 0 60 60" fill="none" xmlns="http://www.w3.org/2000/svg">
<path opacity="0.2" d="M39.375 33.75C39.375 35.6042 38.8252 37.4168 37.795 38.9585C36.7649 40.5002 35.3007 41.7018 33.5877 42.4114C31.8746 43.1209 29.9896 43.3066 28.171 42.9449C26.3525 42.5831 24.682 41.6902 23.3709 40.3791C22.0598 39.068 21.1669 37.3975 20.8051 35.579C20.4434 33.7604 20.6291 31.8754 21.3386 30.1623C22.0482 28.4493 23.2498 26.9851 24.7915 25.955C26.3332 24.9248 28.1458 24.375 30 24.375C32.4864 24.375 34.871 25.3627 36.6291 27.1209C38.3873 28.879 39.375 31.2636 39.375 33.75ZM15 13.125C13.5166 13.125 12.0666 13.5649 10.8332 14.389C9.59986 15.2131 8.63856 16.3844 8.07091 17.7549C7.50325 19.1253 7.35472 20.6333 7.64411 22.0882C7.9335 23.543 8.64781 24.8794 9.6967 25.9283C10.7456 26.9772 12.082 27.6915 13.5368 27.9809C14.9917 28.2703 16.4997 28.1218 17.8701 27.5541C19.2406 26.9864 20.4119 26.0251 21.236 24.7918C22.0601 23.5584 22.5 22.1084 22.5 20.625C22.5 18.6359 21.7098 16.7282 20.3033 15.3217C18.8968 13.9152 16.9891 13.125 15 13.125ZM45 13.125C43.5166 13.125 42.0666 13.5649 40.8332 14.389C39.5999 15.2131 38.6386 16.3844 38.0709 17.7549C37.5032 19.1253 37.3547 20.6333 37.6441 22.0882C37.9335 23.543 38.6478 24.8794 39.6967 25.9283C40.7456 26.9772 42.082 27.6915 43.5368 27.9809C44.9917 28.2703 46.4997 28.1218 47.8701 27.5541C49.2406 26.9864 50.4119 26.0251 51.236 24.7918C52.0601 23.5584 52.5 22.1084 52.5 20.625C52.5 18.6359 51.7098 16.7282 50.3033 15.3217C48.8968 13.9152 46.9891 13.125 45 13.125Z" fill="#1C51E1"/>
<path d="M57.375 35.25C57.178 35.3977 56.9538 35.5052 56.7153 35.5663C56.4768 35.6275 56.2286 35.641 55.9848 35.6062C55.7411 35.5713 55.5066 35.4888 55.2947 35.3634C55.0828 35.2379 54.8977 35.072 54.75 34.875C53.6199 33.3559 52.1489 32.1234 50.4554 31.2767C48.7619 30.43 46.8933 29.9927 45 30C44.5027 30 44.0258 29.8025 43.6742 29.4508C43.3225 29.0992 43.125 28.6223 43.125 28.125C43.125 27.6277 43.3225 27.1508 43.6742 26.7992C44.0258 26.4476 44.5027 26.25 45 26.25C46.052 26.2499 47.083 25.9548 47.9757 25.3982C48.8684 24.8415 49.5871 24.0457 50.0502 23.101C50.5133 22.1564 50.7022 21.1008 50.5955 20.0542C50.4887 19.0076 50.0906 18.0119 49.4463 17.1802C48.802 16.3485 47.9374 15.7142 46.9507 15.3493C45.964 14.9843 44.8947 14.9034 43.8643 15.1157C42.8339 15.3281 41.8837 15.8251 41.1216 16.5504C40.3595 17.2757 39.8161 18.2001 39.5531 19.2188C39.4915 19.4573 39.3836 19.6814 39.2355 19.8782C39.0873 20.075 38.9018 20.2407 38.6896 20.3659C38.4774 20.491 38.2427 20.5731 37.9987 20.6075C37.7548 20.6419 37.5065 20.628 37.2679 20.5664C37.0294 20.5049 36.8053 20.3969 36.6085 20.2488C36.4117 20.1006 36.246 19.9151 36.1208 19.7029C35.9957 19.4907 35.9136 19.256 35.8792 19.012C35.8448 18.7681 35.8587 18.5198 35.9203 18.2813C36.2853 16.8687 36.975 15.5609 37.9345 14.4618C38.8939 13.3627 40.0967 12.5027 41.447 11.9502C42.7973 11.3977 44.2579 11.168 45.7126 11.2794C47.1673 11.3907 48.5759 11.84 49.8264 12.5916C51.0769 13.3431 52.1347 14.3762 52.9157 15.6085C53.6967 16.8408 54.1793 18.2384 54.3251 19.69C54.4709 21.1417 54.276 22.6073 53.7557 23.9704C53.2354 25.3334 52.4041 26.5562 51.3281 27.5414C53.8777 28.6453 56.094 30.3971 57.757 32.6227C57.9047 32.8201 58.0121 33.0448 58.0728 33.2839C58.1336 33.5229 58.1466 33.7715 58.1111 34.0156C58.0756 34.2597 57.9923 34.4943 57.866 34.7061C57.7397 34.918 57.5728 35.1028 57.375 35.25ZM44.7469 49.6875C44.8778 49.9009 44.9646 50.1384 45.0022 50.386C45.0398 50.6335 45.0275 50.8861 44.9659 51.1288C44.9044 51.3715 44.7948 51.5994 44.6437 51.7991C44.4927 51.9987 44.3031 52.1661 44.0863 52.2914C43.8695 52.4166 43.6298 52.4971 43.3814 52.5282C43.1329 52.5593 42.8808 52.5404 42.6398 52.4724C42.3988 52.4045 42.1738 52.289 41.9782 52.1327C41.7826 51.9764 41.6202 51.7825 41.5008 51.5625C40.3195 49.5631 38.6374 47.9061 36.6204 46.755C34.6034 45.604 32.3211 44.9986 29.9988 44.9986C27.6765 44.9986 25.3942 45.604 23.3772 46.755C21.3602 47.9061 19.6781 49.5631 18.4969 51.5625C18.3796 51.7866 18.2183 51.9846 18.0226 52.1447C17.8268 52.3048 17.6007 52.4237 17.3579 52.4941C17.115 52.5646 16.8604 52.5852 16.6094 52.5547C16.3583 52.5242 16.116 52.4433 15.8971 52.3167C15.6782 52.1902 15.4871 52.0206 15.3354 51.8183C15.1837 51.616 15.0744 51.3851 15.0143 51.1395C14.9541 50.8939 14.9443 50.6386 14.9853 50.3891C15.0263 50.1396 15.1174 49.9009 15.2531 49.6875C17.0709 46.5642 19.8426 44.1063 23.1609 42.675C21.2937 41.2454 19.9215 39.2666 19.237 37.0168C18.5526 34.767 18.5904 32.3592 19.3451 30.132C20.0998 27.9047 21.5335 25.97 23.4447 24.5997C25.3558 23.2294 27.6483 22.4925 30 22.4925C32.3516 22.4925 34.6441 23.2294 36.5553 24.5997C38.4664 25.97 39.9001 27.9047 40.6549 30.132C41.4096 32.3592 41.4474 34.767 40.7629 37.0168C40.0785 39.2666 38.7062 41.2454 36.839 42.675C40.1573 44.1063 42.929 46.5642 44.7469 49.6875ZM30 41.25C31.4833 41.25 32.9334 40.8101 34.1668 39.986C35.4001 39.1619 36.3614 37.9906 36.9291 36.6201C37.4967 35.2497 37.6453 33.7417 37.3559 32.2868C37.0665 30.832 36.3522 29.4956 35.3033 28.4467C34.2544 27.3978 32.918 26.6835 31.4632 26.3941C30.0083 26.1047 28.5003 26.2533 27.1299 26.8209C25.7594 27.3886 24.5881 28.3499 23.764 29.5832C22.9398 30.8166 22.5 32.2666 22.5 33.75C22.5 35.7391 23.2902 37.6468 24.6967 39.0533C26.1032 40.4598 28.0109 41.25 30 41.25ZM16.875 28.125C16.875 27.6277 16.6774 27.1508 16.3258 26.7992C15.9742 26.4476 15.4973 26.25 15 26.25C13.9479 26.2499 12.917 25.9548 12.0243 25.3982C11.1316 24.8415 10.4128 24.0457 9.94974 23.101C9.48665 22.1564 9.29775 21.1008 9.40451 20.0542C9.51126 19.0076 9.90939 18.0119 10.5537 17.1802C11.1979 16.3485 12.0626 15.7142 13.0493 15.3493C14.036 14.9843 15.1053 14.9034 16.1357 15.1157C17.1661 15.3281 18.1163 15.8251 18.8784 16.5504C19.6404 17.2757 20.1838 18.2001 20.4469 19.2188C20.5712 19.7005 20.8818 20.1131 21.3103 20.3659C21.7389 20.6186 22.2503 20.6907 22.732 20.5664C23.2138 20.4421 23.6264 20.1315 23.8791 19.7029C24.1318 19.2744 24.204 18.763 24.0797 18.2813C23.7146 16.8687 23.0249 15.5609 22.0655 14.4618C21.106 13.3627 19.9033 12.5027 18.553 11.9502C17.2027 11.3977 15.7421 11.168 14.2874 11.2794C12.8327 11.3907 11.424 11.84 10.1736 12.5916C8.92307 13.3431 7.86524 14.3762 7.08425 15.6085C6.30325 16.8408 5.82064 18.2384 5.67483 19.69C5.52901 21.1417 5.72401 22.6073 6.2443 23.9704C6.76459 25.3334 7.59583 26.5562 8.67185 27.5414C6.12486 28.6464 3.91103 30.398 2.24998 32.6227C1.9513 33.0205 1.82289 33.5207 1.89299 34.0132C1.9631 34.5057 2.22598 34.9502 2.62381 35.2488C3.02163 35.5475 3.52181 35.6759 4.01432 35.6058C4.50682 35.5357 4.9513 35.2728 5.24998 34.875C6.3801 33.3559 7.85111 32.1234 9.54457 31.2767C11.238 30.43 13.1066 29.9927 15 30C15.4973 30 15.9742 29.8025 16.3258 29.4508C16.6774 29.0992 16.875 28.6223 16.875 28.125Z" fill="#1C51E1"/>
</svg>
