<svg width="64" height="60" viewBox="0 0 64 60" fill="none" xmlns="http://www.w3.org/2000/svg">
<path opacity="0.2" d="M26.25 37.5L15 41.25L3.75 37.5L15 33.75L26.25 37.5Z" fill="#1C51E1"/>
<path d="M26.5465 36.6106L15.2965 32.8606C15.104 32.7964 14.896 32.7964 14.7035 32.8606L3.45352 36.6106C3.28335 36.6679 3.13326 36.773 3.02107 36.9132C2.90889 37.0535 2.83934 37.223 2.8207 37.4016C2.8152 37.4341 2.81246 37.467 2.8125 37.5V46.875C2.8125 47.1236 2.91127 47.3621 3.08709 47.5379C3.2629 47.7137 3.50136 47.8125 3.75 47.8125C3.99864 47.8125 4.2371 47.7137 4.41291 47.5379C4.58873 47.3621 4.6875 47.1236 4.6875 46.875V38.8008L8.62383 40.1121C7.578 41.8017 7.24543 43.8373 7.69914 45.7719C8.15286 47.7065 9.35577 49.382 11.0437 50.4305C8.93438 51.2578 7.11094 52.7543 5.77734 54.8004C5.70799 54.9035 5.65981 55.0193 5.63562 55.1412C5.61143 55.2631 5.6117 55.3885 5.63642 55.5103C5.66114 55.632 5.70981 55.7477 5.77961 55.8504C5.84941 55.9532 5.93895 56.0411 6.04301 56.109C6.14707 56.1769 6.26359 56.2234 6.38579 56.2458C6.50799 56.2683 6.63343 56.2662 6.75482 56.2397C6.87622 56.2133 6.99114 56.163 7.09291 56.0917C7.19468 56.0204 7.28128 55.9296 7.34766 55.8246C9.11367 53.1152 11.9027 51.5625 15 51.5625C18.0973 51.5625 20.8863 53.1152 22.6523 55.8246C22.7898 56.029 23.0023 56.171 23.2436 56.22C23.485 56.269 23.736 56.2211 23.9423 56.0865C24.1486 55.9519 24.2937 55.7416 24.3462 55.5009C24.3986 55.2603 24.3543 55.0086 24.2227 54.8004C22.8891 52.7543 21.0586 51.2578 18.9562 50.4305C20.6426 49.3821 21.8444 47.7077 22.298 45.7745C22.7517 43.8413 22.4201 41.8071 21.3762 40.118L26.5465 38.3953C26.7332 38.3331 26.8956 38.2138 27.0107 38.0541C27.1258 37.8945 27.1877 37.7027 27.1877 37.5059C27.1877 37.3091 27.1258 37.1173 27.0107 36.9576C26.8956 36.798 26.7332 36.6786 26.5465 36.6164V36.6106ZM20.625 44.0625C20.6253 44.9518 20.4147 45.8285 20.0105 46.6206C19.6063 47.4127 19.0201 48.0977 18.2999 48.6194C17.5797 49.1411 16.7461 49.4847 15.8675 49.6218C14.9888 49.759 14.0902 49.6858 13.2453 49.4084C12.4004 49.131 11.6333 48.6572 11.0069 48.0259C10.3806 47.3947 9.91285 46.6239 9.64208 45.7768C9.37131 44.9297 9.30524 44.0306 9.44928 43.153C9.59332 42.2755 9.94337 41.4446 10.4707 40.7285L14.7035 42.1348C14.896 42.1989 15.104 42.1989 15.2965 42.1348L19.5293 40.7285C20.2415 41.6941 20.6256 42.8626 20.625 44.0625ZM15 40.2621L6.71484 37.5L15 34.7379L23.2852 37.5L15 40.2621Z" fill="#1C51E1"/>
<path opacity="0.2" d="M60 37.5L48.75 41.25L37.5 37.5L48.75 33.75L60 37.5Z" fill="#1C51E1"/>
<path d="M60.2965 36.6106L49.0465 32.8606C48.854 32.7964 48.646 32.7964 48.4535 32.8606L37.2035 36.6106C37.0334 36.6679 36.8833 36.773 36.7711 36.9132C36.6589 37.0535 36.5893 37.223 36.5707 37.4016C36.5652 37.4341 36.5625 37.467 36.5625 37.5V46.875C36.5625 47.1236 36.6613 47.3621 36.8371 47.5379C37.0129 47.7137 37.2514 47.8125 37.5 47.8125C37.7486 47.8125 37.9871 47.7137 38.1629 47.5379C38.3387 47.3621 38.4375 47.1236 38.4375 46.875V38.8008L42.3738 40.1121C41.328 41.8017 40.9954 43.8373 41.4491 45.7719C41.9029 47.7065 43.1058 49.382 44.7937 50.4305C42.6844 51.2578 40.8609 52.7543 39.5273 54.8004C39.458 54.9035 39.4098 55.0193 39.3856 55.1412C39.3614 55.2631 39.3617 55.3885 39.3864 55.5103C39.4111 55.632 39.4598 55.7477 39.5296 55.8504C39.5994 55.9532 39.6889 56.0411 39.793 56.109C39.8971 56.1769 40.0136 56.2234 40.1358 56.2458C40.258 56.2683 40.3834 56.2662 40.5048 56.2397C40.6262 56.2133 40.7411 56.163 40.8429 56.0917C40.9447 56.0204 41.0313 55.9296 41.0977 55.8246C42.8637 53.1152 45.6527 51.5625 48.75 51.5625C51.8473 51.5625 54.6363 53.1152 56.4023 55.8246C56.5398 56.029 56.7523 56.171 56.9936 56.22C57.235 56.269 57.486 56.2211 57.6923 56.0865C57.8986 55.9519 58.0437 55.7416 58.0962 55.5009C58.1486 55.2603 58.1043 55.0086 57.9727 54.8004C56.6391 52.7543 54.8086 51.2578 52.7062 50.4305C54.3926 49.3821 55.5944 47.7077 56.048 45.7745C56.5017 43.8413 56.1701 41.8071 55.1262 40.118L60.2965 38.3953C60.4832 38.3331 60.6456 38.2138 60.7607 38.0541C60.8758 37.8945 60.9377 37.7027 60.9377 37.5059C60.9377 37.3091 60.8758 37.1173 60.7607 36.9576C60.6456 36.798 60.4832 36.6786 60.2965 36.6164V36.6106ZM54.375 44.0625C54.3753 44.9518 54.1647 45.8285 53.7605 46.6206C53.3563 47.4127 52.7701 48.0977 52.0499 48.6194C51.3297 49.1411 50.4961 49.4847 49.6175 49.6218C48.7388 49.759 47.8402 49.6858 46.9953 49.4084C46.1504 49.131 45.3833 48.6572 44.7569 48.0259C44.1306 47.3947 43.6629 46.6239 43.3921 45.7768C43.1213 44.9297 43.0552 44.0306 43.1993 43.153C43.3433 42.2755 43.6934 41.4446 44.2207 40.7285L48.4535 42.1348C48.646 42.1989 48.854 42.1989 49.0465 42.1348L53.2793 40.7285C53.9915 41.6941 54.3756 42.8626 54.375 44.0625ZM48.75 40.2621L40.4648 37.5L48.75 34.7379L57.0352 37.5L48.75 40.2621Z" fill="#1C51E1"/>
<path opacity="0.2" d="M43.125 7.5L31.875 11.25L20.625 7.5L31.875 3.75L43.125 7.5Z" fill="#1C51E1"/>
<path d="M43.4215 6.61055L32.1715 2.86056C31.979 2.7964 31.771 2.7964 31.5785 2.86056L20.3285 6.61055C20.1584 6.66795 20.0083 6.77301 19.8961 6.91323C19.7839 7.05346 19.7143 7.22296 19.6957 7.40157C19.6902 7.43409 19.6875 7.46702 19.6875 7.50001V16.875C19.6875 17.1236 19.7863 17.3621 19.9621 17.5379C20.1379 17.7137 20.3764 17.8125 20.625 17.8125C20.8736 17.8125 21.1121 17.7137 21.2879 17.5379C21.4637 17.3621 21.5625 17.1236 21.5625 16.875V8.80079L25.4988 10.1121C24.453 11.8017 24.1204 13.8373 24.5741 15.7719C25.0279 17.7065 26.2308 19.382 27.9187 20.4305C25.8094 21.2578 23.9859 22.7543 22.6523 24.8004C22.583 24.9035 22.5348 25.0193 22.5106 25.1412C22.4864 25.2631 22.4867 25.3885 22.5114 25.5103C22.5361 25.632 22.5848 25.7477 22.6546 25.8504C22.7244 25.9532 22.8139 26.0411 22.918 26.109C23.0221 26.1769 23.1386 26.2234 23.2608 26.2458C23.383 26.2683 23.5084 26.2662 23.6298 26.2397C23.7512 26.2133 23.8661 26.163 23.9679 26.0917C24.0697 26.0204 24.1563 25.9296 24.2227 25.8246C25.9887 23.1152 28.7777 21.5625 31.875 21.5625C34.9723 21.5625 37.7613 23.1152 39.5273 25.8246C39.6648 26.029 39.8773 26.171 40.1186 26.22C40.36 26.269 40.611 26.2211 40.8173 26.0865C41.0236 25.9519 41.1687 25.7416 41.2212 25.5009C41.2736 25.2603 41.2293 25.0086 41.0977 24.8004C39.7641 22.7543 37.9336 21.2578 35.8312 20.4305C37.5176 19.3821 38.7194 17.7077 39.173 15.7745C39.6267 13.8413 39.2951 11.8071 38.2512 10.118L43.4215 8.39532C43.6082 8.33313 43.7706 8.21375 43.8857 8.05411C44.0008 7.89447 44.0627 7.70267 44.0627 7.50587C44.0627 7.30907 44.0008 7.11726 43.8857 6.95762C43.7706 6.79798 43.6082 6.67861 43.4215 6.61641V6.61055ZM37.5 14.0625C37.5003 14.9518 37.2897 15.8285 36.8855 16.6206C36.4813 17.4127 35.8951 18.0977 35.1749 18.6194C34.4547 19.1411 33.6211 19.4847 32.7425 19.6218C31.8638 19.759 30.9652 19.6858 30.1203 19.4084C29.2754 19.131 28.5083 18.6572 27.8819 18.0259C27.2556 17.3947 26.7879 16.6239 26.5171 15.7768C26.2463 14.9297 26.1802 14.0306 26.3243 13.153C26.4683 12.2755 26.8184 11.4446 27.3457 10.7285L31.5785 12.1348C31.771 12.1989 31.979 12.1989 32.1715 12.1348L36.4043 10.7285C37.1165 11.6941 37.5006 12.8626 37.5 14.0625ZM31.875 10.2621L23.5898 7.50001L31.875 4.7379L40.1602 7.50001L31.875 10.2621Z" fill="#1C51E1"/>
</svg>
