<svg width="60" height="60" viewBox="0 0 60 60" fill="none" xmlns="http://www.w3.org/2000/svg">
<path opacity="0.2" d="M45 18.75V41.25H24.375C25.8584 41.25 27.3084 40.8101 28.5418 39.986C29.7751 39.1619 30.7364 37.9906 31.3041 36.6201C31.8718 35.2497 32.0203 33.7417 31.7309 32.2868C31.4415 30.832 30.7272 29.4956 29.6783 28.4467C28.6294 27.3978 27.293 26.6835 25.8382 26.3941C24.3833 26.1047 22.8753 26.2532 21.5049 26.8209C20.1344 27.3886 18.9631 28.3499 18.139 29.5832C17.3149 30.8166 16.875 32.2666 16.875 33.75H15V18.75H45Z" fill="#B56576"/>
<path d="M50.625 9.375H9.375C8.38044 9.375 7.42661 9.77009 6.72335 10.4733C6.02009 11.1766 5.625 12.1304 5.625 13.125V46.875C5.625 47.8696 6.02009 48.8234 6.72335 49.5266C7.42661 50.2299 8.38044 50.625 9.375 50.625H12.5133C12.8681 50.6251 13.2157 50.5245 13.5157 50.3349C13.8157 50.1453 14.0557 49.8745 14.2078 49.5539C15.1196 47.6289 16.5591 46.0023 18.3589 44.8633C20.1588 43.7243 22.245 43.1196 24.375 43.1196C26.505 43.1196 28.5912 43.7243 30.3911 44.8633C32.1909 46.0023 33.6304 47.6289 34.5422 49.5539C34.6943 49.8745 34.9343 50.1453 35.2343 50.3349C35.5343 50.5245 35.8819 50.6251 36.2367 50.625H50.625C51.6196 50.625 52.5734 50.2299 53.2766 49.5266C53.9799 48.8234 54.375 47.8696 54.375 46.875V13.125C54.375 12.1304 53.9799 11.1766 53.2766 10.4733C52.5734 9.77009 51.6196 9.375 50.625 9.375ZM18.75 33.75C18.75 32.6375 19.0799 31.5499 19.698 30.6249C20.3161 29.6999 21.1946 28.9789 22.2224 28.5532C23.2502 28.1274 24.3812 28.016 25.4724 28.2331C26.5635 28.4501 27.5658 28.9859 28.3525 29.7725C29.1391 30.5592 29.6749 31.5615 29.8919 32.6526C30.109 33.7438 29.9976 34.8748 29.5718 35.9026C29.1461 36.9304 28.4251 37.8089 27.5001 38.427C26.5751 39.0451 25.4875 39.375 24.375 39.375C22.8832 39.375 21.4524 38.7824 20.3975 37.7275C19.3426 36.6726 18.75 35.2418 18.75 33.75ZM50.625 46.875H37.3664C35.8006 44.183 33.4404 42.0414 30.6094 40.7437C32.0287 39.4799 33.0305 37.8146 33.4818 35.9685C33.9331 34.1224 33.8127 32.1828 33.1366 30.4067C32.4605 28.6306 31.2605 27.1019 29.6958 26.0233C28.131 24.9447 26.2755 24.3671 24.375 24.3671C22.4745 24.3671 20.619 24.9447 19.0542 26.0233C17.4895 27.1019 16.2895 28.6306 15.6134 30.4067C14.9373 32.1828 14.8169 34.1224 15.2682 35.9685C15.7195 37.8146 16.7213 39.4799 18.1406 40.7437C15.3096 42.0414 12.9494 44.183 11.3836 46.875H9.375V13.125H50.625V46.875ZM13.125 22.5V18.75C13.125 18.2527 13.3225 17.7758 13.6742 17.4242C14.0258 17.0725 14.5027 16.875 15 16.875H45C45.4973 16.875 45.9742 17.0725 46.3258 17.4242C46.6775 17.7758 46.875 18.2527 46.875 18.75V41.25C46.875 41.7473 46.6775 42.2242 46.3258 42.5758C45.9742 42.9275 45.4973 43.125 45 43.125H41.25C40.7527 43.125 40.2758 42.9275 39.9242 42.5758C39.5725 42.2242 39.375 41.7473 39.375 41.25C39.375 40.7527 39.5725 40.2758 39.9242 39.9242C40.2758 39.5725 40.7527 39.375 41.25 39.375H43.125V20.625H16.875V22.5C16.875 22.9973 16.6775 23.4742 16.3258 23.8258C15.9742 24.1775 15.4973 24.375 15 24.375C14.5027 24.375 14.0258 24.1775 13.6742 23.8258C13.3225 23.4742 13.125 22.9973 13.125 22.5Z" fill="#B56576"/>
</svg>
