<svg width="26" height="26" viewBox="0 0 26 26" fill="none" xmlns="http://www.w3.org/2000/svg">
<path opacity="0.2" d="M20.8813 16.1901L21.7009 19.5L18.6875 17.7267L15.6741 19.5L16.4937 16.1901L13.8125 13.976L17.3316 13.7048L18.6875 10.5625L20.0434 13.7048L23.5625 13.976L20.8813 16.1901Z" fill="#1C51E1"/>
<path d="M3.25 6.5C3.25 6.28451 3.3356 6.07785 3.48798 5.92548C3.64035 5.7731 3.84701 5.6875 4.0625 5.6875H21.9375C22.153 5.6875 22.3597 5.7731 22.512 5.92548C22.6644 6.07785 22.75 6.28451 22.75 6.5C22.75 6.71549 22.6644 6.92215 22.512 7.07452C22.3597 7.2269 22.153 7.3125 21.9375 7.3125H4.0625C3.84701 7.3125 3.64035 7.2269 3.48798 7.07452C3.3356 6.92215 3.25 6.71549 3.25 6.5ZM4.0625 13.8125H9.75C9.96549 13.8125 10.1722 13.7269 10.3245 13.5745C10.4769 13.4222 10.5625 13.2155 10.5625 13C10.5625 12.7845 10.4769 12.5778 10.3245 12.4255C10.1722 12.2731 9.96549 12.1875 9.75 12.1875H4.0625C3.84701 12.1875 3.64035 12.2731 3.48798 12.4255C3.3356 12.5778 3.25 12.7845 3.25 13C3.25 13.2155 3.3356 13.4222 3.48798 13.5745C3.64035 13.7269 3.84701 13.8125 4.0625 13.8125ZM11.375 18.6875H4.0625C3.84701 18.6875 3.64035 18.7731 3.48798 18.9255C3.3356 19.0778 3.25 19.2845 3.25 19.5C3.25 19.7155 3.3356 19.9222 3.48798 20.0745C3.64035 20.2269 3.84701 20.3125 4.0625 20.3125H11.375C11.5905 20.3125 11.7972 20.2269 11.9495 20.0745C12.1019 19.9222 12.1875 19.7155 12.1875 19.5C12.1875 19.2845 12.1019 19.0778 11.9495 18.9255C11.7972 18.7731 11.5905 18.6875 11.375 18.6875ZM24.0795 14.6027L21.7923 16.4907L22.489 19.305C22.5272 19.4602 22.5188 19.6232 22.4648 19.7736C22.4108 19.924 22.3137 20.0551 22.1856 20.1506C22.0575 20.2461 21.904 20.3017 21.7445 20.3105C21.5849 20.3192 21.4263 20.2807 21.2885 20.1998L18.6875 18.6692L16.0865 20.1998C15.9487 20.2807 15.7901 20.3192 15.6305 20.3105C15.471 20.3017 15.3175 20.2461 15.1894 20.1506C15.0613 20.0551 14.9642 19.924 14.9102 19.7736C14.8562 19.6232 14.8478 19.4602 14.886 19.305L15.5817 16.4907L13.2955 14.6027C13.1709 14.4995 13.0798 14.3616 13.0341 14.2064C12.9883 14.0512 12.9899 13.8859 13.0387 13.7316C13.0874 13.5774 13.1811 13.4412 13.3078 13.3405C13.4344 13.2398 13.5882 13.1793 13.7495 13.1666L16.7802 12.932L17.941 10.2405C18.0037 10.0946 18.1079 9.97021 18.2406 9.88282C18.3732 9.79543 18.5286 9.74885 18.6875 9.74885C18.8464 9.74885 19.0018 9.79543 19.1344 9.88282C19.2671 9.97021 19.3713 10.0946 19.434 10.2405L20.5948 12.932L23.6255 13.1666C23.7868 13.1793 23.9406 13.2398 24.0672 13.3405C24.1939 13.4412 24.2876 13.5774 24.3363 13.7316C24.3851 13.8859 24.3867 14.0512 24.3409 14.2064C24.2952 14.3616 24.2041 14.4995 24.0795 14.6027ZM21.4927 14.6311L19.9804 14.5143C19.8329 14.503 19.6912 14.4516 19.5708 14.3657C19.4503 14.2798 19.3556 14.1626 19.2969 14.0268L18.6875 12.613L18.0781 14.0268C18.0194 14.1626 17.9247 14.2798 17.8042 14.3657C17.6838 14.4516 17.5421 14.503 17.3946 14.5143L15.8823 14.6311L17.0107 15.5634C17.1289 15.6608 17.2172 15.7896 17.2653 15.935C17.3135 16.0804 17.3196 16.2364 17.2829 16.3851L16.9274 17.8191L18.2752 17.0259C18.4001 16.9523 18.5425 16.9135 18.6875 16.9135C18.8325 16.9135 18.9749 16.9523 19.0998 17.0259L20.4476 17.8191L20.0921 16.3851C20.0554 16.2364 20.0615 16.0804 20.1097 15.935C20.1578 15.7896 20.2461 15.6608 20.3643 15.5634L21.4927 14.6311Z" fill="#1C51E1"/>
</svg>
