<svg width="50" height="42" viewBox="0 0 50 42" fill="none" xmlns="http://www.w3.org/2000/svg">
<path d="M45.625 0.375H4.375C3.38044 0.375 2.42661 0.770088 1.72335 1.47335C1.02009 2.17661 0.625 3.13044 0.625 4.125V37.875C0.625 38.8696 1.02009 39.8234 1.72335 40.5266C2.42661 41.2299 3.38044 41.625 4.375 41.625H7.51328C7.86814 41.6251 8.21575 41.5245 8.51571 41.3349C8.81567 41.1453 9.05567 40.8745 9.20781 40.5539C10.1196 38.6289 11.5591 37.0023 13.3589 35.8633C15.1588 34.7243 17.245 34.1196 19.375 34.1196C21.505 34.1196 23.5912 34.7243 25.3911 35.8633C27.1909 37.0023 28.6304 38.6289 29.5422 40.5539C29.6943 40.8745 29.9343 41.1453 30.2343 41.3349C30.5343 41.5245 30.8819 41.6251 31.2367 41.625H45.625C46.6196 41.625 47.5734 41.2299 48.2766 40.5266C48.9799 39.8234 49.375 38.8696 49.375 37.875V4.125C49.375 3.13044 48.9799 2.17661 48.2766 1.47335C47.5734 0.770088 46.6196 0.375 45.625 0.375ZM13.75 24.75C13.75 23.6375 14.0799 22.5499 14.698 21.6249C15.3161 20.6999 16.1946 19.9789 17.2224 19.5532C18.2502 19.1274 19.3812 19.016 20.4724 19.2331C21.5635 19.4501 22.5658 19.9859 23.3525 20.7725C24.1391 21.5592 24.6749 22.5615 24.8919 23.6526C25.109 24.7438 24.9976 25.8748 24.5718 26.9026C24.1461 27.9304 23.4251 28.8089 22.5001 29.427C21.5751 30.0451 20.4875 30.375 19.375 30.375C17.8832 30.375 16.4524 29.7824 15.3975 28.7275C14.3426 27.6726 13.75 26.2418 13.75 24.75ZM45.625 37.875H32.3664C30.8006 35.183 28.4404 33.0414 25.6094 31.7437C27.0287 30.4799 28.0305 28.8146 28.4818 26.9685C28.9331 25.1224 28.8127 23.1828 28.1366 21.4067C27.4605 19.6306 26.2605 18.1019 24.6958 17.0233C23.131 15.9447 21.2755 15.3671 19.375 15.3671C17.4745 15.3671 15.619 15.9447 14.0542 17.0233C12.4895 18.1019 11.2895 19.6306 10.6134 21.4067C9.93726 23.1828 9.81688 25.1224 10.2682 26.9685C10.7195 28.8146 11.7213 30.4799 13.1406 31.7437C10.3096 33.0414 7.94937 35.183 6.38359 37.875H4.375V4.125H45.625V37.875ZM8.125 13.5V9.75C8.125 9.25272 8.32254 8.77581 8.67418 8.42418C9.02581 8.07254 9.50272 7.875 10 7.875H40C40.4973 7.875 40.9742 8.07254 41.3258 8.42418C41.6775 8.77581 41.875 9.25272 41.875 9.75V32.25C41.875 32.7473 41.6775 33.2242 41.3258 33.5758C40.9742 33.9275 40.4973 34.125 40 34.125H36.25C35.7527 34.125 35.2758 33.9275 34.9242 33.5758C34.5725 33.2242 34.375 32.7473 34.375 32.25C34.375 31.7527 34.5725 31.2758 34.9242 30.9242C35.2758 30.5725 35.7527 30.375 36.25 30.375H38.125V11.625H11.875V13.5C11.875 13.9973 11.6775 14.4742 11.3258 14.8258C10.9742 15.1775 10.4973 15.375 10 15.375C9.50272 15.375 9.02581 15.1775 8.67418 14.8258C8.32254 14.4742 8.125 13.9973 8.125 13.5Z" fill="#B56576"/>
</svg>
