<svg width="58" height="58" viewBox="0 0 58 58" fill="none" xmlns="http://www.w3.org/2000/svg">
<path opacity="0.2" d="M48.9375 21.75V47.125C48.9375 47.6057 48.7465 48.0667 48.4066 48.4066C48.0667 48.7465 47.6057 48.9375 47.125 48.9375H10.875C10.3943 48.9375 9.93328 48.7465 9.59337 48.4066C9.25346 48.0667 9.0625 47.6057 9.0625 47.125V21.75C9.0625 21.2693 9.25346 20.8083 9.59337 20.4684C9.93328 20.1285 10.3943 19.9375 10.875 19.9375H47.125C47.6057 19.9375 48.0667 20.1285 48.4066 20.4684C48.7465 20.8083 48.9375 21.2693 48.9375 21.75Z" fill="#FF0000"/>
<path d="M47.125 18.125H39.875V12.6875C39.875 9.80327 38.7292 7.03717 36.6898 4.99771C34.6503 2.95826 31.8842 1.8125 29 1.8125C26.1158 1.8125 23.3497 2.95826 21.3102 4.99771C19.2708 7.03717 18.125 9.80327 18.125 12.6875V18.125H10.875C9.91359 18.125 8.99156 18.5069 8.31174 19.1867C7.63192 19.8666 7.25 20.7886 7.25 21.75V47.125C7.25 48.0864 7.63192 49.0084 8.31174 49.6883C8.99156 50.3681 9.91359 50.75 10.875 50.75H47.125C48.0864 50.75 49.0084 50.3681 49.6883 49.6883C50.3681 49.0084 50.75 48.0864 50.75 47.125V21.75C50.75 20.7886 50.3681 19.8666 49.6883 19.1867C49.0084 18.5069 48.0864 18.125 47.125 18.125ZM21.75 12.6875C21.75 10.7647 22.5138 8.92061 23.8735 7.56098C25.2331 6.20134 27.0772 5.4375 29 5.4375C30.9228 5.4375 32.7669 6.20134 34.1265 7.56098C35.4862 8.92061 36.25 10.7647 36.25 12.6875V18.125H21.75V12.6875ZM47.125 47.125H10.875V21.75H47.125V47.125ZM31.7188 34.4375C31.7188 34.9752 31.5593 35.5009 31.2606 35.948C30.9618 36.3951 30.5372 36.7435 30.0404 36.9493C29.5436 37.1551 28.997 37.2089 28.4696 37.104C27.9422 36.9991 27.4578 36.7402 27.0776 36.3599C26.6973 35.9797 26.4384 35.4953 26.3335 34.9679C26.2286 34.4405 26.2824 33.8939 26.4882 33.3971C26.694 32.9003 27.0424 32.4757 27.4895 32.1769C27.9366 31.8782 28.4623 31.7188 29 31.7188C29.7211 31.7188 30.4126 32.0052 30.9224 32.5151C31.4323 33.0249 31.7188 33.7164 31.7188 34.4375Z" fill="#FF0000"/>
</svg>
