<svg width="60" height="60" viewBox="0 0 60 60" fill="none" xmlns="http://www.w3.org/2000/svg">
<path opacity="0.2" d="M48.75 16.875V43.125C48.75 43.6223 48.5525 44.0992 48.2008 44.4508C47.8492 44.8025 47.3723 45 46.875 45H41.25V24.375L31.875 15H18.75V9.375C18.75 8.87772 18.9475 8.40081 19.2992 8.04918C19.6508 7.69754 20.1277 7.5 20.625 7.5H39.375L48.75 16.875Z" fill="#4CBB17"/>
<path d="M50.0766 15.5484L40.7016 6.17344C40.5273 5.99937 40.3205 5.86135 40.0928 5.76724C39.8652 5.67314 39.6213 5.62481 39.375 5.625H20.625C19.6304 5.625 18.6766 6.02009 17.9734 6.72335C17.2701 7.42661 16.875 8.38044 16.875 9.375V13.125H13.125C12.1304 13.125 11.1766 13.5201 10.4733 14.2234C9.77009 14.9266 9.375 15.8804 9.375 16.875V50.625C9.375 51.6196 9.77009 52.5734 10.4733 53.2766C11.1766 53.9799 12.1304 54.375 13.125 54.375H39.375C40.3696 54.375 41.3234 53.9799 42.0266 53.2766C42.7299 52.5734 43.125 51.6196 43.125 50.625V46.875H46.875C47.8696 46.875 48.8234 46.4799 49.5266 45.7766C50.2299 45.0734 50.625 44.1196 50.625 43.125V16.875C50.6252 16.6287 50.5769 16.3848 50.4828 16.1572C50.3887 15.9295 50.2506 15.7227 50.0766 15.5484ZM39.375 50.625H13.125V16.875H31.0992L39.375 25.1508V44.9625C39.375 44.9766 39.375 44.9883 39.375 45C39.375 45.0117 39.375 45.0234 39.375 45.0375V50.625ZM46.875 43.125H43.125V24.375C43.1252 24.1287 43.0769 23.8848 42.9828 23.6572C42.8887 23.4295 42.7506 23.2227 42.5766 23.0484L33.2016 13.6734C33.0273 13.4994 32.8205 13.3613 32.5928 13.2672C32.3652 13.1731 32.1213 13.1248 31.875 13.125H20.625V9.375H38.5992L46.875 17.6508V43.125ZM33.75 35.625C33.75 36.1223 33.5525 36.5992 33.2008 36.9508C32.8492 37.3025 32.3723 37.5 31.875 37.5H20.625C20.1277 37.5 19.6508 37.3025 19.2992 36.9508C18.9475 36.5992 18.75 36.1223 18.75 35.625C18.75 35.1277 18.9475 34.6508 19.2992 34.2992C19.6508 33.9475 20.1277 33.75 20.625 33.75H31.875C32.3723 33.75 32.8492 33.9475 33.2008 34.2992C33.5525 34.6508 33.75 35.1277 33.75 35.625ZM33.75 43.125C33.75 43.6223 33.5525 44.0992 33.2008 44.4508C32.8492 44.8025 32.3723 45 31.875 45H20.625C20.1277 45 19.6508 44.8025 19.2992 44.4508C18.9475 44.0992 18.75 43.6223 18.75 43.125C18.75 42.6277 18.9475 42.1508 19.2992 41.7992C19.6508 41.4475 20.1277 41.25 20.625 41.25H31.875C32.3723 41.25 32.8492 41.4475 33.2008 41.7992C33.5525 42.1508 33.75 42.6277 33.75 43.125Z" fill="#4CBB17"/>
</svg>
