<svg width="78" height="28" viewBox="0 0 78 28" fill="none" xmlns="http://www.w3.org/2000/svg">
<path opacity="0.2" d="M23.7392 7.21738L13.5653 10.6087L3.39136 7.21738L13.5653 3.82608L23.7392 7.21738Z" fill="#4CBB17"/>
<path d="M24.0072 6.41303L13.8333 3.02172C13.6593 2.96371 13.4711 2.96371 13.2971 3.02172L3.12316 6.41303C2.96927 6.46493 2.83353 6.55994 2.73208 6.68676C2.63063 6.81357 2.56773 6.96686 2.55088 7.12838C2.5459 7.15779 2.54342 7.18757 2.54346 7.2174V15.6957C2.54346 15.9205 2.63278 16.1362 2.79178 16.2952C2.95078 16.4542 3.16643 16.5435 3.39128 16.5435C3.61614 16.5435 3.83179 16.4542 3.99079 16.2952C4.14979 16.1362 4.23911 15.9205 4.23911 15.6957V8.39376L7.79892 9.57966C6.85312 11.1077 6.55237 12.9485 6.96268 14.6981C7.373 16.4477 8.46085 17.9629 9.98737 18.911C8.07976 19.6593 6.43074 21.0126 5.22471 22.863C5.16198 22.9562 5.11842 23.061 5.09654 23.1712C5.07466 23.2814 5.0749 23.3948 5.09726 23.5049C5.11961 23.6151 5.16363 23.7196 5.22676 23.8126C5.28988 23.9055 5.37085 23.985 5.46496 24.0464C5.55907 24.1078 5.66445 24.1498 5.77496 24.1701C5.88546 24.1904 5.99891 24.1886 6.10869 24.1646C6.21847 24.1407 6.3224 24.0952 6.41444 24.0308C6.50648 23.9663 6.58479 23.8842 6.64482 23.7892C8.24191 21.339 10.7642 19.9348 13.5652 19.9348C16.3662 19.9348 18.8885 21.339 20.4856 23.7892C20.6099 23.974 20.802 24.1025 21.0203 24.1468C21.2386 24.1911 21.4656 24.1478 21.6522 24.0261C21.8388 23.9044 21.9699 23.7141 22.0174 23.4965C22.0648 23.2788 22.0247 23.0513 21.9057 22.863C20.6997 21.0126 19.0443 19.6593 17.143 18.911C18.6681 17.9629 19.7549 16.4487 20.1651 14.7004C20.5754 12.9521 20.2756 11.1125 19.3315 9.58496L24.0072 8.02708C24.1761 7.97083 24.323 7.86288 24.427 7.71851C24.5311 7.57414 24.5871 7.40068 24.5871 7.2227C24.5871 7.04473 24.5311 6.87127 24.427 6.7269C24.323 6.58253 24.1761 6.47457 24.0072 6.41833V6.41303ZM18.6522 13.1522C18.6524 13.9564 18.4619 14.7492 18.0964 15.4656C17.7309 16.182 17.2008 16.8014 16.5495 17.2732C15.8982 17.745 15.1443 18.0557 14.3497 18.1797C13.5551 18.3038 12.7424 18.2376 11.9783 17.9867C11.2142 17.7359 10.5205 17.3074 9.95408 16.7365C9.38765 16.1656 8.96464 15.4685 8.71977 14.7025C8.47491 13.9365 8.41515 13.1233 8.54541 12.3297C8.67567 11.5361 8.99224 10.7847 9.46914 10.1371L13.2971 11.4088C13.4711 11.4669 13.6593 11.4669 13.8333 11.4088L17.6613 10.1371C18.3054 11.0104 18.6527 12.0671 18.6522 13.1522ZM13.5652 9.71531L6.07253 7.2174L13.5652 4.7195L21.0579 7.2174L13.5652 9.71531Z" fill="#4CBB17"/>
<path opacity="0.2" d="M74.6088 7.21738L64.4349 10.6087L54.261 7.21738L64.4349 3.82608L74.6088 7.21738Z" fill="#4CBB17"/>
<path d="M74.8769 6.41303L64.703 3.02172C64.5289 2.96371 64.3407 2.96371 64.1667 3.02172L53.9928 6.41303C53.8389 6.46493 53.7032 6.55994 53.6017 6.68676C53.5003 6.81357 53.4374 6.96686 53.4205 7.12838C53.4155 7.15779 53.413 7.18757 53.4131 7.2174V15.6957C53.4131 15.9205 53.5024 16.1362 53.6614 16.2952C53.8204 16.4542 54.0361 16.5435 54.2609 16.5435C54.4858 16.5435 54.7014 16.4542 54.8604 16.2952C55.0194 16.1362 55.1087 15.9205 55.1087 15.6957V8.39376L58.6685 9.57966C57.7228 11.1077 57.422 12.9485 57.8323 14.6981C58.2426 16.4477 59.3305 17.9629 60.857 18.911C58.9494 19.6593 57.3004 21.0126 56.0943 22.863C56.0316 22.9562 55.988 23.061 55.9662 23.1712C55.9443 23.2814 55.9445 23.3948 55.9669 23.5049C55.9892 23.6151 56.0333 23.7196 56.0964 23.8126C56.1595 23.9055 56.2405 23.985 56.3346 24.0464C56.4287 24.1078 56.5341 24.1498 56.6446 24.1701C56.7551 24.1904 56.8685 24.1886 56.9783 24.1646C57.0881 24.1407 57.192 24.0952 57.2841 24.0308C57.3761 23.9663 57.4544 23.8842 57.5144 23.7892C59.1115 21.339 61.6338 19.9348 64.4348 19.9348C67.2358 19.9348 69.7581 21.339 71.3552 23.7892C71.4796 23.974 71.6716 24.1025 71.8899 24.1468C72.1083 24.1911 72.3352 24.1478 72.5218 24.0261C72.7084 23.9044 72.8396 23.7141 72.887 23.4965C72.9344 23.2788 72.8943 23.0513 72.7753 22.863C71.5693 21.0126 69.9139 19.6593 68.0127 18.911C69.5377 17.9629 70.6245 16.4487 71.0348 14.7004C71.445 12.9521 71.1452 11.1125 70.2011 9.58496L74.8769 8.02708C75.0457 7.97083 75.1926 7.86288 75.2967 7.71851C75.4007 7.57414 75.4568 7.40068 75.4568 7.2227C75.4568 7.04473 75.4007 6.87127 75.2967 6.7269C75.1926 6.58253 75.0457 6.47457 74.8769 6.41833V6.41303ZM69.5218 13.1522C69.522 13.9564 69.3316 14.7492 68.966 15.4656C68.6005 16.182 68.0704 16.8014 67.4191 17.2732C66.7678 17.745 66.0139 18.0557 65.2193 18.1797C64.4247 18.3038 63.612 18.2376 62.848 17.9867C62.0839 17.7359 61.3901 17.3074 60.8237 16.7365C60.2573 16.1656 59.8343 15.4685 59.5894 14.7025C59.3445 13.9365 59.2848 13.1233 59.415 12.3297C59.5453 11.5361 59.8619 10.7847 60.3388 10.1371L64.1667 11.4088C64.3407 11.4669 64.5289 11.4669 64.703 11.4088L68.5309 10.1371C69.175 11.0104 69.5223 12.0671 69.5218 13.1522ZM64.4348 9.71531L56.9422 7.2174L64.4348 4.7195L71.9275 7.2174L64.4348 9.71531Z" fill="#4CBB17"/>
<path opacity="0.2" d="M47.4783 8.91306V19.087H30.5217V8.91306H47.4783Z" fill="#4CBB17"/>
<path d="M48.0782 19.6868L44.6869 23.0781C44.5278 23.2372 44.312 23.3265 44.0871 23.3265C43.8621 23.3265 43.6463 23.2372 43.4872 23.0781C43.3281 22.919 43.2388 22.7032 43.2388 22.4783C43.2388 22.2533 43.3281 22.0375 43.4872 21.8784L45.4319 19.9348H30.5218C30.297 19.9348 30.0813 19.8454 29.9223 19.6865C29.7633 19.5275 29.674 19.3118 29.674 19.0869C29.674 18.8621 29.7633 18.6464 29.9223 18.4874C30.0813 18.3284 30.297 18.2391 30.5218 18.2391H45.4319L43.4872 16.2955C43.3281 16.1364 43.2388 15.9206 43.2388 15.6956C43.2388 15.4707 43.3281 15.2549 43.4872 15.0958C43.6463 14.9367 43.8621 14.8473 44.0871 14.8473C44.312 14.8473 44.5278 14.9367 44.6869 15.0958L48.0782 18.4871C48.157 18.5658 48.2196 18.6594 48.2622 18.7623C48.3049 18.8652 48.3268 18.9755 48.3268 19.0869C48.3268 19.1984 48.3049 19.3087 48.2622 19.4116C48.2196 19.5145 48.157 19.608 48.0782 19.6868ZM33.3133 12.9042C33.4724 13.0633 33.6882 13.1526 33.9131 13.1526C34.1381 13.1526 34.3539 13.0633 34.513 12.9042C34.6721 12.7451 34.7614 12.5293 34.7614 12.3043C34.7614 12.0794 34.6721 11.8636 34.513 11.7045L32.5683 9.76086H47.4784C47.7032 9.76086 47.9189 9.67153 48.0779 9.51254C48.2369 9.35354 48.3262 9.13789 48.3262 8.91303C48.3262 8.68818 48.2369 8.47253 48.0779 8.31353C47.9189 8.15453 47.7032 8.06521 47.4784 8.06521H32.5683L34.513 6.12157C34.6721 5.96248 34.7614 5.74671 34.7614 5.52173C34.7614 5.29675 34.6721 5.08098 34.513 4.92189C34.3539 4.76281 34.1381 4.67343 33.9131 4.67343C33.6882 4.67343 33.4724 4.76281 33.3133 4.92189L29.922 8.3132C29.8432 8.39194 29.7806 8.48544 29.738 8.58837C29.6953 8.69129 29.6733 8.80162 29.6733 8.91303C29.6733 9.02445 29.6953 9.13478 29.738 9.2377C29.7806 9.34062 29.8432 9.43413 29.922 9.51287L33.3133 12.9042Z" fill="#4CBB17"/>
</svg>
