<svg width="32" height="32" viewBox="0 0 32 32" fill="none" xmlns="http://www.w3.org/2000/svg">
<path opacity="0.2" d="M26.9326 27H5.06763C3.49013 27 2.50013 25.3487 3.26638 24.0112L14.1989 5.0275C14.9864 3.6525 17.0139 3.6525 17.8014 5.0275L28.7339 24.0112C29.5001 25.3487 28.5101 27 26.9326 27Z" fill="#FF0000"/>
<path d="M29.5994 23.5112L18.6681 4.52749C18.395 4.0624 18.005 3.67676 17.5369 3.40882C17.0688 3.14087 16.5388 2.99991 15.9994 2.99991C15.46 2.99991 14.93 3.14087 14.4619 3.40882C13.9938 3.67676 13.6038 4.0624 13.3306 4.52749L2.39939 23.5112C2.13656 23.9611 1.99805 24.4727 1.99805 24.9937C1.99805 25.5147 2.13656 26.0264 2.39939 26.4762C2.66905 26.9441 3.05835 27.3319 3.52734 27.5997C3.99633 27.8674 4.52812 28.0056 5.06814 28H26.9306C27.4702 28.0052 28.0015 27.8668 28.47 27.599C28.9385 27.3313 29.3274 26.9438 29.5969 26.4762C29.8601 26.0266 29.999 25.5151 29.9995 24.9941C29.9999 24.4731 29.8618 23.9613 29.5994 23.5112ZM27.8656 25.475C27.7703 25.6375 27.6335 25.7718 27.4692 25.8641C27.3049 25.9564 27.119 26.0033 26.9306 26H5.06814C4.87973 26.0033 4.69385 25.9564 4.52955 25.8641C4.36525 25.7718 4.22843 25.6375 4.13314 25.475C4.04682 25.3288 4.00128 25.1622 4.00128 24.9925C4.00128 24.8228 4.04682 24.6561 4.13314 24.51L15.0644 5.52624C15.1616 5.36446 15.299 5.23058 15.4633 5.13764C15.6276 5.0447 15.8131 4.99586 16.0019 4.99586C16.1906 4.99586 16.3762 5.0447 16.5405 5.13764C16.7047 5.23058 16.8422 5.36446 16.9394 5.52624L27.8706 24.51C27.9562 24.6566 28.0009 24.8234 28 24.9932C27.9991 25.1629 27.9527 25.3293 27.8656 25.475ZM14.9994 18V13C14.9994 12.7348 15.1047 12.4804 15.2923 12.2929C15.4798 12.1053 15.7342 12 15.9994 12C16.2646 12 16.519 12.1053 16.7065 12.2929C16.894 12.4804 16.9994 12.7348 16.9994 13V18C16.9994 18.2652 16.894 18.5196 16.7065 18.7071C16.519 18.8946 16.2646 19 15.9994 19C15.7342 19 15.4798 18.8946 15.2923 18.7071C15.1047 18.5196 14.9994 18.2652 14.9994 18ZM17.4994 22.5C17.4994 22.7967 17.4114 23.0867 17.2466 23.3333C17.0818 23.58 16.8475 23.7723 16.5734 23.8858C16.2993 23.9993 15.9977 24.029 15.7068 23.9712C15.4158 23.9133 15.1485 23.7704 14.9387 23.5606C14.7289 23.3509 14.5861 23.0836 14.5282 22.7926C14.4703 22.5017 14.5 22.2001 14.6136 21.926C14.7271 21.6519 14.9194 21.4176 15.166 21.2528C15.4127 21.088 15.7027 21 15.9994 21C16.3972 21 16.7787 21.158 17.06 21.4393C17.3414 21.7206 17.4994 22.1022 17.4994 22.5Z" fill="#FF0000"/>
</svg>
