<svg width="14" height="15" viewBox="0 0 14 15" fill="none" xmlns="http://www.w3.org/2000/svg">
<path d="M10.2857 6.79464C10.4762 6.90179 10.5714 7.06548 10.5714 7.28571C10.5714 7.50595 10.4762 7.66964 10.2857 7.77679L5.42857 10.6339C5.33929 10.6875 5.24405 10.7143 5.14286 10.7143C5.04762 10.7143 4.95238 10.6905 4.85714 10.6429C4.66667 10.5298 4.57143 10.3631 4.57143 10.1429V4.42857C4.57143 4.20833 4.66667 4.04167 4.85714 3.92857C5.05357 3.82143 5.24405 3.8244 5.42857 3.9375L10.2857 6.79464ZM11.0625 9.72321C11.497 8.97917 11.7143 8.16667 11.7143 7.28571C11.7143 6.40476 11.497 5.59226 11.0625 4.84821C10.628 4.10417 10.0387 3.51488 9.29464 3.08036C8.5506 2.64583 7.7381 2.42857 6.85714 2.42857C5.97619 2.42857 5.16369 2.64583 4.41964 3.08036C3.6756 3.51488 3.08631 4.10417 2.65179 4.84821C2.21726 5.59226 2 6.40476 2 7.28571C2 8.16667 2.21726 8.97917 2.65179 9.72321C3.08631 10.4673 3.6756 11.0565 4.41964 11.4911C5.16369 11.9256 5.97619 12.1429 6.85714 12.1429C7.7381 12.1429 8.5506 11.9256 9.29464 11.4911C10.0387 11.0565 10.628 10.4673 11.0625 9.72321ZM12.7946 3.84821C13.4077 4.89583 13.7143 6.04167 13.7143 7.28571C13.7143 8.52976 13.4077 9.67857 12.7946 10.7321C12.1815 11.7798 11.3482 12.6101 10.2946 13.2232C9.24702 13.8363 8.10119 14.1429 6.85714 14.1429C5.6131 14.1429 4.46429 13.8363 3.41071 13.2232C2.3631 12.6101 1.53274 11.7798 0.919643 10.7321C0.306548 9.67857 0 8.52976 0 7.28571C0 6.04167 0.306548 4.89583 0.919643 3.84821C1.53274 2.79464 2.3631 1.96131 3.41071 1.34821C4.46429 0.735119 5.6131 0.428571 6.85714 0.428571C8.10119 0.428571 9.24702 0.735119 10.2946 1.34821C11.3482 1.96131 12.1815 2.79464 12.7946 3.84821Z" fill="#fff"/>
</svg>
