<svg width="60" height="60" viewBox="0 0 60 60" fill="none" xmlns="http://www.w3.org/2000/svg">
<path opacity="0.2" d="M48.75 7.5V45H16.875C15.3832 45 13.9524 45.5926 12.8975 46.6475C11.8426 47.7024 11.25 49.1332 11.25 50.625V13.125C11.25 11.6332 11.8426 10.2024 12.8975 9.14752C13.9524 8.09263 15.3832 7.5 16.875 7.5H26.25V30L33.75 24.375L41.25 30V7.5H48.75Z" fill="#3CC1EC"/>
<path d="M48.75 5.625H16.875C14.8859 5.625 12.9782 6.41518 11.5717 7.8217C10.1652 9.22822 9.375 11.1359 9.375 13.125V52.5C9.375 52.9973 9.57254 53.4742 9.92418 53.8258C10.2758 54.1775 10.7527 54.375 11.25 54.375H45C45.4973 54.375 45.9742 54.1775 46.3258 53.8258C46.6775 53.4742 46.875 52.9973 46.875 52.5C46.875 52.0027 46.6775 51.5258 46.3258 51.1742C45.9742 50.8225 45.4973 50.625 45 50.625H13.125C13.125 49.6304 13.5201 48.6766 14.2233 47.9734C14.9266 47.2701 15.8804 46.875 16.875 46.875H48.75C49.2473 46.875 49.7242 46.6775 50.0758 46.3258C50.4275 45.9742 50.625 45.4973 50.625 45V7.5C50.625 7.00272 50.4275 6.52581 50.0758 6.17417C49.7242 5.82254 49.2473 5.625 48.75 5.625ZM28.125 9.375H39.375V26.25L34.8727 22.875C34.5481 22.6316 34.1534 22.5 33.7477 22.5C33.342 22.5 32.9472 22.6316 32.6227 22.875L28.125 26.25V9.375ZM46.875 43.125H16.875C15.5582 43.1232 14.2643 43.4701 13.125 44.1305V13.125C13.125 12.1304 13.5201 11.1766 14.2233 10.4733C14.9266 9.77009 15.8804 9.375 16.875 9.375H24.375V30C24.375 30.3482 24.472 30.6895 24.655 30.9857C24.8381 31.282 25.1 31.5213 25.4115 31.677C25.7229 31.8328 26.0716 31.8987 26.4184 31.8674C26.7652 31.8362 27.0964 31.7089 27.375 31.5L33.75 26.7188L40.1273 31.5C40.4513 31.7429 40.8451 31.8745 41.25 31.875C41.5411 31.8746 41.8282 31.8072 42.0891 31.6781C42.4006 31.5222 42.6625 31.2827 42.8455 30.9863C43.0285 30.6899 43.1252 30.3483 43.125 30V9.375H46.875V43.125Z" fill="#3CC1EC"/>
</svg>
