<svg width="59" height="59" viewBox="0 0 59 59" fill="none" xmlns="http://www.w3.org/2000/svg">
<path opacity="0.2" d="M54.3637 10.5858L55.8373 8.78116C55.6386 8.05002 55.3412 7.34804 54.953 6.69374L52.6082 6.43593C52.4209 6.22941 52.2212 6.03399 52.0102 5.85069L51.7467 3.5553C51.0773 3.17772 50.3597 2.88874 49.6127 2.69593L47.7685 4.1371C47.4865 4.12077 47.2038 4.12077 46.9219 4.1371L45.0777 2.69507C44.333 2.89014 43.618 3.18115 42.9516 3.56046L42.6881 5.85499C42.4771 6.03829 42.2774 6.23371 42.0901 6.44022L39.7444 6.69804C39.3586 7.35305 39.0633 8.05527 38.8662 8.78632L40.339 10.591C40.3223 10.8669 40.3223 11.1435 40.339 11.4194L38.8654 13.2241C39.0641 13.9553 39.3615 14.6573 39.7497 15.3116L42.0945 15.5694C42.2818 15.7759 42.4815 15.9713 42.6925 16.1546L42.956 18.45C43.6253 18.8276 44.3429 19.1166 45.09 19.3094L46.9342 17.8682C47.2161 17.8845 47.4988 17.8845 47.7808 17.8682L49.625 19.3102C50.3721 19.1157 51.0895 18.8247 51.7581 18.4448L52.0216 16.1503C52.2326 15.967 52.4323 15.7716 52.6196 15.5651L54.9653 15.3073C55.3511 14.6522 55.6464 13.95 55.8435 13.219L54.3707 11.4143C54.3851 11.1382 54.3827 10.8616 54.3637 10.5858ZM47.3505 14.4376C46.6557 14.4376 45.9765 14.236 45.3989 13.8582C44.8212 13.4805 44.371 12.9437 44.1051 12.3155C43.8392 11.6874 43.7696 10.9963 43.9052 10.3294C44.0407 9.66264 44.3753 9.05013 44.8666 8.56939C45.3578 8.08865 45.9837 7.76126 46.6652 7.62862C47.3466 7.49598 48.0529 7.56406 48.6947 7.82423C49.3366 8.08441 49.8852 8.525 50.2712 9.0903C50.6572 9.65559 50.8632 10.3202 50.8632 11.0001C50.8632 11.9118 50.4931 12.7861 49.8344 13.4307C49.1756 14.0754 48.2821 14.4376 47.3505 14.4376Z" fill="#095E9D"/>
<path d="M47.3505 6.87492C46.5168 6.87492 45.7018 7.11684 45.0086 7.5701C44.3154 8.02337 43.7751 8.6676 43.4561 9.42135C43.137 10.1751 43.0535 11.0045 43.2162 11.8047C43.3788 12.6048 43.7803 13.3398 44.3698 13.9167C44.9594 14.4936 45.7105 14.8865 46.5282 15.0457C47.3458 15.2048 48.1934 15.1231 48.9637 14.8109C49.7339 14.4987 50.3923 13.97 50.8554 13.2916C51.3186 12.6133 51.5658 11.8158 51.5658 10.9999C51.5647 9.90625 51.1202 8.8577 50.3299 8.08436C49.5396 7.31102 48.4681 6.87605 47.3505 6.87492ZM47.3505 13.7499C46.7947 13.7499 46.2514 13.5886 45.7892 13.2865C45.3271 12.9843 44.9669 12.5548 44.7542 12.0523C44.5415 11.5498 44.4859 10.9969 44.5943 10.4634C44.7027 9.92997 44.9704 9.43997 45.3634 9.05537C45.7564 8.67078 46.2571 8.40887 46.8023 8.30276C47.3474 8.19665 47.9124 8.25111 48.4259 8.45925C48.9394 8.66739 49.3783 9.01986 49.6871 9.4721C49.9959 9.92433 50.1607 10.456 50.1607 10.9999C50.1607 11.7293 49.8647 12.4287 49.3376 12.9445C48.8106 13.4602 48.0958 13.7499 47.3505 13.7499ZM55.0786 11.1855C55.0821 11.0618 55.0821 10.938 55.0786 10.8143L56.3889 9.21242C56.4576 9.12831 56.5051 9.02959 56.5277 8.92421C56.5503 8.81882 56.5473 8.70972 56.5189 8.6057C56.3037 7.81572 55.9824 7.05715 55.5634 6.34984C55.5085 6.2573 55.4322 6.17858 55.3408 6.11995C55.2493 6.06132 55.1451 6.02439 55.0365 6.0121L52.9534 5.78523C52.8667 5.69585 52.7789 5.60992 52.6899 5.52742L52.444 3.48382C52.4314 3.37744 52.3935 3.27543 52.3335 3.1859C52.2734 3.09638 52.1928 3.02183 52.098 2.9682C51.3753 2.55849 50.6001 2.24465 49.7928 2.03492C49.6865 2.00713 49.575 2.00416 49.4673 2.02625C49.3596 2.04834 49.2587 2.09487 49.1728 2.1621L47.5402 3.43742C47.4138 3.43742 47.2873 3.43742 47.1608 3.43742L45.5239 2.15781C45.4379 2.09058 45.337 2.04404 45.2294 2.02195C45.1217 1.99986 45.0102 2.00283 44.9039 2.03062C44.0966 2.24119 43.3214 2.5556 42.5986 2.96562C42.5041 3.01935 42.4236 3.09395 42.3637 3.18346C42.3038 3.27298 42.266 3.37494 42.2535 3.48124L42.0216 5.52312C41.9303 5.60848 41.8425 5.69442 41.7582 5.78093L39.6698 6.01554C39.5611 6.02792 39.4569 6.06498 39.3654 6.12376C39.2739 6.18255 39.1977 6.26144 39.1429 6.35414C38.7243 7.06154 38.4033 7.82009 38.1883 8.61C38.16 8.71409 38.1572 8.82322 38.1799 8.92861C38.2026 9.034 38.2503 9.13268 38.3192 9.21671L39.6224 10.8143C39.6224 10.938 39.6224 11.0618 39.6224 11.1855L38.3148 12.7874C38.2461 12.8715 38.1985 12.9702 38.176 13.0756C38.1534 13.181 38.1564 13.2901 38.1848 13.3941C38.4 14.1841 38.7213 14.9427 39.1403 15.65C39.1952 15.7425 39.2714 15.8213 39.3629 15.8799C39.4544 15.9385 39.5586 15.9754 39.6672 15.9877L41.7503 16.2146C41.8375 16.304 41.9253 16.3899 42.0137 16.4724L42.257 18.516C42.2696 18.6224 42.3075 18.7244 42.3676 18.8139C42.4277 18.9035 42.5083 18.978 42.603 19.0316C43.3259 19.4413 44.1011 19.7554 44.9083 19.9658C45.0146 19.9934 45.1262 19.9963 45.2339 19.974C45.3416 19.9518 45.4424 19.9051 45.5283 19.8377L47.1608 18.5624C47.2873 18.5659 47.4138 18.5659 47.5402 18.5624L49.1772 19.8446C49.2631 19.9118 49.364 19.9584 49.4717 19.9805C49.5794 20.0026 49.6909 19.9996 49.7972 19.9718C50.6046 19.7616 51.3798 19.4472 52.1024 19.0368C52.197 18.9831 52.2774 18.9085 52.3373 18.8189C52.3973 18.7294 52.435 18.6275 52.4476 18.5212L52.6794 16.4827C52.7707 16.3979 52.8585 16.312 52.9429 16.2249L55.0312 15.9843C55.1399 15.9719 55.2442 15.9349 55.3356 15.8761C55.4271 15.8173 55.5033 15.7384 55.5581 15.6457C55.9767 14.9383 56.2977 14.1797 56.5127 13.3898C56.541 13.2857 56.5439 13.1766 56.5212 13.0712C56.4984 12.9658 56.4507 12.8672 56.3819 12.7831L55.0786 11.1855ZM53.6647 10.6269C53.6797 10.8754 53.6797 11.1245 53.6647 11.3729C53.6543 11.543 53.7087 11.7108 53.8175 11.8438L55.0637 13.3675C54.9207 13.8122 54.7376 14.2436 54.5166 14.6566L52.5319 14.8766C52.359 14.8953 52.1994 14.9762 52.084 15.1034C51.9149 15.2895 51.7349 15.4657 51.5448 15.6311C51.4147 15.7441 51.3321 15.9002 51.3129 16.0694L51.0925 18.0098C50.6705 18.2262 50.2297 18.4054 49.7752 18.5452L48.2173 17.3258C48.0926 17.2283 47.9378 17.1753 47.7782 17.1754H47.736C47.4822 17.19 47.2276 17.19 46.9738 17.1754C46.8 17.1656 46.6287 17.2189 46.4925 17.3249L44.9311 18.5452C44.4767 18.4053 44.0358 18.2261 43.6138 18.0098L43.389 16.0702C43.3698 15.9011 43.2872 15.7449 43.1571 15.6319C42.967 15.4665 42.787 15.2903 42.6179 15.1043C42.5025 14.977 42.3429 14.8962 42.1701 14.8774L40.1871 14.6609C39.966 14.2479 39.7829 13.8165 39.64 13.3718L40.8861 11.8473C40.995 11.7142 41.0494 11.5464 41.0389 11.3763C41.024 11.1279 41.024 10.8788 41.0389 10.6304C41.0494 10.4603 40.995 10.2925 40.8861 10.1594L39.64 8.63234C39.783 8.18764 39.9661 7.75626 40.1871 7.34328L42.1692 7.12328C42.342 7.1045 42.5016 7.02366 42.6171 6.8964C42.7861 6.71035 42.9661 6.53417 43.1563 6.36875C43.2868 6.25569 43.3698 6.09917 43.389 5.9296L43.6094 3.99C44.0314 3.7736 44.4722 3.59443 44.9267 3.4546L46.4846 4.67406C46.6206 4.78054 46.7921 4.83383 46.9659 4.82359C47.2197 4.80898 47.4743 4.80898 47.7281 4.82359C47.9019 4.83333 48.0732 4.7801 48.2094 4.67406L49.7699 3.4546C50.2244 3.59453 50.6652 3.7737 51.0872 3.99L51.3121 5.9296C51.3312 6.09874 51.4138 6.25491 51.5439 6.36789C51.734 6.53331 51.9141 6.70949 52.0831 6.89554C52.1986 7.0228 52.3581 7.10364 52.531 7.12242L54.5139 7.33812C54.7351 7.75105 54.9182 8.18245 55.0611 8.62718L53.8149 10.1517C53.705 10.2859 53.6505 10.4554 53.6621 10.6269H53.6647Z" fill="#095E9D"/>
<path opacity="0.2" d="M45.051 23.0625V51.1875H29.0838V41.8125H22.697V51.1875H6.7298V29.3125H16.3101V16.8125H35.4707V23.0625H45.051Z" fill="#095E9D"/>
<path d="M48.2444 49.625H46.6477V23.0625C46.6477 22.6481 46.4795 22.2507 46.1801 21.9576C45.8806 21.6646 45.4745 21.5 45.051 21.5H37.0674V16.8125C37.0674 16.3981 36.8992 16.0007 36.5998 15.7076C36.3003 15.4146 35.8942 15.25 35.4707 15.25H16.3101C15.8867 15.25 15.4805 15.4146 15.1811 15.7076C14.8816 16.0007 14.7134 16.3981 14.7134 16.8125V27.75H6.72984C6.30637 27.75 5.90024 27.9146 5.6008 28.2076C5.30135 28.5007 5.13313 28.8981 5.13313 29.3125V49.625H3.53641C3.11294 49.625 2.70681 49.7896 2.40736 50.0826C2.10792 50.3757 1.9397 50.7731 1.9397 51.1875C1.9397 51.6019 2.10792 51.9993 2.40736 52.2924C2.70681 52.5854 3.11294 52.75 3.53641 52.75H48.2444C48.6679 52.75 49.0741 52.5854 49.3735 52.2924C49.6729 51.9993 49.8412 51.6019 49.8412 51.1875C49.8412 50.7731 49.6729 50.3757 49.3735 50.0826C49.0741 49.7896 48.6679 49.625 48.2444 49.625ZM8.32656 30.875H16.3101C16.7336 30.875 17.1397 30.7104 17.4392 30.4174C17.7386 30.1243 17.9069 29.7269 17.9069 29.3125V18.375H33.874V23.0625C33.874 23.4769 34.0422 23.8743 34.3417 24.1674C34.6411 24.4604 35.0472 24.625 35.4707 24.625H43.4543V49.625H30.6806V41.8125C30.6806 41.3981 30.5124 41.0007 30.2129 40.7076C29.9135 40.4146 29.5073 40.25 29.0839 40.25H22.697C22.2735 40.25 21.8674 40.4146 21.568 40.7076C21.2685 41.0007 21.1003 41.3981 21.1003 41.8125V49.625H8.32656V30.875ZM27.4871 49.625H24.2937V43.375H27.4871V49.625ZM22.697 23.0625C22.697 22.6481 22.8652 22.2507 23.1647 21.9576C23.4641 21.6646 23.8702 21.5 24.2937 21.5H27.4871C27.9106 21.5 28.3168 21.6646 28.6162 21.9576C28.9156 22.2507 29.0839 22.6481 29.0839 23.0625C29.0839 23.4769 28.9156 23.8743 28.6162 24.1674C28.3168 24.4604 27.9106 24.625 27.4871 24.625H24.2937C23.8702 24.625 23.4641 24.4604 23.1647 24.1674C22.8652 23.8743 22.697 23.4769 22.697 23.0625ZM22.697 29.3125C22.697 28.8981 22.8652 28.5007 23.1647 28.2076C23.4641 27.9146 23.8702 27.75 24.2937 27.75H27.4871C27.9106 27.75 28.3168 27.9146 28.6162 28.2076C28.9156 28.5007 29.0839 28.8981 29.0839 29.3125C29.0839 29.7269 28.9156 30.1243 28.6162 30.4174C28.3168 30.7104 27.9106 30.875 27.4871 30.875H24.2937C23.8702 30.875 23.4641 30.7104 23.1647 30.4174C22.8652 30.1243 22.697 29.7269 22.697 29.3125ZM33.874 29.3125C33.874 28.8981 34.0422 28.5007 34.3417 28.2076C34.6411 27.9146 35.0472 27.75 35.4707 27.75H38.6642C39.0876 27.75 39.4938 27.9146 39.7932 28.2076C40.0926 28.5007 40.2609 28.8981 40.2609 29.3125C40.2609 29.7269 40.0926 30.1243 39.7932 30.4174C39.4938 30.7104 39.0876 30.875 38.6642 30.875H35.4707C35.0472 30.875 34.6411 30.7104 34.3417 30.4174C34.0422 30.1243 33.874 29.7269 33.874 29.3125ZM17.9069 35.5625C17.9069 35.9769 17.7386 36.3743 17.4392 36.6674C17.1397 36.9604 16.7336 37.125 16.3101 37.125H13.1167C12.6932 37.125 12.2871 36.9604 11.9877 36.6674C11.6882 36.3743 11.52 35.9769 11.52 35.5625C11.52 35.1481 11.6882 34.7507 11.9877 34.4576C12.2871 34.1646 12.6932 34 13.1167 34H16.3101C16.7336 34 17.1397 34.1646 17.4392 34.4576C17.7386 34.7507 17.9069 35.1481 17.9069 35.5625ZM17.9069 41.8125C17.9069 42.2269 17.7386 42.6243 17.4392 42.9174C17.1397 43.2104 16.7336 43.375 16.3101 43.375H13.1167C12.6932 43.375 12.2871 43.2104 11.9877 42.9174C11.6882 42.6243 11.52 42.2269 11.52 41.8125C11.52 41.3981 11.6882 41.0007 11.9877 40.7076C12.2871 40.4146 12.6932 40.25 13.1167 40.25H16.3101C16.7336 40.25 17.1397 40.4146 17.4392 40.7076C17.7386 41.0007 17.9069 41.3981 17.9069 41.8125ZM22.697 35.5625C22.697 35.1481 22.8652 34.7507 23.1647 34.4576C23.4641 34.1646 23.8702 34 24.2937 34H27.4871C27.9106 34 28.3168 34.1646 28.6162 34.4576C28.9156 34.7507 29.0839 35.1481 29.0839 35.5625C29.0839 35.9769 28.9156 36.3743 28.6162 36.6674C28.3168 36.9604 27.9106 37.125 27.4871 37.125H24.2937C23.8702 37.125 23.4641 36.9604 23.1647 36.6674C22.8652 36.3743 22.697 35.9769 22.697 35.5625ZM33.874 35.5625C33.874 35.1481 34.0422 34.7507 34.3417 34.4576C34.6411 34.1646 35.0472 34 35.4707 34H38.6642C39.0876 34 39.4938 34.1646 39.7932 34.4576C40.0926 34.7507 40.2609 35.1481 40.2609 35.5625C40.2609 35.9769 40.0926 36.3743 39.7932 36.6674C39.4938 36.9604 39.0876 37.125 38.6642 37.125H35.4707C35.0472 37.125 34.6411 36.9604 34.3417 36.6674C34.0422 36.3743 33.874 35.9769 33.874 35.5625ZM33.874 41.8125C33.874 41.3981 34.0422 41.0007 34.3417 40.7076C34.6411 40.4146 35.0472 40.25 35.4707 40.25H38.6642C39.0876 40.25 39.4938 40.4146 39.7932 40.7076C40.0926 41.0007 40.2609 41.3981 40.2609 41.8125C40.2609 42.2269 40.0926 42.6243 39.7932 42.9174C39.4938 43.2104 39.0876 43.375 38.6642 43.375H35.4707C35.0472 43.375 34.6411 43.2104 34.3417 42.9174C34.0422 42.6243 33.874 42.2269 33.874 41.8125Z" fill="#095E9D"/>
</svg>
