<svg width="25" height="25" viewBox="0 0 25 25" fill="none" xmlns="http://www.w3.org/2000/svg">
<path opacity="0.2" d="M21.875 9.375L14.2041 14.8438H10.7959L3.125 9.375L12.5 3.125L21.875 9.375Z" fill="#1C51E1"/>
<path d="M22.3086 8.72463L12.9336 2.47463C12.8052 2.38897 12.6543 2.34326 12.5 2.34326C12.3457 2.34326 12.1948 2.38897 12.0664 2.47463L2.69141 8.72463C2.58439 8.79603 2.49665 8.89276 2.43601 9.00622C2.37536 9.11968 2.34367 9.24636 2.34375 9.37502V19.5313C2.34375 19.9457 2.50837 20.3431 2.8014 20.6361C3.09442 20.9291 3.49185 21.0938 3.90625 21.0938H21.0938C21.5082 21.0938 21.9056 20.9291 22.1986 20.6361C22.4916 20.3431 22.6562 19.9457 22.6562 19.5313V9.37502C22.6563 9.24636 22.6246 9.11968 22.564 9.00622C22.5033 8.89276 22.4156 8.79603 22.3086 8.72463ZM12.5 4.0635L20.499 9.3965L13.9561 14.0625H11.0459L4.50293 9.3965L12.5 4.0635ZM3.90625 19.5313V10.8916L10.3418 15.4815C10.4743 15.5761 10.6331 15.627 10.7959 15.627H14.2041C14.3669 15.627 14.5257 15.5761 14.6582 15.4815L21.0938 10.8916V19.5313H3.90625Z" fill="#1C51E1"/>
<path d="M15.2523 9.68594L12.6156 12.3227C12.533 12.4052 12.4211 12.4516 12.3043 12.4516C12.1876 12.4516 12.0756 12.4052 11.993 12.3227C11.9105 12.2401 11.8641 12.1281 11.8641 12.0114C11.8641 11.8946 11.9105 11.7827 11.993 11.7001L13.8794 9.81448H8.49609C8.37954 9.81448 8.26777 9.76818 8.18535 9.68577C8.10294 9.60336 8.05664 9.49158 8.05664 9.37503C8.05664 9.25848 8.10294 9.1467 8.18535 9.06429C8.26777 8.98188 8.37954 8.93558 8.49609 8.93558H13.8794L11.9938 7.04886C11.9112 6.9663 11.8648 6.85433 11.8648 6.73758C11.8648 6.62083 11.9112 6.50886 11.9938 6.4263C12.0763 6.34374 12.1883 6.29736 12.3051 6.29736C12.4218 6.29736 12.5338 6.34374 12.6163 6.4263L15.2531 9.06302C15.294 9.1039 15.3265 9.15247 15.3487 9.20595C15.3708 9.25943 15.3822 9.31675 15.3821 9.37463C15.3821 9.43251 15.3706 9.48981 15.3483 9.54324C15.326 9.59666 15.2934 9.64516 15.2523 9.68594Z" fill="#1C51E1"/>
</svg>
