<svg width="58" height="42" viewBox="0 0 58 42" fill="none" xmlns="http://www.w3.org/2000/svg">
<path d="M56.375 24.25C56.178 24.3977 55.9539 24.5052 55.7153 24.5663C55.4768 24.6275 55.2286 24.641 54.9848 24.6062C54.7411 24.5713 54.5066 24.4888 54.2947 24.3634C54.0828 24.2379 53.8977 24.072 53.75 23.875C52.6199 22.3559 51.1489 21.1234 49.4554 20.2767C47.762 19.43 45.8933 18.9927 44 19C43.5027 19 43.0258 18.8025 42.6742 18.4508C42.3226 18.0992 42.125 17.6223 42.125 17.125C42.125 16.6277 42.3226 16.1508 42.6742 15.7992C43.0258 15.4476 43.5027 15.25 44 15.25C45.0521 15.2499 46.083 14.9548 46.9757 14.3982C47.8684 13.8415 48.5872 13.0457 49.0502 12.101C49.5133 11.1564 49.7022 10.1008 49.5955 9.05421C49.4887 8.0076 49.0906 7.0119 48.4463 6.18022C47.802 5.34853 46.9374 4.7142 45.9507 4.34926C44.964 3.98433 43.8947 3.90343 42.8643 4.11575C41.8339 4.32807 40.8837 4.82509 40.1216 5.55037C39.3596 6.27566 38.8161 7.20012 38.5531 8.21876C38.4916 8.45729 38.3836 8.68136 38.2355 8.87818C38.0873 9.075 37.9019 9.24072 37.6897 9.36586C37.4775 9.491 37.2427 9.57312 36.9988 9.60753C36.7548 9.64194 36.5065 9.62797 36.268 9.56641C36.0294 9.50486 35.8054 9.39692 35.6086 9.24876C35.4117 9.10061 35.246 8.91514 35.1209 8.70294C34.9957 8.49075 34.9136 8.25598 34.8792 8.01205C34.8448 7.76811 34.8588 7.51979 34.9203 7.28126C35.2854 5.86871 35.9751 4.56086 36.9345 3.46177C37.894 2.36267 39.0967 1.50268 40.447 0.950202C41.7973 0.397728 43.2579 0.168027 44.7126 0.279375C46.1673 0.390723 47.5759 0.840048 48.8264 1.5916C50.0769 2.34315 51.1347 3.37617 51.9157 4.60849C52.6967 5.8408 53.1793 7.23838 53.3252 8.69003C53.471 10.1417 53.276 11.6073 52.7557 12.9704C52.2354 14.3334 51.4042 15.5562 50.3281 16.5414C52.8777 17.6453 55.094 19.3971 56.757 21.6227C56.9048 21.8201 57.0121 22.0448 57.0728 22.2839C57.1336 22.5229 57.1466 22.7715 57.1111 23.0156C57.0756 23.2597 56.9924 23.4943 56.866 23.7061C56.7397 23.918 56.5729 24.1028 56.375 24.25ZM43.7469 38.6875C43.8778 38.9009 43.9646 39.1384 44.0022 39.386C44.0399 39.6335 44.0275 39.8861 43.966 40.1288C43.9044 40.3715 43.7949 40.5994 43.6438 40.7991C43.4927 40.9987 43.3032 41.1661 43.0864 41.2914C42.8695 41.4166 42.6298 41.4971 42.3814 41.5282C42.133 41.5593 41.8808 41.5404 41.6398 41.4724C41.3988 41.4045 41.1739 41.289 40.9782 41.1327C40.7826 40.9764 40.6203 40.7825 40.5008 40.5625C39.3195 38.5631 37.6374 36.9061 35.6204 35.755C33.6034 34.604 31.3212 33.9986 28.9988 33.9986C26.6765 33.9986 24.3943 34.604 22.3773 35.755C20.3603 36.9061 18.6782 38.5631 17.4969 40.5625C17.3797 40.7866 17.2183 40.9846 17.0226 41.1447C16.8269 41.3048 16.6008 41.4237 16.3579 41.4941C16.115 41.5646 15.8604 41.5852 15.6094 41.5547C15.3583 41.5242 15.1161 41.4433 14.8971 41.3167C14.6782 41.1902 14.4871 41.0206 14.3354 40.8183C14.1837 40.616 14.0745 40.3851 14.0143 40.1395C13.9542 39.8939 13.9443 39.6386 13.9853 39.3891C14.0264 39.1396 14.1175 38.9009 14.2531 38.6875C16.0709 35.5642 18.8427 33.1063 22.1609 31.675C20.2937 30.2454 18.9215 28.2666 18.237 26.0168C17.5526 23.767 17.5904 21.3592 18.3451 19.132C19.0998 16.9047 20.5335 14.97 22.4447 13.5997C24.3559 12.2294 26.6484 11.4925 29 11.4925C31.3516 11.4925 33.6442 12.2294 35.5553 13.5997C37.4665 14.97 38.9002 16.9047 39.6549 19.132C40.4096 21.3592 40.4474 23.767 39.763 26.0168C39.0785 28.2666 37.7063 30.2454 35.8391 31.675C39.1574 33.1063 41.9291 35.5642 43.7469 38.6875ZM29 30.25C30.4834 30.25 31.9334 29.8101 33.1668 28.986C34.4002 28.1619 35.3614 26.9906 35.9291 25.6201C36.4968 24.2497 36.6453 22.7417 36.3559 21.2868C36.0665 19.832 35.3522 18.4956 34.3033 17.4467C33.2544 16.3978 31.918 15.6835 30.4632 15.3941C29.0083 15.1047 27.5003 15.2533 26.1299 15.8209C24.7594 16.3886 23.5881 17.3499 22.764 18.5832C21.9399 19.8166 21.5 21.2666 21.5 22.75C21.5 24.7391 22.2902 26.6468 23.6967 28.0533C25.1032 29.4598 27.0109 30.25 29 30.25ZM15.875 17.125C15.875 16.6277 15.6775 16.1508 15.3258 15.7992C14.9742 15.4476 14.4973 15.25 14 15.25C12.948 15.2499 11.917 14.9548 11.0243 14.3982C10.1316 13.8415 9.41286 13.0457 8.94977 12.101C8.48668 11.1564 8.29778 10.1008 8.40454 9.05421C8.51129 8.0076 8.90942 7.0119 9.5537 6.18022C10.198 5.34853 11.0626 4.7142 12.0493 4.34926C13.036 3.98433 14.1053 3.90343 15.1357 4.11575C16.1661 4.32807 17.1163 4.82509 17.8784 5.55037C18.6405 6.27566 19.1839 7.20012 19.4469 8.21876C19.5712 8.7005 19.8818 9.11312 20.3104 9.36586C20.7389 9.61859 21.2503 9.69073 21.732 9.56641C22.2138 9.44209 22.6264 9.13149 22.8791 8.70294C23.1319 8.27439 23.204 7.763 23.0797 7.28126C22.7146 5.86871 22.025 4.56086 21.0655 3.46177C20.1061 2.36267 18.9033 1.50268 17.553 0.950202C16.2027 0.397728 14.7421 0.168027 13.2874 0.279375C11.8327 0.390723 10.4241 0.840048 9.17359 1.5916C7.9231 2.34315 6.86527 3.37617 6.08428 4.60849C5.30328 5.8408 4.82068 7.23838 4.67486 8.69003C4.52904 10.1417 4.72404 11.6073 5.24433 12.9704C5.76462 14.3334 6.59586 15.5562 7.67188 16.5414C5.12489 17.6464 2.91106 19.398 1.25001 21.6227C0.95133 22.0205 0.822919 22.5207 0.893025 23.0132C0.963132 23.5057 1.22601 23.9502 1.62384 24.2488C2.02166 24.5475 2.52184 24.6759 3.01435 24.6058C3.50685 24.5357 3.95133 24.2728 4.25001 23.875C5.38013 22.3559 6.85114 21.1234 8.5446 20.2767C10.2381 19.43 12.1067 18.9927 14 19C14.4973 19 14.9742 18.8025 15.3258 18.4508C15.6775 18.0992 15.875 17.6223 15.875 17.125Z" fill="#1C51E1"/>
</svg>
