<svg width="60" height="60" viewBox="0 0 60 60" fill="none" xmlns="http://www.w3.org/2000/svg">
<path opacity="0.2" d="M11.25 16.8748H26.25V43.1248H11.25V16.8748ZM44.6812 8.99749C44.6313 8.75535 44.534 8.52546 44.3949 8.32107C44.2559 8.11668 44.0777 7.94182 43.8708 7.80654C43.6638 7.67127 43.4322 7.57826 43.1891 7.53286C42.9461 7.48746 42.6965 7.49057 42.4547 7.54202L31.4836 9.88577C30.9958 9.99354 30.5705 10.2899 30.3005 10.7101C30.0304 11.1303 29.9376 11.6403 30.0422 12.1287L32.7633 25.078L47.4023 21.9326L44.6812 8.99749Z" fill="#1C51E1"/>
<path d="M54.293 45.5976L46.5141 8.61324C46.4135 8.12959 46.2183 7.67058 45.9397 7.26259C45.6612 6.85459 45.3048 6.50565 44.891 6.23581C44.4772 5.96598 44.0142 5.78055 43.5285 5.6902C43.0428 5.59985 42.5441 5.60636 42.0609 5.70934L31.0898 8.06715C30.1194 8.27963 29.2721 8.86668 28.7323 9.70061C28.1924 10.5345 28.0036 11.5479 28.207 12.5203L35.9859 49.5046C36.1593 50.3484 36.6179 51.1068 37.2846 51.6523C37.9513 52.1978 38.7855 52.4971 39.6469 52.5C39.9132 52.4996 40.1787 52.4713 40.4391 52.4156L51.4102 50.0578C52.3818 49.8448 53.2299 49.2566 53.7698 48.4212C54.3098 47.5858 54.4978 46.571 54.293 45.5976ZM31.875 11.7539C31.875 11.7398 31.875 11.7328 31.875 11.7328L42.8438 9.38902L43.6242 13.1086L32.6555 15.4687L31.875 11.7539ZM33.4266 19.1296L44.4 16.7742L45.1828 20.5007L34.2188 22.8586L33.4266 19.1296ZM34.9828 26.5289L45.9563 24.1711L49.0734 38.9929L38.1 41.3507L34.9828 26.5289ZM50.625 46.3921L39.6562 48.7359L38.8758 45.0164L49.8445 42.6562L50.625 46.3711C50.625 46.3851 50.625 46.3921 50.625 46.3921ZM24.375 7.49996H13.125C12.1304 7.49996 11.1766 7.89505 10.4733 8.59831C9.77009 9.30157 9.375 10.2554 9.375 11.25V48.75C9.375 49.7445 9.77009 50.6983 10.4733 51.4016C11.1766 52.1049 12.1304 52.5 13.125 52.5H24.375C25.3696 52.5 26.3234 52.1049 27.0266 51.4016C27.7299 50.6983 28.125 49.7445 28.125 48.75V11.25C28.125 10.2554 27.7299 9.30157 27.0266 8.59831C26.3234 7.89505 25.3696 7.49996 24.375 7.49996ZM13.125 11.25H24.375V15H13.125V11.25ZM13.125 18.75H24.375V41.25H13.125V18.75ZM24.375 48.75H13.125V45H24.375V48.75Z" fill="#1C51E1"/>
</svg>
