<svg width="18" height="15" viewBox="0 0 18 15" fill="none" xmlns="http://www.w3.org/2000/svg">
<g clip-path="url(#clip0_4185_105097)">
<path d="M8.99994 0.886719C8.77213 0.886719 8.54713 0.925497 8.33338 1.00028L0.44432 3.80618C0.177132 3.90312 -5.53736e-05 4.15241 -5.53736e-05 4.43217C-5.53736e-05 4.71193 0.177132 4.96122 0.44432 5.05817L2.07276 5.63707C1.61151 6.3517 1.34994 7.19652 1.34994 8.08565V8.86399C1.34994 9.65064 1.04619 10.4622 0.722757 11.1021C0.539945 11.4621 0.33182 11.8167 0.0899446 12.1435C-5.53727e-05 12.2626 -0.0253679 12.4178 0.0252571 12.559C0.0758821 12.7003 0.194007 12.8055 0.340257 12.8415L2.14026 13.2847C2.25838 13.3152 2.38494 13.293 2.48901 13.2293C2.59307 13.1656 2.66619 13.0604 2.68869 12.9413C2.93057 11.7558 2.80963 10.6921 2.62963 9.9304C2.53963 9.53707 2.41869 9.13544 2.24994 8.76705V8.08565C2.24994 7.24915 2.53682 6.45973 3.03463 5.8282C3.39744 5.39886 3.86713 5.05263 4.41838 4.83935L8.83401 3.13033C9.06463 3.04169 9.32619 3.15249 9.41619 3.37962C9.50619 3.60675 9.39369 3.86435 9.16307 3.95298L4.74745 5.662C4.39869 5.79773 4.09213 6.00547 3.84182 6.2603L8.33057 7.85575C8.54432 7.93054 8.76932 7.96932 8.99713 7.96932C9.22494 7.96932 9.44994 7.93054 9.6637 7.85575L17.5556 5.05817C17.8228 4.96399 17.9999 4.71193 17.9999 4.43217C17.9999 4.15241 17.8228 3.90312 17.5556 3.80618L9.66651 1.00028C9.45276 0.925497 9.22776 0.886719 8.99994 0.886719ZM3.59994 11.3015C3.59994 12.2793 6.01869 13.2958 8.99994 13.2958C11.9812 13.2958 14.3999 12.2793 14.3999 11.3015L13.9696 7.27408L9.97026 8.6978C9.65807 8.80859 9.32901 8.86399 8.99994 8.86399C8.67088 8.86399 8.33901 8.80859 8.02963 8.6978L4.03026 7.27408L3.59994 11.3015Z" fill="#1C51E1"/>
</g>
<defs>
<clipPath id="clip0_4185_105097">
<rect width="18" height="14.1818" fill="white"/>
</clipPath>
</defs>
</svg>
