<svg width="6" height="22" viewBox="0 0 6 22" fill="none" xmlns="http://www.w3.org/2000/svg">
<path d="M3 8C2.40666 8 1.82664 8.17595 1.33329 8.50559C0.839944 8.83524 0.455426 9.30377 0.228363 9.85195C0.00129984 10.4001 -0.0581102 11.0033 0.0576455 11.5853C0.173401 12.1672 0.459124 12.7018 0.878681 13.1213C1.29824 13.5409 1.83279 13.8266 2.41473 13.9424C2.99667 14.0581 3.59987 13.9987 4.14805 13.7716C4.69623 13.5446 5.16477 13.1601 5.49441 12.6667C5.82405 12.1734 6 11.5933 6 11C6 10.2044 5.68393 9.44129 5.12132 8.87868C4.55871 8.31607 3.79565 8 3 8ZM3 12.5C2.70333 12.5 2.41332 12.412 2.16665 12.2472C1.91997 12.0824 1.72771 11.8481 1.61418 11.574C1.50065 11.2999 1.47095 10.9983 1.52882 10.7074C1.5867 10.4164 1.72956 10.1491 1.93934 9.93934C2.14912 9.72956 2.41639 9.5867 2.70737 9.52882C2.99834 9.47095 3.29994 9.50065 3.57403 9.61418C3.84812 9.72771 4.08238 9.91997 4.24721 10.1666C4.41203 10.4133 4.5 10.7033 4.5 11C4.5 11.3978 4.34197 11.7794 4.06066 12.0607C3.77936 12.342 3.39783 12.5 3 12.5ZM3 6.5C3.59335 6.5 4.17336 6.32405 4.66671 5.99441C5.16006 5.66477 5.54458 5.19623 5.77164 4.64805C5.9987 4.09987 6.05811 3.49667 5.94236 2.91473C5.8266 2.33279 5.54088 1.79824 5.12132 1.37868C4.70176 0.959123 4.16722 0.673401 3.58527 0.557646C3.00333 0.44189 2.40013 0.5013 1.85195 0.728363C1.30377 0.955426 0.835237 1.33994 0.505593 1.83329C0.175949 2.32664 1.61668e-06 2.90666 1.61668e-06 3.5C1.61668e-06 4.29565 0.316072 5.05871 0.878681 5.62132C1.44129 6.18393 2.20435 6.5 3 6.5ZM3 2C3.29667 2 3.58668 2.08797 3.83336 2.2528C4.08003 2.41762 4.27229 2.65189 4.38582 2.92598C4.49935 3.20007 4.52906 3.50167 4.47118 3.79264C4.4133 4.08361 4.27044 4.35088 4.06066 4.56066C3.85088 4.77044 3.58361 4.9133 3.29264 4.97118C3.00167 5.02906 2.70007 4.99935 2.42598 4.88582C2.15189 4.77229 1.91762 4.58003 1.7528 4.33336C1.58798 4.08668 1.5 3.79667 1.5 3.5C1.5 3.10218 1.65804 2.72065 1.93934 2.43934C2.22065 2.15804 2.60218 2 3 2ZM3 15.5C2.40666 15.5 1.82664 15.6759 1.33329 16.0056C0.839944 16.3352 0.455426 16.8038 0.228363 17.352C0.00129984 17.9001 -0.0581102 18.5033 0.0576455 19.0853C0.173401 19.6672 0.459124 20.2018 0.878681 20.6213C1.29824 21.0409 1.83279 21.3266 2.41473 21.4424C2.99667 21.5581 3.59987 21.4987 4.14805 21.2716C4.69623 21.0446 5.16477 20.6601 5.49441 20.1667C5.82405 19.6734 6 19.0933 6 18.5C6 17.7044 5.68393 16.9413 5.12132 16.3787C4.55871 15.8161 3.79565 15.5 3 15.5ZM3 20C2.70333 20 2.41332 19.912 2.16665 19.7472C1.91997 19.5824 1.72771 19.3481 1.61418 19.074C1.50065 18.7999 1.47095 18.4983 1.52882 18.2074C1.5867 17.9164 1.72956 17.6491 1.93934 17.4393C2.14912 17.2296 2.41639 17.0867 2.70737 17.0288C2.99834 16.9709 3.29994 17.0007 3.57403 17.1142C3.84812 17.2277 4.08238 17.42 4.24721 17.6666C4.41203 17.9133 4.5 18.2033 4.5 18.5C4.5 18.8978 4.34197 19.2794 4.06066 19.5607C3.77936 19.842 3.39783 20 3 20Z" fill="#1C51E1"/>
</svg>
