<svg width="25" height="25" viewBox="0 0 67 58" fill="none" xmlns="http://www.w3.org/2000/svg"
              class="m-auto">
              <path
                d="M23.9286 10.1429H43.0714V5.35714H23.9286V10.1429ZM67 34.0714V52.0179C67 55.308 64.308 58 61.0179 58H5.98214C2.69196 58 0 55.308 0 52.0179V34.0714H25.125V40.0536C25.125 41.3622 26.2093 42.4464 27.5179 42.4464H39.4821C40.7907 42.4464 41.875 41.3622 41.875 40.0536V34.0714H67ZM38.2857 34.0714V38.8571H28.7143V34.0714H38.2857ZM67 16.125V30.4821H0V16.125C0 12.8348 2.69196 10.1429 5.98214 10.1429H19.1429V4.16071C19.1429 2.17913 20.7506 0.571424 22.7321 0.571424H44.2679C46.2494 0.571424 47.8571 2.17913 47.8571 4.16071V10.1429H61.0179C64.308 10.1429 67 12.8348 67 16.125Z"
                fill="#555" />
            </svg>