<svg width="25" height="25" viewBox="0 0 64 59" fill="none" xmlns="http://www.w3.org/2000/svg"
              class="m-auto">
              <path
                d="M62.2796 14.4431C63.2143 15.7891 63.476 17.5463 62.9526 19.2662L52.6708 53.1401C51.7361 56.3181 48.4459 58.7857 45.2305 58.7857H10.721C6.90737 58.7857 2.83203 55.7573 1.44866 51.8689C0.850446 50.1864 0.850446 48.5413 1.37388 47.1205C1.44866 46.3728 1.59821 45.625 1.6356 44.7277C1.67299 44.1295 1.3365 43.6434 1.41127 43.1948C1.56083 42.2974 2.34598 41.6618 2.9442 40.6523C4.06585 38.7829 5.33705 35.7545 5.74833 33.8103C5.93527 33.0999 5.56138 32.2773 5.74833 31.6417C5.93527 30.9314 6.64565 30.4079 7.01953 29.7349C8.02902 28.0151 9.33761 24.6875 9.52455 22.9302C9.59933 22.1451 9.22545 21.2852 9.44978 20.6869C9.7115 19.827 10.534 19.4531 11.0949 18.7054C11.9922 17.4715 13.4877 13.9196 13.7121 11.9381C13.7868 11.3025 13.4129 10.6668 13.5251 9.99386C13.6747 9.28348 14.572 8.53571 15.1702 7.67578C16.7405 5.3577 17.0396 0.235491 21.7879 1.58147L21.7506 1.69364C22.3862 1.54408 23.0218 1.35714 23.6574 1.35714H52.1099C53.8672 1.35714 55.4375 2.1423 56.3722 3.45089C57.3443 4.79687 57.5686 6.55413 57.0452 8.31138L46.8008 42.1853C45.0435 47.9431 44.0714 49.2143 39.3231 49.2143H6.83259C6.34654 49.2143 5.74833 49.3265 5.41183 49.7751C5.11272 50.2238 5.07533 50.5603 5.37444 51.3828C6.12221 53.5513 8.70201 54 10.7584 54H45.2679C46.6512 54 48.2589 53.2148 48.6702 51.8689L59.8867 14.9665C60.1111 14.2561 60.1111 13.5084 60.0737 12.8354C60.9336 13.1719 61.7188 13.6953 62.2796 14.4431ZM22.4983 14.5179C22.274 15.1908 22.6479 15.7143 23.3209 15.7143H46.053C46.6886 15.7143 47.399 15.1908 47.6233 14.5179L48.4085 12.125C48.6328 11.452 48.2589 10.9286 47.5859 10.9286H24.8538C24.2182 10.9286 23.5078 11.452 23.2835 12.125L22.4983 14.5179ZM19.3951 24.0893C19.1708 24.7623 19.5446 25.2857 20.2176 25.2857H42.9498C43.5854 25.2857 44.2958 24.7623 44.5201 24.0893L45.3052 21.6964C45.5296 21.0234 45.1557 20.5 44.4827 20.5H21.7506C21.115 20.5 20.4046 21.0234 20.1802 21.6964L19.3951 24.0893Z"
                fill="#555" />
            </svg>
