<svg width="138" height="138" viewBox="0 0 138 138" fill="none" xmlns="http://www.w3.org/2000/svg">
<path d="M127.65 101.392L80.5089 19.5248C79.3309 17.5191 77.6492 15.8561 75.6304 14.7005C73.6117 13.545 71.326 12.9371 68.9999 12.9371C66.6739 12.9371 64.3882 13.545 62.3694 14.7005C60.3507 15.8561 58.6689 17.5191 57.4909 19.5248L10.3499 101.392C9.21647 103.332 8.61914 105.539 8.61914 107.786C8.61914 110.032 9.21647 112.239 10.3499 114.179C11.5128 116.197 13.1917 117.869 15.2142 119.024C17.2367 120.178 19.5301 120.774 21.8589 120.75H116.141C118.468 120.772 120.759 120.175 122.78 119.021C124.8 117.866 126.477 116.195 127.639 114.179C128.774 112.24 129.373 110.034 129.375 107.787C129.377 105.54 128.782 103.333 127.65 101.392ZM120.173 109.861C119.762 110.562 119.172 111.141 118.464 111.539C117.755 111.937 116.953 112.139 116.141 112.125H21.8589C21.0464 112.139 20.2448 111.937 19.5362 111.539C18.8277 111.141 18.2377 110.562 17.8267 109.861C17.4545 109.231 17.2581 108.512 17.2581 107.78C17.2581 107.048 17.4545 106.33 17.8267 105.699L64.9677 23.8319C65.387 23.1342 65.9797 22.5569 66.6881 22.1561C67.3966 21.7553 68.1967 21.5447 69.0107 21.5447C69.8247 21.5447 70.6248 21.7553 71.3333 22.1561C72.0417 22.5569 72.6344 23.1342 73.0537 23.8319L120.195 105.699C120.564 106.332 120.756 107.051 120.753 107.783C120.749 108.515 120.549 109.233 120.173 109.861Z" fill="#FF0000"/>
<path opacity="0.2" d="M116.146 116.438H21.8535C15.0506 116.438 10.7812 109.316 14.0856 103.549L61.232 21.6811C64.6281 15.7514 73.3717 15.7514 76.7678 21.6811L123.914 103.549C127.219 109.316 122.949 116.438 116.146 116.438Z" fill="#FF0000"/>
<path opacity="0.2" d="M85.5 81C85.5 84.2634 84.5323 87.4535 82.7193 90.1669C80.9062 92.8803 78.3293 94.9952 75.3143 96.244C72.2993 97.4929 68.9817 97.8196 65.781 97.183C62.5803 96.5463 59.6403 94.9748 57.3327 92.6673C55.0252 90.3597 53.4537 87.4197 52.8171 84.219C52.1804 81.0183 52.5071 77.7007 53.756 74.6857C55.0048 71.6707 57.1197 69.0938 59.8331 67.2808C62.5465 65.4677 65.7366 64.5 69 64.5C73.3761 64.5 77.5729 66.2384 80.6673 69.3327C83.7616 72.4271 85.5 76.6239 85.5 81Z" fill="#FF0000"/>
<path d="M87 66V75C87 75.3978 86.842 75.7794 86.5607 76.0607C86.2794 76.342 85.8978 76.5 85.5 76.5H76.5C76.1022 76.5 75.7206 76.342 75.4393 76.0607C75.158 75.7794 75 75.3978 75 75C75 74.6022 75.158 74.2207 75.4393 73.9394C75.7206 73.6581 76.1022 73.5 76.5 73.5H81.8794L79.1362 70.7569C76.3484 67.9564 72.5634 66.3764 68.6119 66.3638H68.5275C64.6091 66.3546 60.8445 67.8883 58.0481 70.6331C57.7617 70.9006 57.3819 71.0452 56.9901 71.0363C56.5984 71.0273 56.2257 70.8653 55.9518 70.5851C55.6779 70.3048 55.5245 69.9285 55.5245 69.5366C55.5246 69.1447 55.6779 68.7684 55.9519 68.4881C59.341 65.1758 63.8997 63.3335 68.6386 63.3613C73.3775 63.389 77.9143 65.2844 81.2644 68.6363L84 71.3794V66C84 65.6022 84.158 65.2207 84.4393 64.9394C84.7206 64.6581 85.1022 64.5 85.5 64.5C85.8978 64.5 86.2794 64.6581 86.5607 64.9394C86.842 65.2207 87 65.6022 87 66ZM79.9519 91.3669C77.1278 94.1255 73.3301 95.6595 69.3824 95.6363C65.4347 95.6132 61.6552 94.0347 58.8638 91.2431L56.1206 88.5H61.5C61.8978 88.5 62.2794 88.342 62.5607 88.0607C62.842 87.7794 63 87.3978 63 87C63 86.6022 62.842 86.2207 62.5607 85.9394C62.2794 85.658 61.8978 85.5 61.5 85.5H52.5C52.1022 85.5 51.7206 85.658 51.4393 85.9394C51.158 86.2207 51 86.6022 51 87V96C51 96.3978 51.158 96.7794 51.4393 97.0607C51.7206 97.342 52.1022 97.5 52.5 97.5C52.8978 97.5 53.2794 97.342 53.5607 97.0607C53.842 96.7794 54 96.3978 54 96V90.6206L56.7431 93.3638C60.0885 96.726 64.632 98.6224 69.375 98.6363H69.4744C74.177 98.6484 78.6951 96.8073 82.05 93.5119C82.3239 93.2316 82.4773 92.8553 82.4773 92.4635C82.4774 92.0716 82.324 91.6952 82.0501 91.415C81.7762 91.1347 81.4035 90.9728 81.0117 90.9638C80.62 90.9548 80.2402 91.0995 79.9538 91.3669H79.9519Z" fill="#FF0000"/>
</svg>
