<svg width="30" height="30" viewBox="0 0 52 52" fill="none" xmlns="http://www.w3.org/2000/svg">
                                <g clip-path="url(#clip0_3039_51529)">
                                <path d="M43.784 0H8.216C3.67843 0 0 3.67843 0 8.216V43.784C0 48.3216 3.67843 52 8.216 52H43.784C48.3216 52 52 48.3216 52 43.784V8.216C52 3.67843 48.3216 0 43.784 0Z" fill="#25BFEF"/>
                                <mask id="mask0_3039_51529" style="mask-type:luminance" maskUnits="userSpaceOnUse" x="0" y="0" width="52" height="52">
                                <path d="M43.784 0H8.216C3.67843 0 0 3.67843 0 8.216V43.784C0 48.3216 3.67843 52 8.216 52H43.784C48.3216 52 52 48.3216 52 43.784V8.216C52 3.67843 48.3216 0 43.784 0Z" fill="white"/>
                                </mask>
                                <g mask="url(#mask0_3039_51529)">
                                <path opacity="0.3" d="M-1.0957 56.2084C5.71283 54.6276 21.084 50.1002 35.0963 36.5524C47.9992 24.0794 53.1854 10.3098 55.2238 3.63989C56.2152 21.5279 57.1998 39.4159 58.1912 57.3039L-1.08877 56.2084H-1.0957Z" fill="white"/>
                                </g>
                                <path d="M46.0512 11.9947V37.9461H44.7131C30.7147 37.9461 27.775 41.1563 27.3312 41.7872H24.6827C24.2736 41.184 21.3894 37.9461 7.28003 37.9461H5.94189V11.9947H7.28003C7.84163 11.9947 8.36856 12.0016 8.89549 12.0155V10.2197H9.48483C20.9248 10.2197 24.759 12.9584 26 14.4352C27.2342 12.9584 31.0752 10.2197 42.5152 10.2197H43.1046V12.0155C43.6315 12.0016 44.1584 11.9947 44.72 11.9947H46.0582H46.0512ZM41.6278 33.5227V11.7035C29.6192 11.8629 27.2203 15.1285 26.8806 15.7248V36.7744C28.8566 35.3184 32.9888 33.6336 41.6278 33.5227ZM25.1195 36.7744V15.7179C24.8075 15.1771 22.471 11.8629 10.3723 11.7104V33.5296C19.0112 33.6405 23.1435 35.3253 25.1195 36.7813V36.7744Z" fill="#1A50A0"/>
                                <path d="M41.6276 11.7034V33.5226C32.9886 33.6335 28.8564 35.3183 26.8804 36.7743V15.7247C27.2132 15.1354 29.619 11.8628 41.6276 11.7034Z" fill="white"/>
                                <path d="M25.1193 15.7109V36.7675C23.1433 35.3115 19.011 33.6267 10.3721 33.5157V11.6965C22.4707 11.856 24.8073 15.1701 25.1193 15.704V15.7109Z" fill="white"/>
                                <path d="M18.0199 31.6783C17.9506 31.7476 17.8535 31.7892 17.7495 31.7892C17.6247 31.7892 17.4999 31.7268 17.4306 31.6228L16.1757 29.7647C16.1341 29.7023 16.1133 29.626 16.1133 29.5498V18.5674C16.1133 18.3524 16.2866 18.186 16.4946 18.186H19.0045C19.2194 18.186 19.3858 18.3594 19.3858 18.5674V29.5498C19.3858 29.626 19.365 29.7023 19.3165 29.7647L18.0615 31.6228C18.0615 31.6228 18.0338 31.6644 18.013 31.6783H18.0199ZM16.8759 29.425L17.7495 30.7146L18.6231 29.425V18.9487H16.8829V29.425H16.8759Z" fill="#1A50A0"/>
                                <path d="M19.2749 17.5828C19.2055 17.6522 19.1085 17.6938 19.0045 17.6938H16.4946C16.2797 17.6938 16.1133 17.5204 16.1133 17.3124V15.8218C16.1133 15.6068 16.2866 15.4404 16.4946 15.4404H19.0045C19.2194 15.4404 19.3858 15.6138 19.3858 15.8218V17.3124C19.3858 17.4164 19.3442 17.5135 19.2749 17.5828ZM16.8759 16.9242H18.6162V16.2031H16.8759V16.9242Z" fill="#1A50A0"/>
                                <path d="M19.2749 29.8131C19.2055 29.8824 19.1085 29.924 19.0045 29.924H16.4946C16.2797 29.924 16.1133 29.7507 16.1133 29.5427C16.1133 29.3347 16.2866 29.1614 16.4946 29.1614H19.0045C19.2194 29.1614 19.3858 29.3347 19.3858 29.5427C19.3858 29.6467 19.3442 29.7438 19.2749 29.8131Z" fill="#1A50A0"/>
                                </g>
                                <defs>
                                <clipPath id="clip0_3039_51529">
                                <rect width="52" height="52" fill="white"/>
                                </clipPath>
                                </defs>
                                </svg>