<svg width="52" height="52" viewBox="0 0 52 52" fill="none" xmlns="http://www.w3.org/2000/svg">
<g clip-path="url(#clip0_3101_39929)">
<path d="M43.784 0H8.216C3.67843 0 0 3.67843 0 8.216V43.784C0 48.3216 3.67843 52 8.216 52H43.784C48.3216 52 52 48.3216 52 43.784V8.216C52 3.67843 48.3216 0 43.784 0Z" fill="#1A50A0"/>
<mask id="mask0_3101_39929" style="mask-type:luminance" maskUnits="userSpaceOnUse" x="0" y="0" width="52" height="52">
<path d="M43.784 0H8.216C3.67843 0 0 3.67843 0 8.216V43.784C0 48.3216 3.67843 52 8.216 52H43.784C48.3216 52 52 48.3216 52 43.784V8.216C52 3.67843 48.3216 0 43.784 0Z" fill="white"/>
</mask>
<g mask="url(#mask0_3101_39929)">
<path opacity="0.3" d="M-1.0957 56.2085C5.71283 54.6277 21.084 50.1003 35.0963 36.5525C47.9992 24.0795 53.1854 10.3099 55.2238 3.64001C56.2152 21.528 57.1998 39.416 58.1912 57.304L-1.08877 56.2085H-1.0957Z" fill="white"/>
</g>
<path d="M20.7025 3.14771H6.17712C4.31997 3.14771 2.81445 4.65322 2.81445 6.51037V21.0357C2.81445 22.8929 4.31997 24.3984 6.17712 24.3984H20.7025C22.5596 24.3984 24.0651 22.8929 24.0651 21.0357V6.51037C24.0651 4.65322 22.5596 3.14771 20.7025 3.14771Z" fill="#FFD400"/>
<path d="M45.8284 3.14771H31.3031C29.4459 3.14771 27.9404 4.65322 27.9404 6.51037V21.0357C27.9404 22.8929 29.4459 24.3984 31.3031 24.3984H45.8284C47.6856 24.3984 49.1911 22.8929 49.1911 21.0357V6.51037C49.1911 4.65322 47.6856 3.14771 45.8284 3.14771Z" fill="#02AD4B"/>
<path d="M20.7025 27.6016H6.17712C4.31997 27.6016 2.81445 29.1071 2.81445 30.9642V45.4896C2.81445 47.3467 4.31997 48.8522 6.17712 48.8522H20.7025C22.5596 48.8522 24.0651 47.3467 24.0651 45.4896V30.9642C24.0651 29.1071 22.5596 27.6016 20.7025 27.6016Z" fill="#EC1C24"/>
<path d="M45.8284 27.6016H31.3031C29.4459 27.6016 27.9404 29.1071 27.9404 30.9642V45.4896C27.9404 47.3467 29.4459 48.8522 31.3031 48.8522H45.8284C47.6856 48.8522 49.1911 47.3467 49.1911 45.4896V30.9642C49.1911 29.1071 47.6856 27.6016 45.8284 27.6016Z" fill="#8A4AA8"/>
<path d="M12.3203 32.0944L7.52941 35.6858H5.43555V37.2181V39.2912V40.8234H7.52941L12.3203 44.4149H13.3881V32.0944H12.3203Z" fill="white"/>
<path d="M15.1699 41.697C14.9619 41.697 14.7747 41.5514 14.7262 41.3434C14.6707 41.1008 14.8233 40.8581 15.0729 40.8026C16.1822 40.56 16.9865 39.4853 16.9865 38.2581C16.9865 37.0309 16.1822 35.9562 15.0729 35.7136C14.8302 35.6581 14.6707 35.4154 14.7262 35.1728C14.7817 34.9301 15.0243 34.7706 15.267 34.8261C16.7923 35.1589 17.8947 36.601 17.8947 38.2581C17.8947 39.9152 16.7923 41.3573 15.267 41.6901C15.2323 41.697 15.2046 41.704 15.1699 41.704V41.697Z" fill="white"/>
<path d="M17.9774 43.1461C17.7694 43.1461 17.5822 43.0005 17.5337 42.7925C17.4782 42.5498 17.6377 42.3071 17.8804 42.2517C19.6414 41.8703 20.9172 40.1925 20.9172 38.2581C20.9172 36.3237 19.6345 34.6389 17.8665 34.2645C17.6238 34.209 17.4644 33.9733 17.5198 33.7237C17.5684 33.481 17.7972 33.3215 18.0606 33.377C20.2446 33.8485 21.8254 35.9007 21.8254 38.2581C21.8254 40.6154 20.2446 42.6607 18.0745 43.1391C18.0398 43.1461 18.0121 43.153 17.9774 43.153V43.1461Z" fill="white"/>
<path d="M39.1729 31.7061H38.1052C37.2322 31.7061 36.5244 32.4138 36.5244 33.2869V37.9461C36.5244 38.8191 37.2322 39.5269 38.1052 39.5269H39.1729C40.046 39.5269 40.7537 38.8191 40.7537 37.9461V33.2869C40.7537 32.4138 40.046 31.7061 39.1729 31.7061Z" fill="white"/>
<path d="M41.953 37.4122C41.9114 37.6272 41.8629 37.8352 41.7936 38.0362C41.7242 38.2373 41.641 38.4314 41.544 38.6117C41.3429 38.9722 41.0864 39.2912 40.7882 39.5546L40.6773 39.6517L40.5594 39.7418L40.4416 39.825C40.4 39.8528 40.3584 39.8805 40.3168 39.9013C40.1504 39.9984 39.9701 40.0885 39.7898 40.1578C39.6096 40.2272 39.4224 40.2826 39.2282 40.3104C39.041 40.345 38.8469 40.3658 38.6528 40.3658C38.4586 40.3658 38.2645 40.352 38.0773 40.3104C37.8832 40.2757 37.696 40.2202 37.5157 40.1578C37.3354 40.0885 37.1552 40.0053 36.9888 39.9013C36.8224 39.7973 36.6629 39.6864 36.5104 39.5546C36.2122 39.2912 35.9557 38.9722 35.7546 38.6117C35.6576 38.4314 35.5744 38.2373 35.505 38.0362C35.4357 37.8352 35.3872 37.6272 35.3456 37.4122C35.2693 37.849 35.304 38.3066 35.4357 38.7434C35.5674 39.1802 35.8032 39.5962 36.1152 39.9498C36.4272 40.3034 36.8224 40.5877 37.2592 40.7818C37.4741 40.8789 37.7098 40.9482 37.9386 41.0037C38.0565 41.0314 38.1813 41.0453 38.2992 41.0592V43.9157C38.0288 43.9296 37.7653 43.9712 37.4949 44.0336C37.3008 44.0821 37.1136 44.1376 36.9194 44.2138C36.8224 44.2554 36.7253 44.2901 36.6282 44.3386C36.5312 44.3872 36.4341 44.4357 36.337 44.505L36.3162 44.5189C36.3162 44.5189 36.3024 44.5328 36.3024 44.5466C36.3024 44.5674 36.3162 44.5813 36.3301 44.5813L36.9056 44.5952H37.481C37.8624 44.609 38.2506 44.609 38.632 44.616C39.0133 44.616 39.4016 44.616 39.7829 44.609H40.3584L40.9338 44.5813C40.9408 44.5813 40.9546 44.5813 40.9616 44.5674C40.9685 44.5536 40.9616 44.5328 40.9546 44.5258L40.9408 44.512C40.8437 44.4426 40.7466 44.3941 40.6496 44.3456C40.5525 44.297 40.4554 44.2554 40.3584 44.2208C40.1642 44.1445 39.977 44.089 39.7829 44.0405C39.5125 43.9781 39.249 43.9434 38.9786 43.9226V41.0661C39.1034 41.0522 39.2213 41.0384 39.3392 41.0106C39.5749 40.9621 39.8037 40.8858 40.0186 40.7888C40.4554 40.5946 40.8506 40.3104 41.1626 39.9568C41.4746 39.6032 41.7104 39.1941 41.8421 38.7504C41.9738 38.3136 42.0085 37.849 41.9322 37.4192L41.953 37.4122Z" fill="white"/>
<path d="M21.8259 7.93869V18.5398H21.2782C15.5582 18.5398 14.3587 19.8502 14.1785 20.1067H13.0969C12.9305 19.8571 11.7518 18.5398 5.98328 18.5398H5.43555V7.93869H5.98328C6.21208 7.93869 6.42701 7.93869 6.64195 7.94563V7.21069H6.88461C11.5577 7.21069 13.1246 8.32696 13.6307 8.93016C14.1369 8.32696 15.7038 7.21069 20.3769 7.21069H20.6195V7.94563C20.8345 7.94563 21.0494 7.93869 21.2782 7.93869H21.8259ZM20.0163 16.7371V7.82083C15.1075 7.88323 14.1299 9.22136 13.9913 9.46403V18.0683C14.7955 17.472 16.4873 16.7856 20.0163 16.7371ZM13.2702 18.0683V9.46403C13.1454 9.24216 12.1886 7.89016 7.24515 7.82776V16.744C10.7742 16.7926 12.4659 17.479 13.2702 18.0752V18.0683Z" fill="#1A50A0"/>
<path d="M20.0163 7.8208V16.7371C16.4872 16.7856 14.7955 17.472 13.9912 18.0683V9.464C14.1299 9.22133 15.1075 7.8832 20.0163 7.8208Z" fill="white"/>
<path d="M13.2702 9.464V18.0683C12.4659 17.472 10.7742 16.7856 7.24512 16.7371V7.8208C12.1886 7.8832 13.1454 9.24213 13.2702 9.45707V9.464Z" fill="white"/>
<path d="M41.294 12.0085V19.025C41.294 19.6213 40.8503 20.1205 40.3234 20.1205H31.83C31.2962 20.1205 30.8594 19.6282 30.8594 19.025V8.313C30.8594 7.7098 31.3031 7.21753 31.83 7.21753H40.3234C40.8572 7.21753 41.294 7.70286 41.294 8.313V12.0154V12.0085ZM40.5591 19.025V8.313C40.5591 8.105 40.4274 7.94553 40.3234 7.94553H31.83C31.7191 7.94553 31.5943 8.105 31.5943 8.313V19.025C31.5943 19.233 31.726 19.3855 31.83 19.3855H40.3234C40.4343 19.3855 40.5591 19.2399 40.5591 19.025Z" fill="white"/>
<path d="M40.5595 13.1594V19.025C40.5595 19.233 40.4278 19.3856 40.3238 19.3856H31.8305C31.7195 19.3856 31.5947 19.24 31.5947 19.025V8.31302C31.5947 8.10502 31.7265 7.94556 31.8305 7.94556H40.3238C40.4347 7.94556 40.5595 8.10502 40.5595 8.31302V13.1594Z" fill="#00A14B"/>
<path d="M39.3533 9.53335H32.7943C32.5863 9.53335 32.4199 9.36695 32.4199 9.15895C32.4199 8.95095 32.5863 8.78455 32.7943 8.78455H39.3533C39.5613 8.78455 39.7277 8.95095 39.7277 9.15895C39.7277 9.36695 39.5613 9.53335 39.3533 9.53335Z" fill="white"/>
<path d="M39.3533 11.7797H32.7943C32.5863 11.7797 32.4199 11.6133 32.4199 11.4053C32.4199 11.1973 32.5863 11.0309 32.7943 11.0309H39.3533C39.5613 11.0309 39.7277 11.1973 39.7277 11.4053C39.7277 11.6133 39.5613 11.7797 39.3533 11.7797Z" fill="white"/>
<path d="M39.3533 14.033H32.7943C32.5863 14.033 32.4199 13.8666 32.4199 13.6586C32.4199 13.4506 32.5863 13.2842 32.7943 13.2842H39.3533C39.5613 13.2842 39.7277 13.4506 39.7277 13.6586C39.7277 13.8666 39.5613 14.033 39.3533 14.033Z" fill="white"/>
<path d="M39.3533 16.2794H32.7943C32.5863 16.2794 32.4199 16.113 32.4199 15.905C32.4199 15.697 32.5863 15.5306 32.7943 15.5306H39.3533C39.5613 15.5306 39.7277 15.697 39.7277 15.905C39.7277 16.113 39.5613 16.2794 39.3533 16.2794Z" fill="white"/>
<path d="M36.0739 18.5327H32.7875C32.5795 18.5327 32.4131 18.3663 32.4131 18.1583C32.4131 17.9503 32.5795 17.7839 32.7875 17.7839H36.0739C36.2819 17.7839 36.4483 17.9503 36.4483 18.1583C36.4483 18.3663 36.2819 18.5327 36.0739 18.5327Z" fill="white"/>
<path d="M38.4871 17.2431L45.1708 10.5594L45.8572 9.87992C46.1207 9.61645 46.1207 9.17965 45.8572 8.91618L44.6439 7.70285C44.3804 7.43938 43.9436 7.43938 43.6802 7.70285L42.9938 8.38925L36.31 15.073H36.3031L36.1852 16.2794L36.0674 17.4927L37.2807 17.3748L38.494 17.257H38.4871V17.2431Z" fill="white"/>
<path d="M44.1651 7.50876C44.3384 7.50876 44.5118 7.57809 44.6435 7.70982L45.8568 8.92316C46.1203 9.18662 46.1203 9.62342 45.8568 9.88689L45.1704 10.5733L38.4867 17.2501H38.4936L37.2803 17.3818L36.067 17.4997L36.1848 16.2864L36.3027 15.073H36.3096L42.9934 8.40316L43.6798 7.71676C43.8115 7.58502 43.9848 7.51569 44.1582 7.51569M44.1651 7.25916C43.9155 7.25916 43.6798 7.35622 43.5064 7.52955L42.82 8.21596C42.82 8.21596 42.7992 8.23675 42.7923 8.25062L36.1987 14.8442C36.1224 14.8858 36.067 14.9552 36.06 15.0453L35.9422 16.2586L35.8243 17.472C35.8174 17.5482 35.8451 17.6245 35.8936 17.673C35.9422 17.7216 36.0046 17.7493 36.0739 17.7493C36.0808 17.7493 36.0878 17.7493 36.1016 17.7493L37.315 17.6314L38.5283 17.5136C38.6184 17.5066 38.6878 17.4512 38.7294 17.3749L45.323 10.7813C45.323 10.7813 45.3507 10.7605 45.3576 10.7536L46.044 10.0672C46.4046 9.70662 46.4046 9.11036 46.044 8.74982L44.8307 7.53649C44.6574 7.36316 44.4216 7.26609 44.172 7.26609L44.1651 7.25916Z" fill="white"/>
<path d="M42.6936 8.69787L36.585 14.8065L38.7519 16.9735L44.8606 10.8648L42.6936 8.69787Z" fill="#1A50A0"/>
<path d="M43.6372 9.59302L37.4697 15.7605L37.8031 16.0939L43.9706 9.9264L43.6372 9.59302Z" fill="white"/>
<path d="M37.4055 16.1615L38.501 17.257L37.2876 17.3748L36.0674 17.4996L36.1922 16.2794L36.31 15.066L37.4055 16.1615Z" fill="#1A50A0"/>
<path d="M45.8576 9.87992C46.1211 9.61645 46.1211 9.17965 45.8576 8.91618L44.6443 7.70285C44.3808 7.43938 43.944 7.43938 43.6805 7.70285L42.9941 8.38925L45.1712 10.5663L45.8576 9.87992Z" fill="#1A50A0"/>
</g>
<defs>
<clipPath id="clip0_3101_39929">
<rect width="52" height="52" fill="white"/>
</clipPath>
</defs>
</svg>
