<svg width="20" height="20" viewBox="0 0 20 20" fill="none" xmlns="http://www.w3.org/2000/svg">
<path fill-rule="evenodd" clip-rule="evenodd" d="M0 20.0001L8.34726 3.28564L16.7108 20.0001C16.7108 20.0001 10.8051 19.2335 7.57452 19.1437C7.48825 18.3357 7.36448 17.1103 7.30528 15.9791C7.19749 14.11 7.67677 9.359 7.67677 9.359C7.67677 9.359 7.20287 12.8118 7.04681 15.198C6.98458 16.5102 6.99804 17.8249 7.08717 19.1356L7.04495 19.1354H7.04475C6.96294 19.1349 6.88365 19.1345 6.80717 19.1355C3.86672 19.176 0 20.0001 0 20.0001ZM1.86071 19.052C1.83403 19.0572 1.80661 19.0572 1.77993 19.052C1.71296 19.0282 1.65812 18.9789 1.62735 18.9149C1.59658 18.8508 1.59239 18.7771 1.61567 18.71C1.85802 17.9451 2.14075 17.1802 2.4531 16.4369C2.73853 15.7635 3.05626 15.0902 3.39823 14.4465C3.43812 14.4015 3.49193 14.3711 3.55108 14.3603C3.61023 14.3494 3.67132 14.3586 3.72461 14.3865C3.77789 14.4144 3.82031 14.4593 3.8451 14.5141C3.86989 14.569 3.87562 14.6305 3.86138 14.6889C3.52748 15.3245 3.21513 15.9817 2.93778 16.6415C2.62813 17.3687 2.35347 18.1175 2.11382 18.8689C2.09591 18.9219 2.0619 18.9681 2.01653 19.0009C1.97117 19.0337 1.9167 19.0516 1.86071 19.052ZM3.95347 13.9305C3.99044 13.9511 4.03175 13.9628 4.07406 13.9645C4.1243 13.9621 4.17287 13.9458 4.21428 13.9172C4.25568 13.8886 4.28826 13.849 4.30832 13.8029L4.62875 13.0407C4.63958 12.9801 4.62928 12.9175 4.59958 12.8636C4.56989 12.8096 4.52259 12.7674 4.46557 12.7441C4.40856 12.7208 4.34527 12.7177 4.28628 12.7354C4.22728 12.7531 4.17614 12.7905 4.14138 12.8414L3.83172 13.6036C3.81729 13.6434 3.81245 13.6861 3.81759 13.7281C3.82274 13.7702 3.83773 13.8104 3.86134 13.8456C3.88495 13.8807 3.91651 13.9098 3.95347 13.9305ZM7.30528 15.9791C7.36448 17.1103 7.48825 18.3357 7.57452 19.1437C10.4472 19.2235 15.4354 19.8386 16.5051 19.9738C16.6384 19.9907 16.7108 20.0001 16.7108 20.0001L8.34726 3.28564L0 20.0001C0 20.0001 0.0758978 19.9839 0.214513 19.956C1.06529 19.7846 4.27868 19.1703 6.80717 19.1355C6.84236 19.135 6.87816 19.1349 6.91452 19.1349C6.95716 19.1349 7.00059 19.1351 7.04475 19.1354H7.04495L7.08717 19.1356C7.08326 19.0782 7.0795 19.0208 7.07589 18.9633C6.997 17.7097 6.98731 16.4528 7.04681 15.198C7.07617 14.749 7.11679 14.2623 7.16338 13.7679C7.36442 11.6347 7.67677 9.359 7.67677 9.359C7.67677 9.359 7.43765 11.7293 7.3352 13.7801C7.2926 14.6328 7.27363 15.4302 7.30528 15.9791ZM7.67677 9.359L7.50616 9.33559C7.51893 9.24255 7.60388 9.1769 7.69712 9.188C7.79037 9.1991 7.85753 9.28286 7.84811 9.37629L7.67677 9.359ZM6.9033 18.9627C6.82468 17.7065 6.81518 16.4471 6.87479 15.1899L6.87497 15.1868C6.9533 13.989 7.11124 12.5256 7.24931 11.3634C7.31839 10.7819 7.38258 10.2751 7.42951 9.91361C7.45298 9.73287 7.47213 9.58845 7.48542 9.48917C7.49206 9.43953 7.49724 9.40118 7.50077 9.37522L7.50614 9.33576L7.50616 9.33559C7.50616 9.33559 7.50616 9.33559 7.67677 9.359C7.84811 9.37629 7.84811 9.37629 7.84811 9.37629L7.84809 9.37648L7.84278 9.42975C7.83931 9.46488 7.83423 9.5167 7.82779 9.58334C7.81493 9.71663 7.79665 9.90921 7.77506 10.1462C7.73187 10.6201 7.67541 11.2715 7.62233 11.981C7.51583 13.4044 7.42407 15.0479 7.4772 15.9692L7.47726 15.9701C7.53266 17.0289 7.645 18.172 7.7299 18.9762C9.34166 19.0298 11.5496 19.2377 13.3726 19.4344C14.3137 19.5359 15.1536 19.6346 15.7583 19.708C16.0265 19.7405 16.2484 19.768 16.4124 19.7886L8.34741 3.67077L0.31192 19.7609C0.399419 19.7436 0.501964 19.7236 0.617861 19.7015C1.0277 19.6234 1.60475 19.5188 2.27401 19.4129C3.61084 19.2014 5.3222 18.9837 6.8048 18.9633M6.9033 18.9627C6.87013 18.9627 6.83725 18.9629 6.8048 18.9633L6.9033 18.9627Z" fill="black"/>
<path fill-rule="evenodd" clip-rule="evenodd" d="M19.7135 15.8816L8.34766 3.28516L16.7031 19.9969C16.8885 19.046 17.1756 18.1178 17.5593 17.2282C18.0979 16.194 19.7135 15.8816 19.7135 15.8816ZM14.0346 12.7682L12.6721 9.35851L15.1117 12.0383C14.9052 12.0658 14.7054 12.1306 14.522 12.2295C14.3295 12.3795 14.1646 12.5617 14.0346 12.7682ZM17.6725 16.3016C17.6197 16.2975 17.5692 16.2778 17.5275 16.2451C17.4858 16.2124 17.4546 16.1682 17.4379 16.1178C17.4213 16.0675 17.4198 16.0134 17.4338 15.9622C17.4477 15.9111 17.4764 15.8652 17.5164 15.8303C17.5696 15.7881 17.621 15.7533 17.6661 15.7227L17.6662 15.7227C17.6758 15.7161 17.6851 15.7098 17.6941 15.7037C17.7534 15.6677 17.8243 15.6561 17.8921 15.6711C17.9598 15.6862 18.0191 15.7268 18.0576 15.7845C18.0927 15.8436 18.1039 15.9139 18.0889 15.981C18.0739 16.0481 18.0338 16.1069 17.9768 16.1454C17.9374 16.1701 17.8934 16.2015 17.8429 16.2376L17.8287 16.2477C17.7845 16.2832 17.7293 16.3023 17.6725 16.3016ZM16.3336 18.4114C16.3801 18.4614 16.4439 18.4919 16.512 18.4967C16.577 18.4937 16.6388 18.4672 16.6858 18.4221C16.7329 18.3771 16.762 18.3165 16.7678 18.2516C16.7925 17.6564 17.0173 17.087 17.4059 16.6356C17.4387 16.6118 17.4657 16.5809 17.4848 16.5453C17.504 16.5096 17.5149 16.4701 17.5166 16.4296C17.5184 16.3892 17.5111 16.3488 17.4951 16.3116C17.4791 16.2744 17.455 16.2412 17.4245 16.2147C17.3939 16.1881 17.3578 16.1687 17.3187 16.158C17.2797 16.1473 17.2387 16.1456 17.1989 16.1529C17.1591 16.1602 17.1214 16.1764 17.0888 16.2003C17.0561 16.2242 17.0292 16.2552 17.0101 16.2909C16.8933 16.4265 16.7879 16.5715 16.6951 16.7245C16.4279 17.1816 16.2788 17.6981 16.2615 18.2274C16.2614 18.2956 16.2871 18.3614 16.3336 18.4114ZM19.7135 15.8816C19.7135 15.8816 19.6415 15.8955 19.5227 15.9272C19.0792 16.0457 17.9842 16.4124 17.5593 17.2282C17.2124 18.0325 16.9445 18.8684 16.7592 19.7241C16.7396 19.8148 16.7208 19.9058 16.7031 19.9969L8.34766 3.28516L19.7135 15.8816ZM19.3938 15.7843L9.06767 4.34019L16.6374 19.4805C16.8223 18.6861 17.0779 17.9095 17.4012 17.16C17.4029 17.1562 17.4047 17.1524 17.4066 17.1487C17.7034 16.5788 18.2865 16.2218 18.769 16.0095C19.0078 15.9044 19.2294 15.8314 19.3938 15.7843Z" fill="black"/>
<path fill-rule="evenodd" clip-rule="evenodd" d="M8.30471 6.19712C8.33994 6.19712 8.36948 6.15279 8.36948 6.09823V2.70882H12.3239C12.0417 1.81285 12.0674 1.12504 12.3239 0.174777H8.36948V0.0988903C8.36948 0.0443301 8.33994 0 8.30471 0H8.28084C8.24561 0 8.21606 0.0443301 8.21606 0.0988903V6.09823C8.21606 6.15279 8.24561 6.19712 8.28084 6.19712H8.30471Z" fill="black"/>
</svg>
