<?xml version="1.0" encoding="UTF-8"?>
<svg xmlns="http://www.w3.org/2000/svg" xmlns:xlink="http://www.w3.org/1999/xlink" width="25px" height="38px" viewBox="0 0 25 37" version="1.1">
<g id="surface1">
<path style=" stroke:none;fill-rule:nonzero;fill:rgb(0%,0%,0%);fill-opacity:1;" d="M 10.519531 0.566406 C 8.488281 1.183594 6.769531 3.648438 6.769531 6.011719 C 6.769531 6.886719 6.5625 7.8125 6.25 7.964844 C 5.574219 8.375 5.574219 10.945312 6.300781 11.664062 C 6.5625 11.921875 6.769531 13.207031 6.667969 14.441406 C 6.5625 16.238281 6.25 16.804688 5.207031 17.316406 C 3.855469 17.984375 2.082031 19.835938 2.082031 20.605469 C 2.082031 20.863281 6.769531 21.070312 12.5 21.070312 C 18.230469 21.070312 22.917969 20.914062 22.917969 20.660156 C 22.917969 19.835938 21.199219 17.933594 19.738281 17.214844 C 18.4375 16.496094 18.230469 16.136719 18.230469 14.132812 C 18.230469 12.898438 18.4375 11.714844 18.75 11.5625 C 19.0625 11.410156 19.269531 10.585938 19.269531 9.765625 C 19.269531 8.941406 19.0625 8.121094 18.75 7.964844 C 18.488281 7.8125 18.230469 6.9375 18.230469 6.117188 C 18.230469 2.054688 14.582031 -0.566406 10.519531 0.566406 Z M 15.15625 1.542969 C 15.675781 1.851562 16.144531 2.3125 16.144531 2.621094 C 16.144531 2.929688 15.78125 2.929688 15.15625 2.570312 C 14.582031 2.3125 13.386719 2.054688 12.5 2.054688 C 11.613281 2.054688 10.417969 2.3125 9.84375 2.570312 C 9.21875 2.929688 8.855469 2.929688 8.855469 2.621094 C 8.855469 1.234375 13.125 0.515625 15.15625 1.542969 Z M 13.90625 8.066406 C 17.292969 9.558594 18.074219 10.84375 16.511719 12.4375 C 16.144531 12.796875 15.675781 13.515625 15.46875 14.027344 C 15.3125 14.492188 14.53125 15.160156 13.800781 15.519531 C 10.363281 17.0625 6.355469 11.355469 8.332031 7.65625 C 9.0625 6.320312 10.105469 6.421875 13.90625 8.066406 Z M 11.199219 16.035156 C 12.1875 16.445312 12.8125 16.445312 13.90625 15.980469 C 15.050781 15.46875 15.417969 15.519531 16.09375 16.1875 C 16.875 16.957031 16.824219 17.0625 15.886719 17.78125 C 13.75 19.320312 11.25 19.320312 9.113281 17.832031 C 8.28125 17.164062 8.230469 16.957031 8.800781 16.238281 C 9.636719 15.261719 9.53125 15.261719 11.199219 16.035156 Z M 11.199219 16.035156 "/>
<path style=" stroke:none;fill-rule:nonzero;fill:rgb(0%,0%,0%);fill-opacity:1;" d="M 11.875 13.976562 C 12.292969 14.390625 12.761719 14.390625 13.644531 13.976562 C 14.792969 13.464844 14.738281 13.414062 13.074219 13.414062 C 11.667969 13.359375 11.40625 13.515625 11.875 13.976562 Z M 11.875 13.976562 "/>
<path style=" stroke:none;fill-rule:nonzero;fill:rgb(0%,0%,0%);fill-opacity:1;" d="M 0.625 22.867188 C 0.261719 23.585938 1.5625 32.785156 2.34375 34.839844 C 2.65625 35.765625 22.34375 35.765625 22.65625 34.789062 C 22.8125 34.480469 23.332031 31.757812 23.855469 28.878906 C 24.6875 24.308594 24.738281 23.433594 24.113281 22.816406 C 22.96875 21.6875 1.300781 21.738281 0.625 22.867188 Z M 17.394531 25.179688 C 21.042969 26.515625 20.832031 30.523438 16.980469 32.324219 C 12.1875 34.636719 6.199219 32.941406 5 28.933594 C 4.53125 27.441406 6.511719 25.230469 8.855469 24.667969 C 10.886719 24.152344 15.417969 24.410156 17.394531 25.179688 Z M 17.394531 25.179688 "/>
<path style=" stroke:none;fill-rule:nonzero;fill:rgb(0%,0%,0%);fill-opacity:1;" d="M 8.332031 25.539062 C 7.292969 25.898438 5.730469 27.289062 5.730469 27.851562 C 5.730469 28.726562 8.175781 28.210938 9.269531 27.082031 C 10.9375 25.335938 10.574219 24.71875 8.332031 25.539062 Z M 8.332031 25.539062 "/>
<path style=" stroke:none;fill-rule:nonzero;fill:rgb(0%,0%,0%);fill-opacity:1;" d="M 12.5 25.539062 C 12.917969 25.746094 14.011719 26.414062 14.894531 27.082031 C 16.511719 28.265625 19.269531 28.726562 19.269531 27.75 C 19.269531 26.722656 15.886719 25.179688 13.800781 25.230469 C 12.65625 25.230469 12.082031 25.386719 12.5 25.539062 Z M 12.5 25.539062 "/>
<path style=" stroke:none;fill-rule:nonzero;fill:rgb(0%,0%,0%);fill-opacity:1;" d="M 7.449219 36.847656 C 10.261719 36.949219 14.6875 36.949219 17.34375 36.847656 C 20 36.792969 17.707031 36.691406 12.238281 36.691406 C 6.824219 36.691406 4.636719 36.792969 7.449219 36.847656 Z M 7.449219 36.847656 "/>
</g>
</svg>
