<svg width="115" height="115" viewBox="0 0 115 115" fill="none" xmlns="http://www.w3.org/2000/svg">
<g clip-path="url(#clip0_3355_6010)">
<path d="M96.83 0H18.17C8.13499 0 0 8.13499 0 18.17V96.83C0 106.865 8.13499 115 18.17 115H96.83C106.865 115 115 106.865 115 96.83V18.17C115 8.13499 106.865 0 96.83 0Z" fill="#25BFEF"/>
<mask id="mask0_3355_6010" style="mask-type:luminance" maskUnits="userSpaceOnUse" x="0" y="0" width="115" height="115">
<path d="M96.83 0H18.17C8.13499 0 0 8.13499 0 18.17V96.83C0 106.865 8.13499 115 18.17 115H96.83C106.865 115 115 106.865 115 96.83V18.17C115 8.13499 106.865 0 96.83 0Z" fill="white"/>
</mask>
<g mask="url(#mask0_3355_6010)">
<path opacity="0.3" d="M-2.42261 124.307C12.6347 120.811 46.6287 110.798 77.6174 80.8371C106.153 53.2525 117.622 22.8005 122.13 8.0498C124.323 47.6098 126.5 87.1698 128.693 126.73L-2.40727 124.307H-2.42261Z" fill="white"/>
</g>
<path d="M101.844 26.5269V83.9196H98.8846C67.9266 83.9196 61.4253 91.0189 60.444 92.4142H54.5866C53.682 91.0802 47.3033 83.9196 16.1 83.9196H13.1406V26.5269H16.1C17.342 26.5269 18.5073 26.5422 19.6726 26.5729V22.6016H20.976C46.276 22.6016 54.7553 28.6582 57.5 31.9242C60.2293 28.6582 68.724 22.6016 94.024 22.6016H95.3273V26.5729C96.4926 26.5422 97.658 26.5269 98.9 26.5269H101.859H101.844ZM92.0613 74.1369V25.8829C65.504 26.2356 60.1986 33.4576 59.4473 34.7762V81.3282C63.8173 78.1082 72.956 74.3822 92.0613 74.1369ZM55.5526 81.3282V34.7609C54.8626 33.5649 49.6953 26.2356 22.9386 25.8982V74.1522C42.044 74.3976 51.1826 78.1236 55.5526 81.3436V81.3282Z" fill="#1A50A0"/>
<path d="M92.0613 25.8828V74.1368C72.9559 74.3821 63.8173 78.1081 59.4473 81.3281V34.7761C60.1833 33.4728 65.5039 26.2355 92.0613 25.8828Z" fill="white"/>
<path d="M55.5527 34.7457V81.313C51.1827 78.093 42.0441 74.367 22.9387 74.1217V25.8677C49.6954 26.2203 54.8627 33.5497 55.5527 34.7303V34.7457Z" fill="white"/>
<path d="M39.8514 70.0579C39.6981 70.2112 39.4834 70.3032 39.2534 70.3032C38.9774 70.3032 38.7014 70.1652 38.5481 69.9352L35.7728 65.8259C35.6808 65.6879 35.6348 65.5192 35.6348 65.3506V41.0626C35.6348 40.5872 36.0181 40.2192 36.4781 40.2192H42.0288C42.5041 40.2192 42.8721 40.6026 42.8721 41.0626V65.3506C42.8721 65.5192 42.8261 65.6879 42.7188 65.8259L39.9434 69.9352C39.9434 69.9352 39.8821 70.0272 39.8361 70.0579H39.8514ZM37.3214 65.0746L39.2534 67.9266L41.1854 65.0746V41.9059H37.3368V65.0746H37.3214Z" fill="#1A50A0"/>
<path d="M42.6268 38.8855C42.4734 39.0388 42.2588 39.1308 42.0288 39.1308H36.4781C36.0028 39.1308 35.6348 38.7475 35.6348 38.2875V34.9908C35.6348 34.5155 36.0181 34.1475 36.4781 34.1475H42.0288C42.5041 34.1475 42.8721 34.5308 42.8721 34.9908V38.2875C42.8721 38.5175 42.7801 38.7321 42.6268 38.8855ZM37.3214 37.4288H41.1701V35.8341H37.3214V37.4288Z" fill="#1A50A0"/>
<path d="M42.6268 65.9335C42.4734 66.0868 42.2588 66.1788 42.0288 66.1788H36.4781C36.0028 66.1788 35.6348 65.7955 35.6348 65.3355C35.6348 64.8755 36.0181 64.4922 36.4781 64.4922H42.0288C42.5041 64.4922 42.8721 64.8755 42.8721 65.3355C42.8721 65.5655 42.7801 65.7802 42.6268 65.9335Z" fill="#1A50A0"/>
</g>
<defs>
<clipPath id="clip0_3355_6010">
<rect width="115" height="115" fill="white"/>
</clipPath>
</defs>
</svg>
