<svg width="115" height="115" viewBox="0 0 115 115" fill="none" xmlns="http://www.w3.org/2000/svg">
<g clip-path="url(#clip0_3351_6283)">
<path d="M96.83 0H18.17C8.13499 0 0 8.13499 0 18.17V96.83C0 106.865 8.13499 115 18.17 115H96.83C106.865 115 115 106.865 115 96.83V18.17C115 8.13499 106.865 0 96.83 0Z" fill="#1A50A0"/>
<mask id="mask0_3351_6283" style="mask-type:luminance" maskUnits="userSpaceOnUse" x="0" y="0" width="115" height="115">
<path d="M96.83 0H18.17C8.13499 0 0 8.13499 0 18.17V96.83C0 106.865 8.13499 115 18.17 115H96.83C106.865 115 115 106.865 115 96.83V18.17C115 8.13499 106.865 0 96.83 0Z" fill="white"/>
</mask>
<g mask="url(#mask0_3351_6283)">
<path opacity="0.3" d="M-2.42261 124.307C12.6347 120.811 46.6287 110.798 77.6174 80.8371C106.153 53.2525 117.622 22.8005 122.13 8.0498C124.323 47.6098 126.5 87.1698 128.693 126.73L-2.40727 124.307H-2.42261Z" fill="white"/>
</g>
<path d="M11.8373 90.6355V57.1475H6.6853V90.6355C6.6853 100.265 12.788 108.1 20.286 108.1H36.938V101.476H20.286C15.6246 101.476 11.8373 96.6155 11.8373 90.6355Z" fill="#FFD400"/>
<path d="M103.086 90.6355C103.086 96.6155 99.2987 101.476 94.6373 101.476H76.406V108.1H94.6373C102.135 108.1 108.238 100.265 108.238 90.6355V57.1475H103.086V90.6355Z" fill="#FFD400"/>
<path d="M94.6373 6.8999H20.286C12.788 6.8999 6.6853 14.7352 6.6853 24.3646V27.8299H11.8373V24.3646C11.8373 18.3846 15.6246 13.5239 20.286 13.5239H94.6373C99.2986 13.5239 103.086 18.3846 103.086 24.3646V27.8299H108.238V24.3646C108.238 14.7352 102.135 6.8999 94.6373 6.8999Z" fill="#FFD400"/>
<path d="M48.9747 101.461C47.4873 101.399 46.2607 102.963 46.3067 104.88C46.3527 106.613 47.4567 108.023 48.806 108.085C50.2933 108.146 51.52 106.582 51.474 104.665C51.428 102.933 50.324 101.522 48.9747 101.461Z" fill="#FFD400"/>
<path d="M59.3371 104.773C59.34 102.944 58.189 101.459 56.7663 101.457C55.3437 101.454 54.188 102.935 54.1851 104.765C54.1823 106.594 55.3332 108.078 56.7559 108.081C58.1786 108.083 59.3343 106.602 59.3371 104.773Z" fill="#FFD400"/>
<path d="M67.2002 104.773C67.203 102.944 66.0521 101.459 64.6294 101.457C63.2067 101.454 62.051 102.935 62.0482 104.765C62.0453 106.594 63.1963 108.078 64.619 108.081C66.0417 108.083 67.1973 106.602 67.2002 104.773Z" fill="#FFD400"/>
<path d="M41.1087 101.461C39.6214 101.399 38.3947 102.963 38.4407 104.88C38.4867 106.613 39.5907 108.023 40.94 108.085C42.4274 108.146 43.654 106.582 43.608 104.665C43.562 102.933 42.458 101.522 41.1087 101.461Z" fill="#FFD400"/>
<path d="M72.588 101.461C71.1006 101.399 69.874 102.963 69.92 104.88C69.966 106.613 71.07 108.023 72.4193 108.085C73.9066 108.146 75.1333 106.582 75.0873 104.665C75.0413 102.933 73.9373 101.522 72.588 101.461Z" fill="#FFD400"/>
<path d="M11.5767 49.7105C11.3774 49.7105 11.1781 49.6186 11.0247 49.4192L5.84206 42.7799C5.68873 42.5959 5.61206 42.3352 5.61206 42.0746C5.61206 41.8139 5.68873 41.5532 5.84206 41.3692L11.0247 34.7299C11.3314 34.3465 11.8221 34.3465 12.1287 34.7299C12.4354 35.1132 12.4354 35.7572 12.1287 36.1405L7.49806 42.0746L12.1287 48.0085C12.4354 48.3919 12.4354 49.0359 12.1287 49.4192C11.9754 49.6186 11.7761 49.7105 11.5767 49.7105Z" fill="#FFD400"/>
<path d="M103.423 49.7105C103.224 49.7105 103.025 49.6185 102.871 49.4192C102.565 49.0359 102.565 48.3919 102.871 48.0085L107.502 42.0745L102.871 36.1405C102.565 35.7572 102.565 35.1132 102.871 34.7299C103.178 34.3465 103.669 34.3465 103.975 34.7299L109.158 41.3692C109.311 41.5532 109.388 41.8139 109.388 42.0745C109.388 42.3352 109.311 42.5959 109.158 42.7799L103.975 49.4192C103.822 49.6185 103.623 49.7105 103.423 49.7105Z" fill="#FFD400"/>
<path d="M22.7548 46.6286L26.4808 62.6519C27.3548 66.3932 30.8048 68.9539 34.6381 68.6932L51.9954 67.5279C56.3348 67.2366 59.6008 63.4646 59.2788 59.1406L57.9755 41.3846C57.6381 36.8459 53.5288 33.5492 49.0208 34.2086L29.2408 37.1219C24.7021 37.7812 21.7121 42.1819 22.7548 46.6439V46.6286Z" fill="#44B549"/>
<path d="M42.7954 67.5279L49.5574 75.4092V65.7339L42.7954 67.5279Z" fill="#44B549"/>
<path d="M42.9949 43.0715L47.9169 42.1055L45.1262 61.8241L40.4189 62.7441L30.4675 45.5248L35.3895 44.5588L41.7835 56.9481L43.0102 43.0715H42.9949Z" fill="white"/>
<path d="M62.6368 71.745L54.8015 80.8837V69.6597L62.6368 71.745Z" fill="#EE3D51"/>
<path d="M22.7702 46.6288L26.4962 62.6368C27.3702 66.3781 30.8202 68.9388 34.6535 68.6781L52.0109 67.5128C56.3502 67.2214 59.6162 63.4494 59.2942 59.1254L57.9909 41.3694C57.6535 36.8308 53.5442 33.5341 49.0362 34.1934L29.2715 37.1068C24.7329 37.7661 21.7429 42.1668 22.7855 46.6288H22.7702Z" fill="#02AD4B"/>
<path d="M42.8108 67.5279L49.5575 75.4092V65.7339L42.8108 67.5279Z" fill="#02AD4B"/>
<path d="M90.8501 41.584C89.3934 39.4526 87.1087 38.0113 84.5481 37.6433L61.6094 34.27C59.0334 33.8866 56.5034 34.5766 54.4794 36.202C52.4554 37.8273 51.2287 40.1426 51.0447 42.734L49.5267 63.342C49.3427 65.8106 50.1401 68.218 51.7654 70.0886C53.3907 71.9593 55.6447 73.094 58.1287 73.2473L78.2614 74.612C78.4761 74.612 78.6754 74.6273 78.8747 74.6273C80.8527 74.6273 82.7847 73.9986 84.3794 72.818C86.1427 71.5146 87.3847 69.6133 87.8907 67.482L92.2147 48.898C92.7974 46.3833 92.3067 43.7306 90.8501 41.5993V41.584Z" fill="#EC1C24"/>
<path d="M42.9949 43.0866L47.9169 42.1206L45.1262 61.8393L40.4189 62.7593L30.4675 45.5399L35.3895 44.5739L41.7835 56.9479L43.0102 43.0713L42.9949 43.0866Z" fill="white"/>
<path d="M62.6368 71.745L54.8015 80.8837V69.6597L62.6368 71.745Z" fill="#EC1C24"/>
<path d="M82.4168 46.046L79.5955 65.274L74.9955 64.5993L77.3108 50.9526L77.6482 49.0206L77.3875 49.68C76.9888 50.738 76.9428 50.8606 76.5902 51.658L71.0702 64.032L66.9302 63.4186L65.2588 50.5386L64.9215 46.9813C64.7835 48.5146 64.7375 48.852 64.5382 50.6766L63.0048 62.836L58.3435 62.146L61.1648 42.918L68.1875 43.9453L69.5522 55.154L69.7822 58.328C70.2575 57.04 70.3035 56.902 70.6408 56.028L75.4095 44.988L82.4015 46.0153L82.4168 46.046Z" fill="white"/>
</g>
<defs>
<clipPath id="clip0_3351_6283">
<rect width="115" height="115" fill="white"/>
</clipPath>
</defs>
</svg>
