<svg width="18" height="18" viewBox="0 0 18 18" fill="none" xmlns="http://www.w3.org/2000/svg">
<path d="M5.25 6.7498H0.75C0.551088 6.7498 0.360322 6.67078 0.21967 6.53013C0.0790178 6.38947 0 6.19871 0 5.9998V1.4998C0 1.30088 0.0790178 1.11012 0.21967 0.969466C0.360322 0.828813 0.551088 0.749796 0.75 0.749796C0.948912 0.749796 1.13968 0.828813 1.28033 0.969466C1.42098 1.11012 1.5 1.30088 1.5 1.4998V4.18948L2.87156 2.81792C4.54426 1.1368 6.816 0.188588 9.1875 0.18167H9.23719C11.5885 0.175613 13.8476 1.09614 15.525 2.74386C15.662 2.88398 15.7387 3.07213 15.7387 3.26808C15.7387 3.46402 15.662 3.65218 15.5251 3.79231C15.3881 3.93245 15.2018 4.01342 15.0059 4.01792C14.81 4.02241 14.6201 3.95007 14.4769 3.81636C13.0787 2.44393 11.1964 1.67708 9.23719 1.68167H9.195C7.21892 1.68775 5.32601 2.47776 3.93188 3.87823L2.56031 5.2498H5.25C5.44891 5.2498 5.63968 5.32881 5.78033 5.46947C5.92098 5.61012 6 5.80088 6 5.9998C6 6.19871 5.92098 6.38947 5.78033 6.53013C5.63968 6.67078 5.44891 6.7498 5.25 6.7498ZM17.25 11.2498H12.75C12.5511 11.2498 12.3603 11.3288 12.2197 11.4695C12.079 11.6101 12 11.8009 12 11.9998C12 12.1987 12.079 12.3895 12.2197 12.5301C12.3603 12.6708 12.5511 12.7498 12.75 12.7498H15.4397L14.0681 14.1214C12.6742 15.5216 10.7817 16.3116 8.80594 16.3179H8.76375C6.80454 16.3225 4.92227 15.5557 3.52406 14.1832C3.45421 14.1118 3.37077 14.055 3.27866 14.0162C3.18655 13.9775 3.08762 13.9575 2.98769 13.9575C2.88775 13.9575 2.78883 13.9775 2.69672 14.0162C2.60461 14.055 2.52119 14.1118 2.45134 14.1833C2.38149 14.2548 2.32663 14.3395 2.28998 14.4324C2.25333 14.5254 2.23563 14.6248 2.23793 14.7247C2.24022 14.8246 2.26245 14.923 2.30333 15.0142C2.3442 15.1054 2.40289 15.1875 2.47594 15.2557C4.15338 16.9035 6.41242 17.824 8.76375 17.8179H8.8125C11.1837 17.8108 13.455 16.8626 15.1275 15.1817L16.5 13.8101V16.4998C16.5 16.6987 16.579 16.8895 16.7197 17.0301C16.8603 17.1708 17.0511 17.2498 17.25 17.2498C17.4489 17.2498 17.6397 17.1708 17.7803 17.0301C17.921 16.8895 18 16.6987 18 16.4998V11.9998C18 11.8009 17.921 11.6101 17.7803 11.4695C17.6397 11.3288 17.4489 11.2498 17.25 11.2498Z" fill="#C7C7C7"/>
</svg>
