<svg width="52" height="52" viewBox="0 0 52 52" fill="none" xmlns="http://www.w3.org/2000/svg">
<g clip-path="url(#clip0_3039_51530)">
<path d="M43.784 0H8.216C3.67843 0 0 3.67843 0 8.216V43.784C0 48.3216 3.67843 52 8.216 52H43.784C48.3216 52 52 48.3216 52 43.784V8.216C52 3.67843 48.3216 0 43.784 0Z" fill="#1A50A0"/>
<mask id="mask0_3039_51530" style="mask-type:luminance" maskUnits="userSpaceOnUse" x="0" y="0" width="52" height="52">
<path d="M43.784 0H8.216C3.67843 0 0 3.67843 0 8.216V43.784C0 48.3216 3.67843 52 8.216 52H43.784C48.3216 52 52 48.3216 52 43.784V8.216C52 3.67843 48.3216 0 43.784 0Z" fill="white"/>
</mask>
<g mask="url(#mask0_3039_51530)">
<path opacity="0.3" d="M-1.0957 56.2084C5.71283 54.6276 21.084 50.1002 35.0963 36.5524C47.9992 24.0794 53.1854 10.3098 55.2238 3.63989C56.2152 21.5279 57.1998 39.4159 58.1912 57.3039L-1.08877 56.2084H-1.0957Z" fill="white"/>
</g>
<path d="M5.35255 40.983V25.8406H3.02295V40.983C3.02295 45.3371 5.78242 48.88 9.17282 48.88H16.7024V45.8848H9.17282C7.06508 45.8848 5.35255 43.687 5.35255 40.983Z" fill="#FFD400"/>
<path d="M46.6128 40.983C46.6128 43.687 44.9003 45.8848 42.7926 45.8848H34.5488V48.88H42.7926C46.183 48.88 48.9424 45.3371 48.9424 40.983V25.8406H46.6128V40.983Z" fill="#FFD400"/>
<path d="M42.7925 3.12012H9.17282C5.78242 3.12012 3.02295 6.66305 3.02295 11.0172V12.5841H5.35255V11.0172C5.35255 8.31318 7.06508 6.11532 9.17282 6.11532H42.7925C44.9003 6.11532 46.6128 8.31318 46.6128 11.0172V12.5841H48.9424V11.0172C48.9424 6.66305 46.1829 3.12012 42.7925 3.12012Z" fill="#FFD400"/>
<path d="M22.145 45.878C21.4724 45.8503 20.9178 46.5575 20.9386 47.4241C20.9594 48.2076 21.4586 48.8455 22.0687 48.8732C22.7412 48.9009 23.2959 48.1937 23.2751 47.3271C23.2543 46.5436 22.7551 45.9057 22.145 45.878Z" fill="#FFD400"/>
<path d="M26.8305 47.3757C26.8318 46.5486 26.3113 45.8773 25.668 45.8763C25.0247 45.8753 24.5022 46.5449 24.5009 47.372C24.4996 48.1991 25.02 48.8704 25.6633 48.8715C26.3066 48.8725 26.8292 48.2028 26.8305 47.3757Z" fill="#FFD400"/>
<path d="M30.3861 47.3757C30.3874 46.5486 29.867 45.8773 29.2237 45.8763C28.5804 45.8753 28.0579 46.5449 28.0566 47.372C28.0553 48.1991 28.5757 48.8704 29.219 48.8715C29.8623 48.8725 30.3849 48.2028 30.3861 47.3757Z" fill="#FFD400"/>
<path d="M18.5883 45.878C17.9158 45.8503 17.3611 46.5575 17.3819 47.4241C17.4027 48.2076 17.9019 48.8455 18.512 48.8732C19.1846 48.9009 19.7392 48.1937 19.7184 47.3271C19.6976 46.5436 19.1984 45.9057 18.5883 45.878Z" fill="#FFD400"/>
<path d="M32.8222 45.878C32.1497 45.8503 31.595 46.5575 31.6158 47.4241C31.6366 48.2076 32.1358 48.8455 32.7459 48.8732C33.4185 48.9009 33.9731 48.1937 33.9523 47.3271C33.9315 46.5436 33.4323 45.9057 32.8222 45.878Z" fill="#FFD400"/>
<path d="M5.23466 22.4781C5.14453 22.4781 5.0544 22.4365 4.98506 22.3464L2.6416 19.3442C2.57226 19.261 2.5376 19.1432 2.5376 19.0253C2.5376 18.9074 2.57226 18.7896 2.6416 18.7064L4.98506 15.7042C5.12373 15.5309 5.3456 15.5309 5.48426 15.7042C5.62293 15.8776 5.62293 16.1688 5.48426 16.3421L3.3904 19.0253L5.48426 21.7085C5.62293 21.8818 5.62293 22.173 5.48426 22.3464C5.41493 22.4365 5.3248 22.4781 5.23466 22.4781Z" fill="#FFD400"/>
<path d="M46.7652 22.4781C46.6751 22.4781 46.585 22.4365 46.5156 22.3464C46.377 22.173 46.377 21.8818 46.5156 21.7085L48.6095 19.0253L46.5156 16.3421C46.377 16.1688 46.377 15.8776 46.5156 15.7042C46.6543 15.5309 46.8762 15.5309 47.0148 15.7042L49.3583 18.7064C49.4276 18.7896 49.4623 18.9074 49.4623 19.0253C49.4623 19.1432 49.4276 19.261 49.3583 19.3442L47.0148 22.3464C46.9455 22.4365 46.8554 22.4781 46.7652 22.4781Z" fill="#FFD400"/>
<path d="M10.2888 21.0842L11.9736 28.3295C12.3688 30.0213 13.9288 31.1791 15.6622 31.0613L23.5107 30.5343C25.4728 30.4026 26.9496 28.697 26.804 26.7418L26.2147 18.713C26.0622 16.6607 24.204 15.1701 22.1656 15.4682L13.2216 16.7855C11.1694 17.0837 9.81737 19.0735 10.2888 21.0911V21.0842Z" fill="#44B549"/>
<path d="M19.3506 30.5343L22.4082 34.0981V29.7231L19.3506 30.5343Z" fill="#44B549"/>
<path d="M19.4409 19.4759L21.6665 19.0391L20.4046 27.9553L18.2761 28.3713L13.7764 20.5852L16.002 20.1484L18.8932 25.7505L19.4478 19.4759H19.4409Z" fill="white"/>
<path d="M28.3222 32.441L24.7793 36.5732V31.498L28.3222 32.441Z" fill="#EE3D51"/>
<path d="M10.2956 21.0843L11.9804 28.3227C12.3756 30.0144 13.9356 31.1723 15.6689 31.0544L23.5174 30.5275C25.4796 30.3958 26.9564 28.6902 26.8108 26.735L26.2214 18.7061C26.0689 16.6539 24.2108 15.1632 22.1724 15.4613L13.2353 16.7787C11.183 17.0768 9.83104 19.0667 10.3025 21.0843H10.2956Z" fill="#02AD4B"/>
<path d="M19.3574 30.5343L22.4081 34.0981V29.7231L19.3574 30.5343Z" fill="#02AD4B"/>
<path d="M41.0799 18.8032C40.4212 17.8395 39.3882 17.1877 38.2303 17.0213L27.858 15.496C26.6932 15.3227 25.5492 15.6347 24.634 16.3696C23.7188 17.1045 23.1642 18.1515 23.081 19.3232L22.3946 28.6416C22.3114 29.7579 22.6719 30.8464 23.4068 31.6923C24.1418 32.5381 25.161 33.0512 26.2842 33.1205L35.3876 33.7376C35.4847 33.7376 35.5748 33.7445 35.665 33.7445C36.5594 33.7445 37.433 33.4603 38.154 32.9264C38.9514 32.3371 39.513 31.4773 39.7418 30.5136L41.697 22.1104C41.9604 20.9733 41.7386 19.7739 41.0799 18.8101V18.8032Z" fill="#EC1C24"/>
<path d="M19.4409 19.4827L21.6665 19.0459L20.4046 27.9622L18.2761 28.3782L13.7764 20.592L16.002 20.1552L18.8932 25.7504L19.4478 19.4758L19.4409 19.4827Z" fill="white"/>
<path d="M28.3222 32.441L24.7793 36.5732V31.498L28.3222 32.441Z" fill="#EC1C24"/>
<path d="M37.2662 20.8209L35.9905 29.5153L33.9105 29.2102L34.9574 23.0396L35.1099 22.166L34.9921 22.4641C34.8118 22.9425 34.791 22.998 34.6315 23.3585L32.1355 28.9537L30.2635 28.6764L29.5078 22.8524L29.3553 21.2438C29.2929 21.9372 29.2721 22.0897 29.1819 22.9148L28.4886 28.4129L26.3809 28.1009L27.6566 19.4065L30.8321 19.871L31.4491 24.9393L31.5531 26.3745C31.7681 25.7921 31.7889 25.7297 31.9414 25.3345L34.0977 20.3425L37.2593 20.807L37.2662 20.8209Z" fill="white"/>
</g>
<defs>
<clipPath id="clip0_3039_51530">
<rect width="52" height="52" fill="white"/>
</clipPath>
</defs>
</svg>
