<svg width="14" height="15" viewBox="0 0 14 15" fill="none" xmlns="http://www.w3.org/2000/svg">
<path fill-rule="evenodd" clip-rule="evenodd" d="M14 7.5C14 11.366 10.866 14.5 7 14.5C3.13401 14.5 0 11.366 0 7.5C0 3.63401 3.13401 0.5 7 0.5C10.866 0.5 14 3.63401 14 7.5ZM4.68436 4.56564C4.5135 4.39479 4.2365 4.39479 4.06564 4.56564C3.89479 4.7365 3.89479 5.0135 4.06564 5.18436L6.38128 7.5L4.06564 9.81564C3.89479 9.9865 3.89479 10.2635 4.06564 10.4344C4.2365 10.6052 4.5135 10.6052 4.68436 10.4344L7 8.11872L9.31564 10.4344C9.4865 10.6052 9.7635 10.6052 9.93436 10.4344C10.1052 10.2635 10.1052 9.9865 9.93436 9.81564L7.61872 7.5L9.93436 5.18436C10.1052 5.0135 10.1052 4.7365 9.93436 4.56564C9.7635 4.39479 9.4865 4.39479 9.31564 4.56564L7 6.88128L4.68436 4.56564Z" fill="white"/>
</svg>
