<svg width="98" height="100" viewBox="0 0 98 100" fill="none" xmlns="http://www.w3.org/2000/svg">
<path opacity="0.2" d="M79.625 18.375V82.6875C79.625 83.4997 79.3023 84.2787 78.728 84.853C78.1537 85.4273 77.3747 85.75 76.5625 85.75H21.4375C20.6253 85.75 19.8463 85.4273 19.272 84.853C18.6977 84.2787 18.375 83.4997 18.375 82.6875V18.375C18.375 17.5628 18.6977 16.7838 19.272 16.2095C19.8463 15.6352 20.6253 15.3125 21.4375 15.3125H36.75C34.7579 17.9608 33.6828 21.1861 33.6875 24.5V27.5625H64.3125V24.5C64.3172 21.1861 63.2421 17.9608 61.25 15.3125H76.5625C77.3747 15.3125 78.1537 15.6352 78.728 16.2095C79.3023 16.7838 79.625 17.5628 79.625 18.375Z" fill="#1C51E1"/>
<path d="M64.3125 58.1875C64.3125 58.9997 63.9898 59.7787 63.4155 60.353C62.8412 60.9273 62.0622 61.25 61.25 61.25H36.75C35.9378 61.25 35.1588 60.9273 34.5845 60.353C34.0102 59.7787 33.6875 58.9997 33.6875 58.1875C33.6875 57.3753 34.0102 56.5963 34.5845 56.022C35.1588 55.4476 35.9378 55.125 36.75 55.125H61.25C62.0622 55.125 62.8412 55.4476 63.4155 56.022C63.9898 56.5963 64.3125 57.3753 64.3125 58.1875ZM61.25 42.875H36.75C35.9378 42.875 35.1588 43.1977 34.5845 43.772C34.0102 44.3463 33.6875 45.1253 33.6875 45.9375C33.6875 46.7497 34.0102 47.5287 34.5845 48.103C35.1588 48.6773 35.9378 49 36.75 49H61.25C62.0622 49 62.8412 48.6773 63.4155 48.103C63.9898 47.5287 64.3125 46.7497 64.3125 45.9375C64.3125 45.1253 63.9898 44.3463 63.4155 43.772C62.8412 43.1977 62.0622 42.875 61.25 42.875ZM82.6875 18.375V82.6875C82.6875 84.3119 82.0422 85.8699 80.8935 87.0185C79.7449 88.1672 78.187 88.8125 76.5625 88.8125H21.4375C19.813 88.8125 18.2551 88.1672 17.1065 87.0185C15.9578 85.8699 15.3125 84.3119 15.3125 82.6875V18.375C15.3125 16.7505 15.9578 15.1926 17.1065 14.044C18.2551 12.8953 19.813 12.25 21.4375 12.25H35.3183C37.039 10.3234 39.1473 8.78193 41.505 7.72652C43.8628 6.67111 46.4168 6.12555 49 6.12555C51.5832 6.12555 54.1372 6.67111 56.495 7.72652C58.8527 8.78193 60.961 10.3234 62.6817 12.25H76.5625C78.187 12.25 79.7449 12.8953 80.8935 14.044C82.0422 15.1926 82.6875 16.7505 82.6875 18.375ZM36.75 24.5H61.25C61.25 21.2511 59.9594 18.1353 57.6621 15.8379C55.3647 13.5406 52.2489 12.25 49 12.25C45.7511 12.25 42.6353 13.5406 40.3379 15.8379C38.0406 18.1353 36.75 21.2511 36.75 24.5ZM76.5625 18.375H66.3223C67.0189 20.3419 67.3749 22.4133 67.375 24.5V27.5625C67.375 28.3747 67.0523 29.1537 66.478 29.728C65.9037 30.3023 65.1247 30.625 64.3125 30.625H33.6875C32.8753 30.625 32.0963 30.3023 31.522 29.728C30.9477 29.1537 30.625 28.3747 30.625 27.5625V24.5C30.6251 22.4133 30.9811 20.3419 31.6777 18.375H21.4375V82.6875H76.5625V18.375Z" fill="#1C51E1"/>
<circle cx="79" cy="81" r="19" fill="#E91212"/>
<path opacity="0.2" d="M85.1875 74.8125V87.875C85.1875 88.0573 85.1151 88.2322 84.9861 88.3611C84.8572 88.4901 84.6823 88.5625 84.5 88.5625H73.5C73.3177 88.5625 73.1428 88.4901 73.0139 88.3611C72.8849 88.2322 72.8125 88.0573 72.8125 87.875V74.8125H85.1875Z" fill="white"/>
<path d="M86.5625 74.125H83.125V73.4375C83.125 72.8905 82.9077 72.3659 82.5209 71.9791C82.1341 71.5923 81.6095 71.375 81.0625 71.375H76.9375C76.3905 71.375 75.8659 71.5923 75.4791 71.9791C75.0923 72.3659 74.875 72.8905 74.875 73.4375V74.125H71.4375C71.2552 74.125 71.0803 74.1974 70.9514 74.3264C70.8224 74.4553 70.75 74.6302 70.75 74.8125C70.75 74.9948 70.8224 75.1697 70.9514 75.2986C71.0803 75.4276 71.2552 75.5 71.4375 75.5H72.125V87.875C72.125 88.2397 72.2699 88.5894 72.5277 88.8473C72.7856 89.1051 73.1353 89.25 73.5 89.25H84.5C84.8647 89.25 85.2144 89.1051 85.4723 88.8473C85.7301 88.5894 85.875 88.2397 85.875 87.875V75.5H86.5625C86.7448 75.5 86.9197 75.4276 87.0486 75.2986C87.1776 75.1697 87.25 74.9948 87.25 74.8125C87.25 74.6302 87.1776 74.4553 87.0486 74.3264C86.9197 74.1974 86.7448 74.125 86.5625 74.125ZM76.25 73.4375C76.25 73.2552 76.3224 73.0803 76.4514 72.9514C76.5803 72.8224 76.7552 72.75 76.9375 72.75H81.0625C81.2448 72.75 81.4197 72.8224 81.5486 72.9514C81.6776 73.0803 81.75 73.2552 81.75 73.4375V74.125H76.25V73.4375ZM84.5 87.875H73.5V75.5H84.5V87.875ZM77.625 78.9375V84.4375C77.625 84.6198 77.5526 84.7947 77.4236 84.9236C77.2947 85.0526 77.1198 85.125 76.9375 85.125C76.7552 85.125 76.5803 85.0526 76.4514 84.9236C76.3224 84.7947 76.25 84.6198 76.25 84.4375V78.9375C76.25 78.7552 76.3224 78.5803 76.4514 78.4514C76.5803 78.3224 76.7552 78.25 76.9375 78.25C77.1198 78.25 77.2947 78.3224 77.4236 78.4514C77.5526 78.5803 77.625 78.7552 77.625 78.9375ZM81.75 78.9375V84.4375C81.75 84.6198 81.6776 84.7947 81.5486 84.9236C81.4197 85.0526 81.2448 85.125 81.0625 85.125C80.8802 85.125 80.7053 85.0526 80.5764 84.9236C80.4474 84.7947 80.375 84.6198 80.375 84.4375V78.9375C80.375 78.7552 80.4474 78.5803 80.5764 78.4514C80.7053 78.3224 80.8802 78.25 81.0625 78.25C81.2448 78.25 81.4197 78.3224 81.5486 78.4514C81.6776 78.5803 81.75 78.7552 81.75 78.9375Z" fill="white"/>
</svg>
