<svg width="32" height="32" viewBox="0 0 32 32" fill="none" xmlns="http://www.w3.org/2000/svg">
<path opacity="0.2" d="M27 5V21H21V11H11V5H27Z" fill="#013BD0"/>
<path d="M27 4H11C10.7348 4 10.4804 4.10536 10.2929 4.29289C10.1054 4.48043 10 4.73478 10 5V10H5C4.73478 10 4.48043 10.1054 4.29289 10.2929C4.10536 10.4804 4 10.7348 4 11V27C4 27.2652 4.10536 27.5196 4.29289 27.7071C4.48043 27.8946 4.73478 28 5 28H21C21.2652 28 21.5196 27.8946 21.7071 27.7071C21.8946 27.5196 22 27.2652 22 27V22H27C27.2652 22 27.5196 21.8946 27.7071 21.7071C27.8946 21.5196 28 21.2652 28 21V5C28 4.73478 27.8946 4.48043 27.7071 4.29289C27.5196 4.10536 27.2652 4 27 4ZM20 26H6V12H20V26ZM26 20H22V11C22 10.7348 21.8946 10.4804 21.7071 10.2929C21.5196 10.1054 21.2652 10 21 10H12V6H26V20Z" fill="#013BD0"/>
<path d="M17.0819 17.1441L12.0819 22.1441C12.0383 22.1878 11.9866 22.2225 11.9296 22.2462C11.8726 22.2698 11.8115 22.282 11.7498 22.282C11.6881 22.282 11.6271 22.2698 11.5701 22.2462C11.5131 22.2225 11.4614 22.1878 11.4178 22.1441L9.23031 19.9566C9.1867 19.913 9.15211 19.8613 9.12852 19.8043C9.10492 19.7473 9.09277 19.6863 9.09277 19.6246C9.09277 19.5629 9.10492 19.5019 9.12852 19.4449C9.15211 19.3879 9.1867 19.3362 9.23031 19.2926C9.27391 19.249 9.32567 19.2144 9.38264 19.1908C9.43961 19.1672 9.50067 19.155 9.56234 19.155C9.624 19.155 9.68506 19.1672 9.74203 19.1908C9.799 19.2144 9.85076 19.249 9.89437 19.2926L11.7502 21.1484L16.4186 16.4809C16.5066 16.3928 16.6261 16.3433 16.7506 16.3433C16.8752 16.3433 16.9946 16.3928 17.0826 16.4809C17.1707 16.5689 17.2202 16.6884 17.2202 16.8129C17.2202 16.9374 17.1707 17.0569 17.0826 17.1449L17.0819 17.1441Z" fill="#013BD0"/>
</svg>
