<svg width="18" height="15" viewBox="0 0 18 15" fill="none" xmlns="http://www.w3.org/2000/svg">
<path d="M7.8 14.5042C8.1375 14.621 8.5 14.378 8.5 14.0273V2.41787C8.5 2.28867 8.45 2.15947 8.34375 2.07949C7.73125 1.59961 6.325 0.984375 4.5 0.984375C2.92188 0.984375 1.44688 1.39351 0.565625 1.72573C0.2125 1.86108 0 2.20562 0 2.57783V13.9689C0 14.335 0.4 14.5903 0.753125 14.4765C1.7375 14.1535 3.29688 13.7813 4.5 13.7813C5.55937 13.7813 6.96875 14.2119 7.8 14.5042ZM10.2 14.5042C11.0312 14.2119 12.4406 13.7813 13.5 13.7813C14.7031 13.7813 16.2625 14.1535 17.2469 14.4765C17.6 14.5934 18 14.335 18 13.9689V2.57783C18 2.20562 17.7875 1.86108 17.4344 1.72881C16.5531 1.39351 15.0781 0.984375 13.5 0.984375C11.675 0.984375 10.2688 1.59961 9.65625 2.07949C9.55313 2.15947 9.5 2.28867 9.5 2.41787V14.0273C9.5 14.378 9.86562 14.621 10.2 14.5042Z" fill="white"/>
</svg>
