<svg width="32" height="32" viewBox="0 0 32 32" fill="none" xmlns="http://www.w3.org/2000/svg">
<g clip-path="url(#clip0_3453_9649)">
<path d="M26.9355 0H5.06453C2.26747 0 0 2.26747 0 5.06453V26.9355C0 29.7325 2.26747 32 5.06453 32H26.9355C29.7325 32 32 29.7325 32 26.9355V5.06453C32 2.26747 29.7325 0 26.9355 0Z" fill="#FFD400"/>
<path d="M28.6294 7.21495V23.1851H27.806C19.1916 23.1851 17.3825 25.1605 17.1094 25.5488H15.4796C15.2278 25.1776 13.4529 23.1851 4.77024 23.1851H3.94678V7.21495H4.77024C5.11584 7.21495 5.44011 7.21921 5.76438 7.22775V6.12268H6.12704C13.167 6.12268 15.5265 7.80801 16.2902 8.71681C17.0497 7.80801 19.4134 6.12268 26.4534 6.12268H26.8161V7.22775C27.1404 7.21921 27.4646 7.21495 27.8102 7.21495H28.6337H28.6294ZM25.9073 20.4629V7.03575C18.5174 7.13388 17.0412 9.14348 16.8321 9.51041V22.464C18.0481 21.568 20.591 20.5312 25.9073 20.4629ZM15.7441 22.464V9.50615C15.5521 9.17335 14.1142 7.13388 6.66891 7.04001V20.4672C11.9852 20.5355 14.5281 21.5723 15.7441 22.4683V22.464Z" fill="#1A50A0"/>
<path d="M25.9072 7.03577V20.463C20.591 20.5312 18.048 21.568 16.832 22.464V9.51043C17.0368 9.14777 18.5174 7.1339 25.9072 7.03577Z" fill="white"/>
<path d="M15.7441 9.50617V22.464C14.5281 21.568 11.9852 20.5312 6.66895 20.463V7.03577C14.1143 7.1339 15.5521 9.17337 15.7441 9.5019V9.50617Z" fill="white"/>
<g clip-path="url(#clip1_3453_9649)">
<path d="M26.9355 0H5.06453C2.26747 0 0 2.26747 0 5.06453V26.9355C0 29.7325 2.26747 32 5.06453 32H26.9355C29.7325 32 32 29.7325 32 26.9355V5.06453C32 2.26747 29.7325 0 26.9355 0Z" fill="#FFD400"/>
<g opacity="0.5">
<mask id="mask0_3453_9649" style="mask-type:luminance" maskUnits="userSpaceOnUse" x="-1" y="-1" width="33" height="33">
<path d="M26.8756 -0.179199H4.98764C2.19529 -0.179199 -0.0683594 2.08445 -0.0683594 4.8768V26.7648C-0.0683594 29.5572 2.19529 31.8208 4.98764 31.8208H26.8756C29.668 31.8208 31.9316 29.5572 31.9316 26.7648V4.8768C31.9316 2.08445 29.668 -0.179199 26.8756 -0.179199Z" fill="white"/>
</mask>
<g mask="url(#mask0_3453_9649)">
<path d="M-0.742676 34.4149C3.44719 33.4421 12.9064 30.656 21.5293 22.3189C29.4696 14.6432 32.6611 6.1696 33.9155 2.06506C34.5256 13.0731 35.1315 24.0811 35.7416 35.0891L-0.738409 34.4149H-0.742676Z" fill="white"/>
</g>
</g>
<path d="M28.6294 7.21495V23.1851H27.806C19.1916 23.1851 17.3825 25.1605 17.1094 25.5488H15.4796C15.2278 25.1776 13.4529 23.1851 4.77024 23.1851H3.94678V7.21495H4.77024C5.11584 7.21495 5.44011 7.21921 5.76438 7.22775V6.12268H6.12704C13.167 6.12268 15.5265 7.80801 16.2902 8.71681C17.0497 7.80801 19.4134 6.12268 26.4534 6.12268H26.8161V7.22775C27.1404 7.21921 27.4646 7.21495 27.8102 7.21495H28.6337H28.6294ZM25.9073 20.4629V7.03575C18.5174 7.13388 17.0412 9.14348 16.8321 9.51041V22.464C18.0481 21.568 20.591 20.5312 25.9073 20.4629ZM15.7441 22.464V9.50615C15.5521 9.17335 14.1142 7.13388 6.66891 7.04001V20.4672C11.9852 20.5355 14.5281 21.5723 15.7441 22.4683V22.464Z" fill="#1A50A0"/>
<path d="M25.9072 7.03577V20.463C20.591 20.5312 18.048 21.568 16.832 22.464V9.51043C17.0368 9.14777 18.5174 7.1339 25.9072 7.03577Z" fill="white"/>
<path d="M15.7441 9.50617V22.464C14.5281 21.568 11.9852 20.5312 6.66895 20.463V7.03577C14.1143 7.1339 15.5521 9.17337 15.7441 9.5019V9.50617Z" fill="white"/>
</g>
</g>
<defs>
<clipPath id="clip0_3453_9649">
<rect width="32" height="32" fill="white"/>
</clipPath>
<clipPath id="clip1_3453_9649">
<rect width="32" height="32" fill="white"/>
</clipPath>
</defs>
</svg>
