<svg width="76" height="76" viewBox="0 0 76 76" fill="none" xmlns="http://www.w3.org/2000/svg" class="m-auto">
                  <circle cx="38" cy="38" r="38" fill="#97ABFF" fill-opacity="0.2"/>
                  <circle cx="38.0032" cy="20.824" r="8.82397" fill="#97ABFF"/>
                  <path d="M46.7715 31.0621C39.2145 28.4828 31.8575 29.9874 29.1235 31.0621C34.2369 32.0576 37.1368 34.192 37.9475 35.1347C39.5313 33.0984 44.4901 31.5712 46.7715 31.0621Z" fill="#97ABFF"/>
                  <path fill-rule="evenodd" clip-rule="evenodd" d="M58.8192 32.7024C59.2528 32.7024 60.1201 32.906 60.1201 33.7205V35.7003V36.0965C57.2724 36.1271 54.9732 38.4451 54.9732 41.3001V47.1827C54.9732 50.0377 57.2724 52.3558 60.1201 52.3863V52.9522V54.6492C60.0636 55.064 59.6902 55.9728 58.6495 56.2895C55.4253 56.0821 47.0878 56.923 39.5309 61.9459H39.3046V37.1428C42.4397 35.588 50.6332 32.5674 58.8192 32.7024ZM60.1201 38.4725V50.0104C58.5845 49.98 57.3489 48.7257 57.3489 47.1827V41.3001C57.3489 39.7572 58.5845 38.5028 60.1201 38.4725Z" fill="#97ABFF"/>
                  <path fill-rule="evenodd" clip-rule="evenodd" d="M17.1872 32.7024C16.7535 32.7024 15.8862 32.906 15.8862 33.7205V35.7003V36.0965C18.7348 36.1261 21.0349 38.4445 21.0349 41.3001V47.1827C21.0349 50.0383 18.7348 52.3567 15.8862 52.3863V52.9522V54.6492C15.9428 55.064 16.3161 55.9728 17.3569 56.2895C20.581 56.0821 28.9186 56.923 36.4755 61.9459H36.7017V37.1428C33.5666 35.588 25.3732 32.5674 17.1872 32.7024ZM15.8862 50.0104C17.4227 49.981 18.6592 48.7262 18.6592 47.1827V41.3001C18.6592 39.7566 17.4227 38.5019 15.8862 38.4724V50.0104Z" fill="#97ABFF"/>
                  <path fill-rule="evenodd" clip-rule="evenodd" d="M15.8282 38.4719C17.3902 38.4719 18.6564 39.7381 18.6564 41.3001V47.1828C18.6564 48.7447 17.3902 50.011 15.8282 50.011C14.2662 50.011 13 48.7447 13 47.1828V41.3001C13 39.7381 14.2662 38.4719 15.8282 38.4719ZM15.8281 49.1059C17.1402 49.1059 18.2038 48.0423 18.2038 46.7303C18.2038 45.4182 17.1402 44.3546 15.8281 44.3546C14.5161 44.3546 13.4524 45.4182 13.4524 46.7303C13.4524 48.0423 14.5161 49.1059 15.8281 49.1059Z" fill="#97ABFF"/>
                  <path fill-rule="evenodd" clip-rule="evenodd" d="M60.1754 38.4719C58.6134 38.4719 57.3472 39.7381 57.3472 41.3001V47.1828C57.3472 48.7447 58.6134 50.011 60.1754 50.011C61.7373 50.011 63.0036 48.7447 63.0036 47.1828V41.3001C63.0036 39.7381 61.7373 38.4719 60.1754 38.4719ZM60.1745 49.1059C61.4866 49.1059 62.5502 48.0423 62.5502 46.7303C62.5502 45.4182 61.4866 44.3546 60.1745 44.3546C58.8625 44.3546 57.7989 45.4182 57.7989 46.7303C57.7989 48.0423 58.8625 49.1059 60.1745 49.1059Z" fill="#97ABFF"/>
</svg>  