<svg width="60" height="60" viewBox="0 0 60 60" fill="none" xmlns="http://www.w3.org/2000/svg">
<path opacity="0.2" d="M28.125 24.375C28.125 26.2292 27.5752 28.0418 26.545 29.5835C25.5149 31.1252 24.0507 32.3268 22.3377 33.0364C20.6246 33.7459 18.7396 33.9316 16.921 33.5699C15.1025 33.2081 13.432 32.3152 12.1209 31.0041C10.8098 29.693 9.91688 28.0225 9.55514 26.204C9.19341 24.3854 9.37906 22.5004 10.0886 20.7873C10.7982 19.0743 11.9998 17.6101 13.5415 16.58C15.0832 15.5498 16.8958 15 18.75 15C21.2364 15 23.621 15.9877 25.3791 17.7459C27.1373 19.504 28.125 21.8886 28.125 24.375Z" fill="#8E44AD"/>
<path d="M35.6248 18.75C35.6248 18.2527 35.8224 17.7758 36.174 17.4242C36.5257 17.0725 37.0026 16.875 37.4998 16.875H58.1248C58.6221 16.875 59.099 17.0725 59.4507 17.4242C59.8023 17.7758 59.9998 18.2527 59.9998 18.75C59.9998 19.2473 59.8023 19.7242 59.4507 20.0758C59.099 20.4274 58.6221 20.625 58.1248 20.625H37.4998C37.0026 20.625 36.5257 20.4274 36.174 20.0758C35.8224 19.7242 35.6248 19.2473 35.6248 18.75ZM58.1248 28.125H37.4998C37.0026 28.125 36.5257 28.3225 36.174 28.6742C35.8224 29.0258 35.6248 29.5027 35.6248 30C35.6248 30.4973 35.8224 30.9742 36.174 31.3258C36.5257 31.6775 37.0026 31.875 37.4998 31.875H58.1248C58.6221 31.875 59.099 31.6775 59.4507 31.3258C59.8023 30.9742 59.9998 30.4973 59.9998 30C59.9998 29.5027 59.8023 29.0258 59.4507 28.6742C59.099 28.3225 58.6221 28.125 58.1248 28.125ZM58.1248 39.375H43.1248C42.6276 39.375 42.1507 39.5725 41.799 39.9242C41.4474 40.2758 41.2498 40.7527 41.2498 41.25C41.2498 41.7473 41.4474 42.2242 41.799 42.5758C42.1507 42.9275 42.6276 43.125 43.1248 43.125H58.1248C58.6221 43.125 59.099 42.9275 59.4507 42.5758C59.8023 42.2242 59.9998 41.7473 59.9998 41.25C59.9998 40.7527 59.8023 40.2758 59.4507 39.9242C59.099 39.5725 58.6221 39.375 58.1248 39.375ZM35.5663 44.5312C35.6275 44.7698 35.6412 45.0181 35.6066 45.2619C35.5719 45.5057 35.4895 45.7403 35.3642 45.9523C35.2388 46.1643 35.0729 46.3495 34.8759 46.4974C34.679 46.6452 34.4548 46.7528 34.2163 46.8141C34.0634 46.8552 33.9058 46.8757 33.7475 46.875C33.3317 46.8752 32.9275 46.7372 32.5987 46.4826C32.2699 46.228 32.0351 45.8714 31.9311 45.4687C30.4873 39.8578 24.8202 35.625 18.7475 35.625C12.6748 35.625 7.00766 39.8555 5.56391 45.4687C5.43959 45.9505 5.12899 46.3631 4.70044 46.6158C4.27189 46.8686 3.76049 46.9407 3.27875 46.8164C2.79701 46.6921 2.38439 46.3815 2.13165 45.9529C1.87892 45.5244 1.80678 45.013 1.9311 44.5312C3.24125 39.443 7.04985 35.3226 11.8827 33.2812C10.0218 31.8479 8.65622 29.8681 7.97746 27.6195C7.2987 25.3708 7.3408 22.9661 8.09784 20.7426C8.85489 18.5191 10.2889 16.5883 12.1988 15.221C14.1087 13.8537 16.3986 13.1185 18.7475 13.1185C21.0964 13.1185 23.3863 13.8537 25.2962 15.221C27.2061 16.5883 28.6401 18.5191 29.3972 20.7426C30.1542 22.9661 30.1963 25.3708 29.5175 27.6195C28.8388 29.8681 27.4732 31.8479 25.6123 33.2812C30.4475 35.3226 34.2561 39.443 35.5663 44.5312ZM18.7498 31.875C20.2332 31.875 21.6833 31.4351 22.9166 30.611C24.15 29.7869 25.1113 28.6156 25.6789 27.2451C26.2466 25.8747 26.3951 24.3667 26.1057 22.9118C25.8163 21.457 25.102 20.1206 24.0531 19.0717C23.0043 18.0228 21.6679 17.3085 20.213 17.0191C18.7582 16.7297 17.2502 16.8782 15.8797 17.4459C14.5093 18.0136 13.3379 18.9748 12.5138 20.2082C11.6897 21.4416 11.2498 22.8916 11.2498 24.375C11.2498 26.3641 12.04 28.2718 13.4465 29.6783C14.8531 31.0848 16.7607 31.875 18.7498 31.875Z" fill="#8E44AD"/>
</svg>
