<svg width="60" height="60" viewBox="0 0 60 60" fill="none" xmlns="http://www.w3.org/2000/svg">
<path fill-rule="evenodd" clip-rule="evenodd" d="M30 0.368103C30.2542 0.368103 30.4602 0.574107 30.4602 0.828226V9.29449C30.4602 9.5486 30.2542 9.75461 30 9.75461C29.7459 9.75461 29.5399 9.5486 29.5399 9.29449V0.828226C29.5399 0.574107 29.7459 0.368103 30 0.368103Z" fill="#4CBB17"/>
<path fill-rule="evenodd" clip-rule="evenodd" d="M29.1718 0.828221C29.1718 0.370807 29.5426 0 30 0C30.4574 0 30.8282 0.370807 30.8282 0.828221V9.29448C30.8282 9.75189 30.4574 10.1227 30 10.1227C29.5426 10.1227 29.1718 9.75189 29.1718 9.29448V0.828221ZM30 0.736196C29.9492 0.736196 29.9079 0.777397 29.9079 0.828221V9.29448C29.9079 9.3453 29.9492 9.38651 30 9.38651C30.0508 9.38651 30.092 9.3453 30.092 9.29448V0.828221C30.092 0.777397 30.0508 0.736196 30 0.736196Z" fill="#4CBB17"/>
<path fill-rule="evenodd" clip-rule="evenodd" d="M17.4847 29.7239H4.96932V58.0675H17.4847V29.7239ZM4.04907 28.8037V58.9877H18.4049V28.8037H4.04907Z" fill="#4CBB17"/>
<path fill-rule="evenodd" clip-rule="evenodd" d="M3.68091 28.4356H18.7729V59.3558H3.68091V28.4356ZM4.4171 29.1718V58.6196H18.0367V29.1718H4.4171ZM4.60115 29.3558H17.8527V58.4356H4.60115V29.3558ZM5.33735 30.092V57.6994H17.1165V30.092H5.33735Z" fill="#4CBB17"/>
<path fill-rule="evenodd" clip-rule="evenodd" d="M55.0307 30.4601H42.5153V58.0675H55.0307V30.4601ZM41.5951 29.5399V58.9877H55.9509V29.5399H41.5951Z" fill="#4CBB17"/>
<path fill-rule="evenodd" clip-rule="evenodd" d="M41.2269 29.1718H56.319V59.3558H41.2269V29.1718ZM41.9631 29.908V58.6196H55.5828V29.908H41.9631ZM42.1472 30.092H55.3987V58.4356H42.1472V30.092ZM42.8834 30.8282V57.6994H54.6625V30.8282H42.8834Z" fill="#4CBB17"/>
<path d="M0.736206 28.9877C0.736206 27.8696 1.64262 26.9632 2.76075 26.9632H57.2393C58.3574 26.9632 59.2638 27.8696 59.2638 28.9877C59.2638 30.1059 58.3574 31.0123 57.2393 31.0123H2.76075C1.64262 31.0123 0.736206 30.1059 0.736206 28.9877Z" fill="#4CBB17"/>
<path fill-rule="evenodd" clip-rule="evenodd" d="M0.368164 28.9877C0.368164 27.6663 1.43938 26.5951 2.7608 26.5951H57.2393C58.5608 26.5951 59.632 27.6663 59.632 28.9877C59.632 30.3091 58.5608 31.3804 57.2393 31.3804H2.7608C1.43939 31.3804 0.368164 30.3091 0.368164 28.9877ZM2.7608 27.3313C1.84597 27.3313 1.10436 28.0729 1.10436 28.9877C1.10436 29.9026 1.84598 30.6442 2.7608 30.6442H57.2393C58.1542 30.6442 58.8958 29.9026 58.8958 28.9877C58.8958 28.0729 58.1542 27.3313 57.2393 27.3313H2.7608Z" fill="#4CBB17"/>
<path fill-rule="evenodd" clip-rule="evenodd" d="M57.2393 27.8834H2.76075C2.15086 27.8834 1.65645 28.3779 1.65645 28.9877C1.65645 29.5976 2.15086 30.092 2.76075 30.092H57.2393C57.8492 30.092 58.3436 29.5976 58.3436 28.9877C58.3436 28.3779 57.8492 27.8834 57.2393 27.8834ZM2.76075 26.9632C1.64262 26.9632 0.736206 27.8696 0.736206 28.9877C0.736206 30.1059 1.64262 31.0123 2.76075 31.0123H57.2393C58.3574 31.0123 59.2638 30.1059 59.2638 28.9877C59.2638 27.8696 58.3574 26.9632 57.2393 26.9632H2.76075Z" fill="#4CBB17"/>
<path fill-rule="evenodd" clip-rule="evenodd" d="M2.7608 27.3313C1.84597 27.3313 1.10436 28.0729 1.10436 28.9877C1.10436 29.9026 1.84598 30.6442 2.7608 30.6442H57.2393C58.1542 30.6442 58.8958 29.9026 58.8958 28.9877C58.8958 28.0729 58.1542 27.3313 57.2393 27.3313H2.7608ZM0.368164 28.9877C0.368164 27.6663 1.43938 26.5951 2.7608 26.5951H57.2393C58.5608 26.5951 59.632 27.6663 59.632 28.9877C59.632 30.3091 58.5608 31.3804 57.2393 31.3804H2.7608C1.43939 31.3804 0.368164 30.3091 0.368164 28.9877ZM2.7608 28.2515C2.35421 28.2515 2.02461 28.5811 2.02461 28.9877C2.02461 29.3943 2.35421 29.7239 2.7608 29.7239H57.2393C57.6459 29.7239 57.9755 29.3943 57.9755 28.9877C57.9755 28.5811 57.6459 28.2515 57.2393 28.2515H2.7608ZM1.28841 28.9877C1.28841 28.1746 1.94762 27.5153 2.7608 27.5153H57.2393C58.0525 27.5153 58.7117 28.1746 58.7117 28.9877C58.7117 29.8009 58.0525 30.4601 57.2393 30.4601H2.7608C1.94762 30.4601 1.28841 29.8009 1.28841 28.9877Z" fill="#4CBB17"/>
<path fill-rule="evenodd" clip-rule="evenodd" d="M0.368164 58.9878C0.368164 58.6828 0.615369 58.4356 0.920311 58.4356H59.0798C59.3848 58.4356 59.632 58.6828 59.632 58.9878C59.632 59.2927 59.3848 59.5399 59.0798 59.5399H0.920311C0.615369 59.5399 0.368164 59.2927 0.368164 58.9878Z" fill="#4CBB17"/>
<path fill-rule="evenodd" clip-rule="evenodd" d="M0 58.9878C0 58.4795 0.412008 58.0675 0.920246 58.0675H59.0798C59.588 58.0675 60 58.4795 60 58.9878C60 59.496 59.588 59.908 59.0798 59.908H0.920246C0.412008 59.908 0 59.496 0 58.9878ZM0.920246 58.8037C0.818598 58.8037 0.736196 58.8861 0.736196 58.9878C0.736196 59.0894 0.818598 59.1718 0.920246 59.1718H59.0798C59.1814 59.1718 59.2638 59.0894 59.2638 58.9878C59.2638 58.8861 59.1814 58.8037 59.0798 58.8037H0.920246Z" fill="#4CBB17"/>
<path d="M29.8159 0.460114H36.8098C37.2164 0.460114 37.546 0.78972 37.546 1.19631V4.1411C37.546 4.54769 37.2164 4.87729 36.8098 4.87729H29.8159V0.460114Z" fill="#4CBB17"/>
<path fill-rule="evenodd" clip-rule="evenodd" d="M29.4479 0.092041H36.8098C37.4197 0.092041 37.9141 0.586451 37.9141 1.19634V4.14112C37.9141 4.75101 37.4197 5.24542 36.8098 5.24542H29.4479V0.092041ZM30.1841 0.828237V4.50922H36.8098C37.0131 4.50922 37.1779 4.34442 37.1779 4.14112V1.19634C37.1779 0.993041 37.0131 0.828237 36.8098 0.828237H30.1841Z" fill="#4CBB17"/>
<path fill-rule="evenodd" clip-rule="evenodd" d="M36.6257 1.38036H30.7362V3.95705H36.6257V1.38036ZM29.8159 0.460114V4.87729H36.8098C37.2164 4.87729 37.546 4.54769 37.546 4.1411V1.19631C37.546 0.78972 37.2164 0.460114 36.8098 0.460114H29.8159Z" fill="#4CBB17"/>
<path fill-rule="evenodd" clip-rule="evenodd" d="M29.4479 0.092041H36.8098C37.4197 0.092041 37.9141 0.586451 37.9141 1.19634V4.14112C37.9141 4.75101 37.4197 5.24542 36.8098 5.24542H29.4479V0.092041ZM30.1841 0.828237V4.50922H36.8098C37.0131 4.50922 37.1779 4.34442 37.1779 4.14112V1.19634C37.1779 0.993041 37.0131 0.828237 36.8098 0.828237H30.1841ZM30.3681 1.01229H36.9939V4.32517H30.3681V1.01229ZM31.1043 1.74848V3.58897H36.2577V1.74848H31.1043Z" fill="#4CBB17"/>
<path d="M42.1473 22.2302V55.4908C42.1473 57.226 42.1473 58.0936 41.6082 58.6327C41.0691 59.1718 40.2015 59.1718 38.4663 59.1718H21.5692C19.8187 59.1718 18.9435 59.1718 18.4034 58.6265C17.8632 58.0811 17.8716 57.206 17.8884 55.4556L18.2065 22.2096C18.2136 21.4672 18.2172 21.096 18.3571 20.7627C18.4971 20.4294 18.7595 20.1669 19.2845 19.6419L27.5812 11.3452C28.8082 10.1182 29.4217 9.50467 30.1841 9.50467C30.9464 9.50467 31.5599 10.1182 32.7869 11.3452L41.0692 19.6274C41.6011 20.1593 41.8671 20.4253 42.0072 20.7635C42.1473 21.1018 42.1473 21.4779 42.1473 22.2302Z" fill="#DBF1D1"/>
<path fill-rule="evenodd" clip-rule="evenodd" d="M29.2802 10.2575C28.9024 10.5457 28.4624 10.9846 27.8415 11.6055L19.5447 19.9022C18.9989 20.4481 18.8019 20.654 18.6965 20.9052C18.591 21.1564 18.582 21.4412 18.5746 22.2131L18.2564 55.4591C18.248 56.3448 18.2427 56.9718 18.3023 57.4472C18.3605 57.912 18.4748 58.1756 18.6649 58.3675C18.8549 58.5593 19.1174 58.6762 19.5816 58.7388C20.0564 58.8029 20.6835 58.8037 21.5692 58.8037H38.4663C39.3443 58.8037 39.9658 58.8029 40.4368 58.7396C40.8971 58.6777 41.1582 58.5622 41.3479 58.3724C41.5377 58.1827 41.6532 57.9217 41.7151 57.4613C41.7784 56.9903 41.7792 56.3688 41.7792 55.4908V22.2302C41.7792 21.4479 41.7726 21.1593 41.6671 20.9044C41.5615 20.6496 41.362 20.4409 40.8088 19.8877L32.5266 11.6055C31.9058 10.9846 31.4658 10.5457 31.088 10.2575C30.7187 9.9757 30.4524 9.87279 30.1841 9.87279C29.9157 9.87279 29.6495 9.9757 29.2802 10.2575ZM28.8336 9.67217C29.2684 9.34044 29.6901 9.1366 30.1841 9.1366C30.6781 9.1366 31.0998 9.34044 31.5345 9.67217C31.9563 9.99393 32.4308 10.4685 33.0277 11.0654L41.3294 19.3671C41.3474 19.3851 41.3651 19.4028 41.3826 19.4203C41.8633 19.9007 42.1787 20.2159 42.3472 20.6227C42.5157 21.0295 42.5156 21.4754 42.5154 22.155C42.5154 22.1798 42.5154 22.2049 42.5154 22.2302V55.5183C42.5154 56.3626 42.5154 57.0337 42.4447 57.5594C42.3718 58.1014 42.2178 58.5437 41.8685 58.893C41.5192 59.2423 41.0769 59.3964 40.5348 59.4692C40.0091 59.5399 39.3381 59.5399 38.4938 59.5399H21.5415C20.6898 59.5399 20.0129 59.5399 19.4831 59.4684C18.9371 59.3947 18.4919 59.239 18.1418 58.8855C17.7917 58.5321 17.6402 58.0854 17.5718 57.5387C17.5054 57.0083 17.5118 56.3315 17.52 55.4798L17.8384 22.2061C17.8386 22.181 17.8389 22.1563 17.8391 22.1319C17.8453 21.4612 17.8494 21.0211 18.0177 20.6202C18.186 20.2193 18.4973 19.9082 18.9717 19.4341C18.989 19.4169 19.0065 19.3994 19.0242 19.3817L27.3404 11.0654C27.9374 10.4684 28.4119 9.99393 28.8336 9.67217Z" fill="#4CBB17"/>
<path fill-rule="evenodd" clip-rule="evenodd" d="M29.336 10.3306C28.9643 10.6142 28.5293 11.0478 27.9066 11.6705L19.6098 19.9673C19.0587 20.5184 18.8782 20.7102 18.7813 20.9408C18.6845 21.1714 18.674 21.4346 18.6666 22.214L18.3484 55.46C18.3399 56.3483 18.335 56.968 18.3936 57.4358C18.4505 57.8903 18.5602 58.131 18.7302 58.3027C18.9003 58.4743 19.1399 58.5864 19.5939 58.6476C20.0611 58.7107 20.6808 58.7117 21.5692 58.7117H38.4663C39.3469 58.7117 39.9611 58.7107 40.4245 58.6484C40.8747 58.5879 41.1131 58.4772 41.2828 58.3074C41.4526 58.1376 41.5633 57.8992 41.6239 57.449C41.6862 56.9856 41.6871 56.3714 41.6871 55.4908V22.2302C41.6871 21.4404 41.679 21.1736 41.5821 20.9396C41.4851 20.7056 41.3023 20.5112 40.7438 19.9527L32.4616 11.6705C31.8389 11.0478 31.4039 10.6142 31.0322 10.3306C30.671 10.0551 30.4242 9.9648 30.1841 9.9648C29.9439 9.9648 29.6971 10.0551 29.336 10.3306ZM28.7778 9.59899C29.2208 9.26102 29.6618 9.04456 30.1841 9.04456C30.7063 9.04456 31.1474 9.26102 31.5904 9.59899C32.017 9.92453 32.4952 10.4027 33.0885 10.996L41.3945 19.302C41.4154 19.3229 41.436 19.3435 41.4564 19.3639C41.9285 19.8355 42.2566 20.1633 42.4323 20.5875C42.608 21.0116 42.6077 21.4754 42.6074 22.1427C42.6074 22.1715 42.6074 22.2007 42.6074 22.2302V55.5245C42.6074 56.3635 42.6074 57.0397 42.5359 57.5716C42.4617 58.1238 42.3028 58.5888 41.9336 58.9581C41.5643 59.3273 41.0993 59.4862 40.5471 59.5604C40.0152 59.6319 39.339 59.6319 38.5 59.6319H21.5354C20.6889 59.6319 20.0068 59.6319 19.4708 59.5596C18.9145 59.4845 18.4465 59.3239 18.0764 58.9503C17.7063 58.5766 17.5502 58.1071 17.4805 57.5501C17.4133 57.0135 17.4198 56.3315 17.4279 55.485L17.7464 22.2052C17.7467 22.176 17.7469 22.1473 17.7472 22.1189C17.7532 21.4603 17.7573 21.0026 17.9328 20.5846C18.1083 20.1666 18.4321 19.8431 18.8981 19.3776C18.9181 19.3575 18.9385 19.3372 18.9591 19.3166L27.2797 10.996C27.8729 10.4027 28.3511 9.92453 28.7778 9.59899Z" fill="#4CBB17"/>
<path fill-rule="evenodd" clip-rule="evenodd" d="M28.5546 9.30634C29.0302 8.94347 29.549 8.67645 30.1842 8.67645C30.8193 8.67645 31.3381 8.94347 31.8137 9.30634C32.2601 9.64688 32.7526 10.1394 33.3316 10.7185L41.6549 19.0417L41.7517 19.1385C42.1934 19.5796 42.5684 19.9541 42.7724 20.4466C42.9764 20.9391 42.9761 21.469 42.9756 22.0933L42.9756 55.5487C42.9756 56.3676 42.9756 57.0642 42.9008 57.6207C42.8211 58.2136 42.6431 58.7692 42.1939 59.2184C41.7448 59.6675 41.1891 59.8455 40.5963 59.9252C40.0399 60 39.3435 60 38.5248 60H21.5108C20.6846 60 19.9822 60 19.4217 59.9244C18.8246 59.8438 18.2652 59.6638 17.815 59.2093C17.3648 58.7548 17.1902 58.1936 17.1153 57.5958C17.045 57.0346 17.0518 56.3322 17.0597 55.506L17.3792 22.1155C17.3794 22.0991 17.3795 22.0828 17.3796 22.0666C17.3851 21.4505 17.3897 20.9275 17.5935 20.4421C17.7973 19.9567 18.1674 19.5871 18.6034 19.1517C18.6149 19.1403 18.6264 19.1287 18.638 19.1172L18.6989 19.0563L27.0367 10.7185C27.6157 10.1394 28.1083 9.64688 28.5546 9.30634ZM41.9104 20.4052C41.753 20.1841 41.5248 19.9524 41.1963 19.6243L32.8283 11.2563C32.2282 10.6562 31.7697 10.1988 31.3672 9.89164C30.9568 9.57855 30.5935 9.41265 30.1842 9.41265C29.7749 9.41265 29.4115 9.57855 29.0012 9.89163C28.5986 10.1988 28.1401 10.6562 27.5401 11.2563L19.1583 19.638C18.6774 20.1184 18.4142 20.3892 18.2723 20.7271C18.1305 21.0649 18.1216 21.4425 18.1154 22.1222L17.7961 55.4885C17.7879 56.3446 17.7824 56.9979 17.8458 57.5044C17.8906 57.8625 17.9706 58.154 18.1122 58.3968L18.1444 58.3649C18.1791 58.3306 18.2189 58.3045 18.2613 58.2868C18.1423 58.0756 18.0703 57.8158 18.0284 57.4815C17.966 56.9833 17.9721 56.3341 17.9805 55.4565L18.2986 22.2104C18.3058 21.4633 18.3105 21.1117 18.442 20.7983C18.5736 20.4849 18.8213 20.2353 19.3496 19.707L27.6464 11.4102C28.2616 10.795 28.7168 10.3401 29.1128 10.038C29.5069 9.7373 29.8314 9.5967 30.1842 9.5967C30.537 9.5967 30.8615 9.7373 31.2555 10.038C31.6516 10.3401 32.1068 10.795 32.722 11.4102L41.0042 19.6924C41.3663 20.0546 41.5984 20.2876 41.7514 20.4988C41.7837 20.4675 41.8223 20.4417 41.8664 20.4235L41.9104 20.4052ZM42.0135 21.1317C42.0585 21.1309 42.1041 21.1219 42.1481 21.1036L42.1921 21.0854C42.2372 21.353 42.2396 21.6782 42.2394 22.1426L42.2394 55.5245C42.2394 56.3731 42.2387 57.0207 42.1712 57.5226C42.1024 58.0341 41.9628 58.4084 41.6734 58.6978C41.384 58.9872 41.0097 59.1268 40.4982 59.1956C39.9963 59.2631 39.3487 59.2638 38.5001 59.2638H21.5355C20.6793 59.2638 20.026 59.2631 19.5202 59.1948C19.1625 59.1465 18.8717 59.0638 18.6303 58.9198L18.6625 58.888C18.6972 58.8536 18.7236 58.8141 18.7417 58.7718C18.9518 58.8929 19.2109 58.9674 19.5448 59.0124C20.0424 59.0796 20.6916 59.0797 21.5693 59.0797H38.4664C39.3364 59.0797 39.98 59.0796 40.4736 59.0132C40.9649 58.9471 41.2938 58.8171 41.5432 58.5676C41.7927 58.3182 41.9227 57.9893 41.9888 57.4981C42.0552 57.0044 42.0553 56.3608 42.0553 55.4908V22.2302C42.0553 21.718 42.0547 21.3892 42.0135 21.1317ZM30.1842 10.3329C30.0567 10.3329 29.8875 10.3729 29.5594 10.6233C29.2119 10.8883 28.7972 11.3006 28.167 11.9308L19.8702 20.2276C19.2963 20.8015 19.1829 20.9354 19.1208 21.0833C19.0587 21.2312 19.0425 21.4059 19.0348 22.2175L18.7166 55.4635C18.708 56.3624 18.7042 56.9527 18.7589 57.39C18.8107 57.8033 18.9017 57.9526 18.9919 58.0436C19.082 58.1346 19.2304 58.2271 19.6432 58.2828C20.08 58.3418 20.6703 58.3436 21.5693 58.3436H38.4664C39.3576 58.3436 39.9424 58.3418 40.3755 58.2836C40.7847 58.2285 40.9325 58.1372 41.0227 58.0471C41.1128 57.957 41.2041 57.8091 41.2591 57.4C41.3174 56.9668 41.3191 56.382 41.3191 55.4908V22.2302C41.3191 21.4077 41.3042 21.2305 41.2421 21.0805C41.1799 20.9304 41.0652 20.7946 40.4836 20.213L32.2014 11.9308C31.5712 11.3006 31.1564 10.8883 30.809 10.6233C30.4808 10.3729 30.3116 10.3329 30.1842 10.3329Z" fill="#4CBB17"/>
<path d="M46.0122 37.2699C46.0122 36.6601 46.5066 36.1656 47.1165 36.1656H50.7975C51.4074 36.1656 51.9018 36.6601 51.9018 37.2699V40.9509C51.9018 41.5608 51.4074 42.0552 50.7975 42.0552H47.1165C46.5066 42.0552 46.0122 41.5608 46.0122 40.9509V37.2699Z" fill="#4CBB17"/>
<path fill-rule="evenodd" clip-rule="evenodd" d="M45.6442 37.2699C45.6442 36.4568 46.3034 35.7975 47.1166 35.7975H50.7975C51.6107 35.7975 52.2699 36.4568 52.2699 37.2699V40.9509C52.2699 41.7641 51.6107 42.4233 50.7975 42.4233H47.1166C46.3034 42.4233 45.6442 41.7641 45.6442 40.9509V37.2699ZM47.1166 36.5337C46.71 36.5337 46.3804 36.8633 46.3804 37.2699V40.9509C46.3804 41.3575 46.71 41.6871 47.1166 41.6871H50.7975C51.2041 41.6871 51.5337 41.3575 51.5337 40.9509V37.2699C51.5337 36.8633 51.2041 36.5337 50.7975 36.5337H47.1166Z" fill="#4CBB17"/>
<path fill-rule="evenodd" clip-rule="evenodd" d="M50.7975 37.0859H47.1165C47.0149 37.0859 46.9325 37.1683 46.9325 37.2699V40.9509C46.9325 41.0526 47.0149 41.135 47.1165 41.135H50.7975C50.8991 41.135 50.9815 41.0526 50.9815 40.9509V37.2699C50.9815 37.1683 50.8991 37.0859 50.7975 37.0859ZM47.1165 36.1656C46.5066 36.1656 46.0122 36.6601 46.0122 37.2699V40.9509C46.0122 41.5608 46.5066 42.0552 47.1165 42.0552H50.7975C51.4074 42.0552 51.9018 41.5608 51.9018 40.9509V37.2699C51.9018 36.6601 51.4074 36.1656 50.7975 36.1656H47.1165Z" fill="#4CBB17"/>
<path fill-rule="evenodd" clip-rule="evenodd" d="M47.1166 36.5337C46.71 36.5337 46.3804 36.8633 46.3804 37.2699V40.9509C46.3804 41.3575 46.71 41.6871 47.1166 41.6871H50.7975C51.2041 41.6871 51.5337 41.3575 51.5337 40.9509V37.2699C51.5337 36.8633 51.2041 36.5337 50.7975 36.5337H47.1166ZM45.6442 37.2699C45.6442 36.4568 46.3034 35.7975 47.1166 35.7975H50.7975C51.6107 35.7975 52.2699 36.4568 52.2699 37.2699V40.9509C52.2699 41.7641 51.6107 42.4233 50.7975 42.4233H47.1166C46.3034 42.4233 45.6442 41.7641 45.6442 40.9509V37.2699ZM47.3006 37.454V40.7669H50.6135V37.454H47.3006ZM46.5644 37.2699C46.5644 36.965 46.8116 36.7178 47.1166 36.7178H50.7975C51.1025 36.7178 51.3497 36.965 51.3497 37.2699V40.9509C51.3497 41.2559 51.1025 41.5031 50.7975 41.5031H47.1166C46.8116 41.5031 46.5644 41.2559 46.5644 40.9509V37.2699Z" fill="#4CBB17"/>
<path d="M8.46619 37.2699C8.46619 36.6601 8.9606 36.1656 9.57048 36.1656H13.2515C13.8613 36.1656 14.3558 36.6601 14.3558 37.2699V40.9509C14.3558 41.5608 13.8613 42.0552 13.2515 42.0552H9.57048C8.9606 42.0552 8.46619 41.5608 8.46619 40.9509V37.2699Z" fill="#4CBB17"/>
<path fill-rule="evenodd" clip-rule="evenodd" d="M8.09827 37.2699C8.09827 36.4568 8.75748 35.7975 9.57066 35.7975H13.2516C14.0648 35.7975 14.724 36.4568 14.724 37.2699V40.9509C14.724 41.7641 14.0648 42.4233 13.2516 42.4233H9.57066C8.75748 42.4233 8.09827 41.7641 8.09827 40.9509V37.2699ZM9.57066 36.5337C9.16407 36.5337 8.83446 36.8633 8.83446 37.2699V40.9509C8.83446 41.3575 9.16407 41.6871 9.57066 41.6871H13.2516C13.6582 41.6871 13.9878 41.3575 13.9878 40.9509V37.2699C13.9878 36.8633 13.6582 36.5337 13.2516 36.5337H9.57066Z" fill="#4CBB17"/>
<path fill-rule="evenodd" clip-rule="evenodd" d="M13.2515 37.0859H9.57048C9.46883 37.0859 9.38643 37.1683 9.38643 37.2699V40.9509C9.38643 41.0526 9.46883 41.135 9.57048 41.135H13.2515C13.3531 41.135 13.4355 41.0526 13.4355 40.9509V37.2699C13.4355 37.1683 13.3531 37.0859 13.2515 37.0859ZM9.57048 36.1656C8.9606 36.1656 8.46619 36.6601 8.46619 37.2699V40.9509C8.46619 41.5608 8.9606 42.0552 9.57048 42.0552H13.2515C13.8613 42.0552 14.3558 41.5608 14.3558 40.9509V37.2699C14.3558 36.6601 13.8613 36.1656 13.2515 36.1656H9.57048Z" fill="#4CBB17"/>
<path fill-rule="evenodd" clip-rule="evenodd" d="M9.57066 36.5337C9.16407 36.5337 8.83446 36.8633 8.83446 37.2699V40.9509C8.83446 41.3575 9.16407 41.6871 9.57066 41.6871H13.2516C13.6582 41.6871 13.9878 41.3575 13.9878 40.9509V37.2699C13.9878 36.8633 13.6582 36.5337 13.2516 36.5337H9.57066ZM8.09827 37.2699C8.09827 36.4568 8.75748 35.7975 9.57066 35.7975H13.2516C14.0648 35.7975 14.724 36.4568 14.724 37.2699V40.9509C14.724 41.7641 14.0648 42.4233 13.2516 42.4233H9.57066C8.75748 42.4233 8.09827 41.7641 8.09827 40.9509V37.2699ZM9.75471 37.454V40.7669H13.0676V37.454H9.75471ZM9.01851 37.2699C9.01851 36.965 9.26572 36.7178 9.57066 36.7178H13.2516C13.5566 36.7178 13.8038 36.965 13.8038 37.2699V40.9509C13.8038 41.2559 13.5566 41.5031 13.2516 41.5031H9.57066C9.26572 41.5031 9.01851 41.2559 9.01851 40.9509V37.2699Z" fill="#4CBB17"/>
<path d="M46.0122 47.9448C46.0122 47.3349 46.5066 46.8405 47.1165 46.8405H50.7975C51.4074 46.8405 51.9018 47.3349 51.9018 47.9448V51.6258C51.9018 52.2356 51.4074 52.7301 50.7975 52.7301H47.1165C46.5066 52.7301 46.0122 52.2356 46.0122 51.6258V47.9448Z" fill="#4CBB17"/>
<path fill-rule="evenodd" clip-rule="evenodd" d="M45.6442 47.9448C45.6442 47.1316 46.3034 46.4724 47.1166 46.4724H50.7975C51.6107 46.4724 52.2699 47.1316 52.2699 47.9448V51.6258C52.2699 52.439 51.6107 53.0982 50.7975 53.0982H47.1166C46.3034 53.0982 45.6442 52.439 45.6442 51.6258V47.9448ZM47.1166 47.2086C46.71 47.2086 46.3804 47.5382 46.3804 47.9448V51.6258C46.3804 52.0324 46.71 52.362 47.1166 52.362H50.7975C51.2041 52.362 51.5337 52.0324 51.5337 51.6258V47.9448C51.5337 47.5382 51.2041 47.2086 50.7975 47.2086H47.1166Z" fill="#4CBB17"/>
<path fill-rule="evenodd" clip-rule="evenodd" d="M50.7975 47.7607H47.1165C47.0149 47.7607 46.9325 47.8431 46.9325 47.9448V51.6258C46.9325 51.7274 47.0149 51.8098 47.1165 51.8098H50.7975C50.8991 51.8098 50.9815 51.7274 50.9815 51.6258V47.9448C50.9815 47.8431 50.8991 47.7607 50.7975 47.7607ZM47.1165 46.8405C46.5066 46.8405 46.0122 47.3349 46.0122 47.9448V51.6258C46.0122 52.2356 46.5066 52.7301 47.1165 52.7301H50.7975C51.4074 52.7301 51.9018 52.2356 51.9018 51.6258V47.9448C51.9018 47.3349 51.4074 46.8405 50.7975 46.8405H47.1165Z" fill="#4CBB17"/>
<path fill-rule="evenodd" clip-rule="evenodd" d="M47.1166 47.2086C46.71 47.2086 46.3804 47.5382 46.3804 47.9448V51.6258C46.3804 52.0324 46.71 52.362 47.1166 52.362H50.7975C51.2041 52.362 51.5337 52.0324 51.5337 51.6258V47.9448C51.5337 47.5382 51.2041 47.2086 50.7975 47.2086H47.1166ZM45.6442 47.9448C45.6442 47.1316 46.3034 46.4724 47.1166 46.4724H50.7975C51.6107 46.4724 52.2699 47.1316 52.2699 47.9448V51.6258C52.2699 52.439 51.6107 53.0982 50.7975 53.0982H47.1166C46.3034 53.0982 45.6442 52.439 45.6442 51.6258V47.9448ZM47.3006 48.1289V51.4417H50.6135V48.1289H47.3006ZM46.5644 47.9448C46.5644 47.6399 46.8116 47.3927 47.1166 47.3927H50.7975C51.1025 47.3927 51.3497 47.6399 51.3497 47.9448V51.6258C51.3497 51.9307 51.1025 52.1779 50.7975 52.1779H47.1166C46.8116 52.1779 46.5644 51.9307 46.5644 51.6258V47.9448Z" fill="#4CBB17"/>
<path d="M8.46619 47.9448C8.46619 47.3349 8.9606 46.8405 9.57048 46.8405H13.2515C13.8613 46.8405 14.3558 47.3349 14.3558 47.9448V51.6258C14.3558 52.2356 13.8613 52.7301 13.2515 52.7301H9.57048C8.9606 52.7301 8.46619 52.2356 8.46619 51.6258V47.9448Z" fill="#4CBB17"/>
<path fill-rule="evenodd" clip-rule="evenodd" d="M8.09827 47.9448C8.09827 47.1316 8.75748 46.4724 9.57066 46.4724H13.2516C14.0648 46.4724 14.724 47.1316 14.724 47.9448V51.6258C14.724 52.439 14.0648 53.0982 13.2516 53.0982H9.57066C8.75748 53.0982 8.09827 52.439 8.09827 51.6258V47.9448ZM9.57066 47.2086C9.16407 47.2086 8.83446 47.5382 8.83446 47.9448V51.6258C8.83446 52.0324 9.16407 52.362 9.57066 52.362H13.2516C13.6582 52.362 13.9878 52.0324 13.9878 51.6258V47.9448C13.9878 47.5382 13.6582 47.2086 13.2516 47.2086H9.57066Z" fill="#4CBB17"/>
<path fill-rule="evenodd" clip-rule="evenodd" d="M13.2515 47.7607H9.57048C9.46883 47.7607 9.38643 47.8431 9.38643 47.9448V51.6258C9.38643 51.7274 9.46883 51.8098 9.57048 51.8098H13.2515C13.3531 51.8098 13.4355 51.7274 13.4355 51.6258V47.9448C13.4355 47.8431 13.3531 47.7607 13.2515 47.7607ZM9.57048 46.8405C8.9606 46.8405 8.46619 47.3349 8.46619 47.9448V51.6258C8.46619 52.2356 8.9606 52.7301 9.57048 52.7301H13.2515C13.8613 52.7301 14.3558 52.2356 14.3558 51.6258V47.9448C14.3558 47.3349 13.8613 46.8405 13.2515 46.8405H9.57048Z" fill="#4CBB17"/>
<path fill-rule="evenodd" clip-rule="evenodd" d="M9.57066 47.2086C9.16407 47.2086 8.83446 47.5382 8.83446 47.9448V51.6258C8.83446 52.0324 9.16407 52.362 9.57066 52.362H13.2516C13.6582 52.362 13.9878 52.0324 13.9878 51.6258V47.9448C13.9878 47.5382 13.6582 47.2086 13.2516 47.2086H9.57066ZM8.09827 47.9448C8.09827 47.1316 8.75748 46.4724 9.57066 46.4724H13.2516C14.0648 46.4724 14.724 47.1316 14.724 47.9448V51.6258C14.724 52.439 14.0648 53.0982 13.2516 53.0982H9.57066C8.75748 53.0982 8.09827 52.439 8.09827 51.6258V47.9448ZM9.75471 48.1289V51.4417H13.0676V48.1289H9.75471ZM9.01851 47.9448C9.01851 47.6399 9.26572 47.3927 9.57066 47.3927H13.2516C13.5566 47.3927 13.8038 47.6399 13.8038 47.9448V51.6258C13.8038 51.9307 13.5566 52.1779 13.2516 52.1779H9.57066C9.26572 52.1779 9.01851 51.9307 9.01851 51.6258V47.9448Z" fill="#4CBB17"/>
<path d="M35.3374 22.9141C35.3374 25.7602 33.0301 28.0675 30.184 28.0675C27.3379 28.0675 25.0306 25.7602 25.0306 22.9141C25.0306 20.068 27.3379 17.7607 30.184 17.7607C33.0301 17.7607 35.3374 20.068 35.3374 22.9141Z" fill="white"/>
<path fill-rule="evenodd" clip-rule="evenodd" d="M30.1841 18.1288C27.5412 18.1288 25.3988 20.2713 25.3988 22.9141C25.3988 25.5569 27.5412 27.6994 30.1841 27.6994C32.8269 27.6994 34.9693 25.5569 34.9693 22.9141C34.9693 20.2713 32.8269 18.1288 30.1841 18.1288ZM24.6626 22.9141C24.6626 19.8647 27.1346 17.3926 30.1841 17.3926C33.2335 17.3926 35.7055 19.8647 35.7055 22.9141C35.7055 25.9635 33.2335 28.4356 30.1841 28.4356C27.1346 28.4356 24.6626 25.9635 24.6626 22.9141Z" fill="#4CBB17"/>
<path fill-rule="evenodd" clip-rule="evenodd" d="M30.184 27.1472C32.5219 27.1472 34.4171 25.252 34.4171 22.9141C34.4171 20.5762 32.5219 18.681 30.184 18.681C27.8461 18.681 25.9509 20.5762 25.9509 22.9141C25.9509 25.252 27.8461 27.1472 30.184 27.1472ZM30.184 28.0675C33.0301 28.0675 35.3374 25.7602 35.3374 22.9141C35.3374 20.068 33.0301 17.7607 30.184 17.7607C27.3379 17.7607 25.0306 20.068 25.0306 22.9141C25.0306 25.7602 27.3379 28.0675 30.184 28.0675Z" fill="#4CBB17"/>
<path fill-rule="evenodd" clip-rule="evenodd" d="M30.1841 18.1288C27.5412 18.1288 25.3988 20.2713 25.3988 22.9141C25.3988 25.5569 27.5412 27.6994 30.1841 27.6994C32.8269 27.6994 34.9693 25.5569 34.9693 22.9141C34.9693 20.2713 32.8269 18.1288 30.1841 18.1288ZM24.6626 22.9141C24.6626 19.8647 27.1346 17.3926 30.1841 17.3926C33.2335 17.3926 35.7055 19.8647 35.7055 22.9141C35.7055 25.9635 33.2335 28.4356 30.1841 28.4356C27.1346 28.4356 24.6626 25.9635 24.6626 22.9141ZM30.1841 19.0491C28.0495 19.0491 26.319 20.7795 26.319 22.9141C26.319 25.0487 28.0495 26.7791 30.1841 26.7791C32.3187 26.7791 34.0491 25.0487 34.0491 22.9141C34.0491 20.7795 32.3187 19.0491 30.1841 19.0491ZM25.5828 22.9141C25.5828 20.3729 27.6429 18.3129 30.1841 18.3129C32.7253 18.3129 34.7853 20.3729 34.7853 22.9141C34.7853 25.4553 32.7253 27.5153 30.1841 27.5153C27.6429 27.5153 25.5828 25.4553 25.5828 22.9141Z" fill="#4CBB17"/>
<path fill-rule="evenodd" clip-rule="evenodd" d="M29.816 25.9509C30.0701 25.9509 30.2761 25.7449 30.2761 25.4908V22.9141C30.2761 22.66 30.0701 22.454 29.816 22.454C29.5618 22.454 29.3558 22.66 29.3558 22.9141V25.4908C29.3558 25.7449 29.5618 25.9509 29.816 25.9509Z" fill="#4CBB17"/>
<path fill-rule="evenodd" clip-rule="evenodd" d="M29.5031 22.9141C29.5031 23.1682 29.7091 23.3742 29.9632 23.3742L32.0245 23.3742C32.2786 23.3742 32.4846 23.1682 32.4846 22.9141C32.4846 22.66 32.2786 22.454 32.0245 22.454L29.9632 22.454C29.7091 22.454 29.5031 22.66 29.5031 22.9141Z" fill="#4CBB17"/>
<path fill-rule="evenodd" clip-rule="evenodd" d="M23.0983 32.3006C23.0983 32.0465 23.3043 31.8405 23.5584 31.8405H36.6259C36.88 31.8405 37.086 32.0465 37.086 32.3006C37.086 32.5547 36.88 32.7607 36.6259 32.7607H23.5584C23.3043 32.7607 23.0983 32.5547 23.0983 32.3006Z" fill="#4CBB17"/>
<path fill-rule="evenodd" clip-rule="evenodd" d="M22.7301 32.3006C22.7301 31.8432 23.1009 31.4724 23.5583 31.4724H36.6258C37.0832 31.4724 37.454 31.8432 37.454 32.3006C37.454 32.758 37.0832 33.1289 36.6258 33.1289H23.5583C23.1009 33.1289 22.7301 32.758 22.7301 32.3006ZM23.5583 32.2086C23.5075 32.2086 23.4663 32.2498 23.4663 32.3006C23.4663 32.3515 23.5075 32.3927 23.5583 32.3927H36.6258C36.6766 32.3927 36.7178 32.3515 36.7178 32.3006C36.7178 32.2498 36.6766 32.2086 36.6258 32.2086H23.5583Z" fill="#4CBB17"/>
<path fill-rule="evenodd" clip-rule="evenodd" d="M23.0983 37.2699C23.0983 37.0158 23.3043 36.8098 23.5584 36.8098H36.6259C36.88 36.8098 37.086 37.0158 37.086 37.2699C37.086 37.5241 36.88 37.7301 36.6259 37.7301H23.5584C23.3043 37.7301 23.0983 37.5241 23.0983 37.2699Z" fill="#4CBB17"/>
<path fill-rule="evenodd" clip-rule="evenodd" d="M22.7301 37.2699C22.7301 36.8125 23.1009 36.4417 23.5583 36.4417H36.6258C37.0832 36.4417 37.454 36.8125 37.454 37.2699C37.454 37.7273 37.0832 38.0982 36.6258 38.0982H23.5583C23.1009 38.0982 22.7301 37.7273 22.7301 37.2699ZM23.5583 37.1779C23.5075 37.1779 23.4663 37.2191 23.4663 37.2699C23.4663 37.3208 23.5075 37.362 23.5583 37.362H36.6258C36.6766 37.362 36.7178 37.3208 36.7178 37.2699C36.7178 37.2191 36.6766 37.1779 36.6258 37.1779H23.5583Z" fill="#4CBB17"/>
<path d="M33.246 45.3723C33.246 47.2043 31.7608 48.6894 29.9289 48.6894C28.0969 48.6894 26.6118 47.2043 26.6118 45.3723C26.6118 43.5403 28.0969 42.0552 29.9289 42.0552C31.7608 42.0552 33.246 43.5403 33.246 45.3723Z" fill="white"/>
<path fill-rule="evenodd" clip-rule="evenodd" d="M29.9289 47.4136C31.0562 47.4136 31.9702 46.4997 31.9702 45.3723C31.9702 44.2449 31.0562 43.331 29.9289 43.331C28.8015 43.331 27.8876 44.2449 27.8876 45.3723C27.8876 46.4997 28.8015 47.4136 29.9289 47.4136ZM29.9289 48.6894C31.7608 48.6894 33.246 47.2043 33.246 45.3723C33.246 43.5403 31.7608 42.0552 29.9289 42.0552C28.0969 42.0552 26.6118 43.5403 26.6118 45.3723C26.6118 47.2043 28.0969 48.6894 29.9289 48.6894Z" fill="#4CBB17"/>
<path d="M24.0603 55.8338C24.0603 52.4517 26.802 49.71 30.1841 49.71C33.5662 49.71 36.3079 52.4517 36.3079 55.8338V58.8957H24.0603V55.8338Z" fill="white"/>
<path fill-rule="evenodd" clip-rule="evenodd" d="M35.0321 57.6199V55.8338C35.0321 53.1563 32.8616 50.9858 30.1841 50.9858C27.5066 50.9858 25.3361 53.1563 25.3361 55.8338V57.6199H35.0321ZM30.1841 49.71C26.802 49.71 24.0603 52.4517 24.0603 55.8338V58.8957H36.3079V55.8338C36.3079 52.4517 33.5662 49.71 30.1841 49.71Z" fill="#4CBB17"/>
</svg>
