<svg width="30" height="30" viewBox="0 0 52 52" fill="none" xmlns="http://www.w3.org/2000/svg">
                          <mask id="mask0_3101_39908" style="mask-type:alpha" maskUnits="userSpaceOnUse" x="0" y="0"
                            width="52" height="52">
                            <path
                              d="M0 8.32C0 3.72499 3.72499 0 8.32 0H43.68C48.275 0 52 3.72499 52 8.32V43.68C52 48.275 48.275 52 43.68 52H8.32C3.72499 52 0 48.275 0 43.68V8.32Z"
                              fill="#D9D9D9" />
                          </mask>
                          <g mask="url(#mask0_3101_39908)">
                            <rect y="0.22168" width="52" height="52" fill="#EC1C24" />
                            <path d="M51.9999 52.2217L-6.11163e-05 51.9617L52.0001 0.221745L51.9999 52.2217Z"
                              fill="#8A4AA8" />
                          </g>
                          <g clip-path="url(#clip0_3101_39908)">
                            <path
                              d="M38.4705 39.1065H36.9185C35.6149 39.1065 34.5596 38.0511 34.5596 36.7475V29.9189C34.5596 28.6153 35.6149 27.5599 36.9185 27.5599H38.4705C39.7741 27.5599 40.8295 28.6153 40.8295 29.9189V36.8096C40.8295 38.0511 39.7741 39.1065 38.4705 39.1065Z"
                              fill="white" />
                            <path
                              d="M42.6298 36.0026C42.5677 36.313 42.5056 36.6233 42.3815 36.9337C42.2573 37.2441 42.1332 37.4924 42.009 37.8028C41.6986 38.3615 41.3261 38.7961 40.8916 39.1686L40.7054 39.2927L40.5191 39.4169L40.3329 39.541C40.2708 39.6031 40.2087 39.6031 40.1467 39.6652C39.8983 39.7893 39.65 39.9135 39.3396 40.0376C39.0913 40.1618 38.7809 40.2239 38.5326 40.286C38.2222 40.348 37.9739 40.348 37.6635 40.348C37.3531 40.348 37.1048 40.348 36.7944 40.286C36.484 40.2239 36.2357 40.1618 35.9874 40.0376C35.7391 39.9756 35.4908 39.8514 35.2425 39.6652C34.9942 39.541 34.7459 39.3548 34.5596 39.1686C34.1251 38.7961 33.7526 38.2995 33.4422 37.8028C33.3181 37.5545 33.1939 37.2441 33.0697 36.9337C32.9456 36.6233 32.8835 36.313 32.8214 36.0026C32.6973 36.6233 32.7594 37.3062 32.9456 37.9891C33.1318 38.6098 33.5043 39.2306 33.9388 39.7893C34.3734 40.286 34.9942 40.7205 35.6149 41.0309C35.9253 41.1551 36.2978 41.2792 36.6082 41.3413C36.7944 41.4034 36.9807 41.4034 37.1669 41.4034V45.5626C36.7944 45.5626 36.3599 45.6247 35.9874 45.7488C35.677 45.8109 35.4287 45.873 35.1183 45.9971C34.9942 46.0592 34.8079 46.1213 34.6838 46.1834C34.5596 46.2455 34.3734 46.3075 34.2492 46.4317C34.2492 46.4317 34.2492 46.4317 34.2492 46.4938C34.2492 46.4938 34.2492 46.5559 34.3113 46.5559H35.1804H36.0495C36.6082 46.5559 37.1669 46.5559 37.7256 46.5559C38.2843 46.5559 38.843 46.5559 39.4017 46.5559H40.2708H41.1399C41.1399 46.5559 41.1399 46.5559 41.202 46.5559V46.4938C41.0778 46.3696 40.8916 46.3075 40.7674 46.2455C40.6433 46.1834 40.457 46.1213 40.3329 46.0592C40.0225 45.9351 39.7742 45.873 39.4638 45.8109C39.0913 45.7488 38.6568 45.6868 38.2843 45.6247V41.4034C38.4705 41.4034 38.6568 41.3413 38.843 41.3413C39.2155 41.2792 39.5259 41.1551 39.8363 41.0309C40.457 40.7205 41.0778 40.348 41.5124 39.7893C41.9469 39.2927 42.3194 38.6719 42.5056 37.9891C42.6919 37.3062 42.6919 36.6233 42.6298 36.0026Z"
                              fill="white" />
                          </g>
                          <g clip-path="url(#clip1_3101_39908)">
                            <path
                              d="M13.4002 8.57996L7.7002 12.8038H5.2002V14.6425V17.0774V18.9161H7.7002L13.4002 23.14H14.6502V8.57996H13.4002Z"
                              fill="white" />
                            <path
                              d="M16.8006 19.9597C16.5506 19.9597 16.3506 19.8106 16.2506 19.5621C16.2006 19.264 16.3506 18.9658 16.6506 18.9161C17.9506 18.618 18.9506 17.3756 18.9506 15.8848C18.9506 14.4438 18.0006 13.1517 16.6506 12.8536C16.3506 12.8039 16.1506 12.5057 16.2506 12.2076C16.3006 11.9094 16.6006 11.7106 16.9006 11.81C18.7006 12.2076 20.0006 13.8971 20.0006 15.8848C20.0006 17.8229 18.7006 19.5621 16.9006 19.9597C16.8506 19.91 16.8006 19.9597 16.8006 19.9597Z"
                              fill="white" />
                            <path
                              d="M20.1006 21.6492C19.8506 21.6492 19.6506 21.5001 19.5506 21.2517C19.5006 20.9535 19.6506 20.6553 19.9506 20.6056C22.0506 20.1584 23.5506 18.1707 23.5506 15.8848C23.5506 13.599 22.0006 11.6112 19.9006 11.164C19.6006 11.1143 19.4006 10.8162 19.5006 10.518C19.5506 10.2198 19.8506 10.0211 20.1506 10.1205C22.7506 10.6671 24.6506 13.102 24.6506 15.8848C24.6506 18.6676 22.7506 21.1026 20.2006 21.6492C20.2006 21.6492 20.1506 21.6492 20.1006 21.6492Z"
                              fill="white" />
                          </g>
                          <defs>
                            <clipPath id="clip0_3101_39908">
                              <rect width="9.93251" height="19.058" fill="white"
                                transform="translate(32.7598 27.5599)" />
                            </clipPath>
                            <clipPath id="clip1_3101_39908">
                              <rect width="19.5" height="14.56" fill="white" transform="translate(5.2002 8.57996)" />
                            </clipPath>
                          </defs>
                        </svg>