<svg width="60" height="60" viewBox="0 0 60 60" fill="none" xmlns="http://www.w3.org/2000/svg">
<path opacity="0.2" d="M48.75 20.625H35.625V7.5L48.75 20.625Z" fill="#8E44AD"/>
<path d="M50.0766 19.2984L36.9516 6.17344C36.7773 5.99937 36.5705 5.86135 36.3428 5.76724C36.1152 5.67314 35.8713 5.62481 35.625 5.625H13.125C12.1304 5.625 11.1766 6.02009 10.4733 6.72335C9.77009 7.42661 9.375 8.38044 9.375 9.375V50.625C9.375 51.6196 9.77009 52.5734 10.4733 53.2766C11.1766 53.9799 12.1304 54.375 13.125 54.375H46.875C47.8696 54.375 48.8234 53.9799 49.5266 53.2766C50.2299 52.5734 50.625 51.6196 50.625 50.625V20.625C50.6252 20.3787 50.5769 20.1348 50.4828 19.9072C50.3887 19.6795 50.2506 19.4727 50.0766 19.2984ZM37.5 12.0258L44.2242 18.75H37.5V12.0258ZM46.875 50.625H13.125V9.375H33.75V20.625C33.75 21.1223 33.9475 21.5992 34.2992 21.9508C34.6508 22.3025 35.1277 22.5 35.625 22.5H46.875V50.625Z" fill="#8E44AD"/>
<path opacity="0.2" d="M39.8438 27.1875V41.9531H20.1562V25.5469H38.2031C38.6382 25.5469 39.0555 25.7197 39.3632 26.0274C39.6709 26.3351 39.8438 26.7524 39.8438 27.1875Z" fill="#8E44AD"/>
<path d="M40.6641 41.9531C40.6641 42.1707 40.5776 42.3793 40.4238 42.5332C40.27 42.687 40.0613 42.7734 39.8438 42.7734H20.1562C19.9387 42.7734 19.73 42.687 19.5762 42.5332C19.4224 42.3793 19.3359 42.1707 19.3359 41.9531V25.5469C19.3359 25.3293 19.4224 25.1207 19.5762 24.9668C19.73 24.813 19.9387 24.7266 20.1562 24.7266C20.3738 24.7266 20.5825 24.813 20.7363 24.9668C20.8901 25.1207 20.9766 25.3293 20.9766 25.5469V36.6918L26.1384 31.529C26.2146 31.4527 26.305 31.3922 26.4046 31.3509C26.5042 31.3097 26.6109 31.2884 26.7188 31.2884C26.8266 31.2884 26.9333 31.3097 27.0329 31.3509C27.1325 31.3922 27.2229 31.4527 27.2991 31.529L30 34.2309L35.4028 28.8281H33.2812C33.0637 28.8281 32.855 28.7417 32.7012 28.5879C32.5474 28.434 32.4609 28.2254 32.4609 28.0078C32.4609 27.7903 32.5474 27.5816 32.7012 27.4278C32.855 27.2739 33.0637 27.1875 33.2812 27.1875H37.3828C37.6004 27.1875 37.809 27.2739 37.9629 27.4278C38.1167 27.5816 38.2031 27.7903 38.2031 28.0078V32.1094C38.2031 32.3269 38.1167 32.5356 37.9629 32.6894C37.809 32.8433 37.6004 32.9297 37.3828 32.9297C37.1653 32.9297 36.9566 32.8433 36.8028 32.6894C36.6489 32.5356 36.5625 32.3269 36.5625 32.1094V29.9878L30.5804 35.971C30.5042 36.0473 30.4137 36.1078 30.3141 36.1491C30.2145 36.1903 30.1078 36.2116 30 36.2116C29.8922 36.2116 29.7855 36.1903 29.6859 36.1491C29.5863 36.1078 29.4958 36.0473 29.4196 35.971L26.7188 33.2691L20.9766 39.0113V41.1328H39.8438C40.0613 41.1328 40.27 41.2192 40.4238 41.3731C40.5776 41.5269 40.6641 41.7356 40.6641 41.9531Z" fill="#8E44AD"/>
</svg>
