<svg width="46" height="42" viewBox="0 0 46 42" fill="none" xmlns="http://www.w3.org/2000/svg">
<path d="M45.687 21C45.687 21.4973 45.4894 21.9742 45.1378 22.3258C44.7862 22.6775 44.3093 22.875 43.812 22.875H23.187C22.6897 22.875 22.2128 22.6775 21.8612 22.3258C21.5095 21.9742 21.312 21.4973 21.312 21C21.312 20.5027 21.5095 20.0258 21.8612 19.6742C22.2128 19.3225 22.6897 19.125 23.187 19.125H43.812C44.3093 19.125 44.7862 19.3225 45.1378 19.6742C45.4894 20.0258 45.687 20.5027 45.687 21ZM23.187 7.875H43.812C44.3093 7.875 44.7862 7.67746 45.1378 7.32583C45.4894 6.9742 45.687 6.49729 45.687 6C45.687 5.50272 45.4894 5.02581 45.1378 4.67418C44.7862 4.32255 44.3093 4.125 43.812 4.125H23.187C22.6897 4.125 22.2128 4.32255 21.8612 4.67418C21.5095 5.02581 21.312 5.50272 21.312 6C21.312 6.49729 21.5095 6.9742 21.8612 7.32583C22.2128 7.67746 22.6897 7.875 23.187 7.875ZM43.812 34.125H23.187C22.6897 34.125 22.2128 34.3225 21.8612 34.6742C21.5095 35.0258 21.312 35.5027 21.312 36C21.312 36.4973 21.5095 36.9742 21.8612 37.3258C22.2128 37.6775 22.6897 37.875 23.187 37.875H43.812C44.3093 37.875 44.7862 37.6775 45.1378 37.3258C45.4894 36.9742 45.687 36.4973 45.687 36C45.687 35.5027 45.4894 35.0258 45.1378 34.6742C44.7862 34.3225 44.3093 34.125 43.812 34.125ZM12.4854 0.923442L6.31198 7.09922L3.88854 4.67344C3.53672 4.32162 3.05954 4.12396 2.56198 4.12396C2.06442 4.12396 1.58725 4.32162 1.23542 4.67344C0.883593 5.02527 0.685939 5.50245 0.685939 6C0.685939 6.49756 0.883593 6.97474 1.23542 7.32657L4.98542 11.0766C5.15956 11.2509 5.36635 11.3892 5.59397 11.4836C5.82159 11.5779 6.06558 11.6265 6.31198 11.6265C6.55838 11.6265 6.80237 11.5779 7.02999 11.4836C7.25762 11.3892 7.46441 11.2509 7.63854 11.0766L15.1385 3.57657C15.4904 3.22474 15.688 2.74756 15.688 2.25C15.688 1.75245 15.4904 1.27527 15.1385 0.923442C14.7867 0.571616 14.3095 0.373962 13.812 0.373962C13.3144 0.373962 12.8372 0.571616 12.4854 0.923442ZM12.4854 15.9234L6.31198 22.0992L3.88854 19.6734C3.53672 19.3216 3.05954 19.124 2.56198 19.124C2.06442 19.124 1.58725 19.3216 1.23542 19.6734C0.883593 20.0253 0.685939 20.5024 0.685939 21C0.685939 21.2464 0.734464 21.4903 0.828744 21.7179C0.923024 21.9455 1.06121 22.1524 1.23542 22.3266L4.98542 26.0766C5.15956 26.2509 5.36635 26.3892 5.59397 26.4836C5.82159 26.5779 6.06558 26.6265 6.31198 26.6265C6.55838 26.6265 6.80237 26.5779 7.02999 26.4836C7.25762 26.3892 7.46441 26.2509 7.63854 26.0766L15.1385 18.5766C15.4904 18.2247 15.688 17.7476 15.688 17.25C15.688 16.7524 15.4904 16.2753 15.1385 15.9234C14.7867 15.5716 14.3095 15.374 13.812 15.374C13.3144 15.374 12.8372 15.5716 12.4854 15.9234ZM12.4854 30.9234L6.31198 37.0992L3.88854 34.6734C3.71434 34.4992 3.50752 34.3611 3.27991 34.2668C3.0523 34.1725 2.80835 34.124 2.56198 34.124C2.31562 34.124 2.07166 34.1725 1.84405 34.2668C1.61644 34.3611 1.40963 34.4992 1.23542 34.6734C1.06121 34.8476 0.923024 35.0545 0.828744 35.2821C0.734464 35.5097 0.685939 35.7536 0.685939 36C0.685939 36.2464 0.734464 36.4903 0.828744 36.7179C0.923024 36.9455 1.06121 37.1524 1.23542 37.3266L4.98542 41.0766C5.15956 41.2509 5.36635 41.3892 5.59397 41.4836C5.82159 41.5779 6.06558 41.6265 6.31198 41.6265C6.55838 41.6265 6.80237 41.5779 7.02999 41.4836C7.25762 41.3892 7.46441 41.2509 7.63854 41.0766L15.1385 33.5766C15.4904 33.2247 15.688 32.7476 15.688 32.25C15.688 31.7524 15.4904 31.2753 15.1385 30.9234C14.7867 30.5716 14.3095 30.374 13.812 30.374C13.3144 30.374 12.8372 30.5716 12.4854 30.9234Z" fill="#4CBB17"/>
</svg>
