<svg width="12" height="14" viewBox="0 0 12 14" fill="none" xmlns="http://www.w3.org/2000/svg">
<path fill-rule="evenodd" clip-rule="evenodd" d="M6 2.99992C8.76142 2.99992 11 5.2385 11 7.99992C11 10.7613 8.76142 12.9999 6 12.9999C3.23858 12.9999 1 10.7613 1 7.99992C1 7.25449 1.1628 6.54845 1.45431 5.91426C1.56963 5.66335 1.45973 5.36646 1.20882 5.25113C0.957916 5.1358 0.661024 5.24571 0.545694 5.49661C0.195193 6.25915 0 7.10742 0 7.99992C0 11.3136 2.68629 13.9999 6 13.9999C9.31371 13.9999 12 11.3136 12 7.99992C12 4.68621 9.31371 1.99992 6 1.99992V2.99992Z" fill="#7A7A7A"/>
<path d="M6 4.46616V0.533681C6 0.321722 5.75279 0.205932 5.58995 0.341626L3.23047 2.30787C3.11053 2.40781 3.11053 2.59203 3.23047 2.69198L5.58995 4.65822C5.75279 4.79391 6 4.67812 6 4.46616Z" fill="#7A7A7A"/>
</svg>
