<svg width="50" height="42" viewBox="0 0 50 42" fill="none" xmlns="http://www.w3.org/2000/svg">
<path d="M45.625 0.375H11.875C10.8804 0.375 9.92661 0.770088 9.22335 1.47335C8.52009 2.17661 8.125 3.13044 8.125 4.125V7.875H4.375C3.38044 7.875 2.42661 8.27009 1.72335 8.97335C1.02009 9.67661 0.625 10.6304 0.625 11.625V37.875C0.625 38.8696 1.02009 39.8234 1.72335 40.5266C2.42661 41.2299 3.38044 41.625 4.375 41.625H38.125C39.1196 41.625 40.0734 41.2299 40.7766 40.5266C41.4799 39.8234 41.875 38.8696 41.875 37.875V34.125H45.625C46.6196 34.125 47.5734 33.7299 48.2766 33.0266C48.9799 32.3234 49.375 31.3696 49.375 30.375V4.125C49.375 3.13044 48.9799 2.17661 48.2766 1.47335C47.5734 0.770088 46.6196 0.375 45.625 0.375ZM4.375 11.625H38.125V15.375H4.375V11.625ZM38.125 37.875H4.375V19.125H38.125V37.875ZM45.625 30.375H41.875V11.625C41.875 10.6304 41.4799 9.67661 40.7766 8.97335C40.0734 8.27009 39.1196 7.875 38.125 7.875H11.875V4.125H45.625V30.375Z" fill="#1C51E1"/>
</svg>
