<svg width="60" height="60" viewBox="0 0 60 60" fill="none" xmlns="http://www.w3.org/2000/svg">
<path opacity="0.2" d="M52.5 13.125V21.1078C51.4566 20.236 50.2511 19.579 48.9528 19.1749C47.6546 18.7707 46.2892 18.6273 44.9353 18.7528C43.5814 18.8784 42.2657 19.2704 41.0639 19.9064C39.8621 20.5424 38.798 21.4098 37.9327 22.4586C37.0674 23.5075 36.4181 24.7171 36.0221 26.0179C35.6261 27.3186 35.4912 28.6849 35.6253 30.038C35.7593 31.391 36.1596 32.7043 36.8032 33.902C37.4467 35.0998 38.3207 36.1585 39.375 37.0172V45H9.375C8.87772 45 8.40081 44.8025 8.04918 44.4508C7.69754 44.0992 7.5 43.6223 7.5 43.125V13.125C7.5 12.6277 7.69754 12.1508 8.04918 11.7992C8.40081 11.4475 8.87772 11.25 9.375 11.25H50.625C51.1223 11.25 51.5992 11.4475 51.9508 11.7992C52.3025 12.1508 52.5 12.6277 52.5 13.125Z" fill="#FFA903"/>
<path d="M30 31.875C30 32.3723 29.8025 32.8492 29.4508 33.2008C29.0992 33.5525 28.6223 33.75 28.125 33.75H16.875C16.3777 33.75 15.9008 33.5525 15.5492 33.2008C15.1975 32.8492 15 32.3723 15 31.875C15 31.3777 15.1975 30.9008 15.5492 30.5492C15.9008 30.1975 16.3777 30 16.875 30H28.125C28.6223 30 29.0992 30.1975 29.4508 30.5492C29.8025 30.9008 30 31.3777 30 31.875ZM28.125 22.5H16.875C16.3777 22.5 15.9008 22.6975 15.5492 23.0492C15.1975 23.4008 15 23.8777 15 24.375C15 24.8723 15.1975 25.3492 15.5492 25.7008C15.9008 26.0525 16.3777 26.25 16.875 26.25H28.125C28.6223 26.25 29.0992 26.0525 29.4508 25.7008C29.8025 25.3492 30 24.8723 30 24.375C30 23.8777 29.8025 23.4008 29.4508 23.0492C29.0992 22.6975 28.6223 22.5 28.125 22.5ZM54.375 37.8445V52.5C54.378 52.8306 54.2935 53.156 54.1302 53.4434C53.9668 53.7308 53.7304 53.9699 53.4448 54.1365C53.1593 54.303 52.8348 54.3911 52.5042 54.3919C52.1737 54.3926 51.8488 54.3059 51.5625 54.1406L45.9375 50.9203L40.3125 54.1406C40.0262 54.3059 39.7013 54.3926 39.3708 54.3919C39.0402 54.3911 38.7157 54.303 38.4302 54.1365C38.1446 53.9699 37.9082 53.7308 37.7448 53.4434C37.5815 53.156 37.497 52.8306 37.5 52.5V46.875H9.375C8.38044 46.875 7.42661 46.4799 6.72335 45.7766C6.02009 45.0734 5.625 44.1196 5.625 43.125V13.125C5.625 12.1304 6.02009 11.1766 6.72335 10.4733C7.42661 9.77009 8.38044 9.375 9.375 9.375H50.625C51.6196 9.375 52.5734 9.77009 53.2766 10.4733C53.9799 11.1766 54.375 12.1304 54.375 13.125V20.2805C55.5603 21.4155 56.5035 22.7787 57.1479 24.288C57.7923 25.7973 58.1245 27.4214 58.1245 29.0625C58.1245 30.7036 57.7923 32.3277 57.1479 33.837C56.5035 35.3463 55.5603 36.7095 54.375 37.8445ZM37.5 43.125V37.8445C35.4567 35.874 34.1654 33.252 33.8489 30.431C33.5323 27.6101 34.2104 24.7671 35.7661 22.3927C37.3218 20.0183 39.6576 18.2615 42.3703 17.4253C45.083 16.5891 48.0025 16.726 50.625 17.8125V13.125H9.375V43.125H37.5ZM50.625 40.3125C49.1401 40.9329 47.5468 41.2523 45.9375 41.2523C44.3282 41.2523 42.7349 40.9329 41.25 40.3125V49.2703L45 47.1234C45.2834 46.9615 45.6041 46.8763 45.9305 46.8763C46.2569 46.8763 46.5776 46.9615 46.8609 47.1234L50.6109 49.2703L50.625 40.3125ZM54.375 29.0625C54.375 27.3937 53.8801 25.7624 52.953 24.3749C52.0259 22.9873 50.7081 21.9059 49.1664 21.2673C47.6246 20.6287 45.9281 20.4616 44.2914 20.7871C42.6547 21.1127 41.1513 21.9163 39.9713 23.0963C38.7913 24.2763 37.9877 25.7797 37.6621 27.4164C37.3366 29.0531 37.5037 30.7496 38.1423 32.2914C38.7809 33.8331 39.8623 35.1509 41.2499 36.078C42.6374 37.0051 44.2687 37.5 45.9375 37.5C47.0455 37.5 48.1427 37.2818 49.1664 36.8577C50.1901 36.4337 51.1202 35.8122 51.9037 35.0287C52.6872 34.2452 53.3087 33.3151 53.7327 32.2914C54.1568 31.2677 54.375 30.1705 54.375 29.0625Z" fill="#FFA903"/>
<path d="M52.4173 29.2394C52.4173 29.965 52.3394 30.5937 52.1837 31.1255C52.0279 31.6574 51.8114 32.098 51.5341 32.4475C51.2606 32.797 50.9339 33.0572 50.554 33.2282C50.1779 33.3991 49.7696 33.4846 49.3289 33.4846C48.8882 33.4846 48.4799 33.3991 48.1038 33.2282C47.7315 33.0572 47.4086 32.797 47.1351 32.4475C46.8616 32.098 46.647 31.6574 46.4912 31.1255C46.3393 30.5937 46.2633 29.965 46.2633 29.2394C46.2633 28.5139 46.3393 27.8852 46.4912 27.3533C46.647 26.8215 46.8616 26.3809 47.1351 26.0314C47.4086 25.6819 47.7315 25.4236 48.1038 25.2564C48.4799 25.0855 48.8882 25 49.3289 25C49.7696 25 50.1779 25.0855 50.554 25.2564C50.9339 25.4236 51.2606 25.6819 51.5341 26.0314C51.8114 26.3809 52.0279 26.8215 52.1837 27.3533C52.3394 27.8852 52.4173 28.5139 52.4173 29.2394ZM50.5939 29.2394C50.5939 28.6658 50.5578 28.1967 50.4856 27.832C50.4135 27.4635 50.3166 27.1748 50.195 26.9659C50.0773 26.7569 49.9424 26.6145 49.7905 26.5385C49.6385 26.4587 49.4847 26.4188 49.3289 26.4188C49.1732 26.4188 49.0193 26.4587 48.8674 26.5385C48.7192 26.6145 48.5862 26.7569 48.4685 26.9659C48.3545 27.1748 48.2614 27.4635 48.1893 27.832C48.1209 28.1967 48.0867 28.6658 48.0867 29.2394C48.0867 29.8169 48.1209 30.2879 48.1893 30.6526C48.2614 31.0173 48.3545 31.306 48.4685 31.5187C48.5862 31.7277 48.7192 31.872 48.8674 31.9518C49.0193 32.0278 49.1732 32.0657 49.3289 32.0657C49.4847 32.0657 49.6385 32.0278 49.7905 31.9518C49.9424 31.872 50.0773 31.7277 50.195 31.5187C50.3166 31.306 50.4135 31.0173 50.4856 30.6526C50.5578 30.2879 50.5939 29.8169 50.5939 29.2394Z" fill="#FFA903"/>
<path d="M45.4133 32.1168V33.3932H40.6838V32.1168H42.2793V27.9287C42.2793 27.8223 42.2812 27.7159 42.285 27.6096C42.2888 27.4994 42.2945 27.3892 42.3021 27.2791L41.3562 28.0654C41.2726 28.13 41.189 28.1699 41.1054 28.1851C41.0257 28.1965 40.9497 28.1965 40.8775 28.1851C40.8053 28.1699 40.7408 28.1452 40.6838 28.111C40.6268 28.073 40.585 28.035 40.5584 27.997L40 27.2563L42.587 25.0853H44.0457V32.1168H45.4133Z" fill="#FFA903"/>
</svg>
