<svg width="30" height="30" viewBox="0 0 52 52" fill="none" xmlns="http://www.w3.org/2000/svg">
                          <mask id="mask0_3101_39939" style="mask-type:alpha" maskUnits="userSpaceOnUse" x="0" y="0"
                            width="52" height="52">
                            <path
                              d="M0 8.32C0 3.72499 3.72499 0 8.32 0H43.68C48.275 0 52 3.72499 52 8.32V43.68C52 48.275 48.275 52 43.68 52H8.32C3.72499 52 0 48.275 0 43.68V8.32Z"
                              fill="#D9D9D9" />
                          </mask>
                          <g mask="url(#mask0_3101_39939)">
                            <rect y="-1.04004" width="52" height="53.3" fill="#FFD400" />
                            <path d="M51.9999 52.2217L-6.11163e-05 51.9617L52.0001 0.221745L51.9999 52.2217Z"
                              fill="#02AD4B" />
                            <path
                              d="M24.7817 9.41196V21.5767H24.1545C17.5927 21.5767 16.2147 23.0815 16.0067 23.3772H14.7652C14.5735 23.0945 13.2215 21.5767 6.60772 21.5767H5.98047V9.41196H6.60772C6.87097 9.41196 7.11797 9.41521 7.36497 9.42171V8.57996H7.64122C13.0037 8.57996 14.801 9.86371 15.3827 10.556C15.9612 9.86371 17.7617 8.57996 23.1242 8.57996H23.4005V9.42171C23.6475 9.41521 23.8945 9.41196 24.1577 9.41196H24.785H24.7817ZM22.7082 19.5032V9.27546C17.0792 9.35021 15.9547 10.881 15.7955 11.1605V21.0275C16.7217 20.345 18.6587 19.5552 22.7082 19.5032ZM14.9667 21.0275V11.1572C14.8205 10.9037 13.7252 9.35021 8.05397 9.27871V19.5065C12.1035 19.5585 14.0405 20.3482 14.9667 21.0307V21.0275Z"
                              fill="#1A50A0" />
                            <path
                              d="M22.7086 9.27551V19.5033C18.6591 19.5553 16.7221 20.345 15.7959 21.0275V11.1605C15.9519 10.8843 17.0796 9.35026 22.7086 9.27551Z"
                              fill="white" />
                            <path
                              d="M14.9665 11.1573V21.0275C14.0402 20.345 12.1032 19.5553 8.05371 19.5033V9.27551C13.725 9.35026 14.8202 10.9038 14.9665 11.154V11.1573Z"
                              fill="white" />
                            <path
                              d="M41.3529 34.879V42.926C41.3529 43.6118 40.8459 44.1805 40.2381 44.1805H30.4946C29.8836 44.1805 29.3799 43.6118 29.3799 42.926V30.6345C29.3799 29.939 29.8869 29.38 30.4946 29.38H40.2349C40.8459 29.38 41.3496 29.939 41.3496 30.6345V34.879H41.3529ZM40.5079 42.926V30.6345C40.5079 30.3908 40.3616 30.212 40.2349 30.212H30.4946C30.3679 30.212 30.2216 30.3908 30.2216 30.6345V42.9228C30.2216 43.1665 30.3679 43.3323 30.4946 43.3323H40.2349C40.3616 43.3323 40.5079 43.1633 40.5079 42.9228V42.926Z"
                              fill="white" />
                            <path
                              d="M40.5079 36.1953V42.926C40.5079 43.1698 40.3617 43.3355 40.2349 43.3355H30.4947C30.3679 43.3355 30.2217 43.1665 30.2217 42.926V30.6345C30.2217 30.3908 30.3679 30.212 30.4947 30.212H40.2349C40.3617 30.212 40.5079 30.3908 40.5079 30.6345V36.1953Z"
                              fill="#00A14B" />
                            <path
                              d="M39.1233 32.0385H31.5963C31.3558 32.0385 31.1641 31.8435 31.1641 31.6062C31.1641 31.369 31.3591 31.174 31.5963 31.174H39.1233C39.3638 31.174 39.5556 31.369 39.5556 31.6062C39.5556 31.8435 39.3606 32.0385 39.1233 32.0385Z"
                              fill="white" />
                            <path
                              d="M39.1233 34.619H31.5963C31.3558 34.619 31.1641 34.424 31.1641 34.1868C31.1641 33.9495 31.3591 33.7545 31.5963 33.7545H39.1233C39.3638 33.7545 39.5556 33.9495 39.5556 34.1868C39.5556 34.424 39.3606 34.619 39.1233 34.619Z"
                              fill="white" />
                            <path
                              d="M39.1233 37.1995H31.5963C31.3558 37.1995 31.1641 37.0045 31.1641 36.7672C31.1641 36.53 31.3591 36.335 31.5963 36.335H39.1233C39.3638 36.335 39.5556 36.53 39.5556 36.7672C39.5556 37.0045 39.3606 37.1995 39.1233 37.1995Z"
                              fill="white" />
                            <path
                              d="M39.1233 39.7832H31.5963C31.3558 39.7832 31.1641 39.5882 31.1641 39.3509C31.1641 39.1137 31.3591 38.9187 31.5963 38.9187H39.1233C39.3638 38.9187 39.5556 39.1137 39.5556 39.3509C39.5556 39.5882 39.3606 39.7832 39.1233 39.7832Z"
                              fill="white" />
                            <path
                              d="M35.3663 42.3638H31.5963C31.3558 42.3638 31.1641 42.1688 31.1641 41.9315C31.1641 41.6943 31.3591 41.4993 31.5963 41.4993H35.3663C35.6068 41.4993 35.7986 41.6943 35.7986 41.9315C35.7986 42.1688 35.6036 42.3638 35.3663 42.3638Z"
                              fill="white" />
                            <path
                              d="M38.1352 40.8882L45.7987 33.2247H45.8019L46.5884 32.4414C46.8907 32.1392 46.8907 31.6419 46.5884 31.3364L45.1974 29.9454C44.8952 29.6432 44.3979 29.6432 44.0924 29.9454L43.3059 30.7319H43.3092L35.6457 38.3987L35.6359 38.3889L35.4962 39.7832L35.3564 41.1774L36.7507 41.0377L38.1449 40.8979L38.1352 40.8882Z"
                              fill="white" />
                            <path
                              d="M44.6452 29.718C44.8467 29.718 45.045 29.7927 45.1977 29.9455L46.5887 31.3365C46.891 31.6387 46.891 32.136 46.5887 32.4415L45.8022 33.228H45.799L38.1355 40.8882L38.1452 40.898L36.751 41.0377L35.3567 41.1775L35.4965 39.7832L35.6362 38.389L35.646 38.3987L43.3095 30.7352H43.3062L44.0927 29.9455C44.2455 29.7927 44.4437 29.718 44.6452 29.718ZM44.6452 29.4287C44.3592 29.4287 44.0895 29.5392 43.888 29.7407L43.1015 30.5272C43.1015 30.5272 43.0755 30.5532 43.0657 30.5695L35.503 38.1322C35.4152 38.1745 35.3535 38.2622 35.3437 38.363L35.204 39.7572L35.0642 41.1515C35.0545 41.2392 35.087 41.3237 35.1487 41.3855C35.204 41.4407 35.2755 41.47 35.3535 41.47C35.3632 41.47 35.373 41.47 35.3827 41.47L36.777 41.3302L38.1712 41.1905C38.272 41.1807 38.3565 41.119 38.402 41.0312L45.9647 33.4685C45.9647 33.4685 45.994 33.4457 46.007 33.4327L46.7935 32.6462C47.2095 32.2302 47.2095 31.551 46.7935 31.135L45.4025 29.744C45.201 29.5425 44.9312 29.432 44.6452 29.432V29.4287Z"
                              fill="white" />
                            <path d="M42.963 31.0825L35.9561 38.0894L38.4449 40.5782L45.4518 33.5713L42.963 31.0825Z"
                              fill="#1A50A0" />
                            <path d="M44.0394 32.1147L36.9658 39.1882L37.3496 39.572L44.4231 32.4985L44.0394 32.1147Z"
                              fill="white" />
                            <path
                              d="M36.8944 39.6434L38.1489 40.8979L36.7546 41.0377L35.3604 41.1742L35.5001 39.7799L35.6366 38.3889L36.8944 39.6434Z"
                              fill="#1A50A0" />
                            <path
                              d="M46.5921 32.4414C46.8943 32.1392 46.8943 31.6419 46.5921 31.3364L45.2011 29.9454C44.8988 29.6432 44.4016 29.6432 44.0961 29.9454L43.3096 30.7319L45.8056 33.2279L46.5921 32.4414Z"
                              fill="#1A50A0" />
                          </g>
                        </svg>