<svg width="60" height="60" viewBox="0 0 60 60" fill="none" xmlns="http://www.w3.org/2000/svg">
<path opacity="0.2" d="M45.9093 45.9096L36.628 36.6283C38.3856 34.8702 39.3729 32.4861 39.3729 30.0002C39.3729 27.5143 38.3856 25.1301 36.628 23.3721L45.9093 14.0908C50.1285 18.3103 52.4989 24.0331 52.4989 30.0002C52.4989 35.9673 50.1285 41.69 45.9093 45.9096ZM14.0905 14.0908C9.8713 18.3103 7.50098 24.0331 7.50098 30.0002C7.50098 35.9673 9.8713 41.69 14.0905 45.9096L23.3718 36.6283C21.6143 34.8702 20.6269 32.4861 20.6269 30.0002C20.6269 27.5143 21.6143 25.1301 23.3718 23.3721L14.0905 14.0908Z" fill="#FF0000"/>
<path d="M30 5.625C25.1791 5.625 20.4664 7.05457 16.458 9.73293C12.4495 12.4113 9.32533 16.2181 7.48045 20.6721C5.63556 25.126 5.15285 30.027 6.09337 34.7553C7.03388 39.4836 9.35538 43.8268 12.7643 47.2357C16.1732 50.6446 20.5164 52.9661 25.2447 53.9066C29.973 54.8472 34.874 54.3644 39.3279 52.5196C43.7819 50.6747 47.5887 47.5505 50.2671 43.542C52.9454 39.5336 54.375 34.8209 54.375 30C54.3682 23.5374 51.7979 17.3415 47.2282 12.7718C42.6585 8.20209 36.4626 5.63182 30 5.625ZM39.1641 36.5133C40.5207 34.6124 41.2498 32.3353 41.2498 30C41.2498 27.6647 40.5207 25.3876 39.1641 23.4867L45.8438 16.8094C48.9331 20.5107 50.6252 25.1789 50.6252 30C50.6252 34.8211 48.9331 39.4893 45.8438 43.1906L39.1641 36.5133ZM22.5 30C22.5 28.5166 22.9399 27.0666 23.764 25.8332C24.5881 24.5999 25.7594 23.6386 27.1299 23.0709C28.5003 22.5032 30.0083 22.3547 31.4632 22.6441C32.918 22.9335 34.2544 23.6478 35.3033 24.6967C36.3522 25.7456 37.0665 27.082 37.3559 28.5368C37.6453 29.9917 37.4968 31.4997 36.9291 32.8701C36.3615 34.2406 35.4002 35.4119 34.1668 36.236C32.9334 37.0601 31.4834 37.5 30 37.5C28.0109 37.5 26.1032 36.7098 24.6967 35.3033C23.2902 33.8968 22.5 31.9891 22.5 30ZM43.1906 14.1562L36.5133 20.8359C34.6124 19.4794 32.3353 18.7502 30 18.7502C27.6647 18.7502 25.3876 19.4794 23.4867 20.8359L16.8094 14.1562C20.5107 11.0669 25.1789 9.37477 30 9.37477C34.8211 9.37477 39.4893 11.0669 43.1906 14.1562ZM14.1563 16.8094L20.8359 23.4867C19.4794 25.3876 18.7502 27.6647 18.7502 30C18.7502 32.3353 19.4794 34.6124 20.8359 36.5133L14.1563 43.1906C11.067 39.4893 9.37478 34.8211 9.37478 30C9.37478 25.1789 11.067 20.5107 14.1563 16.8094ZM16.8094 45.8438L23.4867 39.1641C25.3876 40.5206 27.6647 41.2498 30 41.2498C32.3353 41.2498 34.6124 40.5206 36.5133 39.1641L43.1906 45.8438C39.4893 48.9331 34.8211 50.6252 30 50.6252C25.1789 50.6252 20.5107 48.9331 16.8094 45.8438Z" fill="#FF0000"/>
</svg>
