<svg width="60" height="60" viewBox="0 0 60 60" fill="none" xmlns="http://www.w3.org/2000/svg">
<path opacity="0.2" d="M52.5 13.125V39.375C52.5 39.8723 52.3025 40.3492 51.9508 40.7008C51.5992 41.0525 51.1223 41.25 50.625 41.25H45V20.625C45 20.1277 44.8025 19.6508 44.4508 19.2992C44.0992 18.9475 43.6223 18.75 43.125 18.75H15V13.125C15 12.6277 15.1975 12.1508 15.5492 11.7992C15.9008 11.4475 16.3777 11.25 16.875 11.25H50.625C51.1223 11.25 51.5992 11.4475 51.9508 11.7992C52.3025 12.1508 52.5 12.6277 52.5 13.125Z" fill="#F40CC1"/>
<path d="M50.625 9.375H16.875C15.8804 9.375 14.9266 9.77009 14.2233 10.4733C13.5201 11.1766 13.125 12.1304 13.125 13.125V16.875H9.375C8.38044 16.875 7.42661 17.2701 6.72335 17.9734C6.02009 18.6766 5.625 19.6304 5.625 20.625V46.875C5.625 47.8696 6.02009 48.8234 6.72335 49.5266C7.42661 50.2299 8.38044 50.625 9.375 50.625H43.125C44.1196 50.625 45.0734 50.2299 45.7766 49.5266C46.4799 48.8234 46.875 47.8696 46.875 46.875V43.125H50.625C51.6196 43.125 52.5734 42.7299 53.2766 42.0266C53.9799 41.3234 54.375 40.3696 54.375 39.375V13.125C54.375 12.1304 53.9799 11.1766 53.2766 10.4733C52.5734 9.77009 51.6196 9.375 50.625 9.375ZM9.375 20.625H43.125V24.375H9.375V20.625ZM43.125 46.875H9.375V28.125H43.125V46.875ZM50.625 39.375H46.875V20.625C46.875 19.6304 46.4799 18.6766 45.7766 17.9734C45.0734 17.2701 44.1196 16.875 43.125 16.875H16.875V13.125H50.625V39.375Z" fill="#F40CC1"/>
<path d="M33.2369 33.2889L27.2369 31.2889C27.0832 31.237 26.9168 31.237 26.7631 31.2889L20.7631 33.2889C20.62 33.3363 20.4944 33.4258 20.4029 33.5457C20.3114 33.6655 20.2581 33.8102 20.25 33.9608C20.2493 33.9739 20.2493 33.987 20.25 34.0002V39.0002C20.25 39.1991 20.329 39.3898 20.4697 39.5305C20.6103 39.6711 20.8011 39.7502 21 39.7502C21.1989 39.7502 21.3897 39.6711 21.5304 39.5305C21.671 39.3898 21.75 39.1991 21.75 39.0002V35.0408L23.2319 35.5345C22.772 36.4148 22.6353 37.4285 22.8457 38.3992C23.056 39.3699 23.6001 40.2361 24.3831 40.847C23.3584 41.3523 22.4912 42.128 21.875 43.0902C21.8195 43.1726 21.781 43.2653 21.7616 43.3628C21.7423 43.4603 21.7425 43.5606 21.7623 43.658C21.7821 43.7555 21.821 43.848 21.8768 43.9302C21.9327 44.0124 22.0043 44.0827 22.0876 44.137C22.1708 44.1913 22.264 44.2285 22.3618 44.2465C22.4595 44.2644 22.5599 44.2628 22.657 44.2416C22.7541 44.2205 22.8461 44.1802 22.9275 44.1232C23.0089 44.0662 23.0782 43.9935 23.1313 43.9095C24.0231 42.537 25.4375 41.7502 27 41.7502C28.5625 41.7502 29.9769 42.537 30.8719 43.9095C30.925 43.9935 30.9943 44.0662 31.0757 44.1232C31.1571 44.1802 31.2491 44.2205 31.3462 44.2416C31.4433 44.2628 31.5436 44.2644 31.6414 44.2465C31.7392 44.2285 31.8324 44.1913 31.9156 44.137C31.9989 44.0827 32.0705 44.0124 32.1263 43.9302C32.1822 43.848 32.2211 43.7555 32.2409 43.658C32.2607 43.5606 32.2609 43.4603 32.2415 43.3628C32.2222 43.2653 32.1836 43.1726 32.1281 43.0902C31.5114 42.1268 30.643 41.3505 29.6169 40.8452C30.4 40.2342 30.944 39.368 31.1544 38.3973C31.3647 37.4267 31.2281 36.413 30.7681 35.5327L33.2369 34.7095C33.386 34.6596 33.5157 34.5641 33.6076 34.4365C33.6995 34.3088 33.7489 34.1555 33.7489 33.9983C33.7489 33.841 33.6995 33.6877 33.6076 33.5601C33.5157 33.4324 33.386 33.3369 33.2369 33.287V33.2889ZM27 32.7889L30.6281 34.0002L27 35.2095L23.375 34.0002L27 32.7889ZM29.75 37.5002C29.7501 37.9273 29.6507 38.3486 29.4596 38.7306C29.2686 39.1127 28.9912 39.445 28.6494 39.7011C28.3076 39.9573 27.9108 40.1304 27.4905 40.2066C27.0702 40.2828 26.638 40.26 26.228 40.1401C25.818 40.0202 25.4416 39.8064 25.1286 39.5157C24.8157 39.225 24.5747 38.8655 24.4248 38.4655C24.275 38.0655 24.2203 37.6361 24.2653 37.2113C24.3102 36.7865 24.4535 36.378 24.6838 36.0183L26.7631 36.7114C26.9168 36.7631 27.0832 36.7631 27.2369 36.7114L29.3163 36.0183C29.5999 36.4605 29.7505 36.9748 29.75 37.5002Z" fill="#F40CC1"/>
</svg>
