<svg width="32" height="32" viewBox="0 0 32 32" fill="none" xmlns="http://www.w3.org/2000/svg">
<g clip-path="url(#clip0_3453_9732)">
<path d="M26.944 0H5.056C2.26365 0 0 2.26365 0 5.056V26.944C0 29.7364 2.26365 32 5.056 32H26.944C29.7364 32 32 29.7364 32 26.944V5.056C32 2.26365 29.7364 0 26.944 0Z" fill="#1A50A0"/>
<mask id="mask0_3453_9732" style="mask-type:luminance" maskUnits="userSpaceOnUse" x="0" y="0" width="32" height="32">
<path d="M26.944 0H5.056C2.26365 0 0 2.26365 0 5.056V26.944C0 29.7364 2.26365 32 5.056 32H26.944C29.7364 32 32 29.7364 32 26.944V5.056C32 2.26365 29.7364 0 26.944 0Z" fill="white"/>
</mask>
<g mask="url(#mask0_3453_9732)">
<path opacity="0.3" d="M-0.674316 34.5899C3.51555 33.6171 12.9748 30.8309 21.5977 22.4939C29.538 14.8181 32.7294 6.34452 33.9838 2.23999C34.594 13.248 35.1998 24.256 35.81 35.264L-0.67005 34.5899H-0.674316Z" fill="white"/>
</g>
<path d="M12.7404 1.93701H3.80176C2.65889 1.93701 1.73242 2.86348 1.73242 4.00635V12.945C1.73242 14.0879 2.65889 15.0143 3.80176 15.0143H12.7404C13.8833 15.0143 14.8098 14.0879 14.8098 12.945V4.00635C14.8098 2.86348 13.8833 1.93701 12.7404 1.93701Z" fill="#FFD400"/>
<path d="M28.2028 1.93701H19.2642C18.1213 1.93701 17.1948 2.86348 17.1948 4.00635V12.945C17.1948 14.0879 18.1213 15.0143 19.2642 15.0143H28.2028C29.3457 15.0143 30.2722 14.0879 30.2722 12.945V4.00635C30.2722 2.86348 29.3457 1.93701 28.2028 1.93701Z" fill="#02AD4B"/>
<path d="M12.7404 16.9856H3.80176C2.65889 16.9856 1.73242 17.9121 1.73242 19.0549V27.9936C1.73242 29.1365 2.65889 30.0629 3.80176 30.0629H12.7404C13.8833 30.0629 14.8098 29.1365 14.8098 27.9936V19.0549C14.8098 17.9121 13.8833 16.9856 12.7404 16.9856Z" fill="#EC1C24"/>
<path d="M28.2028 16.9856H19.2642C18.1213 16.9856 17.1948 17.9121 17.1948 19.0549V27.9936C17.1948 29.1365 18.1213 30.0629 19.2642 30.0629H28.2028C29.3457 30.0629 30.2722 29.1365 30.2722 27.9936V19.0549C30.2722 17.9121 29.3457 16.9856 28.2028 16.9856Z" fill="#8A4AA8"/>
<path d="M7.58202 19.7504L4.63375 21.9605H3.34521V22.9034V24.1792V25.1221H4.63375L7.58202 27.3322H8.23908V19.7504H7.58202Z" fill="white"/>
<path d="M9.33573 25.6596C9.20773 25.6596 9.09253 25.57 9.06266 25.442C9.02853 25.2927 9.1224 25.1434 9.276 25.1092C9.95866 24.9599 10.4536 24.2986 10.4536 23.5434C10.4536 22.7882 9.95866 22.1268 9.276 21.9775C9.12666 21.9434 9.02853 21.794 9.06266 21.6447C9.0968 21.4954 9.24613 21.3972 9.39546 21.4314C10.3341 21.6362 11.0125 22.5236 11.0125 23.5434C11.0125 24.5631 10.3341 25.4506 9.39546 25.6554C9.37413 25.6596 9.35706 25.6639 9.33573 25.6639V25.6596Z" fill="white"/>
<path d="M11.0638 26.5514C10.9358 26.5514 10.8206 26.4618 10.7907 26.3338C10.7566 26.1844 10.8547 26.0351 11.004 26.001C12.0878 25.7663 12.8728 24.7338 12.8728 23.5434C12.8728 22.353 12.0835 21.3162 10.9955 21.0858C10.8462 21.0516 10.748 20.9066 10.7822 20.753C10.812 20.6036 10.9528 20.5055 11.115 20.5396C12.459 20.8298 13.4318 22.0927 13.4318 23.5434C13.4318 24.994 12.459 26.2527 11.1235 26.5471C11.1022 26.5514 11.0851 26.5556 11.0638 26.5556V26.5514Z" fill="white"/>
<path d="M24.1069 19.5114H23.4499C22.9126 19.5114 22.4771 19.9469 22.4771 20.4842V23.3514C22.4771 23.8886 22.9126 24.3242 23.4499 24.3242H24.1069C24.6442 24.3242 25.0797 23.8886 25.0797 23.3514V20.4842C25.0797 19.9469 24.6442 19.5114 24.1069 19.5114Z" fill="white"/>
<path d="M25.8177 23.0228C25.7921 23.1551 25.7623 23.2831 25.7196 23.4068C25.6769 23.5306 25.6257 23.65 25.566 23.761C25.4423 23.9828 25.2844 24.1791 25.1009 24.3412L25.0327 24.401L24.9601 24.4564L24.8876 24.5076C24.862 24.5247 24.8364 24.5418 24.8108 24.5546C24.7084 24.6143 24.5975 24.6698 24.4865 24.7124C24.3756 24.7551 24.2604 24.7892 24.1409 24.8063C24.0257 24.8276 23.9063 24.8404 23.7868 24.8404C23.6673 24.8404 23.5479 24.8319 23.4327 24.8063C23.3132 24.785 23.198 24.7508 23.0871 24.7124C22.9761 24.6698 22.8652 24.6186 22.7628 24.5546C22.6604 24.4906 22.5623 24.4223 22.4684 24.3412C22.2849 24.1791 22.1271 23.9828 22.0033 23.761C21.9436 23.65 21.8924 23.5306 21.8497 23.4068C21.8071 23.2831 21.7772 23.1551 21.7516 23.0228C21.7047 23.2916 21.726 23.5732 21.8071 23.842C21.8881 24.1108 22.0332 24.3668 22.2252 24.5844C22.4172 24.802 22.6604 24.977 22.9292 25.0964C23.0615 25.1562 23.2065 25.1988 23.3473 25.233C23.4199 25.25 23.4967 25.2586 23.5692 25.2671V27.025C23.4028 27.0335 23.2407 27.0591 23.0743 27.0975C22.9548 27.1274 22.8396 27.1615 22.7201 27.2084C22.6604 27.234 22.6007 27.2554 22.5409 27.2852C22.4812 27.3151 22.4215 27.345 22.3617 27.3876L22.3489 27.3962C22.3489 27.3962 22.3404 27.4047 22.3404 27.4132C22.3404 27.426 22.3489 27.4346 22.3575 27.4346L22.7116 27.4431H23.0657C23.3004 27.4516 23.5393 27.4516 23.774 27.4559C24.0087 27.4559 24.2476 27.4559 24.4823 27.4516H24.8364L25.1905 27.4346C25.1948 27.4346 25.2033 27.4346 25.2076 27.426C25.2119 27.4175 25.2076 27.4047 25.2033 27.4004L25.1948 27.3919C25.1351 27.3492 25.0753 27.3194 25.0156 27.2895C24.9559 27.2596 24.8961 27.234 24.8364 27.2127C24.7169 27.1658 24.6017 27.1316 24.4823 27.1018C24.3159 27.0634 24.1537 27.042 23.9873 27.0292V25.2714C24.0641 25.2628 24.1367 25.2543 24.2092 25.2372C24.3543 25.2074 24.4951 25.1604 24.6273 25.1007C24.8961 24.9812 25.1393 24.8063 25.3313 24.5887C25.5233 24.3711 25.6684 24.1194 25.7495 23.8463C25.8305 23.5775 25.8519 23.2916 25.8049 23.0271L25.8177 23.0228Z" fill="white"/>
<path d="M13.4316 4.88526V11.409H13.0945C9.57455 11.409 8.83642 12.2154 8.72548 12.3733H8.05988C7.95748 12.2197 7.23215 11.409 3.68228 11.409H3.34521V4.88526H3.68228C3.82308 4.88526 3.95535 4.88526 4.08761 4.88952V4.43726H4.23695C7.11268 4.43726 8.07695 5.12419 8.38841 5.49539C8.69988 5.12419 9.66415 4.43726 12.5399 4.43726H12.6892V4.88952C12.8215 4.88952 12.9537 4.88526 13.0945 4.88526H13.4316ZM12.318 10.2997V4.81272C9.29722 4.85112 8.69561 5.67459 8.61028 5.82392V11.1189C9.10522 10.7519 10.1463 10.3295 12.318 10.2997ZM8.16655 11.1189V5.82392C8.08975 5.68739 7.50095 4.85539 4.45881 4.81699V10.3039C6.63055 10.3338 7.67161 10.7562 8.16655 11.1231V11.1189Z" fill="#1A50A0"/>
<path d="M12.3181 4.81274V10.2997C10.1464 10.3295 9.10528 10.7519 8.61035 11.1189V5.82394C8.69568 5.67461 9.29729 4.85114 12.3181 4.81274Z" fill="white"/>
<path d="M8.16672 5.82394V11.1189C7.67178 10.7519 6.63072 10.3295 4.45898 10.2997V4.81274C7.50112 4.85114 8.08992 5.68741 8.16672 5.81968V5.82394Z" fill="white"/>
<path d="M25.4125 7.3898V11.7077C25.4125 12.0746 25.1395 12.3818 24.8152 12.3818H19.5885C19.26 12.3818 18.9912 12.0789 18.9912 11.7077V5.11566C18.9912 4.74446 19.2643 4.44153 19.5885 4.44153H24.8152C25.1437 4.44153 25.4125 4.74019 25.4125 5.11566V7.39406V7.3898ZM24.9603 11.7077V5.11566C24.9603 4.98766 24.8792 4.88953 24.8152 4.88953H19.5885C19.5203 4.88953 19.4435 4.98766 19.4435 5.11566V11.7077C19.4435 11.8357 19.5245 11.9295 19.5885 11.9295H24.8152C24.8835 11.9295 24.9603 11.8399 24.9603 11.7077Z" fill="white"/>
<path d="M24.9602 8.09806V11.7077C24.9602 11.8357 24.8791 11.9295 24.8151 11.9295H19.5884C19.5202 11.9295 19.4434 11.8399 19.4434 11.7077V5.11566C19.4434 4.98766 19.5244 4.88953 19.5884 4.88953H24.8151C24.8834 4.88953 24.9602 4.98766 24.9602 5.11566V8.09806Z" fill="#00A14B"/>
<path d="M24.2178 5.86656H20.1816C20.0536 5.86656 19.9512 5.76416 19.9512 5.63616C19.9512 5.50816 20.0536 5.40576 20.1816 5.40576H24.2178C24.3458 5.40576 24.4482 5.50816 24.4482 5.63616C24.4482 5.76416 24.3458 5.86656 24.2178 5.86656Z" fill="white"/>
<path d="M24.2178 7.24901H20.1816C20.0536 7.24901 19.9512 7.14661 19.9512 7.01861C19.9512 6.89061 20.0536 6.78821 20.1816 6.78821H24.2178C24.3458 6.78821 24.4482 6.89061 24.4482 7.01861C24.4482 7.14661 24.3458 7.24901 24.2178 7.24901Z" fill="white"/>
<path d="M24.2178 8.63573H20.1816C20.0536 8.63573 19.9512 8.53333 19.9512 8.40533C19.9512 8.27733 20.0536 8.17493 20.1816 8.17493H24.2178C24.3458 8.17493 24.4482 8.27733 24.4482 8.40533C24.4482 8.53333 24.3458 8.63573 24.2178 8.63573Z" fill="white"/>
<path d="M24.2178 10.0181H20.1816C20.0536 10.0181 19.9512 9.91565 19.9512 9.78765C19.9512 9.65965 20.0536 9.55725 20.1816 9.55725H24.2178C24.3458 9.55725 24.4482 9.65965 24.4482 9.78765C24.4482 9.91565 24.3458 10.0181 24.2178 10.0181Z" fill="white"/>
<path d="M22.1996 11.4048H20.1772C20.0492 11.4048 19.9468 11.3024 19.9468 11.1744C19.9468 11.0464 20.0492 10.944 20.1772 10.944H22.1996C22.3276 10.944 22.43 11.0464 22.43 11.1744C22.43 11.3024 22.3276 11.4048 22.1996 11.4048Z" fill="white"/>
<path d="M23.6844 10.6112L27.7974 6.49812L28.2198 6.07999C28.382 5.91785 28.382 5.64905 28.2198 5.48692L27.4732 4.74025C27.311 4.57812 27.0422 4.57812 26.8801 4.74025L26.4577 5.16265L22.3446 9.27572H22.3404L22.2678 10.0181L22.1953 10.7648L22.942 10.6923L23.6886 10.6197H23.6844V10.6112Z" fill="white"/>
<path d="M27.1789 4.62076C27.2855 4.62076 27.3922 4.66343 27.4733 4.7445L28.2199 5.49116C28.3821 5.6533 28.3821 5.9221 28.2199 6.08423L27.7975 6.50663L23.6845 10.6154H23.6887L22.9421 10.6965L22.1954 10.769L22.2679 10.0224L22.3405 9.2757H22.3447L26.4578 5.17116L26.8802 4.74876C26.9613 4.6677 27.0679 4.62503 27.1746 4.62503M27.1789 4.46716C27.0253 4.46716 26.8802 4.5269 26.7735 4.63356L26.3511 5.05596C26.3511 5.05596 26.3383 5.06876 26.3341 5.0773L22.2765 9.1349C22.2295 9.1605 22.1954 9.20316 22.1911 9.25863L22.1186 10.0053L22.0461 10.752C22.0418 10.7989 22.0589 10.8458 22.0887 10.8757C22.1186 10.9056 22.157 10.9226 22.1997 10.9226C22.2039 10.9226 22.2082 10.9226 22.2167 10.9226L22.9634 10.8501L23.7101 10.7776C23.7655 10.7733 23.8082 10.7392 23.8338 10.6922L27.8914 6.63463C27.8914 6.63463 27.9085 6.62183 27.9127 6.61756L28.3351 6.19516C28.557 5.9733 28.557 5.60636 28.3351 5.3845L27.5885 4.63783C27.4818 4.53116 27.3367 4.47143 27.1831 4.47143L27.1789 4.46716Z" fill="white"/>
<path d="M26.2728 5.35253L22.5137 9.11169L23.8472 10.4452L27.6064 6.68603L26.2728 5.35253Z" fill="#1A50A0"/>
<path d="M26.854 5.90348L23.0586 9.69885L23.2637 9.90401L27.0591 6.10864L26.854 5.90348Z" fill="white"/>
<path d="M23.0188 9.94562L23.6929 10.6198L22.9462 10.6923L22.1953 10.7691L22.2721 10.0182L22.3446 9.27148L23.0188 9.94562Z" fill="#1A50A0"/>
<path d="M28.2197 6.07999C28.3818 5.91785 28.3818 5.64905 28.2197 5.48692L27.473 4.74025C27.3109 4.57812 27.0421 4.57812 26.8799 4.74025L26.4575 5.16265L27.7973 6.50239L28.2197 6.07999Z" fill="#1A50A0"/>
</g>
<defs>
<clipPath id="clip0_3453_9732">
<rect width="32" height="32" fill="white"/>
</clipPath>
</defs>
</svg>
