<svg version="1.0" xmlns="http://www.w3.org/2000/svg" width="25" height="25"
              viewBox="0 0 48.000000 72.000000" preserveAspectRatio="xMidYMid meet" class="m-auto">
              <g transform="translate(0.000000,72.000000) scale(0.100000,-0.100000)" fill="#555" stroke="none">
                <path
                  d="M202 709 c-39 -12 -72 -60 -72 -106 0 -17 -4 -35 -10 -38 -13 -8 -13 -58 1 -72 5 -5 9 -30 7 -54 -2 -35 -8 -46 -28 -56 -26 -13 -60 -49 -60 -64 0 -5 90 -9 200 -9 110 0 200 3 200 8 0 16 -33 53 -61 67 -25 14 -29 21 -29 60 0 24 4 47 10 50 6 3 10 19 10 35 0 16 -4 32 -10 35 -5 3 -10 20 -10 36 0 79 -70 130 -148 108z m89 -19 c10 -6 19 -15 19 -21 0 -6 -7 -6 -19 1 -11 5 -34 10 -51 10 -17 0 -40 -5 -51 -10 -12 -7 -19 -7 -19 -1 0 27 82 41 121 21z m-24 -127 c65 -29 80 -54 50 -85 -7 -7 -16 -21 -20 -31 -3 -9 -18 -22 -32 -29 -66 -30 -143 81 -105 153 14 26 34 24 107 -8z m-52 -155 c19 -8 31 -8 52 1 22 10 29 9 42 -4 15 -15 14 -17 -4 -31 -41 -30 -89 -30 -130 -1 -16 13 -17 17 -6 31 16 19 14 19 46 4z" />
                <path d="M228 448 c8 -8 17 -8 34 0 22 10 21 11 -11 11 -27 1 -32 -2 -23 -11z" />
                <path
                  d="M12 275 c-7 -14 18 -193 33 -233 6 -18 384 -18 390 1 3 6 13 59 23 115 16 89 17 106 5 118 -22 22 -438 21 -451 -1z m322 -45 c70 -26 66 -104 -8 -139 -92 -45 -207 -12 -230 66 -9 29 29 72 74 83 39 10 126 5 164 -10z" />
                <path d="M160 223 c-20 -7 -50 -34 -50 -45 0 -17 47 -7 68 15 32 34 25 46 -18 30z" />
                <path d="M240 223 c8 -4 29 -17 46 -30 31 -23 84 -32 84 -13 0 20 -65 50 -105 49 -22 0 -33 -3 -25 -6z" />
                <path d="M143 3 c54 -2 139 -2 190 0 51 1 7 3 -98 3 -104 0 -146 -2 -92 -3z" />
              </g>
            </svg>