<svg width="38" height="38" viewBox="0 0 38 38" fill="none" xmlns="http://www.w3.org/2000/svg">
<path fill-rule="evenodd" clip-rule="evenodd" d="M19 -8.30516e-07C8.50659 -1.2892e-06 1.2892e-06 8.50659 8.30516e-07 19C3.71835e-07 29.4934 8.50659 38 19 38C29.4934 38 38 29.4934 38 19C38 8.50659 29.4934 -3.71835e-07 19 -8.30516e-07ZM27.8125 17.8571C28.4683 17.8571 29 18.3688 29 19C29 19.6312 28.4683 20.1429 27.8125 20.1429L14.0544 20.1429L19.1522 25.049C19.6159 25.4953 19.6159 26.219 19.1522 26.6653C18.6884 27.1116 17.9366 27.1116 17.4728 26.6653L10.3478 19.8081C9.88406 19.3618 9.88406 18.6382 10.3478 18.1919L17.4728 11.3347C17.9366 10.8884 18.6884 10.8884 19.1522 11.3347C19.6159 11.781 19.6159 12.5047 19.1522 12.951L14.0544 17.8571L27.8125 17.8571Z" fill="white"/>
</svg>
