<svg width="38" height="38" viewBox="0 0 38 38" fill="none" xmlns="http://www.w3.org/2000/svg">
<path fill-rule="evenodd" clip-rule="evenodd" d="M19 -8.30516e-07C29.4934 -1.2892e-06 38 8.50659 38 19C38 29.4934 29.4934 38 19 38C8.50659 38 -3.71835e-07 29.4934 -8.30516e-07 19C-1.2892e-06 8.50659 8.50659 -3.71835e-07 19 -8.30516e-07ZM10.1875 17.8571C9.53166 17.8571 9 18.3688 9 19C9 19.6312 9.53166 20.1429 10.1875 20.1429L23.9456 20.1429L18.8478 25.049C18.3841 25.4953 18.3841 26.219 18.8478 26.6653C19.3116 27.1116 20.0634 27.1116 20.5272 26.6653L27.6522 19.8081C28.1159 19.3618 28.1159 18.6382 27.6522 18.1919L20.5272 11.3347C20.0634 10.8884 19.3116 10.8884 18.8478 11.3347C18.3841 11.781 18.3841 12.5047 18.8478 12.951L23.9456 17.8571L10.1875 17.8571Z" fill="white"/>
</svg>
