<svg width="38" height="38" viewBox="0 0 38 38" fill="none" xmlns="http://www.w3.org/2000/svg">
                <path fill-rule="evenodd" clip-rule="evenodd"
                  d="M38 19C38 29.4934 29.4934 38 19 38C8.50659 38 0 29.4934 0 19C0 8.50659 8.50659 0 19 0C29.4934 0 38 8.50659 38 19ZM20.1429 10.1875C20.1429 9.53166 19.6312 9 19 9C18.3688 9 17.8571 9.53166 17.8571 10.1875L17.8571 23.9456L12.951 18.8478C12.5047 18.3841 11.781 18.3841 11.3347 18.8478C10.8884 19.3116 10.8884 20.0634 11.3347 20.5272L18.1919 27.6522C18.6382 28.1159 19.3618 28.1159 19.8081 27.6522L26.6653 20.5272C27.1116 20.0634 27.1116 19.3116 26.6653 18.8478C26.219 18.3841 25.4953 18.3841 25.049 18.8478L20.1429 23.9456L20.1429 10.1875Z"
                  fill="#1C51E1" />
              </svg>