<svg width="29" height="23" viewBox="0 0 29 23" fill="none" xmlns="http://www.w3.org/2000/svg">
<path d="M28.4103 3.52992L25.4103 0.584917C25.0354 0.211272 24.5277 0.00146484 23.9984 0.00146484C23.4691 0.00146484 22.9614 0.211272 22.5865 0.584917L11.0003 12.0287L6.41403 7.57867C6.03838 7.20623 5.53048 6.99779 5.00149 6.99896C4.47251 7.00013 3.96554 7.21082 3.59153 7.58492L0.591535 10.5849C0.217127 10.9599 0.00683594 11.4681 0.00683594 11.998C0.00683594 12.5279 0.217127 13.0362 0.591535 13.4112L9.54403 22.4112C9.72976 22.5969 9.95026 22.7443 10.1929 22.8448C10.4356 22.9454 10.6957 22.9971 10.9584 22.9971C11.2211 22.9971 11.4812 22.9454 11.7239 22.8448C11.9666 22.7443 12.1871 22.5969 12.3728 22.4112L28.4165 6.36367C28.6026 6.17744 28.7501 5.9563 28.8506 5.71294C28.951 5.46957 29.0024 5.20877 29.0019 4.94549C29.0013 4.68222 28.9487 4.42164 28.8472 4.17872C28.7457 3.9358 28.5972 3.71532 28.4103 3.52992ZM10.9528 20.9999L2.00028 11.9999L5.00028 8.99992C5.00393 9.00293 5.00727 9.00628 5.01028 9.00992L10.304 14.1462C10.4909 14.329 10.742 14.4314 11.0034 14.4314C11.2649 14.4314 11.5159 14.329 11.7028 14.1462L24.0078 1.99992L27.0003 4.94992L10.9528 20.9999Z" fill="#4CBB17"/>
</svg>
