<svg width="32" height="32" viewBox="0 0 32 32" fill="none" xmlns="http://www.w3.org/2000/svg">
<path d="M9.07606 10.3826C9.00026 10.1999 8.98035 9.99877 9.01884 9.80475C9.05734 9.61073 9.1525 9.43248 9.29231 9.29255L15.2923 3.29255C15.3852 3.19958 15.4955 3.12582 15.6169 3.07549C15.7383 3.02517 15.8684 2.99927 15.9998 2.99927C16.1312 2.99927 16.2614 3.02517 16.3828 3.07549C16.5041 3.12582 16.6144 3.19958 16.7073 3.29255L22.7073 9.29255C22.8473 9.43241 22.9427 9.61066 22.9813 9.80475C23.02 9.99883 23.0002 10.2 22.9244 10.3828C22.8487 10.5657 22.7204 10.7219 22.5558 10.8318C22.3912 10.9416 22.1977 11.0002 21.9998 11.0001H9.99981C9.80203 11 9.6087 10.9413 9.44428 10.8314C9.27985 10.7215 9.15171 10.5653 9.07606 10.3826ZM21.9998 21.0001H9.99981C9.80192 20.9999 9.60842 21.0585 9.44383 21.1683C9.27924 21.2782 9.15094 21.4344 9.07519 21.6173C8.99944 21.8001 8.97963 22.0013 9.01828 22.1954C9.05693 22.3894 9.1523 22.5677 9.29231 22.7076L15.2923 28.7076C15.3852 28.8005 15.4955 28.8743 15.6169 28.9246C15.7383 28.9749 15.8684 29.0008 15.9998 29.0008C16.1312 29.0008 16.2614 28.9749 16.3828 28.9246C16.5041 28.8743 16.6144 28.8005 16.7073 28.7076L22.7073 22.7076C22.8473 22.5677 22.9427 22.3894 22.9813 22.1954C23.02 22.0013 23.0002 21.8001 22.9244 21.6173C22.8487 21.4344 22.7204 21.2782 22.5558 21.1683C22.3912 21.0585 22.1977 20.9999 21.9998 21.0001Z" fill="white"/>
</svg>
