<svg width="15" height="15" viewBox="0 0 15 15" fill="none" xmlns="http://www.w3.org/2000/svg">
<path d="M14.148 3.10199L11.898 0.851985C11.8457 0.799686 11.7837 0.758197 11.7154 0.729889C11.6471 0.701582 11.5739 0.687012 11.5 0.687012C11.4261 0.687012 11.3529 0.701582 11.2846 0.729889C11.2163 0.758197 11.1543 0.799686 11.102 0.851985L4.35203 7.60199C4.29981 7.65426 4.2584 7.71632 4.23017 7.7846C4.20194 7.85289 4.18744 7.92606 4.1875 7.99995V10.25C4.1875 10.3991 4.24676 10.5422 4.35225 10.6477C4.45774 10.7532 4.60082 10.8125 4.75 10.8125H7C7.07389 10.8125 7.14707 10.798 7.21535 10.7698C7.28364 10.7416 7.34569 10.7001 7.39797 10.6479L14.148 3.89792C14.2003 3.84568 14.2418 3.78364 14.2701 3.71536C14.2984 3.64707 14.3129 3.57388 14.3129 3.49995C14.3129 3.42603 14.2984 3.35284 14.2701 3.28455C14.2418 3.21626 14.2003 3.15423 14.148 3.10199ZM6.76727 9.68745H5.3125V8.23269L9.8125 3.73269L11.2673 5.18745L6.76727 9.68745ZM12.0625 4.39222L10.6077 2.93745L11.5 2.04519L12.9548 3.49995L12.0625 4.39222ZM13.75 7.99995V13.625C13.75 13.9233 13.6315 14.2095 13.4205 14.4204C13.2095 14.6314 12.9234 14.75 12.625 14.75H1.375C1.07663 14.75 0.790483 14.6314 0.579505 14.4204C0.368526 14.2095 0.25 13.9233 0.25 13.625V2.37495C0.25 2.07659 0.368526 1.79044 0.579505 1.57946C0.790483 1.36848 1.07663 1.24995 1.375 1.24995H7C7.14918 1.24995 7.29226 1.30922 7.39775 1.41471C7.50324 1.5202 7.5625 1.66327 7.5625 1.81245C7.5625 1.96164 7.50324 2.10471 7.39775 2.2102C7.29226 2.31569 7.14918 2.37495 7 2.37495H1.375V13.625H12.625V7.99995C12.625 7.85077 12.6843 7.7077 12.7898 7.60221C12.8952 7.49672 13.0383 7.43745 13.1875 7.43745C13.3367 7.43745 13.4798 7.49672 13.5852 7.60221C13.6907 7.7077 13.75 7.85077 13.75 7.99995Z" fill="white"/>
</svg>
